<svg xmlns="http://www.w3.org/2000/svg" width="35" height="35" viewBox="0 0 35 35">
  <g id="グループ_842" data-name="グループ 842" transform="translate(-174 -14271)">
    <rect id="長方形_568" data-name="長方形 568" width="35" height="35" rx="5" transform="translate(174 14271)" fill="#fff"/>
    <path id="パス_4548" data-name="パス 4548" d="M21.727,19.262l-.074.111A5.453,5.453,0,0,1,18.374,21.9a5.5,5.5,0,0,1-1.2.126c-1.827,0-5.69-.8-11.035-6.144C-.515,9.234-.153,4.833.116,3.642A5.447,5.447,0,0,1,2.644.365l.11-.073A1.632,1.632,0,0,1,3.689,0,1.658,1.658,0,0,1,5.077.734c.992,1.491,1.857,2.843,2.489,3.83l.126.2a1.885,1.885,0,0,1,.12,1.827c-.195.187-.608.528-.915.768a2.217,2.217,0,0,0-.6,3.295,16.884,16.884,0,0,0,2.1,2.68l.261.264a16.962,16.962,0,0,0,2.707,2.12,2.909,2.909,0,0,0,1.48.474,2.29,2.29,0,0,0,1.815-1.068c.241-.308.583-.722.769-.917a1.017,1.017,0,0,1,.685-.181,2.261,2.261,0,0,1,1.142.3l.243.156c.977.626,2.316,1.483,3.783,2.459a1.669,1.669,0,0,1,.444,2.322" transform="translate(181.491 14277.04)" fill="#eb9136"/>
  </g>
</svg>
