<svg xmlns="http://www.w3.org/2000/svg" width="24.273" height="23" viewBox="0 0 24.273 23">
  <path id="パス_5136" data-name="パス 5136" d="M540.647,1666.426a.257.257,0,0,1-.122-.062h0l0,0a.227.227,0,0,1-.063-.114l-.005-.045v-5.136a.235.235,0,0,1,.2-.226l.044,0h.872a.239.239,0,0,1,.238.188l0,.041v4.079h2.369a.239.239,0,0,1,.238.188l0,.041v.827a.235.235,0,0,1-.2.226l-.044,0h-3.484Zm4.4-.184,0-.041v-5.136a.241.241,0,0,1,.214-.226l.047,0h.94a.254.254,0,0,1,.257.188l0,.041v5.136a.24.24,0,0,1-.214.226l-.047,0h-.94a.255.255,0,0,1-.257-.189m5.987-5.177a.232.232,0,0,1,.193-.226l.043,0h.847a.235.235,0,0,1,.232.188l0,.041v5.136a.232.232,0,0,1-.193.226l-.043,0h-.847a.226.226,0,0,1-.06-.008h0l-.016,0-.007,0-.011,0-.006,0-.005,0-.006,0-.007,0-.007,0-.034-.027-.028-.032-2.417-3.182v3.05a.232.232,0,0,1-.194.226l-.042,0h-.848a.235.235,0,0,1-.232-.189l0-.041v-5.136a.232.232,0,0,1,.194-.226l.042,0h.891l.013,0,.008,0,.014,0,.008,0,.014.005.008,0,.006,0,.006,0,.006,0,.013.009.005,0a.115.115,0,0,1,.013.01l0,0,.014.015.011.013.01.012,2.414,3.179Zm2.018,5.3,0,0a.225.225,0,0,1-.063-.114l0-.045v-5.136a.221.221,0,0,1,.067-.158l0,0,0,0a.245.245,0,0,1,.121-.06l.047,0h3.484a.238.238,0,0,1,.238.188l0,.041v.827a.233.233,0,0,1-.2.226l-.044,0H554.34v.868h2.369a.237.237,0,0,1,.238.188l0,.041v.827a.233.233,0,0,1-.2.226l-.044,0H554.34v.868h2.369a.237.237,0,0,1,.238.188l0,.041v.827a.234.234,0,0,1-.2.226l-.044,0h-3.484a.252.252,0,0,1-.169-.066m-16.571-3.194c0,4.842,4.318,8.9,10.149,9.664.4.084.934.259,1.07.595a2.462,2.462,0,0,1,.039,1.091s-.142.852-.173,1.034c-.053.305-.244,1.193,1.051.65a39.181,39.181,0,0,0,9.535-7.007,8.69,8.69,0,0,0,2.6-6.026c0-5.4-5.445-9.794-12.136-9.794s-12.136,4.394-12.136,9.794" transform="translate(-536.485 -1653.376)" fill="#fff"/>
</svg>
