<svg xmlns="http://www.w3.org/2000/svg" xmlns:xlink="http://www.w3.org/1999/xlink" width="87" height="87" viewBox="0 0 87 87">
  <defs>
    <clipPath id="clip-path">
      <rect id="長方形_183" data-name="長方形 183" width="16.047" height="60.232" fill="#fff"/>
    </clipPath>
  </defs>
  <g id="グループ_6585" data-name="グループ 6585" transform="translate(-129 -8146.307)">
    <circle id="楕円形_850" data-name="楕円形 850" cx="43.5" cy="43.5" r="43.5" transform="translate(129 8146.307)" fill="#009b8e"/>
    <g id="グループ_419" data-name="グループ 419" transform="translate(180.414 8159.265) rotate(30)">
      <g id="グループ_418" data-name="グループ 418" transform="translate(0 0)" clip-path="url(#clip-path)">
        <path id="パス_4091" data-name="パス 4091" d="M14.477,11.8H10.555V4.119h1.33A2.363,2.363,0,0,0,14.46,2.06c0-.95-.708-2.06-2.7-2.06H4.291c-2,0-2.7,1.109-2.7,2.06a2.363,2.363,0,0,0,2.574,2.06h1.33V11.8H1.57c-.587,0-1.57,0-1.57,1.46v1.322a1.386,1.386,0,0,0,1.459,1.338H2.832V38.953a3.312,3.312,0,0,0,1.113,2.5,4.609,4.609,0,0,0,2.48.9v1.382l1.083.961V59.717a.515.515,0,1,0,1.03,0V44.693l1.083-.961V42.351a4.609,4.609,0,0,0,2.48-.9,3.312,3.312,0,0,0,1.113-2.5V15.918h1.373a1.386,1.386,0,0,0,1.459-1.338V13.258c0-1.46-.983-1.46-1.57-1.46M2.617,2.06c0-.645.626-1.03,1.674-1.03h7.465c1.048,0,1.674.385,1.674,1.03,0,.487-.634,1.03-1.545,1.03H4.162c-.91,0-1.545-.543-1.545-1.03m3.9,2.06h3V11.8h-3Zm5.664,34.86a2.3,2.3,0,0,1-.732,1.672,5.467,5.467,0,0,1-3.43.736,5.467,5.467,0,0,1-3.43-.736,2.3,2.3,0,0,1-.732-1.673c0-.006,0-.012,0-.018V34.84H7.594a.515.515,0,0,0,0-1.03H3.862V30.979H7.594a.515.515,0,0,0,0-1.03H3.862V27.117H7.594a.515.515,0,1,0,0-1.03H3.862V23.255H7.594a.515.515,0,1,0,0-1.03H3.862V19.308H7.594a.515.515,0,1,0,0-1.03H3.862v-2.36h8.324V38.961c0,.006,0,.012,0,.018m2.831-24.4c0,.1-.1.308-.429.308H1.459c-.324,0-.429-.208-.429-.308V13.258a.833.833,0,0,1,.055-.392,1.68,1.68,0,0,1,.486-.038H14.477a1.817,1.817,0,0,1,.481.034s.059.077.059.4Z" transform="translate(0 0)" fill="#fff"/>
      </g>
    </g>
  </g>
</svg>
