<svg xmlns="http://www.w3.org/2000/svg" width="75" height="75" viewBox="0 0 75 75">
  <g id="グループ_7287" data-name="グループ 7287" transform="translate(-158 -747)">
    <g id="グループ_6890" data-name="グループ 6890" transform="translate(30 7)">
      <circle id="楕円形_850" data-name="楕円形 850" cx="37.5" cy="37.5" r="37.5" transform="translate(128 740)" fill="#00a384"/>
    </g>
    <g id="グループ_6917" data-name="グループ 6917" transform="translate(0 -2)">
      <path id="Icon_ionic-ios-hand" data-name="Icon ionic-ios-hand" d="M27.766,8.248A1.472,1.472,0,0,0,26.283,9.7v7.692a.626.626,0,0,1-1.252,0V6.04a1.484,1.484,0,0,0-2.967,0v8.916a.626.626,0,0,1-1.252,0V4.823a1.484,1.484,0,0,0-2.967,0V16.172a.626.626,0,0,1-1.252,0V7.256a1.484,1.484,0,0,0-2.967,0V22.605l-1.955-1.659c-1.835-1.6-3.389-2.278-4.655-1.1-.851.83.485,2.173,1.884,3.741,1.35,1.512,4.922,6.462,7.966,8.248a5.489,5.489,0,0,0,2.855.8h4.022c3.241,0,5.512-2.665,5.512-6.553V9.7A1.483,1.483,0,0,0,27.766,8.248Z" transform="translate(175 768.125)" fill="#deeae7"/>
      <g id="楕円形_873" data-name="楕円形 873" transform="translate(173 764)" fill="none" stroke="#fff" stroke-width="2">
        <circle cx="22.5" cy="22.5" r="22.5" stroke="none"/>
        <circle cx="22.5" cy="22.5" r="21.5" fill="none"/>
      </g>
      <line id="線_286" data-name="線 286" x2="30" y2="30" transform="translate(180.5 771.5)" fill="none" stroke="#fff" stroke-width="2"/>
    </g>
  </g>
</svg>
