<svg id="グループ_7291" data-name="グループ 7291" xmlns="http://www.w3.org/2000/svg" width="34" height="34" viewBox="0 0 34 34">
  <ellipse id="楕円形_63" data-name="楕円形 63" cx="17" cy="17" rx="17" ry="17" transform="translate(0)" fill="#fff"/>
  <path id="Icon_awesome-external-link-alt" data-name="Icon awesome-external-link-alt" d="M12.917.538v2.87A.539.539,0,0,1,12,3.789l-.8-.8L5.736,8.449a.538.538,0,0,1-.761,0l-.507-.507a.538.538,0,0,1,0-.761L9.929,1.719l-.8-.8A.539.539,0,0,1,9.509,0h2.87A.538.538,0,0,1,12.917.538ZM9.128,6.073l-.359.359a.538.538,0,0,0-.158.381v3.235H1.435V2.87h5.92a.538.538,0,0,0,.381-.158l.359-.359a.538.538,0,0,0-.381-.919H1.076A1.076,1.076,0,0,0,0,2.512v7.894a1.076,1.076,0,0,0,1.076,1.076H8.97a1.076,1.076,0,0,0,1.076-1.076V6.453A.538.538,0,0,0,9.128,6.073Z" transform="translate(12.337 11.259)" fill="#00a384"/>
</svg>
