<svg xmlns="http://www.w3.org/2000/svg" width="75" height="75" viewBox="0 0 75 75">
  <g id="グループ_6890" data-name="グループ 6890" transform="translate(-128 -740)">
    <circle id="楕円形_850" data-name="楕円形 850" cx="37.5" cy="37.5" r="37.5" transform="translate(128 740)" fill="#00a384"/>
    <path id="Icon_material-lightbulb-outline" data-name="Icon material-lightbulb-outline" d="M13.255,30.336a1.443,1.443,0,0,0,1.439,1.439h5.755a1.443,1.443,0,0,0,1.439-1.439V28.9H13.255ZM17.571,3a10.067,10.067,0,0,0-5.755,18.33v3.252a1.443,1.443,0,0,0,1.439,1.439h8.633a1.443,1.443,0,0,0,1.439-1.439V21.33A10.067,10.067,0,0,0,17.571,3Zm4.1,15.97-1.223.863v3.309H14.694V19.833l-1.223-.863a7.194,7.194,0,1,1,8.2,0Z" transform="translate(147.929 760.112)" fill="#fff"/>
  </g>
</svg>
