<svg xmlns="http://www.w3.org/2000/svg" width="29" height="29" viewBox="0 0 29 29">
  <g id="グループ_6771" data-name="グループ 6771" transform="translate(-113 -12811)">
    <rect id="長方形_465" data-name="長方形 465" width="29" height="29" rx="5" transform="translate(113 12811)" fill="#eaf2f0"/>
    <path id="パス_4535" data-name="パス 4535" d="M14.983,13.284l-.051.076A3.761,3.761,0,0,1,12.671,15.1a3.793,3.793,0,0,1-.831.087c-1.26,0-3.924-.551-7.61-4.237C-.355,6.368-.106,3.333.08,2.512A3.756,3.756,0,0,1,1.823.252L1.9.2A1.125,1.125,0,0,1,2.544,0,1.144,1.144,0,0,1,3.5.506c.684,1.028,1.281,1.96,1.717,2.641l.087.135a1.3,1.3,0,0,1,.083,1.26c-.134.129-.419.364-.631.53a1.529,1.529,0,0,0-.411,2.272A11.643,11.643,0,0,0,5.791,9.193l.18.182a11.7,11.7,0,0,0,1.867,1.462,2.006,2.006,0,0,0,1.021.327,1.579,1.579,0,0,0,1.251-.736c.166-.212.4-.5.53-.632a.7.7,0,0,1,.473-.125,1.559,1.559,0,0,1,.787.208l.168.107c.674.432,1.6,1.023,2.609,1.7a1.151,1.151,0,0,1,.306,1.6" transform="translate(120.872 12817.905)" fill="#00a384"/>
  </g>
</svg>
