<svg xmlns="http://www.w3.org/2000/svg" width="31" height="31" viewBox="0 0 31 31">
  <g id="グループ_842" data-name="グループ 842" transform="translate(-218 -14275)">
    <rect id="長方形_568" data-name="長方形 568" width="31" height="31" rx="5" transform="translate(218 14275)" fill="#fff"/>
    <path id="パス_4548" data-name="パス 4548" d="M15.974,14.162l-.055.082A4.009,4.009,0,0,1,13.509,16.1a4.044,4.044,0,0,1-.886.093c-1.343,0-4.184-.587-8.113-4.517C-.379,6.789-.113,3.554.085,2.678A4,4,0,0,1,1.944.268L2.024.214A1.2,1.2,0,0,1,2.712,0,1.219,1.219,0,0,1,3.733.54c.729,1.1,1.365,2.09,1.83,2.816l.092.144a1.386,1.386,0,0,1,.088,1.343c-.143.137-.447.388-.673.565a1.63,1.63,0,0,0-.438,2.422A12.414,12.414,0,0,0,6.174,9.8L6.366,10a12.471,12.471,0,0,0,1.99,1.558,2.139,2.139,0,0,0,1.088.349,1.683,1.683,0,0,0,1.334-.785c.177-.226.428-.531.565-.674a.748.748,0,0,1,.5-.133,1.662,1.662,0,0,1,.839.222l.179.115c.718.46,1.7,1.091,2.781,1.808a1.227,1.227,0,0,1,.326,1.707" transform="translate(226.228 14282.443)" fill="#009b8e"/>
  </g>
</svg>
