<svg xmlns="http://www.w3.org/2000/svg" xmlns:xlink="http://www.w3.org/1999/xlink" width="151.606" height="143.58" viewBox="0 0 151.606 143.58">
  <defs>
    <clipPath id="clip-path">
      <rect id="長方形_2266" data-name="長方形 2266" width="151.606" height="143.58" transform="translate(853 1410)" fill="#262928" stroke="#707070" stroke-width="1"/>
    </clipPath>
    <clipPath id="clip-path-2">
      <rect id="長方形_2923" data-name="長方形 2923" width="90.993" height="143.58" fill="none"/>
    </clipPath>
    <clipPath id="clip-path-3">
      <rect id="長方形_2922" data-name="長方形 2922" width="90.993" height="143.58" fill="#262928"/>
    </clipPath>
    <clipPath id="clip-path-4">
      <rect id="長方形_2920" data-name="長方形 2920" width="8.085" height="57.42" fill="#e5923e"/>
    </clipPath>
    <clipPath id="clip-path-5">
      <rect id="長方形_2921" data-name="長方形 2921" width="18.154" height="52.311" fill="#e5923e"/>
    </clipPath>
  </defs>
  <g id="グループ_5868" data-name="グループ 5868" transform="translate(-853 -1410)">
    <path id="パス_5275" data-name="パス 5275" d="M-10800.963,3722.136l-1.479-4.015,8.9-17.68,6.519-11.9h65.343l-22.187,38.362-23.066-1.283.866-3.484-4.259-5.966-.9-5.35-9.813,10.107Z" transform="translate(11694 -2278)" fill="#fff"/>
    <g id="マスクグループ_338" data-name="マスクグループ 338" clip-path="url(#clip-path)">
      <g id="グループ_5798" data-name="グループ 5798" transform="translate(883 1410)">
        <g id="グループ_5797" data-name="グループ 5797" clip-path="url(#clip-path-2)">
          <g id="グループ_5796" data-name="グループ 5796">
            <g id="グループ_5795" data-name="グループ 5795" clip-path="url(#clip-path-3)">
              <path id="パス_5240" data-name="パス 5240" d="M13.746,110.561a.755.755,0,0,1-.72-.528c-.218-.685.371-1.311,1.749-1.862a5.65,5.65,0,0,1,2.784-.211,3.377,3.377,0,0,0,.875.034,5.726,5.726,0,0,1,.6-.2,20.94,20.94,0,0,0,3.351-1.353c3.094-1.432,7.871-6.575,8.772-8.98.662-1.764-1.118-9.418-2.4-13.827-.6-2.3-2.541-8.179-4.783-14.983C17.709,49.614,12.535,33.566,12.765,30c.172-2.662,5.134-12.555,14.748-29.4a.757.757,0,0,1,1.314.75C16.371,23.174,14.363,28.728,14.274,30.1c-.23,3.566,6.615,24.337,11.143,38.082,2.343,7.109,4.193,12.724,4.8,15.053.347,1.2,3.409,11.949,2.354,14.762-1.123,2.992-6.3,8.316-9.554,9.821a22.048,22.048,0,0,1-3.573,1.436A4.092,4.092,0,0,0,19,109.4a3.324,3.324,0,0,1-1.6.065,4.306,4.306,0,0,0-2.06.112,3.5,3.5,0,0,0-.866.447.754.754,0,0,1-.5.5.746.746,0,0,1-.229.036m.727-.964h0m0,0v0m0,0v0m0,0v0m0,0v0m0,0v0m0,0v0m0,0v0" transform="translate(-4.368 -0.073)" fill="#262928"/>
              <path id="パス_5241" data-name="パス 5241" d="M8.632,168.7a.757.757,0,0,1-.534-1.293l.047-.076a2.984,2.984,0,0,1,2.356-1.586,12.175,12.175,0,0,1,3.313.186.756.756,0,0,1-.308,1.481,10.775,10.775,0,0,0-2.838-.164,1.491,1.491,0,0,0-1.228.864,1.316,1.316,0,0,1-.389.462.75.75,0,0,1-.419.127" transform="translate(-2.696 -56.734)" fill="#262928"/>
              <path id="パス_5242" data-name="パス 5242" d="M5.113,171.4a.757.757,0,0,1-.756-.756A2.837,2.837,0,0,1,6.9,167.882c.755-.116,4.171-.338,4.315-.348a.765.765,0,0,1,.8.706.756.756,0,0,1-.706.8c-.969.063-3.611.246-4.184.334a1.328,1.328,0,0,0-1.259,1.263.757.757,0,0,1-.756.756" transform="translate(-1.492 -57.363)" fill="#262928"/>
              <path id="パス_5243" data-name="パス 5243" d="M2.618,174.075a.753.753,0,0,1-.712-.5,2.428,2.428,0,0,1,.06-1.864c.493-.844,2.1-1.3,4.9-1.859l.383-.076c1.369-.277,3.281-.539,3.362-.551a.756.756,0,0,1,.206,1.5c-.02,0-1.947.268-3.268.535l-.389.078c-.869.172-3.512.7-3.9,1.157a1.375,1.375,0,0,0,.074.585.759.759,0,0,1-.468.96.782.782,0,0,1-.249.041" transform="translate(-0.597 -57.939)" fill="#262928"/>
              <path id="パス_5244" data-name="パス 5244" d="M4.416,131.283a5.461,5.461,0,0,1-.923-.082c-1.284-.221-2.555-.558-3.159-1.519a2.686,2.686,0,0,1-.172-2.258c.283-.99,1.559-1.342,2.792-1.683a5.862,5.862,0,0,0,1.376-.481c.65-.591,1.883-.751,3.444-.953.659-.085,1.34-.174,1.953-.3a4.65,4.65,0,0,0,2.188-.89.764.764,0,0,1,1.064-.006.749.749,0,0,1,.029,1.051,5.666,5.666,0,0,1-2.98,1.327c-.666.135-1.375.228-2.06.316a8.178,8.178,0,0,0-2.621.572,5.1,5.1,0,0,1-1.991.821,5.344,5.344,0,0,0-1.756.676c-.189.679-.036.922.014,1,.22.35.919.623,2.135.832a2.76,2.76,0,0,0,2.379-.542,1.888,1.888,0,0,1,.854-.408,6.057,6.057,0,0,0,.957-.227l.184-.061.191.034a8.633,8.633,0,0,1,1.6.473c.966.362,2.062.768,5.542.714a12.05,12.05,0,0,0,5.783-1.933,16.329,16.329,0,0,1,8.087-2.473c1.81-.026,3.329,0,4.67.014,3.356.047,5.385.077,7.374-.708,2.941-1.158,4.727-2.676,3.882-6.318a8.126,8.126,0,0,0-1.719-3.569,12.323,12.323,0,0,1-2.551-6.077c-.386-2.079-.822-7.672-1.373-14.753-1.09-14-2.584-33.187-4.735-37.957-4.239-9.4-4.954-11.2-4.781-12.066.051-.255.187-.935,9.132-10.122a.756.756,0,0,1,1.084,1.055c-3.865,3.97-8.148,8.527-8.73,9.418.091.934,2.42,6.1,4.674,11.1s3.765,24.344,4.865,38.46c.525,6.757.98,12.593,1.352,14.593a10.893,10.893,0,0,0,2.273,5.445,9.619,9.619,0,0,1,1.983,4.136c1.163,5.016-1.954,6.946-4.8,8.067-2.267.893-4.527.862-7.95.813-1.331-.018-2.838-.038-4.628-.015a14.866,14.866,0,0,0-7.389,2.292,13.577,13.577,0,0,1-6.475,2.114c-3.76.068-5.006-.4-6.1-.81a7.659,7.659,0,0,0-1.163-.366,7.319,7.319,0,0,1-1,.224,2.174,2.174,0,0,0-.224.151,4.178,4.178,0,0,1-2.582.878" transform="translate(0 -11.471)" fill="#262928"/>
              <path id="パス_5245" data-name="パス 5245" d="M54.884,150.483a.757.757,0,0,1-.756-.756,6.479,6.479,0,0,1,1.088-3.295c.654-.961.608-1.935.1-4.785-.532-3.018,0-4.26.062-4.391a.756.756,0,0,1,1.374.631,7.352,7.352,0,0,0,.055,3.5c.5,2.816.707,4.357-.346,5.9a5,5,0,0,0-.824,2.442.757.757,0,0,1-.757.756" transform="translate(-18.533 -46.848)" fill="#262928"/>
              <path id="パス_5246" data-name="パス 5246" d="M78.835,38.608c-1.952,0-3.3-3.518-3.8-5.717-.148-.646-.311-1.5-.5-2.49-.276-1.447-.621-3.26-1.076-5.211-.717,2.156-1.684,3.938-2.918,3.867a2.062,2.062,0,0,1-1.652-.842c-.688-1.01-.223-2.5.187-3.817a10.051,10.051,0,0,0,.339-1.253,17.564,17.564,0,0,1,.679-2.515,11.375,11.375,0,0,0,.671-2.755C70.762,14,72.05,9.948,74.7,5.486c.084-.141.406-.892,1.03-4.641a.756.756,0,1,1,1.492.249c-.638,3.83-.988,4.772-1.222,5.165-2.507,4.222-3.725,8.021-3.725,11.616a11.832,11.832,0,0,1-.744,3.217,16.689,16.689,0,0,0-.624,2.28,10.756,10.756,0,0,1-.391,1.478c-.246.788-.658,2.109-.381,2.515a.654.654,0,0,0,.458.18c.548-.314,1.545-2.838,2.156-5.474l.669-2.894.8,2.862c.838,3.019,1.4,5.945,1.8,8.081.185.975.347,1.815.489,2.434.677,2.941,1.938,4.642,2.367,4.538a.289.289,0,0,0,.074-.024,9.278,9.278,0,0,0-.645-2.519c-.155-.469-.322-.98-.49-1.533a32.594,32.594,0,0,1-1.022-7.61c-.028-.547-.052-1.032-.084-1.43a.9.9,0,0,1,1.722-.454,27.825,27.825,0,0,0,4.4,6.254c3.431,3.433,4.685,3.907,5.058,3.955a17.736,17.736,0,0,0-2.68-3.48c-.852-.961-1.733-1.954-2.386-2.857-1.712-2.373-2.567-4.516-2.23-5.593a1.053,1.053,0,0,1,.651-.708c.533-.186.934-.152,3.014,2.672A34.247,34.247,0,0,1,86.871,27.8c1.545,3.087,2.257,3.85,2.566,4,.633-.539-.312-2.307-1.342-4.08-.31-.534-.721-1.21-1.162-1.934-2.559-4.2-3.043-5.186-2.877-5.831a.849.849,0,0,1,.4-.529c.722-.415,1.018-.02,2.943,2.552,1.067,1.426,3.206,4.286,4.1,4.865.1-.776-1.5-3.287-2.209-4.393l-.4-.637c-1.213-1.927-4.455-8.4-4.455-9.8,0-.212,0-.609,2.588-11.228a.756.756,0,1,1,1.469.358c-2.159,8.861-2.522,10.633-2.546,10.9.04.82,2.8,6.709,4.223,8.966l.4.629c1.651,2.586,2.787,4.516,2.357,5.8a1.485,1.485,0,0,1-.928.941c-.679.254-1.423-.157-2.63-1.487l.045.075c1.207,2.078,2.859,4.924.733,6.192a1.259,1.259,0,0,1-.8.177,1.361,1.361,0,0,1-.291,1.485c-1.134,1.129-3.029-.276-3.742-.8a33.5,33.5,0,0,1-3.546-3.173,28.964,28.964,0,0,1-3.4-4.383,27.222,27.222,0,0,0,.9,6.112c.165.541.33,1.042.481,1.5.582,1.771.966,2.941.493,3.771a1.506,1.506,0,0,1-1.032.721,1.675,1.675,0,0,1-.366.04m3.7-14.6a15.356,15.356,0,0,0,1.507,2.5c.352.488.789,1.018,1.255,1.559A39.116,39.116,0,0,0,82.537,24M70.646,27.549h0Zm7.569-3.7v0Z" transform="translate(-23.466 -0.072)" fill="#262928"/>
              <path id="パス_5247" data-name="パス 5247" d="M63.185,35.027a.753.753,0,0,1-.648-.367c-.437-.725-4.272-7.149-4.362-9.283a79.084,79.084,0,0,1,.936-8.314c.316-2.271.616-4.414.649-5.177-.016-.32-.457-2.163-3.227-10.683A.756.756,0,0,1,57.972.736c3.34,10.275,3.314,10.887,3.3,11.216-.036.834-.326,2.913-.662,5.32-.431,3.093-.969,6.943-.922,8.043.055,1.318,2.572,5.953,4.146,8.565a.756.756,0,0,1-.647,1.147" transform="translate(-19.344 -0.073)" fill="#262928"/>
              <path id="パス_5248" data-name="パス 5248" d="M76.5,8.081a.755.755,0,0,1-.737-.589L74.318,1.137A.756.756,0,1,1,75.792.8l1.446,6.355a.756.756,0,0,1-.569.9.782.782,0,0,1-.168.019" transform="translate(-25.44 -0.073)" fill="#262928"/>
              <path id="パス_5249" data-name="パス 5249" d="M62.28,157.3a5.846,5.846,0,0,1-.586-.03,2.605,2.605,0,0,1-2.208-1.349,3.555,3.555,0,0,1,.21-3.218c.528-.95,2.807-3.112,5.507-5.629.561-.522,1.038-.967,1.345-1.265l.1-.1a30.941,30.941,0,0,0,4.378-4.884c.423-.677,1.219-1.717,2.142-2.921a42.991,42.991,0,0,0,4.1-5.945c1.053-2.264,1.68-8.988,1.727-9.514,0-5.256-1.175-9.817-2.946-16.712-1.239-4.827-2.781-10.835-4.38-18.938-2.315-11.738-5.3-22.748-6.9-28.663-.858-3.166-1.207-4.469-1.238-4.9-.189-2.75,2.132-10.062,2.231-10.372a.756.756,0,1,1,1.441.46c-.649,2.035-2.3,7.764-2.162,9.808.028.328.566,2.313,1.189,4.612,1.607,5.932,4.6,16.976,6.926,28.765,1.59,8.061,3.127,14.045,4.361,18.855,1.8,7.021,2.994,11.659,2.994,17.121l0,.065c-.026.3-.663,7.468-1.865,10.053a42.724,42.724,0,0,1-4.271,6.226c-.9,1.173-1.675,2.187-2.06,2.8A32.02,32.02,0,0,1,67.7,146.8l-.1.1c-.313.3-.8.754-1.366,1.284-1.664,1.551-4.762,4.438-5.217,5.257a2.1,2.1,0,0,0-.191,1.783c.06.115.243.465,1.021.544a3.679,3.679,0,0,0,2.825-.821.757.757,0,0,1,1.06,1.08A5.13,5.13,0,0,1,62.28,157.3" transform="translate(-20.265 -14.496)" fill="#262928"/>
              <path id="パス_5250" data-name="パス 5250" d="M94.222,138.852a6.114,6.114,0,0,1-1-.077.757.757,0,0,1,.27-1.489,4.567,4.567,0,0,0,1.785-.079c1.335-.387,2.322-1.532,3.822-3.37.316-.387.692-.881,1.111-1.429,1.7-2.223,4.024-5.269,5.968-6.1a4.245,4.245,0,0,0,2.425-3.843c.046-1.74-.867-3.957-1.925-6.525-1.4-3.4-2.987-7.254-2.987-11.421,0-1.542.057-4.046.129-7.216.266-11.8.713-31.543-.8-41.093-1.457-9.163-3.681-14.2-4.57-15.936a2.888,2.888,0,0,1,.093-2.8c2.968-5.027,13.288-22.56,21.455-37.091a.756.756,0,1,1,1.319.74c-8.175,14.545-18.5,32.088-21.472,37.12a1.381,1.381,0,0,0-.047,1.339c1.145,2.239,3.28,7.347,4.717,16.387,1.538,9.684,1.09,29.516.823,41.364-.072,3.161-.128,5.657-.128,7.182,0,3.868,1.527,7.575,2.873,10.845,1.123,2.726,2.093,5.081,2.038,7.108a5.743,5.743,0,0,1-3.341,5.225c-1.578.676-3.855,3.658-5.361,5.63-.43.562-.817,1.07-1.142,1.467-1.691,2.071-2.842,3.365-4.573,3.866a5.353,5.353,0,0,1-1.475.192" transform="translate(-31.706 0)" fill="#262928"/>
              <path id="パス_5251" data-name="パス 5251" d="M70.438,214.432a5.505,5.505,0,0,1-1.674-.273,1.728,1.728,0,0,1-1-1.009,3.174,3.174,0,0,1,.128-2.506c.487-1.019,1.372-2.833,1.372-2.833l1.359.662s-.882,1.808-1.367,2.823a1.39,1.39,0,0,0,.012,1.436,3.214,3.214,0,0,0,1.666.122.736.736,0,0,1,1.05.076.773.773,0,0,1-.08,1.08,2.219,2.219,0,0,1-1.466.422" transform="translate(-23.134 -71.154)" fill="#262928"/>
              <path id="パス_5252" data-name="パス 5252" d="M74.518,214.26a1.946,1.946,0,0,1-1.279-.41c-.859-.719-.927-1.868-.2-3.412.336-.714,1.38-3.494,1.39-3.523a.757.757,0,1,1,1.417.532c-.045.116-1.076,2.865-1.438,3.635-.274.581-.53,1.33-.2,1.607.274.233,1.653-.2,2.021-.516a.762.762,0,0,1,1.067.079.752.752,0,0,1-.07,1.06,4.983,4.983,0,0,1-2.709.946" transform="translate(-24.838 -70.68)" fill="#262928"/>
              <path id="パス_5253" data-name="パス 5253" d="M79.835,213.515a3.178,3.178,0,0,1-.52-.039,1.259,1.259,0,0,1-.963-.6,5.1,5.1,0,0,1-.068-3.189,21.061,21.061,0,0,1,1.62-3.544.756.756,0,0,1,1.32.738,19.806,19.806,0,0,0-1.474,3.174A4.686,4.686,0,0,0,79.628,212,3.855,3.855,0,0,0,82,211.3a3.571,3.571,0,0,0,.982-1.288.761.761,0,0,1,.949-.484.751.751,0,0,1,.5.932,4.783,4.783,0,0,1-1.409,1.959,5.185,5.185,0,0,1-3.183,1.1m-.152-1.36h0Z" transform="translate(-26.729 -70.45)" fill="#262928"/>
              <path id="パス_5254" data-name="パス 5254" d="M87.507,210.985a1.591,1.591,0,0,1-1.2-.47,2.537,2.537,0,0,1-.357-2.669c.045-.172.092-.354.135-.546a22.092,22.092,0,0,1,1.052-2.907.756.756,0,1,1,1.386.6,20.263,20.263,0,0,0-.961,2.626c-.047.212-.1.414-.149.6-.208.8-.233,1.007,0,1.253a3.012,3.012,0,0,0,2.308-1.545c.535-1.07.656-1.332.68-1.386a.745.745,0,0,1,.785-.486.756.756,0,0,1,.676.829c-.016.165-.018.183-.788,1.721a4.674,4.674,0,0,1-3.21,2.344,2.483,2.483,0,0,1-.356.027" transform="translate(-29.357 -69.829)" fill="#262928"/>
              <path id="パス_5255" data-name="パス 5255" d="M106.6,171.983a.774.774,0,0,1-.154-.016.757.757,0,0,1-.587-.894c.007-.034.69-3.336.834-4.2.063-.379.063-.379-.191-.921-.135-.288-.318-.679-.555-1.263-.783-1.927-.936-6.831-.943-7.038a.756.756,0,1,1,1.512-.045c.041,1.34.268,5.124.833,6.514.224.55.4.917.523,1.189a2.447,2.447,0,0,1,.313,1.811c-.149.892-.817,4.121-.845,4.258a.756.756,0,0,1-.74.6" transform="translate(-35.955 -53.713)" fill="#262928"/>
              <g id="グループ_5791" data-name="グループ 5791" transform="translate(74.551 39.689)">
                <g id="グループ_5790" data-name="グループ 5790">
                  <g id="グループ_5789" data-name="グループ 5789" clip-path="url(#clip-path-4)">
                    <path id="パス_5256" data-name="パス 5256" d="M119.03,117.774a.757.757,0,0,1-.717-.516l-1.973-5.868,2.78-5.149-2-5.494,2.623-5.224-2.219-5.387,2.2-5.318L116.963,81.1l1.638-4.277-3.141-3.357,1.279-4.422-3.37-3.137,1.088-4.961a.756.756,0,1,1,1.477.324l-.9,4.119,3.42,3.183-1.3,4.489,3.2,3.42-1.679,4.385,2.78,3.738-2.294,5.532,2.244,5.448-2.641,5.258,2.01,5.519-2.79,5.169,1.764,5.246a.758.758,0,0,1-.717,1" transform="translate(-113.368 -60.354)" fill="#e5923e"/>
                  </g>
                </g>
              </g>
              <g id="グループ_5794" data-name="グループ 5794" transform="translate(1.687 37.643)">
                <g id="グループ_5793" data-name="グループ 5793">
                  <g id="グループ_5792" data-name="グループ 5792" clip-path="url(#clip-path-5)">
                    <path id="パス_5257" data-name="パス 5257" d="M19.963,109.554a.755.755,0,0,1-.556-.243l-3.578-3.872.679-4.867-3.335-3.606.683-4.86-3.335-3.6.682-4.861-3.335-3.6.683-4.862-3.334-3.6L5.9,66.714l-3.334-3.6L3.3,57.894a.749.749,0,0,1,.854-.643A.756.756,0,0,1,4.8,58.1L4.164,62.61l3.334,3.6-.683,4.857,3.333,3.6-.682,4.862,3.334,3.6L12.119,88l3.335,3.6-.683,4.861,3.336,3.606-.681,4.867,3.093,3.347a.757.757,0,0,1-.556,1.27" transform="translate(-2.566 -57.243)" fill="#e5923e"/>
                  </g>
                </g>
              </g>
            </g>
          </g>
        </g>
      </g>
    </g>
  </g>
</svg>
