<svg xmlns="http://www.w3.org/2000/svg" xmlns:xlink="http://www.w3.org/1999/xlink" width="150" height="180" viewBox="0 0 150 180">
  <defs>
    <clipPath id="clip-path">
      <rect id="長方形_2972" data-name="長方形 2972" width="150" height="180" transform="translate(0 0)" fill="#262928" stroke="#707070" stroke-width="1"/>
    </clipPath>
    <clipPath id="clip-path-2">
      <rect id="長方形_2971" data-name="長方形 2971" width="109.671" height="130.849" fill="#262928"/>
    </clipPath>
  </defs>
  <g id="マスクグループ_353" data-name="マスクグループ 353" clip-path="url(#clip-path)">
    <g id="グループ_5852" data-name="グループ 5852" transform="translate(19.511 24.576)">
      <g id="グループ_5851" data-name="グループ 5851" clip-path="url(#clip-path-2)">
        <path id="パス_5333" data-name="パス 5333" d="M74.309,141.883a15.663,15.663,0,0,0-18.357-20.545s2.215,13.329,3.425,13.993,14.933,6.552,14.933,6.552" transform="translate(-11.913 -25.783)" fill="#e5923e"/>
        <path id="パス_5334" data-name="パス 5334" d="M118.926,106.181c-16.172-5.143-40.491-13-43.226-14.214-1-2.826-7.711-27.877-13.3-49.028a1.567,1.567,0,0,1,.264-1.349c3.137-4.182,8.49-11.375,9.095-12.554.149-.29.586-1.027,1.139-1.961,3.337-5.636,5.277-9.183,5.315-10.632a22.135,22.135,0,0,0-2.4-10.175l-.1-.178c-1.729-2.959-3.1-5.3-5.7-3.835-.06.035-.107.076-.162.113A12.243,12.243,0,0,0,62.579,0a12.374,12.374,0,0,0-12.2,10.392c-.107.012-.211.017-.323.037a2.28,2.28,0,0,0-1.536,1.016c-1.1,1.679-.484,4.845.375,8.5.147.624.278,1.179.36,1.615.273,1.44-.646,4.492-1.457,7.186A43.06,43.06,0,0,0,46.53,33.54c-.493,2.956.959,6.985,1.606,8.58a3.062,3.062,0,0,1,.218.935c.227,3.138,1.436,19.586,2.975,35.331,3.017,30.865,4.6,32.033,5.355,32.595,3.4,2.518,48.279,18.055,53.385,19.819a.9.9,0,1,0,.592-1.71c-13.8-4.767-50.214-17.573-52.87-19.537-2.1-2.243-5.425-36.111-7.63-66.627a4.871,4.871,0,0,0-.347-1.485c-.46-1.133-1.926-5.031-1.5-7.6a41.955,41.955,0,0,1,1.21-4.567c.914-3.032,1.858-6.168,1.5-8.042-.086-.456-.222-1.039-.375-1.692-.486-2.073-1.392-5.931-.625-7.1a.468.468,0,0,1,.342-.229c1.447-.263,2.071.859,2.755,3.161.054.183.105.355.155.511l.116.366c.774,2.451,1.689,5.154,2.752,6.217a17.558,17.558,0,0,0,3.381,2.282,2.611,2.611,0,0,0,2.5.018c1.5-.8,4.127-2.216,4.886-2.713S72.583,16,72.673,14.937A38.877,38.877,0,0,0,72.2,8.765a8.8,8.8,0,0,0-.364-.828c-1.433-3.024-1.3-3.9-.943-4.1.905-.508,1.357-.06,3.245,3.171l.1.179A20.311,20.311,0,0,1,76.4,16.4c-.033,1.262-3.688,7.433-5.063,9.757-.59,1-1.017,1.718-1.191,2.057-.386.751-3.81,5.462-8.933,12.294a3.37,3.37,0,0,0-.567,2.9C73.58,92.332,74.081,92.933,74.3,93.19s.789.947,44.082,14.716a.9.9,0,1,0,.549-1.724M70.873,14.661a42.523,42.523,0,0,1-3.079,3.92c-.166-.044-.479-.133-.9-.288a.708.708,0,1,0-.49,1.328c.129.048.241.085.353.123a6.345,6.345,0,0,1-.831.793c-.512.335-2.243,1.293-4.748,2.631a.8.8,0,0,1-.771,0,15.68,15.68,0,0,1-2.978-1.979c-.839-.839-1.867-4.094-2.306-5.483l-.117-.37c-.046-.146-.094-.307-.145-.478-.361-1.214-1.017-3.406-2.7-4.2A10.561,10.561,0,0,1,62.579,1.81c.307,0,.612.014.913.04-.008.087-.015.171-.027.268a.708.708,0,0,0,.619.788.769.769,0,0,0,.085,0,.708.708,0,0,0,.7-.623c.009-.076.017-.147.024-.217A10.436,10.436,0,0,1,68.9,3.917c-.226,1.568.744,3.621,1.3,4.794.134.281.242.5.284.626a42.654,42.654,0,0,1,.387,5.324" transform="translate(-9.885 0)" fill="#262928"/>
        <path id="パス_5335" data-name="パス 5335" d="M65.117,17.083a4.515,4.515,0,0,1-.378-1.176.709.709,0,0,0-1.4.242,5.96,5.96,0,0,0,.494,1.542,8.786,8.786,0,0,0,.445.816.709.709,0,0,0,1.206-.744,7.029,7.029,0,0,1-.371-.68" transform="translate(-13.484 -3.267)" fill="#262928"/>
        <path id="パス_5336" data-name="パス 5336" d="M66.347,8.024a.712.712,0,0,0,.981-.206c.3-.457.579-.889.782-1.275a7.333,7.333,0,0,0,.383-.866.708.708,0,0,0-1.329-.491,6.127,6.127,0,0,1-.308.7c-.172.326-.435.73-.715,1.157a.709.709,0,0,0,.206.98" transform="translate(-14.058 -1.007)" fill="#262928"/>
        <path id="パス_5337" data-name="パス 5337" d="M65.331,9.829a.709.709,0,0,0-.957.3,9.793,9.793,0,0,0-.9,2.284.709.709,0,0,0,1.377.333,8.451,8.451,0,0,1,.772-1.956.708.708,0,0,0-.3-.957" transform="translate(-13.511 -2.078)" fill="#262928"/>
        <path id="パス_5338" data-name="パス 5338" d="M69.156,21.678a9.937,9.937,0,0,1-1.712-1.264.708.708,0,1,0-.963,1.037A11.287,11.287,0,0,0,68.437,22.9a.708.708,0,0,0,.719-1.22" transform="translate(-14.106 -4.313)" fill="#262928"/>
        <path id="パス_5339" data-name="パス 5339" d="M31.24,109.122a.144.144,0,0,1-.026-.177c1.254-2.147,3.853-6.6,4.592-7.863a.378.378,0,0,0-.109-.5c-1.9-1.362-12.572-9.019-13.154-9.432-.221-.171-.5.16-.309.351l9.2,9.859a.328.328,0,0,1,.05.379l-3.641,6.79-.542,1.01a.258.258,0,0,0,.072.327l.809.6,14.9,11.13a.215.215,0,0,0,.281-.324Z" transform="translate(-4.721 -19.426)" fill="#262928"/>
        <path id="パス_5340" data-name="パス 5340" d="M33.942,131.824l-16.742-3.8a.143.143,0,0,1-.116-.135c-.087-2.485-.269-7.636-.32-9.1a.38.38,0,0,0-.361-.369c-2.335-.136-15.448-.911-16.16-.95a.235.235,0,0,0-.073.461l13.047,3.422a.328.328,0,0,1,.244.3l.55,7.684.082,1.143a.257.257,0,0,0,.236.238l1.007.079,18.543,1.454a.215.215,0,0,0,.065-.423" transform="translate(0 -25.049)" fill="#262928"/>
      </g>
    </g>
  </g>
</svg>
