<svg xmlns="http://www.w3.org/2000/svg" xmlns:xlink="http://www.w3.org/1999/xlink" width="142.37" height="134.833" viewBox="0 0 142.37 134.833">
  <defs>
    <clipPath id="clip-path">
      <rect id="長方形_2311" data-name="長方形 2311" width="142.37" height="134.833" transform="translate(486 1410)" fill="#262928" stroke="#707070" stroke-width="1"/>
    </clipPath>
    <clipPath id="clip-path-2">
      <rect id="長方形_2919" data-name="長方形 2919" width="142.37" height="123" fill="none"/>
    </clipPath>
    <clipPath id="clip-path-3">
      <rect id="長方形_2918" data-name="長方形 2918" width="142.37" height="123" fill="#262928"/>
    </clipPath>
    <clipPath id="clip-path-4">
      <rect id="長方形_2917" data-name="長方形 2917" width="35.77" height="35.77" fill="#e5923e"/>
    </clipPath>
  </defs>
  <g id="グループ_5867" data-name="グループ 5867" transform="translate(-518 -1418.748)">
    <path id="パス_5239" data-name="パス 5239" d="M-11150.609,3723.7s-4.673-11.379-4.9-12.288.586-4.633,4.9-5.734,14.838-1.392,14.838-1.392l1-1.564h25.894l12.576,2.956,38.187,15.245,14.592,12.109Z" transform="translate(11694 -2278)" fill="#fff"/>
    <g id="マスクグループ_337" data-name="マスクグループ 337" transform="translate(32 8.748)" clip-path="url(#clip-path)">
      <g id="グループ_5787" data-name="グループ 5787" transform="translate(486 1415)">
        <g id="グループ_5786" data-name="グループ 5786" clip-path="url(#clip-path-2)">
          <g id="グループ_5785" data-name="グループ 5785">
            <g id="グループ_5784" data-name="グループ 5784" clip-path="url(#clip-path-3)">
              <g id="グループ_5783" data-name="グループ 5783" transform="translate(44.508 65.455)">
                <g id="グループ_5782" data-name="グループ 5782">
                  <g id="グループ_5781" data-name="グループ 5781" clip-path="url(#clip-path-4)">
                    <path id="パス_5238" data-name="パス 5238" d="M70.652,121.787a17.876,17.876,0,1,0,9.36-15.726s5.527,10.618,5.743,11.143.4,1.809-.465,1.971-3.19-2.582-3.779-3.536-4.333-5.873-4.2-5.569,5.109,9.169,6.314,10.657,1.716,2.551.947,3.259-2.245-.311-4.194-3.015-5.98-8.384-5.98-8.384l-.324.446s3.958,8.008,5.175,9.237,2.658,3.315,2,4.085-2.475.518-4.734-3.311-4.4-9.434-4.64-9.2.053,1.71.387,2.818,4.306,9.328,4.03,10.121-1.31,1.31-1.763.75-3.879-6.874-3.879-6.874Z" transform="translate(-70.652 -103.902)" fill="#e5923e"/>
                  </g>
                </g>
              </g>
              <path id="パス_5214" data-name="パス 5214" d="M35.536,98.136,28.209,87.993a.106.106,0,0,1,0-.131c1.15-1.4,3.533-4.307,4.21-5.132a.276.276,0,0,0-.02-.375c-1.211-1.2-8.01-7.94-8.381-8.3-.139-.149-.376.058-.262.217l5.487,8.157a.239.239,0,0,1-.008.278l-3.4,4.47-.506.665a.188.188,0,0,0,.014.244l.512.528L35.3,98.337a.157.157,0,0,0,.239-.2" transform="translate(-8.78 -27.381)" fill="#e5923e"/>
              <path id="パス_5215" data-name="パス 5215" d="M22.8,108.735l-11.612-4.662a.105.105,0,0,1-.069-.111c.224-1.8.686-5.529.818-6.588a.277.277,0,0,0-.218-.307C10.061,96.7.712,94.633.2,94.523a.172.172,0,0,0-.106.324l9,3.966a.24.24,0,0,1,.142.241l-.489,5.6-.072.832a.188.188,0,0,0,.142.2l.715.173,13.178,3.181a.157.157,0,0,0,.1-.3" transform="translate(0 -34.974)" fill="#e5923e"/>
              <path id="パス_5216" data-name="パス 5216" d="M72.89,62.184a.807.807,0,0,1-.154-.016.725.725,0,0,1-.555-.861,105.848,105.848,0,0,1,3.424-11.988,82.068,82.068,0,0,1,4.626-10.241.725.725,0,0,1,1.267.7,80.294,80.294,0,0,0-4.533,10.036,104.257,104.257,0,0,0-3.368,11.8.725.725,0,0,1-.707.572" transform="translate(-26.703 -14.322)" fill="#262928"/>
              <path id="パス_5217" data-name="パス 5217" d="M49.937,81.307a.724.724,0,0,1-.724-.718c0-.411.028-.923.066-1.516.059-.934.132-2.1.111-3.5l-.009-.6c-.068-4.423-.171-11.108.558-13.9.23-1.676-5.905-17.313-10.384-28.73-4.216-10.744-7.856-20.024-8.148-22.1a5.049,5.049,0,0,1,1.01-4.075c2.3-2.8,7.786-3.091,12.192-3.326l.292-.016a47.393,47.393,0,0,1,9.291.257.724.724,0,0,1-.233,1.43,47.043,47.043,0,0,0-8.98-.24l-.292.016c-4.122.22-9.251.5-11.15,2.8a3.613,3.613,0,0,0-.695,2.952c.268,1.912,4.23,12.01,8.062,21.776C48.6,51.418,51.748,59.869,51.341,61.432c-.68,2.6-.575,9.436-.512,13.517l.009.6c.021,1.458-.054,2.652-.114,3.612-.035.564-.066,1.052-.063,1.411a.725.725,0,0,1-.718.731Z" transform="translate(-11.596 -1.007)" fill="#262928"/>
              <path id="パス_5218" data-name="パス 5218" d="M71.7,133.271a.722.722,0,0,1-.529-.23c-.919-.983-4.3-7.731-4.693-9.159-.152-.559-.483-1.848-.809-3.151-.146.9-.289,1.778-.386,2.349a.725.725,0,1,1-1.429-.243c.163-.956.454-2.767.673-4.134.12-.751.219-1.368.264-1.637l.1-.593,1.234-.05.15.615c.165.84,1.257,5.2,1.6,6.463a54.587,54.587,0,0,0,4.353,8.551.725.725,0,0,1-.529,1.22" transform="translate(-23.623 -43.08)" fill="#262928"/>
              <path id="パス_5219" data-name="パス 5219" d="M79.977,133.407a.721.721,0,0,1-.444-.152,20.307,20.307,0,0,1-3.608-4.171c.2.411.389.788.551,1.113.393.789.586,1.177.668,1.4a.724.724,0,0,1-1.359.5c-.059-.161-.324-.693-.605-1.257a62.514,62.514,0,0,1-2.673-5.926c-.018-.049-1.8-4.964-1.334-5.926l.134-.276.317-.122c.562-.188.971-.325,3.433,5.942a23.137,23.137,0,0,0,5.367,7.575.725.725,0,0,1-.445,1.3" transform="translate(-26.307 -43.86)" fill="#262928"/>
              <path id="パス_5220" data-name="パス 5220" d="M83.258,130.942a.725.725,0,0,1-.553-.256c-4.413-5.21-7.729-12.822-7.537-13.7a.763.763,0,0,1,.409-.517c.588-.273.586-.273,3.225,3.464,2,2.837,5.733,8.118,6.334,8.61a.737.737,0,0,1,.125,1.014.713.713,0,0,1-.991.147c-.5-.372-1.988-2.364-4.786-6.3a40.554,40.554,0,0,0,4.326,6.35.724.724,0,0,1-.552,1.193" transform="translate(-27.812 -43.057)" fill="#262928"/>
              <path id="パス_5221" data-name="パス 5221" d="M88.644,126.255a.72.72,0,0,1-.507-.207,40.735,40.735,0,0,1-4.483-6.3c-.809-1.382-1.7-3.036-2.449-4.539-1.236-2.486-1.177-2.591-.981-2.938l.2-.353.44-.038c.618-.027.888.258,4.1,5.073,1.268,1.9,2.58,3.864,3.243,4.636a.724.724,0,0,1-.89,1.112,24.018,24.018,0,0,0,1.833,2.309.725.725,0,0,1-.507,1.242" transform="translate(-29.645 -41.4)" fill="#262928"/>
              <path id="パス_5222" data-name="パス 5222" d="M81.455,88.974a.723.723,0,0,1-.562-.267c-1.07-1.312-3.871-7.052-5.885-11.255-.192-.4-.322-.672-.372-.772a16.787,16.787,0,0,1-.671-3.363c-.379-2.443-.9-5.788-1.579-7.247a7.183,7.183,0,0,0-2.711-3.108A3.409,3.409,0,0,1,67.9,60.64c-.143-1-3.791-13.368-9.519-32.277L57.4,25.126a.724.724,0,0,1,1.386-.422l.983,3.24c3.481,11.487,9.351,30.986,9.567,32.492.076.537.418.8,1.182,1.347A8.65,8.65,0,0,1,73.7,65.457c.767,1.645,1.283,4.967,1.7,7.636a26.718,26.718,0,0,0,.537,2.943c.049.1.183.378.38.789,3.064,6.394,4.982,10.083,5.7,10.966a.725.725,0,0,1-.561,1.182" transform="translate(-21.228 -8.952)" fill="#262928"/>
              <path id="パス_5223" data-name="パス 5223" d="M68.1,32.318a.719.719,0,0,1-.131-.012l-8.442-1.538a.725.725,0,1,1,.26-1.426l8.443,1.538a.725.725,0,0,1-.129,1.438" transform="translate(-21.805 -10.853)" fill="#262928"/>
              <path id="パス_5224" data-name="パス 5224" d="M103.068,147.377c-8.9,0-16.625-3.207-30.368-9.259C55.175,130.4,52.1,119.3,52.4,115.667c.34-4.163,4.451-18.962,4.626-19.59a.724.724,0,0,1,1.4.389c-.042.152-4.248,15.292-4.577,19.319-.157,1.93.692,5.369,3.549,9.233,2.389,3.23,7.085,7.895,15.889,11.772,16.316,7.187,24,10.3,35.3,8.738,5.96-.822,8.963-1.744,9.735-2.989.483-.776.169-1.824-.426-3.61l-.021-.064C116.381,134.39,114,118.2,116.366,108.5c.9-3.69,3.754-7.051,6.516-10.3a54.806,54.806,0,0,0,4.294-5.5c3.266-5.066,8.32-12.442,8.371-12.516a.725.725,0,0,1,1.2.82c-.05.074-5.094,7.433-8.348,12.481a55.951,55.951,0,0,1-4.409,5.656c-2.653,3.121-5.4,6.349-6.213,9.7-2.3,9.442.02,25.206,1.475,29.569l.021.063c.615,1.846,1.148,3.441.282,4.833-1.062,1.71-4.082,2.737-10.767,3.66a41.681,41.681,0,0,1-5.717.411" transform="translate(-19.383 -29.552)" fill="#262928"/>
              <path id="パス_5225" data-name="パス 5225" d="M53.9,169.731a.725.725,0,0,1-.707-.572c-1.016-4.716-1.121-11.879-.881-17.011.27-5.771.516-10.055.518-10.1a.736.736,0,0,1,.765-.682.724.724,0,0,1,.682.765c0,.043-.248,4.32-.518,10.082a73.948,73.948,0,0,0,.85,16.638.724.724,0,0,1-.556.861.747.747,0,0,1-.153.016" transform="translate(-19.318 -52.311)" fill="#262928"/>
              <path id="パス_5226" data-name="パス 5226" d="M155.935,189.72h-.028a.724.724,0,0,1-.7-.751l.076-2.029c.076-1.986,0-5.852,0-5.891a.724.724,0,0,1,.71-.738h.014a.724.724,0,0,1,.724.71c0,.16.077,3.947,0,5.975l-.077,2.028a.724.724,0,0,1-.723.7" transform="translate(-57.433 -66.72)" fill="#262928"/>
              <path id="パス_5227" data-name="パス 5227" d="M68.183,29.244a1.6,1.6,0,0,1-.564-.1c-2.217-.833-3.324-7.139-3.61-9.052a.724.724,0,1,1,1.433-.214c.529,3.531,1.736,7.553,2.687,7.911.033.01.113.042.312-.127,2-1.7-2.649-22.225-3.637-24.588a4.948,4.948,0,0,0-.853-1.521,3.411,3.411,0,0,0-.374,1.026A.724.724,0,0,1,62.155,2.3c.1-.5.5-2.147,1.643-2.263C64.912-.077,65.633,1.3,66.14,2.512c.377.9,6.446,23.53,3.237,26.251a1.823,1.823,0,0,1-1.2.481" transform="translate(-22.994 -0.011)" fill="#262928"/>
              <path id="パス_5228" data-name="パス 5228" d="M103.236,4.177a.727.727,0,0,1-.223-.036,63.935,63.935,0,0,0-10.494-2c-6.939-.857-27.571-.677-27.778-.675h-.007a.725.725,0,0,1-.007-1.45C65.578.013,85.663-.164,92.7.7a63.727,63.727,0,0,1,10.763,2.059.725.725,0,0,1-.224,1.414" transform="translate(-23.685 0)" fill="#262928"/>
              <path id="パス_5229" data-name="パス 5229" d="M78.9,45.064H72.459a.725.725,0,0,1,0-1.45H78.9a.725.725,0,0,1,0,1.45" transform="translate(-26.544 -16.139)" fill="#262928"/>
              <path id="パス_5230" data-name="パス 5230" d="M76.761,141.914a2.115,2.115,0,0,1-1.9-1.3.724.724,0,1,1,1.317-.6.7.7,0,0,0,.583.455.572.572,0,0,0,.572-.571.563.563,0,0,0-.059-.253c-.028-.057-.053-.117-.077-.178-.008-.019-.014-.038-.023-.056a.725.725,0,0,1,1.056-.992,1.406,1.406,0,0,1,.311.508c.01.025.02.05.031.072a2.021,2.021,0,0,1-1.811,2.919m.451-2.468h0" transform="translate(-27.676 -51.141)" fill="#262928"/>
              <path id="パス_5231" data-name="パス 5231" d="M61.71,128.162a2.009,2.009,0,0,1-1.178-.382,2.19,2.19,0,0,1-.815-2.018.725.725,0,0,1,1.448.064c-.023.515.051.661.215.78a.572.572,0,0,0,.9-.369c.01-.062.025-.126.041-.19.005-.02.011-.04.014-.059a.725.725,0,0,1,1.436-.188,1.4,1.4,0,0,1-.044.6c-.006.026-.014.052-.018.077a2.022,2.022,0,0,1-1.671,1.662,1.977,1.977,0,0,1-.327.026m.632-2.118h0Z" transform="translate(-22.095 -46.28)" fill="#262928"/>
              <path id="パス_5232" data-name="パス 5232" d="M92.838,128.019a2.16,2.16,0,0,1-1.775-1,.724.724,0,1,1,1.2-.808.713.713,0,0,0,.65.357.574.574,0,0,0,.472-.657.56.56,0,0,0-.1-.239c-.038-.052-.072-.108-.106-.164l-.032-.052a.724.724,0,0,1,.881-1.148,1.413,1.413,0,0,1,.39.452c.014.023.027.046.042.067a2.021,2.021,0,0,1-1.315,3.172,1.858,1.858,0,0,1-.312.025m.358-2.533h0" transform="translate(-33.651 -45.947)" fill="#262928"/>
              <path id="パス_5233" data-name="パス 5233" d="M85.59,140.7a2.4,2.4,0,0,1-1.564-.721l-.06-.05a.725.725,0,1,1,.935-1.107l.063.054c.328.278.489.4.681.372a.48.48,0,0,0,.316-.184.482.482,0,0,0,.017-.559c-.034-.05-.065-.1-.1-.157l-.024-.042a.725.725,0,0,1,.922-1.117,1.354,1.354,0,0,1,.362.444l.036.061a1.927,1.927,0,0,1-1.34,2.989,1.8,1.8,0,0,1-.249.017m.319-2.354h0Z" transform="translate(-30.975 -50.712)" fill="#262928"/>
              <path id="パス_5234" data-name="パス 5234" d="M91.069,136.356a2.678,2.678,0,0,1-1.732-.8l-.069-.059a.724.724,0,1,1,.935-1.106l.073.062c.393.335.6.489.869.453a.661.661,0,0,0,.568-.743.668.668,0,0,0-.107-.282,3.1,3.1,0,0,0-.251-.345.725.725,0,0,1,1.056-.992,4.285,4.285,0,0,1,.382.507,2.124,2.124,0,0,1,.356.92,2.106,2.106,0,0,1-2.079,2.391" transform="translate(-32.937 -48.959)" fill="#262928"/>
              <path id="パス_5235" data-name="パス 5235" d="M182.01,89l-.19-.623a72.655,72.655,0,0,1-2.411-10.808,86.649,86.649,0,0,0-1.695-9.823.724.724,0,1,1,1.407-.343,87.9,87.9,0,0,1,1.728,10.01,68.46,68.46,0,0,0,2.173,9.918c10.7-2.068,22.074-4.728,23.631-5.825-.453-3.425-8.727-36.721-9.739-39.111-.819-1.936-9.318-8.669-14.831-12.723a.725.725,0,1,1,.859-1.167c1.437,1.056,14.07,10.405,15.306,13.326,1.2,2.834,9.873,37.865,9.873,39.875,0,.768,0,1.639-13.007,4.573-6.162,1.39-12.4,2.587-12.465,2.6Z" transform="translate(-65.752 -10.495)" fill="#262928"/>
              <path id="パス_5236" data-name="パス 5236" d="M209.624,163.4a.727.727,0,0,1-.718-.834,147.873,147.873,0,0,0,1.1-18.5c.122-12.022-1.09-26.263-1.1-26.405a.724.724,0,1,1,1.443-.125c.012.144,1.23,14.452,1.107,26.544a149.321,149.321,0,0,1-1.113,18.706.724.724,0,0,1-.715.615" transform="translate(-77.299 -43.246)" fill="#262928"/>
              <path id="パス_5237" data-name="パス 5237" d="M194.092,165.03a.651.651,0,0,1-.086-.005.724.724,0,0,1-.636-.8,20.84,20.84,0,0,0,0-4.148c-.076-.677-.5-2.474-1.027-4.748-1.126-4.812-2.827-12.083-3.164-16.967-.488-7.084-.6-16.256-.6-16.347a.725.725,0,0,1,.716-.733h.008a.726.726,0,0,1,.725.716c0,.091.112,9.222.6,16.265.329,4.767,2.014,11.97,3.129,16.736.564,2.412.973,4.155,1.057,4.918a22.039,22.039,0,0,1,0,4.477.725.725,0,0,1-.719.639" transform="translate(-69.779 -44.877)" fill="#262928"/>
            </g>
          </g>
        </g>
      </g>
    </g>
  </g>
</svg>
