<svg xmlns="http://www.w3.org/2000/svg" xmlns:xlink="http://www.w3.org/1999/xlink" width="150" height="180" viewBox="0 0 150 180">
  <defs>
    <clipPath id="clip-path">
      <rect id="長方形_2977" data-name="長方形 2977" width="150" height="180" transform="translate(792 1939.315)" fill="#262928" stroke="#707070" stroke-width="1"/>
    </clipPath>
    <clipPath id="clip-path-2">
      <rect id="長方形_2976" data-name="長方形 2976" width="102.188" height="180.315" fill="none"/>
    </clipPath>
    <clipPath id="clip-path-3">
      <rect id="長方形_2975" data-name="長方形 2975" width="102.188" height="180.315" fill="#262928"/>
    </clipPath>
    <clipPath id="clip-path-4">
      <rect id="長方形_2973" data-name="長方形 2973" width="10.643" height="10.643" fill="#e5923e"/>
    </clipPath>
  </defs>
  <g id="マスクグループ_354" data-name="マスクグループ 354" transform="translate(-792 -1939.315)" clip-path="url(#clip-path)">
    <g id="グループ_5862" data-name="グループ 5862" transform="translate(816 1939)">
      <g id="グループ_5861" data-name="グループ 5861" clip-path="url(#clip-path-2)">
        <g id="グループ_5860" data-name="グループ 5860">
          <g id="グループ_5859" data-name="グループ 5859" clip-path="url(#clip-path-3)">
            <g id="グループ_5855" data-name="グループ 5855" transform="translate(31.919 138.626)">
              <g id="グループ_5854" data-name="グループ 5854">
                <g id="グループ_5853" data-name="グループ 5853" clip-path="url(#clip-path-4)">
                  <path id="パス_5341" data-name="パス 5341" d="M54.384,195.294a5.321,5.321,0,1,1-5.321-5.321,5.321,5.321,0,0,1,5.321,5.321" transform="translate(-43.741 -189.973)" fill="#e5923e"/>
                </g>
              </g>
            </g>
            <g id="グループ_5858" data-name="グループ 5858" transform="translate(59.504 138.626)">
              <g id="グループ_5857" data-name="グループ 5857">
                <g id="グループ_5856" data-name="グループ 5856" clip-path="url(#clip-path-4)">
                  <path id="パス_5342" data-name="パス 5342" d="M92.187,195.294a5.321,5.321,0,1,1-5.321-5.321,5.321,5.321,0,0,1,5.321,5.321" transform="translate(-81.544 -189.973)" fill="#e5923e"/>
                </g>
              </g>
            </g>
            <path id="パス_5343" data-name="パス 5343" d="M32.694,187.772,26.95,179.82a.083.083,0,0,1,0-.1c.9-1.1,2.769-3.376,3.3-4.023a.217.217,0,0,0-.015-.295c-.949-.94-6.28-6.225-6.57-6.511-.109-.117-.3.045-.206.17l4.3,6.4a.187.187,0,0,1-.007.218l-2.667,3.5-.4.521a.148.148,0,0,0,.012.192l.4.414,7.4,7.626a.123.123,0,0,0,.188-.158" transform="translate(-6.335 -45.637)" fill="#e5923e"/>
            <path id="パス_5344" data-name="パス 5344" d="M25.256,193.882l-9.1-3.655a.082.082,0,0,1-.053-.087c.175-1.411.537-4.334.641-5.164a.217.217,0,0,0-.171-.241c-1.3-.287-8.633-1.909-9.032-2a.134.134,0,0,0-.082.254l7.052,3.109a.186.186,0,0,1,.11.188l-.382,4.387-.057.652a.146.146,0,0,0,.112.156l.56.135,10.332,2.494a.123.123,0,0,0,.074-.234" transform="translate(-1.994 -49.391)" fill="#e5923e"/>
            <path id="パス_5345" data-name="パス 5345" d="M102.452,187.772l5.744-7.952a.083.083,0,0,0,0-.1c-.9-1.1-2.769-3.376-3.3-4.023a.217.217,0,0,1,.015-.295c.949-.94,6.28-6.225,6.57-6.511.109-.117.3.045.206.17l-4.3,6.4a.187.187,0,0,0,.007.218l2.667,3.5.4.521a.148.148,0,0,1-.012.192l-.4.414-7.4,7.626a.123.123,0,0,1-.188-.158" transform="translate(-27.685 -45.637)" fill="#e5923e"/>
            <path id="パス_5346" data-name="パス 5346" d="M106.677,193.882l9.1-3.655a.082.082,0,0,0,.053-.087c-.175-1.411-.537-4.334-.641-5.164a.217.217,0,0,1,.171-.241c1.3-.287,8.633-1.909,9.032-2a.135.135,0,0,1,.082.254l-7.052,3.109a.188.188,0,0,0-.111.188l.383,4.387.057.652a.147.147,0,0,1-.112.156l-.56.135-10.331,2.494a.123.123,0,0,1-.074-.234" transform="translate(-28.812 -49.391)" fill="#e5923e"/>
            <path id="パス_5347" data-name="パス 5347" d="M64.15,53.107c-4.91,0-11-2.091-13.66-7.995-1.364-3.023-1.4-9.006-1.4-9.26a.84.84,0,0,1,.837-.842h0a.84.84,0,0,1,.838.837c0,.058.036,5.878,1.252,8.576,2.991,6.63,10.208,7.029,12.37,7H64.4a.839.839,0,0,1,.012,1.678l-.264,0" transform="translate(-13.268 -9.463)" fill="#262928"/>
            <path id="パス_5348" data-name="パス 5348" d="M60.26,65.117a.84.84,0,0,1-.839-.839V56.724a.839.839,0,1,1,1.678,0v7.553a.84.84,0,0,1-.839.839" transform="translate(-16.061 -15.105)" fill="#262928"/>
            <path id="パス_5349" data-name="パス 5349" d="M34.743,92.658a.712.712,0,0,1-.079,0,24.752,24.752,0,0,1-4.606-1c-4.955-1.542-7.987-4.587-7.987-5.732,0-1,5.846-13.483,9.158-18.4C34.96,61.984,46.7,61.476,47.2,61.456l.564-.021.233.514a9.755,9.755,0,0,0,8.923,5.2H57.1a.839.839,0,0,1,.011,1.678h-.192a11.461,11.461,0,0,1-10.173-5.666c-2.266.161-11.272,1.062-14.124,5.3-3.226,4.789-8.19,15.619-8.827,17.415a13.7,13.7,0,0,0,6.763,4.178,23.8,23.8,0,0,0,4.264.93.839.839,0,0,1-.078,1.675" transform="translate(-5.965 -16.605)" fill="#262928"/>
            <path id="パス_5350" data-name="パス 5350" d="M1.96,139.788a1.951,1.951,0,0,1-1.313-.464,2.283,2.283,0,0,1-.623-2.068c.257-2.4,3.572-4.893,5.49-5.99a30.449,30.449,0,0,1,5.431-2.11,76.169,76.169,0,0,0,1.641-7.438,72,72,0,0,1,1.928-8.495c1.292-3.674,5.18-14.246,5.219-14.353a.839.839,0,1,1,1.575.58c-.039.106-3.924,10.666-5.211,14.328a71.768,71.768,0,0,0-1.864,8.255,62.616,62.616,0,0,1-1.853,8.1l-.15.4-.409.115a31.986,31.986,0,0,0-5.476,2.073c-2.142,1.225-4.5,3.292-4.654,4.712-.046.426.033.6.067.633a.5.5,0,0,0,.314.032.853.853,0,0,1,.988.649.832.832,0,0,1-.624.99,2.211,2.211,0,0,1-.478.049" transform="translate(0 -26.575)" fill="#262928"/>
            <path id="パス_5351" data-name="パス 5351" d="M61.351,119.2c-16.253,0-22.067-1.852-22.307-1.931l-.694-.228.13-.717c.006-.034.622-3.7-.012-14.3a160.8,160.8,0,0,1,0-19.484.839.839,0,0,1,1.673.128,159.1,159.1,0,0,0,0,19.256,92.3,92.3,0,0,1,.087,13.922c1.918.461,8.183,1.67,21.122,1.67a.522.522,0,0,1,.1,0,.84.84,0,0,1,0,1.679Z" transform="translate(-10.32 -22.101)" fill="#262928"/>
            <path id="パス_5352" data-name="パス 5352" d="M54.376,159.366c-1.724,0-3.5-.018-4.963-.071a63.275,63.275,0,0,1-6.9-.658c-3.756-.58-4.178-1.057-4.342-1.621-.139-.48-.19-2.96-.037-14.205l0-.366c.053-3.936.907-12.886.943-13.265a.839.839,0,0,1,1.67.16c-.008.093-.883,9.262-.935,13.128l0,.366c-.04,2.989-.159,11.709-.045,13.5a44.518,44.518,0,0,0,9.705,1.288c3.448.126,8.733.05,10.728.015l.374-12.849a.861.861,0,0,1,.863-.814.839.839,0,0,1,.814.863l-.42,14.445-.8.017c-.047,0-3.244.071-6.659.071m-14.581-2.778h0Z" transform="translate(-10.282 -34.71)" fill="#262928"/>
            <path id="パス_5353" data-name="パス 5353" d="M31.611,220.52l.294-.786-.323.774a1.909,1.909,0,0,1-1.261-2.458c.118-.475.552-.849,1.21-1.415a11.129,11.129,0,0,0,1.215-1.154,29.645,29.645,0,0,1,4.028-3.764l.148-.119a17.471,17.471,0,0,1,2.216-1.444,13.946,13.946,0,0,0,1.48-.936c.143-.138,1.011-1.126,1.254-1.455.314-1.583-.825-8.526-1.379-11.9-.177-1.079-.327-1.991-.416-2.61-.393-2.706-1.038-24.089-1.065-25a.839.839,0,1,1,1.677-.05c.007.221.669,22.2,1.048,24.807.089.612.237,1.514.412,2.58.952,5.8,1.767,11.134,1.314,12.729a11.969,11.969,0,0,1-1.813,2.222,14.824,14.824,0,0,1-1.669,1.065,15.924,15.924,0,0,0-2.005,1.3l-.15.121a28.13,28.13,0,0,0-3.8,3.535,12.446,12.446,0,0,1-1.4,1.346,8.98,8.98,0,0,0-.7.638c-.063.279-.026.293.236.39l-.259.8Z" transform="translate(-8.172 -45.243)" fill="#262928"/>
            <path id="パス_5354" data-name="パス 5354" d="M41.784,225.866a2.131,2.131,0,0,1-1.334-.388,1.894,1.894,0,0,1-.7-1.332,4.749,4.749,0,0,1,1.024-3.486.84.84,0,0,1,1.269,1.1,3.044,3.044,0,0,0-.627,2.179.461.461,0,0,0,.057.207,3.223,3.223,0,0,0,1.205-.05l.2-.028c.05-.007.5-.116,1.313-1.792a1.032,1.032,0,0,1,.465-.554c.144-.088.611-.4,1.262-.824l1.042-.683a15.036,15.036,0,0,0,1.951-1.8,16.531,16.531,0,0,1,3.1-2.709l.319-.185c1.524-.877,3.419-1.969,3.419-3.507a4.921,4.921,0,0,0-.641-2.323,5.427,5.427,0,0,1-.675-2.216c-.066-1.45.538-6.824,1-10.74l.028-.236a18.324,18.324,0,0,0-.349-4.556l-.081-.492c-.168-1.091-.142-1.821.366-5.232.5-3.344.576-16.718.576-16.853a.84.84,0,0,1,.84-.835h0a.84.84,0,0,1,.835.844c0,.555-.08,13.63-.595,17.091s-.49,3.936-.367,4.729l.077.469a19.672,19.672,0,0,1,.361,5.03l-.028.236c-.7,5.964-1.033,9.486-.988,10.468a3.96,3.96,0,0,0,.511,1.566,6.538,6.538,0,0,1,.808,3.05c0,2.508-2.463,3.927-4.26,4.961l-.314.182a15.827,15.827,0,0,0-2.747,2.432,15.751,15.751,0,0,1-2.229,2.031l-1.041.682c-.614.4-.96.63-1.164.76-.567,1.167-1.369,2.5-2.563,2.669l-.192.028a7.949,7.949,0,0,1-1.133.109" transform="translate(-10.734 -45.551)" fill="#262928"/>
            <path id="パス_5355" data-name="パス 5355" d="M38.346,244.4a2.661,2.661,0,0,1-.5-.043,2.162,2.162,0,0,1-1.737-1.981c-.2-1.11.916-2.97,1.4-3.718a.839.839,0,0,1,1.4.919,7.156,7.156,0,0,0-1.157,2.505c.1.57.217.592.4.628a4.172,4.172,0,0,0,1.216-.128.839.839,0,0,1,.4,1.63,6.646,6.646,0,0,1-1.424.188" transform="translate(-9.752 -64.404)" fill="#262928"/>
            <path id="パス_5356" data-name="パス 5356" d="M35.736,243.638a2.069,2.069,0,0,1-.746-.107c-1.054-.422-1.216-1.011-1.332-2.251-.14-1.489,1.29-3.076,1.453-3.252a.839.839,0,0,1,1.231,1.141,3.608,3.608,0,0,0-1.014,1.955,4.062,4.062,0,0,0,.119.787c.005-.005.043.011.12.044a4.286,4.286,0,0,0,.6-.02.822.822,0,0,1,.922.747.839.839,0,0,1-.747.922,5.972,5.972,0,0,1-.61.035" transform="translate(-9.095 -64.263)" fill="#262928"/>
            <path id="パス_5357" data-name="パス 5357" d="M33.469,242.021a2.659,2.659,0,0,1-1.208-.289,2.6,2.6,0,0,1-1.23-2.793,5.4,5.4,0,0,1,1.878-2.618.839.839,0,0,1,1.054,1.306,4.058,4.058,0,0,0-1.278,1.6.944.944,0,0,0,.349,1.013,1.012,1.012,0,0,0,.48.1.839.839,0,0,1,.166,1.67,1.974,1.974,0,0,1-.21.01" transform="translate(-8.375 -63.824)" fill="#262928"/>
            <path id="パス_5358" data-name="パス 5358" d="M15.026,146.831a.84.84,0,0,1-.78-1.148,17.225,17.225,0,0,1,3.775-5.295,1.645,1.645,0,0,1,1.305-.371c.693.135,1.07.741,1.505,1.443.173.277.371.6.619.943.885,1.234,1.541,1.143,2.439.542a6.58,6.58,0,0,0-.786-2.034,6.21,6.21,0,0,1-.972-3.226,8.9,8.9,0,0,0-.01-2.056,13.04,13.04,0,0,1,.009-2.922,18.558,18.558,0,0,1,1.906-5.1c.42-.878.856-1.786,1.246-2.717a28.377,28.377,0,0,0,1.151-3.51A21.543,21.543,0,0,1,28,117.03c1.324-2.583,4.039-8.186,4.066-8.242a.839.839,0,0,1,1.511.731c-.028.056-2.75,5.676-4.083,8.277a20.2,20.2,0,0,0-1.443,4.033,29.438,29.438,0,0,1-1.22,3.709c-.406.97-.85,1.9-1.28,2.794a17.64,17.64,0,0,0-1.755,4.588,11.473,11.473,0,0,0,0,2.572,10.457,10.457,0,0,1,0,2.428,5.935,5.935,0,0,0,.815,2.248c.714,1.446,1.6,3.245.213,4.173-1.79,1.2-3.427.865-4.735-.96-.272-.379-.491-.73-.68-1.035-.129-.209-.282-.455-.4-.6a15.828,15.828,0,0,0-3.2,4.557.839.839,0,0,1-.781.531" transform="translate(-3.835 -29.276)" fill="#262928"/>
            <path id="パス_5359" data-name="パス 5359" d="M11.584,157.988a.842.842,0,0,1-.834-.941,15.709,15.709,0,0,1,.564-2.7,18.727,18.727,0,0,1,1.347-2.664.839.839,0,1,1,1.433.874,17.352,17.352,0,0,0-1.2,2.362,13.8,13.8,0,0,0-.475,2.327.841.841,0,0,1-.833.738" transform="translate(-2.904 -40.89)" fill="#262928"/>
            <path id="パス_5360" data-name="パス 5360" d="M6.03,159.365H5.987a.838.838,0,0,1-.8-.88l.034-.7A19.529,19.529,0,0,1,5.662,155a32.184,32.184,0,0,1,2.177-5.03.84.84,0,1,1,1.491.773,30.315,30.315,0,0,0-2.022,4.586,18.613,18.613,0,0,0-.406,2.539l-.035.7a.839.839,0,0,1-.837.8" transform="translate(-1.403 -40.412)" fill="#262928"/>
            <path id="パス_5361" data-name="パス 5361" d="M7.328,161.4a2.141,2.141,0,0,1-2.139-2.139,2.181,2.181,0,0,1,.016-.26.83.83,0,0,1,.937-.729.84.84,0,0,1,.729.937.47.47,0,0,0,.457.512.459.459,0,0,0,.428-.288l.1-.552a13.411,13.411,0,0,1,.546-2.863,27.048,27.048,0,0,1,2.44-3.533.84.84,0,0,1,1.322,1.036,26.907,26.907,0,0,0-2.209,3.133,12.18,12.18,0,0,0-.431,2.423l-.012.078-.146.743a2.129,2.129,0,0,1-2.042,1.5" transform="translate(-1.403 -41.126)" fill="#262928"/>
            <path id="パス_5362" data-name="パス 5362" d="M1.994,156.664a.833.833,0,0,1-.836-.779,13.384,13.384,0,0,1,.327-2.691c.377-2.069,2.67-5.074,2.93-5.409a.839.839,0,0,1,1.327,1.027c-.638.824-2.349,3.27-2.606,4.683a13.735,13.735,0,0,0-.3,2.3.844.844,0,0,1-.8.869h-.04" transform="translate(-0.312 -39.856)" fill="#262928"/>
            <path id="パス_5363" data-name="パス 5363" d="M5.071,158.047a.894.894,0,0,1-.116-.008.835.835,0,0,1-.717-.929,8.035,8.035,0,0,1,.266-1.073,36.3,36.3,0,0,1,2.466-4.36.838.838,0,1,1,1.419.893,39.822,39.822,0,0,0-2.275,3.939,7.956,7.956,0,0,0-.212.823.846.846,0,0,1-.831.714" transform="translate(-1.144 -40.89)" fill="#262928"/>
            <path id="パス_5364" data-name="パス 5364" d="M12.882,161.078a2.141,2.141,0,0,1-2.139-2.139,2.181,2.181,0,0,1,.016-.261.839.839,0,1,1,1.666.208.47.47,0,0,0,.457.512.46.46,0,0,0,.44-.323.839.839,0,0,1,1.6.5,2.129,2.129,0,0,1-2.042,1.5" transform="translate(-2.904 -42.69)" fill="#262928"/>
            <path id="パス_5365" data-name="パス 5365" d="M3.139,160.462a1.993,1.993,0,0,1-1.99-1.99,2.184,2.184,0,0,1,.013-.23.839.839,0,1,1,1.669.182.32.32,0,0,0,.308.358.308.308,0,0,0,.3-.217.839.839,0,0,1,1.6.5,1.98,1.98,0,0,1-1.9,1.4" transform="translate(-0.311 -42.569)" fill="#262928"/>
            <path id="パス_5366" data-name="パス 5366" d="M69.9,53.107l-.264,0a.839.839,0,0,1,.012-1.678c.069-.007.147,0,.228,0,2.377,0,9.256-.582,12.155-7.006,1.216-2.7,1.252-8.517,1.252-8.576a.84.84,0,0,1,.839-.837h0a.84.84,0,0,1,.837.842c0,.254-.038,6.237-1.4,9.26-2.663,5.9-8.75,7.995-13.66,7.995" transform="translate(-18.599 -9.463)" fill="#262928"/>
            <path id="パス_5367" data-name="パス 5367" d="M79.156,65.117a.84.84,0,0,1-.839-.839V56.724a.839.839,0,1,1,1.678,0v7.553a.84.84,0,0,1-.839.839" transform="translate(-21.168 -15.105)" fill="#262928"/>
            <path id="パス_5368" data-name="パス 5368" d="M92.011,92.659a.839.839,0,0,1-.078-1.675,23.794,23.794,0,0,0,4.264-.93,13.7,13.7,0,0,0,6.763-4.178c-.636-1.8-5.6-12.627-8.827-17.415-2.851-4.234-11.857-5.135-14.124-5.3a11.462,11.462,0,0,1-10.173,5.666h-.192a.839.839,0,0,1,.011-1.678c.049,0,.118,0,.177,0a9.755,9.755,0,0,0,8.925-5.207l.234-.508.561.018c.5.02,12.242.528,15.972,6.068,3.312,4.917,9.159,17.4,9.159,18.4,0,1.145-3.033,4.19-7.987,5.732a24.753,24.753,0,0,1-4.606,1,.724.724,0,0,1-.079,0" transform="translate(-18.6 -16.606)" fill="#262928"/>
            <path id="パス_5369" data-name="パス 5369" d="M130.166,139.788a2.21,2.21,0,0,1-.478-.049.839.839,0,1,1,.377-1.635.484.484,0,0,0,.3-.036c.034-.031.113-.207.067-.633-.153-1.419-2.512-3.486-4.654-4.711a31.985,31.985,0,0,0-5.477-2.073l-.409-.115-.15-.4a62.558,62.558,0,0,1-1.851-8.1,71.677,71.677,0,0,0-1.865-8.26c-1.287-3.662-5.171-14.222-5.21-14.328a.839.839,0,1,1,1.575-.58c.039.107,3.927,10.679,5.218,14.353a72.135,72.135,0,0,1,1.93,8.5,76,76,0,0,0,1.639,7.431,30.455,30.455,0,0,1,5.432,2.11c1.918,1.1,5.234,3.591,5.49,5.989a2.284,2.284,0,0,1-.623,2.069,1.953,1.953,0,0,1-1.313.464" transform="translate(-29.938 -26.574)" fill="#262928"/>
            <path id="パス_5370" data-name="パス 5370" d="M69.755,119.2h-.1a.84.84,0,0,1,0-1.679s.066,0,.1,0c12.939,0,19.2-1.208,21.122-1.67a92.3,92.3,0,0,1,.087-13.922,158.952,158.952,0,0,0,0-19.256.84.84,0,0,1,.773-.9.829.829,0,0,1,.9.773,160.979,160.979,0,0,1,0,19.484c-.633,10.6-.018,14.261-.012,14.3l.126.714-.69.229c-.241.079-6.055,1.93-22.307,1.931" transform="translate(-18.599 -22.101)" fill="#262928"/>
            <path id="パス_5371" data-name="パス 5371" d="M76.693,159.366c-3.415,0-6.612-.069-6.659-.071l-.8-.017-.422-14.445a.84.84,0,0,1,.814-.863h.025a.84.84,0,0,1,.838.816l.375,12.848c1.994.036,7.28.112,10.728-.015a44.239,44.239,0,0,0,9.71-1.291c.111-1.684-.009-10.487-.05-13.492l0-.366c-.053-3.867-.927-13.036-.935-13.128a.839.839,0,1,1,1.67-.16c.036.379.89,9.329.943,13.265l.005.366c.153,11.246.1,13.725-.038,14.207-.164.563-.587,1.039-4.342,1.619a63.262,63.262,0,0,1-6.9.658c-1.459.054-3.239.071-4.964.071" transform="translate(-18.6 -34.71)" fill="#262928"/>
            <path id="パス_5372" data-name="パス 5372" d="M103.213,220.562a.847.847,0,0,1-.8-.542.824.824,0,0,1,.476-1.072l.036-.013c.261-.1.3-.111.235-.39a8.939,8.939,0,0,0-.7-.638,12.45,12.45,0,0,1-1.4-1.346,28.09,28.09,0,0,0-3.8-3.536l-.149-.12a15.978,15.978,0,0,0-2.005-1.3,14.775,14.775,0,0,1-1.672-1.067,12.081,12.081,0,0,1-1.81-2.221c-.453-1.594.363-6.932,1.313-12.728.175-1.065.323-1.967.412-2.58C93.732,190.4,94.4,168.424,94.4,168.2a.839.839,0,1,1,1.678.05c-.027.909-.672,22.292-1.065,25-.089.62-.239,1.532-.416,2.61-.554,3.376-1.693,10.32-1.379,11.9.244.329,1.114,1.319,1.288,1.483a14.326,14.326,0,0,0,1.445.907,17.576,17.576,0,0,1,2.218,1.445l.146.118a29.6,29.6,0,0,1,4.03,3.765,11.13,11.13,0,0,0,1.215,1.154c.658.566,1.092.941,1.208,1.416a1.908,1.908,0,0,1-1.259,2.457.862.862,0,0,1-.3.053m-.072-2.108h0Z" transform="translate(-24.731 -45.243)" fill="#262928"/>
            <path id="パス_5373" data-name="パス 5373" d="M91.611,225.866a7.959,7.959,0,0,1-1.133-.109l-.193-.028c-1.193-.168-1.994-1.5-2.561-2.668-.2-.13-.544-.354-1.148-.751l-1.056-.693a15.713,15.713,0,0,1-2.231-2.031,15.825,15.825,0,0,0-2.747-2.432l-.315-.182c-1.8-1.035-4.259-2.453-4.259-4.961a6.548,6.548,0,0,1,.807-3.05,3.948,3.948,0,0,0,.511-1.566c.045-.983-.288-4.5-.987-10.468l-.028-.236a19.616,19.616,0,0,1,.363-5.037l.075-.462c.122-.793.15-1.253-.367-4.729s-.591-16.536-.595-17.091a.84.84,0,0,1,.835-.844h0a.84.84,0,0,1,.84.835c0,.135.078,13.508.576,16.854.507,3.41.533,4.14.366,5.231l-.08.485a18.267,18.267,0,0,0-.35,4.563l.027.236c.46,3.916,1.063,9.291,1,10.741a5.441,5.441,0,0,1-.674,2.216,4.91,4.91,0,0,0-.641,2.323c0,1.538,1.9,2.629,3.418,3.506l.32.185a16.553,16.553,0,0,1,3.1,2.708,15,15,0,0,0,1.952,1.8l1.057.694c.654.429,1.118.735,1.252.817a1.045,1.045,0,0,1,.458.549c.809,1.678,1.264,1.786,1.313,1.794l.2.029a3.19,3.19,0,0,0,1.208.047.519.519,0,0,0,.054-.2,3.041,3.041,0,0,0-.626-2.179.84.84,0,0,1,1.269-1.1,4.749,4.749,0,0,1,1.023,3.486,1.891,1.891,0,0,1-.7,1.332,2.131,2.131,0,0,1-1.335.388" transform="translate(-20.474 -45.551)" fill="#262928"/>
            <path id="パス_5374" data-name="パス 5374" d="M100.088,244.4a6.653,6.653,0,0,1-1.424-.188.839.839,0,0,1,.4-1.63,4.139,4.139,0,0,0,1.216.128c.187-.036.3-.058.4-.635a7.187,7.187,0,0,0-1.157-2.5.839.839,0,0,1,1.4-.919c.489.748,1.606,2.609,1.4,3.718a2.16,2.16,0,0,1-1.737,1.981,2.665,2.665,0,0,1-.5.043" transform="translate(-26.494 -64.404)" fill="#262928"/>
            <path id="パス_5375" data-name="パス 5375" d="M103.025,243.638a5.981,5.981,0,0,1-.61-.035.839.839,0,0,1,.174-1.669,4.314,4.314,0,0,0,.6.02.862.862,0,0,0,.15-.072c0-.036.046-.306.089-.759a3.569,3.569,0,0,0-1.013-1.954.839.839,0,1,1,1.23-1.141c.163.176,1.593,1.764,1.453,3.252-.116,1.241-.278,1.828-1.331,2.251a2.076,2.076,0,0,1-.746.107" transform="translate(-27.478 -64.263)" fill="#262928"/>
            <path id="パス_5376" data-name="パス 5376" d="M105.293,242.021a1.974,1.974,0,0,1-.21-.01.839.839,0,1,1,.178-1.669,1.013,1.013,0,0,0,.467-.1.942.942,0,0,0,.349-1.013,4.051,4.051,0,0,0-1.277-1.6.84.84,0,1,1,1.052-1.308,5.4,5.4,0,0,1,1.878,2.619,2.6,2.6,0,0,1-1.23,2.793,2.654,2.654,0,0,1-1.208.289" transform="translate(-28.2 -63.824)" fill="#262928"/>
            <path id="パス_5377" data-name="パス 5377" d="M117.8,146.831a.837.837,0,0,1-.78-.531,16.2,16.2,0,0,0-3.2-4.557c-.112.147-.266.394-.4.6-.189.3-.407.656-.679,1.034-1.307,1.824-2.943,2.158-4.734.96-1.389-.927-.5-2.726.212-4.172a5.921,5.921,0,0,0,.815-2.248,10.476,10.476,0,0,1,0-2.426,11.5,11.5,0,0,0,0-2.574,17.621,17.621,0,0,0-1.755-4.59c-.43-.9-.873-1.823-1.279-2.793a29.815,29.815,0,0,1-1.221-3.71,20.165,20.165,0,0,0-1.442-4.032c-1.333-2.6-4.056-8.22-4.084-8.277a.839.839,0,0,1,1.511-.731c.028.056,2.742,5.659,4.067,8.243a21.6,21.6,0,0,1,1.566,4.349,28.262,28.262,0,0,0,1.151,3.511c.39.931.825,1.838,1.245,2.716a18.562,18.562,0,0,1,1.907,5.1,13.018,13.018,0,0,1,.008,2.925,8.876,8.876,0,0,0-.009,2.054,6.214,6.214,0,0,1-.972,3.227,5.845,5.845,0,0,0-.765,2.065c.881.57,1.533.659,2.418-.574.247-.345.447-.665.618-.942.437-.7.814-1.308,1.507-1.443a1.644,1.644,0,0,1,1.305.37,17.252,17.252,0,0,1,3.775,5.3.84.84,0,0,1-.78,1.148" transform="translate(-26.803 -29.276)" fill="#262928"/>
            <path id="パス_5378" data-name="パス 5378" d="M127.169,157.988a.841.841,0,0,1-.833-.738,13.75,13.75,0,0,0-.476-2.327,17.355,17.355,0,0,0-1.2-2.362.839.839,0,1,1,1.433-.874,18.746,18.746,0,0,1,1.347,2.663,15.663,15.663,0,0,1,.565,2.7.839.839,0,0,1-.731.935.823.823,0,0,1-.1.007" transform="translate(-33.66 -40.89)" fill="#262928"/>
            <path id="パス_5379" data-name="パス 5379" d="M132.44,159.365a.839.839,0,0,1-.837-.8l-.035-.7a18.611,18.611,0,0,0-.406-2.539,30.316,30.316,0,0,0-2.022-4.586.84.84,0,1,1,1.491-.773,32.184,32.184,0,0,1,2.177,5.03,19.528,19.528,0,0,1,.436,2.785l.034.7a.838.838,0,0,1-.8.88h-.043" transform="translate(-34.879 -40.412)" fill="#262928"/>
            <path id="パス_5380" data-name="パス 5380" d="M130.059,161.4a2.129,2.129,0,0,1-2.042-1.5l-.023-.093-.135-.729a12.1,12.1,0,0,0-.431-2.42,26.774,26.774,0,0,0-2.209-3.134.84.84,0,0,1,1.322-1.036,26.967,26.967,0,0,1,2.44,3.535,13.4,13.4,0,0,1,.546,2.861l.1.552a.46.46,0,0,0,.887-.171.865.865,0,0,1,.728-.963.824.824,0,0,1,.935.7,2.18,2.18,0,0,1,.016.261,2.141,2.141,0,0,1-2.139,2.139" transform="translate(-33.797 -41.126)" fill="#262928"/>
            <path id="パス_5381" data-name="パス 5381" d="M136.279,156.672l-.053,0a.838.838,0,0,1-.784-.89,14.663,14.663,0,0,0-.3-2.285c-.258-1.412-1.969-3.858-2.607-4.682a.839.839,0,0,1,1.327-1.028c.26.336,2.554,3.341,2.931,5.41a13.282,13.282,0,0,1,.325,2.69.839.839,0,0,1-.836.787" transform="translate(-35.774 -39.856)" fill="#262928"/>
            <path id="パス_5382" data-name="パス 5382" d="M133.377,158.054a.841.841,0,0,1-.833-.738s-.035-.211-.209-.806a39.905,39.905,0,0,0-2.275-3.939.838.838,0,1,1,1.419-.893,36.363,36.363,0,0,1,2.466,4.36,7.941,7.941,0,0,1,.266,1.076.839.839,0,0,1-.732.934.809.809,0,0,1-.1.007" transform="translate(-35.118 -40.89)" fill="#262928"/>
            <path id="パス_5383" data-name="パス 5383" d="M125.594,161.089a2.127,2.127,0,0,1-2.042-1.5.839.839,0,0,1,1.6-.5.46.46,0,0,0,.9-.138.868.868,0,0,1,.74-.958.809.809,0,0,1,.924.709,2.132,2.132,0,0,1-2.123,2.388" transform="translate(-33.384 -42.701)" fill="#262928"/>
            <path id="パス_5384" data-name="パス 5384" d="M135.443,160.468a1.983,1.983,0,0,1-1.9-1.4.839.839,0,0,1,1.6-.5.314.314,0,0,0,.3.219.311.311,0,0,0,.312-.311.856.856,0,0,1,.728-.954.823.823,0,0,1,.936.711,1.921,1.921,0,0,1,.015.243,1.993,1.993,0,0,1-1.991,1.99" transform="translate(-36.084 -42.574)" fill="#262928"/>
            <path id="パス_5385" data-name="パス 5385" d="M90.484,39.532a4.742,4.742,0,0,1-.968-.106.839.839,0,1,1,.341-1.643,1.772,1.772,0,0,0,1.584-.249c.5-.436,1.068-1.608.888-4.721a1.945,1.945,0,0,0-1.414-2.007.772.772,0,0,0-.8.181.839.839,0,0,1-1.508-.737,2.324,2.324,0,0,1,2.635-1.089,3.594,3.594,0,0,1,2.759,3.556c.181,3.133-.285,5.068-1.467,6.088a3.042,3.042,0,0,1-2.054.727" transform="translate(-23.927 -7.866)" fill="#262928"/>
            <path id="パス_5386" data-name="パス 5386" d="M47.059,39.531A3.043,3.043,0,0,1,45,38.8c-1.182-1.02-1.648-2.955-1.467-6.088a3.58,3.58,0,0,1,2.729-3.557,2.293,2.293,0,0,1,2.6,1.091.839.839,0,0,1-1.508.737c-.073-.15-.377-.261-.763-.182a1.937,1.937,0,0,0-1.384,2.009c-.18,3.113.383,4.285.887,4.721a1.769,1.769,0,0,0,1.585.249.839.839,0,1,1,.341,1.643,4.741,4.741,0,0,1-.968.106" transform="translate(-11.757 -7.865)" fill="#262928"/>
            <path id="パス_5387" data-name="パス 5387" d="M78.537,27.663c-.031,0-.061,0-.093,0a.841.841,0,0,1-.743-.927l.123-1.122A38.1,38.1,0,0,1,74.063,21.5a47.236,47.236,0,0,1-2.675-4.138c-1.705,2.582-3,4.043-3.855,4.346-1.311.466-5.236,1.512-7.634.793-.433-.136-1.707.495-2.639.951a10.231,10.231,0,0,1-3.827,1.316,21.439,21.439,0,0,1-3.259-.187l.117,2.2a.839.839,0,0,1-.793.883.827.827,0,0,1-.883-.792l-.154-2.879a1.117,1.117,0,0,1,.369-.9,1.1,1.1,0,0,1,.918-.273,20.584,20.584,0,0,0,3.641.266,9.513,9.513,0,0,0,3.133-1.146c1.5-.734,2.8-1.367,3.859-1.051,1.789.539,5.275-.3,6.589-.768.444-.171,1.857-1.84,3.6-4.6a1.031,1.031,0,0,1,.875-.468,1.013,1.013,0,0,1,.852.516,52.02,52.02,0,0,0,3.109,4.918,31.838,31.838,0,0,0,3.544,3.835,1.745,1.745,0,0,1,.541,1.465l-.123,1.122a.84.84,0,0,1-.833.747M50.138,23.9v0Zm21.854-7.474h0Z" transform="translate(-13.098 -4.07)" fill="#262928"/>
            <path id="パス_5388" data-name="パス 5388" d="M80.319,23.592a.839.839,0,0,1-.78-1.148c.018-.048,1.9-4.877,1.36-8.926-.389-2.925-2.815-5.016-4.586-6.542a14.507,14.507,0,0,1-1.546-1.453c-.525-.625-1-.786-2.55-1.246A49.857,49.857,0,0,1,66.4,2.2c-2.474-1.052-6.641-.472-11.145,1.55-4.053,1.82-7.556,4.5-8.52,6.529-1.624,3.414-.2,12.029-.19,12.115a.839.839,0,1,1-1.655.279c-.063-.374-1.521-9.226.33-13.114,1.154-2.428,4.824-5.308,9.348-7.34C56.935,1.156,62.883-1.119,67.06.654a47.721,47.721,0,0,0,5.634,2.015c1.549.459,2.484.736,3.357,1.775A13.66,13.66,0,0,0,77.408,5.7C79.272,7.312,82.09,9.74,82.562,13.3c.6,4.485-1.378,9.549-1.463,9.763a.837.837,0,0,1-.78.531" transform="translate(-11.971 0)" fill="#262928"/>
          </g>
        </g>
      </g>
    </g>
  </g>
</svg>
