<svg xmlns="http://www.w3.org/2000/svg" width="287.509" height="31.082" viewBox="0 0 287.509 31.082">
  <g id="グループ_4789" data-name="グループ 4789" transform="translate(9398.877 -1626.082)">
    <path id="パス_4640" data-name="パス 4640" d="M32.222,30.758A3.678,3.678,0,0,0,35.233,29.2l8.6-12.353a2.452,2.452,0,0,0-.159-3.006L32.977,1.443A4.2,4.2,0,0,0,29.808,0H26.014a.874.874,0,0,0-.678,1.442L35.474,13.188a1.227,1.227,0,0,1,.078,1.5l-10.1,14.5a1,1,0,0,0,.835,1.562Z" transform="translate(-9424 1626.082)" fill="#44998f"/>
    <path id="パス_4641" data-name="パス 4641" d="M48.933,10.7a2.1,2.1,0,0,1,1.584.737L52.4,13.649a1.259,1.259,0,0,1,.079,1.525L42.4,29.865a1.013,1.013,0,0,0,.835,1.585H49.17a3.656,3.656,0,0,0,3.01-1.586l8.551-12.471a2.52,2.52,0,0,0-.159-3.052L55.232,8.055A4.169,4.169,0,0,0,52.064,6.59h-8.9a.889.889,0,0,0-.678,1.465l.991,1.166a4.191,4.191,0,0,0,3.169,1.473Z" transform="translate(-9424.569 1625.389)" fill="#44998f"/>
    <path id="パス_4642" data-name="パス 4642" d="M148.221,7.715a.621.621,0,0,0-.363-1.125h-6.551a5.968,5.968,0,0,0-3.483,1.125l-31.366,22.61a.621.621,0,0,0,.362,1.125h6.608a5.941,5.941,0,0,0,3.481-1.129L125,24.457a.968.968,0,0,1,1.348.211l3.841,5.233a3.808,3.808,0,0,0,3.061,1.551h6.7a.978.978,0,0,0,.79-1.553L133.284,19.67a.956.956,0,0,1,.214-1.339Z" transform="translate(-9426.975 1625.389)" fill="#44998f"/>
    <path id="パス_4643" data-name="パス 4643" d="M59.993,6.59a.889.889,0,0,0-.678,1.465l.991,1.166a4.189,4.189,0,0,0,3.169,1.473l2.4.011a2.093,2.093,0,0,1,1.584.737l1.875,2.206a1.258,1.258,0,0,1,.079,1.525L59.337,29.865a1.013,1.013,0,0,0,.835,1.585H66.11a3.658,3.658,0,0,0,3.01-1.585l8.553-12.474a2.52,2.52,0,0,0-.159-3.052L72.173,8.055A4.167,4.167,0,0,0,69,6.59Z" transform="translate(-9425.132 1625.389)" fill="#44998f"/>
    <path id="パス_4644" data-name="パス 4644" d="M94.852,10.724a.508.508,0,0,1,.418.8L82.687,29.865a1.013,1.013,0,0,0,.835,1.586H88.4a3.662,3.662,0,0,0,3.012-1.586l12.571-18.321a1.824,1.824,0,0,1,1.506-.791l4.462.011a.975.975,0,0,0,.791-1.55l-.78-1.069A3.788,3.788,0,0,0,106.91,6.59H77.254a.882.882,0,0,0-.668,1.458L77.6,9.23a4.219,4.219,0,0,0,3.178,1.462Z" transform="translate(-9425.875 1625.389)" fill="#44998f"/>
    <path id="パス_4645" data-name="パス 4645" d="M126.3,12.967a1.907,1.907,0,0,0,.428-2.674l-1.57-2.148A3.8,3.8,0,0,0,122.1,6.592l-6.69,0a.978.978,0,0,0-.79,1.553l5.188,7.114a1.938,1.938,0,0,0,2.7.433Z" transform="translate(-9427.245 1625.726)" fill="#44998f"/>
    <g id="グループ_4789-2" data-name="グループ 4789" transform="translate(-9269.872 1631.935)">
      <path id="パス_4646" data-name="パス 4646" d="M34.755,67.945a.8.8,0,0,1,.834.906v5.362c0,.315-.144.521-.449.521s-.449-.206-.449-.531V68.8h-.018l-2.146,5.479a.632.632,0,0,1-.62.457.619.619,0,0,1-.611-.439L29.15,68.8h-.017v5.416c0,.315-.145.521-.45.521s-.449-.206-.449-.531V68.851a.8.8,0,0,1,.836-.906.849.849,0,0,1,.88.619c.988,2.516,1.608,4.087,1.949,5.029h.026c.369-1.014.844-2.235,1.948-5.029a.851.851,0,0,1,.881-.619" transform="translate(-28.234 -67.864)" fill="#1a1311"/>
      <path id="パス_4647" data-name="パス 4647" d="M38.758,67.984c.268,0,.439.126.439.367s-.18.369-.439.369H37.339v5.424c0,.341-.145.575-.477.575s-.485-.225-.485-.583V68.72H34.958c-.26,0-.439-.117-.439-.369s.17-.367.439-.367Z" transform="translate(-25.836 -67.849)" fill="#1a1311"/>
      <path id="パス_4648" data-name="パス 4648" d="M40.469,71.259l-1.5-2.578c-.162-.287-.108-.735.359-.735.278,0,.385.152.521.412l1.14,2.219h.026l1.143-2.219c.134-.26.24-.412.521-.412.466,0,.521.448.358.735l-1.5,2.578L43.137,74c.171.287.108.738-.359.738-.278,0-.385-.153-.521-.413L41.016,72H40.99l-1.239,2.327c-.134.26-.242.413-.519.413-.467,0-.531-.45-.359-.738Z" transform="translate(-24.208 -67.863)" fill="#1a1311"/>
      <path id="パス_4649" data-name="パス 4649" d="M46.287,73.194a.479.479,0,0,1,.413.216A1.638,1.638,0,0,0,48,74.1a1.22,1.22,0,0,0,1.348-1.14.98.98,0,0,0-.4-.764,7.646,7.646,0,0,0-1.187-.629,4.543,4.543,0,0,1-1.337-.772,1.64,1.64,0,0,1-.548-1.257c0-.718.493-1.652,2.129-1.652,1.293,0,1.752.575,1.86.763a.441.441,0,0,1-.351.7.487.487,0,0,1-.431-.233,1.215,1.215,0,0,0-1.05-.495c-.8,0-1.187.4-1.187.908a.912.912,0,0,0,.432.745,5.926,5.926,0,0,0,1.23.638,5.5,5.5,0,0,1,1.293.745,1.682,1.682,0,0,1,.531,1.239c0,.826-.62,1.94-2.353,1.94a2.339,2.339,0,0,1-2-.826c-.269-.35-.117-.817.305-.817" transform="translate(-21.513 -67.886)" fill="#1a1311"/>
      <path id="パス_4650" data-name="パス 4650" d="M50.221,68.559c0-.359.145-.575.548-.575H52.3c1.9,0,2.622.745,2.622,1.994,0,1.473-.924,2.074-2.73,2.074H51.183v2.093c0,.341-.153.575-.485.575s-.477-.225-.477-.583Zm1.923,2.756c1.248,0,1.786-.4,1.786-1.319,0-.818-.511-1.275-1.68-1.275H51.183v2.595Z" transform="translate(-19.845 -67.849)" fill="#1a1311"/>
      <path id="パス_4651" data-name="パス 4651" d="M54.5,71.352c0-2.433,1.25-3.466,2.911-3.466s2.91,1.033,2.91,3.476-1.248,3.476-2.91,3.476S54.5,73.795,54.5,71.362Zm2.9-2.73c-.978,0-1.912.736-1.912,2.74S56.42,74.1,57.408,74.1s1.922-.736,1.922-2.738-.934-2.74-1.922-2.74Z" transform="translate(-18.213 -67.886)" fill="#1a1311"/>
      <path id="パス_4652" data-name="パス 4652" d="M61.832,71.971H60.827v2.173c0,.341-.153.575-.485.575s-.477-.225-.477-.583V68.559c0-.359.145-.575.548-.575H61.85c1.429,0,2.63.439,2.63,1.948a1.792,1.792,0,0,1-1.7,1.9l1.571,2.128c.2.271.145.764-.332.764a.7.7,0,0,1-.593-.387Zm.18-.736c.934,0,1.481-.459,1.481-1.275,0-.79-.43-1.239-1.67-1.239h-1v2.514Z" transform="translate(-16.165 -67.849)" fill="#1a1311"/>
      <path id="パス_4653" data-name="パス 4653" d="M68.226,67.984c.268,0,.439.126.439.367s-.18.369-.439.369H66.807v5.424c0,.341-.145.575-.477.575s-.485-.225-.485-.583V68.72H64.426c-.26,0-.439-.117-.439-.369s.17-.367.439-.367Z" transform="translate(-14.592 -67.849)" fill="#1a1311"/>
      <path id="パス_4654" data-name="パス 4654" d="M74.139,74.056H74.1a2.375,2.375,0,0,1-1.706.655c-.816,0-2.047-.216-2.047-1.688,0-.88.477-1.419,1.357-1.976a2.943,2.943,0,0,1-.584-1.563c0-.665.413-1.267,1.491-1.267.854,0,1.5.387,1.5,1.2,0,.834-.647,1.3-1.366,1.742.45.593.962,1.231,1.42,1.732a3.615,3.615,0,0,0,.421-1.283c.046-.233.163-.413.387-.413a.35.35,0,0,1,.359.457,4.6,4.6,0,0,1-.674,1.77l.457.467c.127.126.253.233.253.413a.315.315,0,0,1-.359.333.756.756,0,0,1-.547-.261Zm-2.892-1.025A1.113,1.113,0,0,0,72.4,74.146a1.592,1.592,0,0,0,1.267-.575,17.119,17.119,0,0,1-1.581-1.977,1.747,1.747,0,0,0-.836,1.429Zm.718-3.546a2.279,2.279,0,0,0,.431,1.158c.495-.323.934-.629.934-1.194a.649.649,0,0,0-.692-.665.619.619,0,0,0-.673.691Z" transform="translate(-12.165 -67.759)" fill="#1a1311"/>
      <path id="パス_4655" data-name="パス 4655" d="M79.167,68.592a.787.787,0,0,1,.825-.647.8.8,0,0,1,.836.673L82.453,74c.134.431-.028.736-.413.736a.532.532,0,0,1-.548-.449l-.414-1.535H78.9l-.4,1.535a.531.531,0,0,1-.548.449c-.385,0-.548-.305-.413-.736Zm.843.216h-.018l-.879,3.205h1.759Z" transform="translate(-9.443 -67.864)" fill="#1a1311"/>
      <path id="パス_4656" data-name="パス 4656" d="M84.139,71.971H83.134v2.173c0,.341-.153.575-.485.575s-.477-.225-.477-.583V68.559c0-.359.145-.575.548-.575h1.437c1.429,0,2.63.439,2.63,1.948a1.792,1.792,0,0,1-1.7,1.9l1.571,2.128c.2.271.145.764-.332.764a.7.7,0,0,1-.593-.387Zm.18-.736c.934,0,1.481-.459,1.481-1.275,0-.79-.43-1.239-1.67-1.239h-1v2.514Z" transform="translate(-7.654 -67.849)" fill="#1a1311"/>
      <path id="パス_4657" data-name="パス 4657" d="M90.533,67.984c.268,0,.439.126.439.367s-.18.369-.439.369H89.114v5.424c0,.341-.145.575-.477.575s-.485-.225-.485-.583V68.72H86.733c-.26,0-.439-.117-.439-.369s.17-.367.439-.367Z" transform="translate(-6.082 -67.849)" fill="#1a1311"/>
      <path id="パス_4658" data-name="パス 4658" d="M90.686,68.529c0-.359.152-.583.477-.583s.484.233.484.575V74.16c0,.341-.152.575-.484.575s-.477-.225-.477-.584Z" transform="translate(-4.405 -67.863)" fill="#1a1311"/>
      <path id="パス_4659" data-name="パス 4659" d="M97.37,72.718a.451.451,0,0,1,.369.718,2.558,2.558,0,0,1-2.3,1.4,2.69,2.69,0,0,1-1.985-.79,4.54,4.54,0,0,1-.018-5.326,2.689,2.689,0,0,1,2.02-.834,2.266,2.266,0,0,1,2.183,1.257c.18.421-.054.718-.367.718-.251,0-.4-.126-.539-.423a1.323,1.323,0,0,0-1.277-.816c-.834,0-1.884.638-1.884,2.74,0,2.128,1,2.738,1.86,2.738a1.6,1.6,0,0,0,1.4-.96c.153-.287.287-.423.539-.423" transform="translate(-3.682 -67.886)" fill="#1a1311"/>
      <path id="パス_4660" data-name="パス 4660" d="M102.276,72.327c0,1.786-.665,2.488-2.362,2.488-1.652,0-2.343-.674-2.343-2.5V68.528c0-.359.152-.583.475-.583s.485.233.485.575v3.745c0,1.167.269,1.814,1.383,1.814,1.131,0,1.4-.63,1.4-1.814V68.528c0-.359.152-.583.474-.583s.486.233.486.575Z" transform="translate(-1.779 -67.864)" fill="#1a1311"/>
      <path id="パス_4661" data-name="パス 4661" d="M102.791,67.945c.332,0,.485.233.485.575v5.424h2.532c.269,0,.441.126.441.367s-.181.369-.441.369h-2.945c-.4,0-.548-.216-.548-.575V68.528c0-.359.153-.583.477-.583" transform="translate(0.031 -67.864)" fill="#1a1311"/>
      <path id="パス_4662" data-name="パス 4662" d="M107.491,68.592a.787.787,0,0,1,.825-.647.8.8,0,0,1,.836.673L110.777,74c.134.431-.028.736-.413.736a.532.532,0,0,1-.548-.449L109.4,72.75H107.22l-.4,1.535a.531.531,0,0,1-.548.449c-.385,0-.548-.305-.413-.736Zm.843.216h-.018l-.879,3.205H109.2Z" transform="translate(1.364 -67.864)" fill="#1a1311"/>
      <path id="パス_4663" data-name="パス 4663" d="M112.463,71.971h-1.006v2.173c0,.341-.153.575-.485.575s-.477-.225-.477-.583V68.559c0-.359.145-.575.548-.575h1.437c1.429,0,2.63.439,2.63,1.948a1.792,1.792,0,0,1-1.7,1.9l1.571,2.128c.2.271.145.764-.332.764a.7.7,0,0,1-.593-.387Zm.18-.736c.934,0,1.481-.459,1.481-1.275,0-.79-.43-1.239-1.67-1.239h-1v2.514Z" transform="translate(3.153 -67.849)" fill="#1a1311"/>
      <path id="パス_4664" data-name="パス 4664" d="M122.387,72.718a.451.451,0,0,1,.369.718,2.558,2.558,0,0,1-2.3,1.4,2.69,2.69,0,0,1-1.985-.79,4.546,4.546,0,0,1-.018-5.326,2.69,2.69,0,0,1,2.021-.834,2.265,2.265,0,0,1,2.181,1.257c.18.421-.054.718-.367.718-.251,0-.4-.126-.539-.423a1.322,1.322,0,0,0-1.275-.816c-.836,0-1.886.638-1.886,2.74,0,2.128,1,2.738,1.86,2.738a1.6,1.6,0,0,0,1.4-.96c.153-.287.287-.423.539-.423" transform="translate(5.864 -67.886)" fill="#1a1311"/>
      <path id="パス_4665" data-name="パス 4665" d="M123.095,67.945c.332,0,.485.233.485.575v5.424h2.532c.269,0,.441.126.441.367s-.181.369-.441.369h-2.945c-.4,0-.548-.216-.548-.575V68.528c0-.359.153-.583.477-.583" transform="translate(7.778 -67.864)" fill="#1a1311"/>
      <path id="パス_4666" data-name="パス 4666" d="M126.472,68.529c0-.359.152-.583.477-.583s.484.233.484.575V74.16c0,.341-.152.575-.484.575s-.477-.225-.477-.584Z" transform="translate(9.249 -67.863)" fill="#1a1311"/>
      <path id="パス_4667" data-name="パス 4667" d="M132.6,73.584V68.466c0-.315.144-.521.449-.521s.449.206.449.529v5.352c0,.62-.323.908-.771.908-.423,0-.629-.216-.828-.629l-2.4-5.065h-.018v5.173c0,.315-.144.521-.449.521s-.449-.206-.449-.531V68.851c0-.619.323-.906.772-.906a.838.838,0,0,1,.836.593l2.387,5.047Z" transform="translate(10.055 -67.864)" fill="#1a1311"/>
      <path id="パス_4668" data-name="パス 4668" d="M133.55,68.529c0-.359.152-.583.477-.583s.484.233.484.575V74.16c0,.341-.152.575-.484.575s-.477-.225-.477-.584Z" transform="translate(11.95 -67.863)" fill="#1a1311"/>
      <path id="パス_4669" data-name="パス 4669" d="M140.235,72.718a.451.451,0,0,1,.369.718,2.558,2.558,0,0,1-2.3,1.4,2.69,2.69,0,0,1-1.985-.79,4.546,4.546,0,0,1-.018-5.326,2.69,2.69,0,0,1,2.021-.834,2.265,2.265,0,0,1,2.181,1.257c.18.421-.054.718-.367.718-.251,0-.4-.126-.539-.423a1.322,1.322,0,0,0-1.275-.816c-.836,0-1.886.638-1.886,2.74,0,2.128,1,2.738,1.86,2.738a1.6,1.6,0,0,0,1.4-.96c.153-.287.287-.423.539-.423" transform="translate(12.674 -67.886)" fill="#1a1311"/>
    </g>
    <path id="パス_4670" data-name="パス 4670" d="M1.38,47.364A.6.6,0,0,1,.707,46.7a.59.59,0,0,1,.658-.667H8.354c.682,0,.933.362.938.769.01.913-1.084,2.927-2.229,4.529a.2.2,0,0,0,.045.276c1.61,1.27,3.1,2.626,3.872,3.357.453.45.6.638.605.914a.773.773,0,0,1-.7.753c-.29,0-.451-.144-.774-.478a50.862,50.862,0,0,0-3.868-3.5.169.169,0,0,0-.233.009C3.853,55.044,1.389,56.745.7,56.745A.746.746,0,0,1,0,56c0-.3.213-.463.572-.651A17.157,17.157,0,0,0,6.84,49.321a5.686,5.686,0,0,0,.821-1.812c0-.1-.074-.145-.219-.145Z" transform="translate(-9271.791 1599.319)" fill="#1a1311"/>
    <path id="パス_4671" data-name="パス 4671" d="M18.354,50.52a11.935,11.935,0,0,1-2.084,4.133c-.5.653-.7.9-1.107.9a.781.781,0,0,1-.776-.754c0-.232.126-.363.5-.8A11.608,11.608,0,0,0,16.9,50.346a.642.642,0,0,1,.676-.522.763.763,0,0,1,.776.7m3.209-3.395a.209.209,0,0,0,.209.206h4.361a.6.6,0,0,1,.675.667.583.583,0,0,1-.659.667H21.787a.2.2,0,0,0-.2.206l.078,6.942c.01.841-.346,1.435-1.261,1.435-.391,0-2.6-.173-2.607-1.088a.679.679,0,0,1,.616-.739,2.652,2.652,0,0,1,.756.232,4.606,4.606,0,0,0,.9.174c.188,0,.246-.087.243-.348l-.075-6.608a.209.209,0,0,0-.209-.206H15.447A.594.594,0,0,1,14.788,48a.579.579,0,0,1,.645-.667h4.579a.2.2,0,0,0,.2-.206l-.02-1.766a.6.6,0,0,1,.658-.682.619.619,0,0,1,.689.682Zm3.272,3.454c.4.536,2.3,3.465,2.309,4.175a.741.741,0,0,1-.731.74c-.42,0-.611-.189-.789-.595a21.863,21.863,0,0,0-1.91-3.379c-.28-.406-.514-.667-.518-.985a.723.723,0,0,1,.732-.682c.334,0,.495.16.907.725m2.6-5.075a1.677,1.677,0,0,1-1.72,1.74,1.715,1.715,0,0,1-1.76-1.74,1.7,1.7,0,0,1,1.721-1.74,1.723,1.723,0,0,1,1.759,1.74m-2.625,0a.882.882,0,0,0,.9.885.857.857,0,0,0,.874-.885.891.891,0,0,0-.894-.885.867.867,0,0,0-.875.885" transform="translate(-9272.316 1599.394)" fill="#1a1311"/>
    <path id="パス_4672" data-name="パス 4672" d="M30.975,51.875a.646.646,0,0,1-.719-.7.634.634,0,0,1,.7-.711H42.225a.649.649,0,0,1,.717.711.629.629,0,0,1-.7.7Z" transform="translate(-9272.892 1599.267)" fill="#1a1311"/>
    <path id="パス_4673" data-name="パス 4673" d="M47.617,47.024a14.6,14.6,0,0,1,1.125,3.349.693.693,0,0,1-.761.711c-.479,0-.569-.348-.721-.972a17.267,17.267,0,0,0-.749-2.16c-.1-.232-.223-.45-.3-.638a1.081,1.081,0,0,1-.121-.45.692.692,0,0,1,.746-.609c.29,0,.495.145.778.769M55.108,53c-1.511,2.233-4.131,3.972-4.914,3.972a.692.692,0,0,1-.689-.7c0-.3.14-.478.544-.666a10.5,10.5,0,0,0,5.142-5.554,16.127,16.127,0,0,0,.93-3.711c.052-.435.238-.725.644-.725a.7.7,0,0,1,.806.754A15.147,15.147,0,0,1,55.108,53m-3.3-6.843a15.258,15.258,0,0,1,.663,3.465.692.692,0,0,1-.731.768c-.609,0-.657-.435-.769-1.348-.08-.711-.188-1.174-.295-1.725a11.253,11.253,0,0,1-.334-1.305.64.64,0,0,1,.7-.609c.334,0,.567.116.763.754" transform="translate(-9273.466 1599.34)" fill="#1a1311"/>
    <path id="パス_4674" data-name="パス 4674" d="M65.186,51.179a1.593,1.593,0,0,1-1.591,1.61,1.637,1.637,0,0,1-1.628-1.61,1.593,1.593,0,0,1,1.591-1.61,1.638,1.638,0,0,1,1.628,1.61" transform="translate(-9274.024 1599.287)" fill="#1a1311"/>
    <path id="パス_4675" data-name="パス 4675" d="M70.528,49.276a.2.2,0,0,0-.2.206l.086,7.652a.5.5,0,0,1-.573.566.512.512,0,0,1-.572-.566l-.13-11.411c-.008-.711.307-1.03,1.019-1.03h3.639c.7,0,.961.261.969.957l.031,2.683c.007.682-.251.943-.947.943Zm-.24-2.946a.208.208,0,0,0,.209.206h2.951a.2.2,0,0,0,.2-.206l0-.331a.228.228,0,0,0-.249-.232H70.528a.222.222,0,0,0-.244.232Zm.218,1.148a.2.2,0,0,0-.2.207l0,.384a.21.21,0,0,0,.209.207h2.911a.221.221,0,0,0,.244-.232l0-.359a.209.209,0,0,0-.209-.207ZM76.1,52.03a.2.2,0,0,0-.215.181c-.01.2-.016.358-.022.482s.055.279.188.279h2.983a.473.473,0,0,1,.529.522.465.465,0,0,1-.516.536H76.381c-.085,0-.151.087-.1.155a5.3,5.3,0,0,0,2.335,1.6.489.489,0,0,1,.368.508.6.6,0,0,1-.6.594,5.39,5.39,0,0,1-2.931-2.015.122.122,0,0,0-.2.023,5.275,5.275,0,0,1-3.265,2.049.585.585,0,0,1-.572-.609.477.477,0,0,1,.386-.464,4.212,4.212,0,0,0,2.564-1.689c.044-.075-.035-.153-.122-.153H71.767a.483.483,0,0,1-.528-.536.467.467,0,0,1,.515-.522h2.738a.214.214,0,0,0,.223-.188c.011-.159.017-.351.024-.552a.2.2,0,0,0-.2-.2H72.121a.464.464,0,0,1-.512-.507.457.457,0,0,1,.5-.522h1.244a.111.111,0,0,0,.093-.173c-.254-.369-.445-.5-.448-.74a.556.556,0,0,1,.573-.537c.232,0,.349.1.511.319.295.378.441.581.444.842a.377.377,0,0,1-.032.156.1.1,0,0,0,.1.133h1.371a.48.48,0,0,0,.381-.241c.168-.251.32-.531.48-.8.142-.261.271-.363.5-.363a.576.576,0,0,1,.6.479,1.5,1.5,0,0,1-.329.787c-.045.068.029.141.11.141h.924a.473.473,0,0,1,.528.522.457.457,0,0,1-.516.507Zm4.274-2.563a.208.208,0,0,0-.208-.206H76.846c-.7,0-.96-.261-.968-.958l-.03-2.638c-.007-.682.249-.943.945-.943h3.64c.71,0,1.033.3,1.042,1.015l.119,10.512c.014,1.32-.972,1.32-1.537,1.32-.465,0-.943,0-.95-.653,0-.319.167-.58.473-.58h.492c.29,0,.376-.116.372-.45Zm-3.384-3.123a.208.208,0,0,0,.208.206h2.938a.2.2,0,0,0,.2-.206l0-.316a.228.228,0,0,0-.235-.246H77.212a.221.221,0,0,0-.228.246Zm.219,1.148a.2.2,0,0,0-.2.206l0,.345a.221.221,0,0,0,.234.246h2.912a.2.2,0,0,0,.2-.207l0-.385a.209.209,0,0,0-.209-.206Z" transform="translate(-9274.305 1599.363)" fill="#1a1311"/>
    <path id="パス_4676" data-name="パス 4676" d="M87.031,46.582a.5.5,0,0,0-.376.214c-.823,1.021-1.294,1.351-1.566,1.351a.614.614,0,0,1-.616-.579c0-.189.1-.333.4-.609a10.617,10.617,0,0,0,1.716-2.1c.229-.363.387-.537.647-.537a.621.621,0,0,1,.615.537,1.029,1.029,0,0,1-.189.528.1.1,0,0,0,.1.154h2.867a.485.485,0,0,1,.543.522.467.467,0,0,1-.531.522H89.046c-.116,0-.148.142-.1.247a2.009,2.009,0,0,1,.265.783.52.52,0,0,1-.574.521c-.348,0-.423-.246-.571-.623-.112-.25-.233-.533-.323-.744a.31.31,0,0,0-.286-.184Zm-.363,9.13c0,.1.067.193.161.173.7-.153,1.508-.367,2.179-.565a.2.2,0,0,0,.145-.292c-.276-.434-.31-.509-.312-.661a.551.551,0,0,1,.59-.522c.217,0,.348.087.556.391.279.435.678,1.03.914,1.465a2.145,2.145,0,0,1,.417.942.572.572,0,0,1-.574.58c-.285,0-.367-.127-.791-.848a.232.232,0,0,0-.274-.094,28.656,28.656,0,0,1-4.356,1.087c-.334,0-.555-.261-.559-.652,0-.33.14-.449.593-.541a.253.253,0,0,0,.211-.245l-.074-6.608c-.008-.74.292-1.044,1.031-1.044H89.83c.74,0,1.048.3,1.057,1.044l.037,3.263c.008.754-.293,1.059-1.033,1.059H86.849a.2.2,0,0,0-.2.206ZM86.6,50.246a.209.209,0,0,0,.209.206h2.807a.2.2,0,0,0,.2-.206l-.006-.548c0-.275-.092-.362-.366-.362H86.957c-.275,0-.362.087-.359.362Zm.22,1.192a.2.2,0,0,0-.2.206l.009.763a.208.208,0,0,0,.208.206h2.651c.275,0,.362-.087.359-.363l-.007-.606a.208.208,0,0,0-.209-.206ZM92.918,46.6a.452.452,0,0,0-.352.193c-.7.922-1.045,1.126-1.3,1.126a.609.609,0,0,1-.6-.537c0-.261.17-.362.429-.638a10.216,10.216,0,0,0,1.47-2,.708.708,0,0,1,.619-.435.543.543,0,0,1,.557.522,1.05,1.05,0,0,1-.172.511c-.047.083-.014.2.081.2h3.593a.484.484,0,0,1,.529.536.468.468,0,0,1-.516.522H95.135c-.113,0-.13.146-.073.245a1.907,1.907,0,0,1,.314.8.542.542,0,0,1-.6.492c-.246,0-.393-.188-.557-.492-.133-.273-.275-.561-.407-.81a.4.4,0,0,0-.333-.234Zm-1,2.783c-.009-.769.306-1.088,1.075-1.088h2.958c.769,0,1.091.319,1.1,1.088l.063,5.6c.012,1-.112,1.565-1.606,1.565-.479,0-1.088,0-1.094-.609A.518.518,0,0,1,95,55.353c.16,0,.378.029.624.029s.347-.116.341-.609l-.056-5c0-.29-.106-.392-.4-.392H93.467c-.289,0-.39.1-.387.392l.084,7.438a.513.513,0,0,1-.573.58.526.526,0,0,1-.586-.58Z" transform="translate(-9274.863 1599.376)" fill="#1a1311"/>
    <path id="パス_4677" data-name="パス 4677" d="M105,47.853a.426.426,0,0,0-.344.235,12.544,12.544,0,0,1-2.608,3.1,1.281,1.281,0,0,1-.765.376.7.7,0,0,1-.689-.711c0-.246.141-.405.53-.7a11.052,11.052,0,0,0,3.379-5.031c.155-.406.385-.493.631-.493a.676.676,0,0,1,.733.638,3.2,3.2,0,0,1-.368,1.148.126.126,0,0,0,.127.171h4.085a1.035,1.035,0,0,1,1.172,1.029,11.554,11.554,0,0,1-3.8,7.293,10.718,10.718,0,0,1-4.611,2.552.7.7,0,0,1-.66-.725c0-.334.2-.493.673-.667a12.561,12.561,0,0,0,3.959-2.421,10.555,10.555,0,0,0,3.01-5.641c0-.1-.03-.16-.218-.16Z" transform="translate(-9275.441 1599.365)" fill="#1a1311"/>
    <path id="パス_4678" data-name="パス 4678" d="M115.634,45.51a.6.6,0,0,1,.674-.682.619.619,0,0,1,.688.682l.07,6.192a.6.6,0,0,1-.673.681.619.619,0,0,1-.689-.681Zm6.6.029a.6.6,0,0,1,.66-.667.615.615,0,0,1,.689.667l.043,3.9c.031,2.683-.052,4.335-1.788,5.915a7.81,7.81,0,0,1-4.069,1.885.688.688,0,0,1-.689-.711c0-.362.153-.537.6-.638a8.016,8.016,0,0,0,2.513-.972c2.073-1.291,2.109-3.1,2.084-5.423Z" transform="translate(-9276.107 1599.359)" fill="#1a1311"/>
    <path id="パス_4679" data-name="パス 4679" d="M128.51,55.8a.62.62,0,0,1-.69-.682.6.6,0,0,1,.675-.681H139.47a.619.619,0,0,1,.689.681.6.6,0,0,1-.673.682Zm1.14-8.1a.611.611,0,0,1-.674-.667.6.6,0,0,1,.658-.667h8.5a.612.612,0,0,1,.676.667.6.6,0,0,1-.66.667Z" transform="translate(-9276.513 1599.308)" fill="#1a1311"/>
    <path id="パス_4680" data-name="パス 4680" d="M144.567,49.273a12.553,12.553,0,0,1,.975,2.857.652.652,0,0,1-.689.653c-.275,0-.509-.1-.631-.638a11.969,11.969,0,0,0-.585-1.755,3.982,3.982,0,0,1-.389-1.03.648.648,0,0,1,.7-.594c.246,0,.422.1.616.507m7.911-.377a11.872,11.872,0,0,1-2.11,5.554c-1.258,1.71-3.114,2.943-3.8,2.943a.662.662,0,0,1-.646-.681c0-.305.183-.45.486-.6a8.767,8.767,0,0,0,4.745-7.278c.052-.537.385-.609.588-.609a.642.642,0,0,1,.732.667m-4.54-.16a17.017,17.017,0,0,1,.51,2.842.634.634,0,0,1-.659.653c-.435,0-.612-.261-.676-.754a15,15,0,0,0-.31-1.827,4.821,4.821,0,0,1-.229-.986.633.633,0,0,1,.689-.594c.464,0,.569.318.675.666" transform="translate(-9277.028 1599.251)" fill="#1a1311"/>
    <path id="パス_4681" data-name="パス 4681" d="M160.2,47.853a.426.426,0,0,0-.344.235,12.544,12.544,0,0,1-2.608,3.1,1.281,1.281,0,0,1-.765.376.7.7,0,0,1-.689-.711c0-.246.141-.405.529-.7a11.048,11.048,0,0,0,3.379-5.031c.155-.406.385-.493.631-.493a.676.676,0,0,1,.733.638,3.2,3.2,0,0,1-.368,1.148.126.126,0,0,0,.127.171h4.085a1.035,1.035,0,0,1,1.172,1.029,11.554,11.554,0,0,1-3.8,7.293,10.718,10.718,0,0,1-4.611,2.552.7.7,0,0,1-.66-.725c0-.334.2-.493.673-.667a12.561,12.561,0,0,0,3.959-2.421,10.56,10.56,0,0,0,3.011-5.641c0-.1-.031-.16-.219-.16Z" transform="translate(-9277.445 1599.365)" fill="#1a1311"/>
  </g>
</svg>
