<svg xmlns="http://www.w3.org/2000/svg" xmlns:xlink="http://www.w3.org/1999/xlink" width="289.775" height="31.082" viewBox="0 0 289.775 31.082">
  <defs>
    <clipPath id="clip-path">
      <path id="パス_6163" data-name="パス 6163" d="M0,0H289.775V31.082H0Z" fill="#fff"/>
    </clipPath>
  </defs>
  <g id="グループ_6593" data-name="グループ 6593" transform="translate(0 41)">
    <g id="マスクグループ_379" data-name="マスクグループ 379" transform="translate(0 -41)" clip-path="url(#clip-path)">
      <path id="パス_6119" data-name="パス 6119" d="M236.5,15.543a.6.6,0,0,1-.667-.66.583.583,0,0,1,.652-.66h6.912c.674,0,.921.358.926.76.011.9-1.07,2.9-2.2,4.479a.2.2,0,0,0,.045.273c1.591,1.256,3.07,2.6,3.828,3.32.449.445.6.631.6.9a.763.763,0,0,1-.695.745c-.286,0-.445-.143-.765-.473a50,50,0,0,0-3.825-3.467c-.087-.07-.207-.017-.282.065-2.116,2.335-4.521,3.99-5.193,3.99a.735.735,0,0,1-.7-.731c0-.3.21-.459.566-.645a16.964,16.964,0,0,0,6.2-5.966,5.633,5.633,0,0,0,.812-1.792c0-.1-.073-.143-.217-.143Z" transform="translate(-104.241 -6.306)" fill="#fff"/>
      <path id="パス_6120" data-name="パス 6120" d="M263.772,17.736a11.833,11.833,0,0,1-2.062,4.087c-.494.645-.693.889-1.094.889a.773.773,0,0,1-.768-.745c0-.23.125-.358.493-.789a11.52,11.52,0,0,0,2-3.614.633.633,0,0,1,.668-.516.755.755,0,0,1,.768.688m3.174-3.371a.218.218,0,0,0,.218.216h4.3a.592.592,0,0,1,.667.66.578.578,0,0,1-.652.66h-4.3a.213.213,0,0,0-.214.215l.078,6.854c.009.832-.342,1.419-1.245,1.419-.387,0-2.57-.172-2.58-1.075a.671.671,0,0,1,.608-.731,2.646,2.646,0,0,1,.748.229,4.521,4.521,0,0,0,.891.173c.186,0,.243-.086.24-.345l-.074-6.524a.218.218,0,0,0-.218-.215H260.9a.587.587,0,0,1-.652-.66.573.573,0,0,1,.638-.66H265.4a.213.213,0,0,0,.213-.216l-.019-1.734a.593.593,0,0,1,.651-.674.613.613,0,0,1,.682.674Zm3.236,3.428c.393.531,2.276,3.427,2.284,4.13a.734.734,0,0,1-.723.731c-.416,0-.6-.186-.781-.588a21.64,21.64,0,0,0-1.888-3.341c-.277-.4-.509-.66-.513-.975a.716.716,0,0,1,.724-.674c.33,0,.49.158.9.717" transform="translate(-115.2 -5.301)" fill="#fff"/>
      <path id="パス_6121" data-name="パス 6121" d="M287.826,23.239a.639.639,0,0,1-.711-.689.627.627,0,0,1,.695-.7h11.143a.642.642,0,0,1,.71.7.622.622,0,0,1-.695.689Z" transform="translate(-127.288 -9.686)" fill="#fff"/>
      <path id="パス_6122" data-name="パス 6122" d="M316.088,14.749a14.416,14.416,0,0,1,1.113,3.312.685.685,0,0,1-.752.7c-.473,0-.563-.344-.714-.961a17.166,17.166,0,0,0-.741-2.136c-.1-.229-.22-.444-.294-.631a1.064,1.064,0,0,1-.12-.445.685.685,0,0,1,.739-.6c.287,0,.489.143.768.76m7.409,5.907c-1.495,2.209-4.085,3.929-4.86,3.929a.685.685,0,0,1-.682-.688c0-.3.138-.473.538-.66a10.386,10.386,0,0,0,5.086-5.492,15.846,15.846,0,0,0,.919-3.671c.052-.43.235-.717.637-.717a.7.7,0,0,1,.8.745,14.96,14.96,0,0,1-2.435,6.553m-3.26-6.768a15.115,15.115,0,0,1,.655,3.427.684.684,0,0,1-.723.76c-.6,0-.65-.43-.76-1.333-.08-.7-.185-1.162-.292-1.707a10.874,10.874,0,0,1-.33-1.29.633.633,0,0,1,.7-.6c.33,0,.561.115.754.746" transform="translate(-139.465 -5.826)" fill="#fff"/>
      <path id="パス_6123" data-name="パス 6123" d="M343.23,21.895a1.575,1.575,0,0,1-1.574,1.592,1.619,1.619,0,0,1-1.61-1.592,1.576,1.576,0,0,1,1.574-1.592,1.62,1.62,0,0,1,1.61,1.592" transform="translate(-150.755 -9.001)" fill="#fff"/>
      <path id="パス_6124" data-name="パス 6124" d="M354.785,16.462a.214.214,0,0,0-.213.216l.086,7.557a.5.5,0,0,1-.567.559.506.506,0,0,1-.566-.559L353.4,12.95c-.008-.7.3-1.018,1.006-1.018H358c.689,0,.95.258.957.946l.03,2.653c.007.674-.248.931-.936.931Zm-.249-2.925a.219.219,0,0,0,.219.216h2.895a.214.214,0,0,0,.214-.216l0-.315a.225.225,0,0,0-.246-.229h-2.84a.219.219,0,0,0-.241.229Zm.229,1.148a.213.213,0,0,0-.213.216l0,.356a.218.218,0,0,0,.218.216h2.867a.219.219,0,0,0,.241-.229l0-.343a.218.218,0,0,0-.218-.216Zm5.529,4.5a.208.208,0,0,0-.224.178c-.011.246-.019.43-.026.564a.192.192,0,0,0,.2.19h2.939a.467.467,0,0,1,.522.516.46.46,0,0,1-.51.531h-2.624c-.087,0-.163.083-.111.153a5.258,5.258,0,0,0,2.309,1.582.484.484,0,0,1,.365.5.6.6,0,0,1-.6.588,5.314,5.314,0,0,1-2.852-1.929c-.062-.082-.183-.125-.242-.041a5.215,5.215,0,0,1-3.229,2.027.578.578,0,0,1-.566-.6.472.472,0,0,1,.382-.459,4.165,4.165,0,0,0,2.534-1.671c.046-.077-.043-.15-.133-.15H356a.479.479,0,0,1-.523-.531.462.462,0,0,1,.51-.516h2.695a.219.219,0,0,0,.233-.186c.011-.156.018-.347.024-.546a.2.2,0,0,0-.21-.2h-2.38a.459.459,0,0,1-.508-.5.452.452,0,0,1,.5-.516h1.218a.114.114,0,0,0,.1-.172c-.252-.365-.44-.494-.443-.732a.55.55,0,0,1,.567-.531c.229,0,.345.1.505.316.291.373.436.573.439.832a.357.357,0,0,1-.032.154c-.031.067.033.133.107.133h1.332a.421.421,0,0,0,.347-.177c.184-.264.345-.564.517-.856.14-.258.268-.358.5-.358a.568.568,0,0,1,.593.474,1.474,1.474,0,0,1-.325.778c-.046.07.037.14.121.14h.9a.468.468,0,0,1,.523.516.452.452,0,0,1-.511.5Zm4.215-2.523a.218.218,0,0,0-.218-.216h-3.269c-.688,0-.949-.258-.957-.946l-.03-2.61c-.007-.674.248-.932.936-.932h3.6c.7,0,1.021.3,1.029,1l.117,10.4c.015,1.3-.96,1.3-1.52,1.3-.459,0-.932,0-.939-.645,0-.315.166-.573.466-.573h.488c.287,0,.371-.115.367-.444Zm-3.348-3.113a.219.219,0,0,0,.219.216h2.88a.214.214,0,0,0,.214-.216l0-.3a.226.226,0,0,0-.232-.244h-2.854a.22.22,0,0,0-.227.244Zm.229,1.148a.214.214,0,0,0-.214.216l0,.329a.218.218,0,0,0,.232.244h2.867a.214.214,0,0,0,.214-.216l0-.357a.219.219,0,0,0-.219-.216Z" transform="translate(-156.673 -5.29)" fill="#fff"/>
      <path id="パス_6125" data-name="パス 6125" d="M382.289,13.513a.507.507,0,0,0-.383.211c-.814,1.01-1.281,1.337-1.55,1.337a.609.609,0,0,1-.609-.573c0-.186.1-.33.395-.6a10.5,10.5,0,0,0,1.7-2.08c.226-.358.382-.531.64-.531a.615.615,0,0,1,.608.531,1.02,1.02,0,0,1-.188.522c-.046.071.026.152.11.152h2.825a.479.479,0,0,1,.537.516.461.461,0,0,1-.525.517h-1.563c-.116,0-.159.139-.109.244a1.986,1.986,0,0,1,.263.774.515.515,0,0,1-.568.516c-.344,0-.419-.244-.566-.617-.11-.247-.229-.527-.319-.736a.315.315,0,0,0-.294-.181Zm-.371,9.019c0,.1.063.2.16.183.722-.156,1.548-.379,2.226-.579a.174.174,0,0,0,.073-.268c-.272-.429-.306-.5-.308-.654a.543.543,0,0,1,.582-.516c.215,0,.346.086.549.387.277.43.671,1.018.906,1.448a2.125,2.125,0,0,1,.412.932.566.566,0,0,1-.567.573c-.283,0-.365-.125-.783-.838a.229.229,0,0,0-.27-.093,28.4,28.4,0,0,1-4.309,1.075c-.33,0-.548-.258-.552-.645,0-.326.138-.444.585-.535a.259.259,0,0,0,.209-.254l-.073-6.524c-.009-.731.289-1.033,1.021-1.033h3.269c.731,0,1.036.3,1.044,1.033l.036,3.226c.008.746-.289,1.047-1.02,1.047h-3a.213.213,0,0,0-.214.215Zm-.061-5.406a.219.219,0,0,0,.219.216h2.752a.213.213,0,0,0,.213-.216l-.006-.53c0-.272-.09-.358-.363-.358H382.2c-.273,0-.357.086-.354.358Zm.229,1.191a.213.213,0,0,0-.213.216l.008.729a.219.219,0,0,0,.219.216h2.609c.273,0,.358-.086.355-.358l-.007-.587a.218.218,0,0,0-.218-.216Zm6.026-4.789a.46.46,0,0,0-.359.191c-.694.911-1.035,1.113-1.291,1.113a.6.6,0,0,1-.593-.531c0-.258.168-.358.423-.631a10.072,10.072,0,0,0,1.454-1.979.7.7,0,0,1,.612-.43.537.537,0,0,1,.551.516,1.03,1.03,0,0,1-.17.506.126.126,0,0,0,.092.2h3.541a.478.478,0,0,1,.523.531.462.462,0,0,1-.51.517h-2.078a.125.125,0,0,0-.121.179,2.1,2.1,0,0,1,.347.853.538.538,0,0,1-.6.488c-.244,0-.389-.186-.55-.488-.132-.269-.273-.554-.4-.8a.4.4,0,0,0-.341-.232Zm-1,2.753c-.008-.76.3-1.075,1.063-1.075H391.1c.76,0,1.079.315,1.088,1.075l.062,5.535c.012.989-.111,1.548-1.588,1.548-.473,0-1.075,0-1.082-.6a.512.512,0,0,1,.581-.574c.158,0,.373.029.617.029s.343-.115.338-.6l-.056-4.947c0-.287-.1-.387-.391-.387h-2.022c-.287,0-.387.1-.384.387l.083,7.356a.508.508,0,0,1-.567.574.52.52,0,0,1-.579-.574Z" transform="translate(-168.355 -4.993)" fill="#fff"/>
      <path id="パス_6126" data-name="パス 6126" d="M411.808,15.012a.429.429,0,0,0-.352.233,12.419,12.419,0,0,1-2.58,3.066,1.259,1.259,0,0,1-.755.372.689.689,0,0,1-.682-.7c0-.244.139-.4.523-.688a10.935,10.935,0,0,0,3.342-4.976.622.622,0,0,1,.626-.488.669.669,0,0,1,.724.631,3.152,3.152,0,0,1-.365,1.135c-.04.086.042.17.136.17h4.029a1.024,1.024,0,0,1,1.159,1.018,11.425,11.425,0,0,1-3.761,7.213,10.588,10.588,0,0,1-4.56,2.523.7.7,0,0,1-.654-.716c0-.33.2-.488.666-.66a12.418,12.418,0,0,0,3.917-2.395,10.44,10.44,0,0,0,2.977-5.578c0-.1-.031-.158-.217-.158Z" transform="translate(-180.632 -5.244)" fill="#fff"/>
      <path id="パス_6127" data-name="パス 6127" d="M433.282,12.837a.6.6,0,0,1,.666-.674.613.613,0,0,1,.681.674l.07,6.123a.6.6,0,0,1-.666.674.612.612,0,0,1-.681-.674Zm6.525.028a.589.589,0,0,1,.652-.66.608.608,0,0,1,.681.66l.044,3.857c.03,2.653-.052,4.287-1.77,5.851a7.715,7.715,0,0,1-4.022,1.864.68.68,0,0,1-.682-.7c0-.358.151-.531.6-.631a7.934,7.934,0,0,0,2.484-.961c2.051-1.276,2.088-3.069,2.061-5.363Z" transform="translate(-192.089 -5.392)" fill="#fff"/>
      <path id="パス_6128" data-name="パス 6128" d="M454.9,24.125a.612.612,0,0,1-.681-.674.6.6,0,0,1,.666-.674h10.856a.613.613,0,0,1,.681.674.6.6,0,0,1-.666.674Zm1.128-8.015a.6.6,0,0,1-.667-.66.589.589,0,0,1,.652-.66h8.4a.6.6,0,0,1,.667.66.589.589,0,0,1-.652.66Z" transform="translate(-201.372 -6.557)" fill="#fff"/>
      <path id="パス_6129" data-name="パス 6129" d="M482.03,18.917a12.352,12.352,0,0,1,.965,2.825.644.644,0,0,1-.682.645c-.272,0-.5-.1-.623-.631a11.662,11.662,0,0,0-.579-1.735A3.96,3.96,0,0,1,480.727,19a.641.641,0,0,1,.7-.588c.244,0,.417.1.608.5m7.825-.373a11.718,11.718,0,0,1-2.088,5.492c-1.242,1.692-3.079,2.911-3.753,2.911a.656.656,0,0,1-.638-.674c0-.3.181-.445.481-.588a8.671,8.671,0,0,0,4.694-7.2c.051-.531.38-.6.582-.6a.634.634,0,0,1,.723.659m-4.49-.158a16.777,16.777,0,0,1,.5,2.811.628.628,0,0,1-.652.645c-.43,0-.605-.258-.668-.746a15.09,15.09,0,0,0-.307-1.806,4.714,4.714,0,0,1-.226-.975.626.626,0,0,1,.682-.588c.459,0,.562.316.667.66" transform="translate(-213.123 -7.859)" fill="#fff"/>
      <path id="パス_6130" data-name="パス 6130" d="M506.648,15.012a.431.431,0,0,0-.353.233,12.405,12.405,0,0,1-2.579,3.066,1.259,1.259,0,0,1-.755.372.689.689,0,0,1-.682-.7c0-.244.139-.4.523-.688a10.935,10.935,0,0,0,3.342-4.976.622.622,0,0,1,.626-.488.669.669,0,0,1,.724.631,3.153,3.153,0,0,1-.365,1.135c-.04.086.042.17.136.17h4.029a1.024,1.024,0,0,1,1.159,1.018,11.427,11.427,0,0,1-3.762,7.213,10.584,10.584,0,0,1-4.56,2.523.7.7,0,0,1-.654-.716c0-.33.2-.488.666-.66a12.411,12.411,0,0,0,3.917-2.395,10.44,10.44,0,0,0,2.977-5.578c0-.1-.031-.158-.217-.158Z" transform="translate(-222.678 -5.244)" fill="#fff"/>
      <path id="パス_6131" data-name="パス 6131" d="M.186,29.438a1.051,1.051,0,0,0,.866,1.645H7.459a3.8,3.8,0,0,0,3.122-1.646l8.441-12.312a2.612,2.612,0,0,0-.164-3.165L8.284,1.521A4.321,4.321,0,0,0,5,0H.944a.922.922,0,0,0-.7,1.52l9.921,11.672a1.305,1.305,0,0,1,.082,1.582Z" transform="translate(0 -0.001)" fill="#00a384"/>
      <path id="パス_6132" data-name="パス 6132" d="M31.42,13.339a.88.88,0,0,1,.652-1.471h8.942a4.322,4.322,0,0,1,3.286,1.52l5.02,5.907a2.613,2.613,0,0,1,.164,3.165L41.094,34.7a3.8,3.8,0,0,1-3.122,1.645H31.564A1.05,1.05,0,0,1,30.7,34.7L40.73,20.075a1.305,1.305,0,0,0-.082-1.582l-2.465-2.9a2.175,2.175,0,0,0-1.643-.765l-1.8-.009a4.524,4.524,0,0,1-3.32-1.481" transform="translate(-13.527 -5.262)" fill="#00a384"/>
      <path id="パス_6133" data-name="パス 6133" d="M168.94,34.732a3.931,3.931,0,0,0,3.17,1.612h7.169a1.013,1.013,0,0,0,.819-1.611l-7.352-10.077a.991.991,0,0,1,.222-1.389l14.191-10.232a.644.644,0,0,0-.377-1.166h-6.44a6.187,6.187,0,0,0-3.612,1.166L146.013,35.178a.644.644,0,0,0,.376,1.166h6.448a6.182,6.182,0,0,0,3.612-1.167l7.59-5.475a1,1,0,0,1,1.4.223Z" transform="translate(-64.614 -5.262)" fill="#00a384"/>
      <path id="パス_6134" data-name="パス 6134" d="M61.822,13.339a.88.88,0,0,1,.652-1.471h9.052a4.323,4.323,0,0,1,3.287,1.52l5.021,5.906A2.613,2.613,0,0,1,80,22.458L71.6,34.7a3.794,3.794,0,0,1-3.122,1.645H62.075a1.051,1.051,0,0,1-.866-1.645L71.241,20.074a1.307,1.307,0,0,0-.082-1.582l-2.463-2.9a2.178,2.178,0,0,0-1.643-.765l-1.911-.009a4.522,4.522,0,0,1-3.319-1.481" transform="translate(-27.054 -5.262)" fill="#00a384"/>
      <path id="パス_6135" data-name="パス 6135" d="M98.724,34.7a1.051,1.051,0,0,0,.866,1.645h4.4a3.8,3.8,0,0,0,3.123-1.645l13.038-19a1.891,1.891,0,0,1,1.561-.819l3.808.009a.948.948,0,0,0,.769-1.507,3.686,3.686,0,0,0-2.972-1.511H94.139a.89.89,0,0,0-.675,1.471,4.259,4.259,0,0,0,3.21,1.476l14.664.036a.527.527,0,0,1,.433.825Z" transform="translate(-41.339 -5.262)" fill="#00a384"/>
      <path id="パス_6136" data-name="パス 6136" d="M167.213,20.773a2,2,0,0,1-2.791-.444l-4.991-6.849a1.014,1.014,0,0,1,.82-1.612l7.154,0a3.936,3.936,0,0,1,3.171,1.61l1.147,1.57a1.984,1.984,0,0,1-.44,2.779Z" transform="translate(-70.594 -5.262)" fill="#00a384"/>
      <path id="パス_6137" data-name="パス 6137" d="M279.4,10.891a1.659,1.659,0,0,1-1.7,1.721,1.7,1.7,0,0,1-1.74-1.721,1.676,1.676,0,0,1,1.7-1.721,1.7,1.7,0,0,1,1.741,1.721m-2.6,0a.872.872,0,0,0,.885.875.849.849,0,0,0,.865-.875.881.881,0,0,0-.885-.875.857.857,0,0,0-.865.875" transform="translate(-122.343 -4.065)" fill="#fff"/>
      <path id="パス_6138" data-name="パス 6138" d="M241.621,43.028a.8.8,0,0,1,.834.906v5.355c0,.313-.144.52-.448.52s-.449-.207-.449-.529v-5.39a.009.009,0,0,0-.009-.009.013.013,0,0,0-.012.008l-2.14,5.463a.63.63,0,0,1-.618.457.617.617,0,0,1-.61-.439l-2.14-5.48a.014.014,0,0,0-.012-.008.009.009,0,0,0-.009.009v5.4c0,.313-.144.52-.449.52s-.448-.207-.448-.529V43.934a.8.8,0,0,1,.834-.906.848.848,0,0,1,.878.619c.971,2.472,1.586,4.031,1.931,4.977.007.018.01.045.029.045s.023-.028.031-.047c.365-1,.843-2.229,1.928-4.974a.849.849,0,0,1,.88-.619" transform="translate(-104.232 -19.076)" fill="#fff"/>
      <path id="パス_6139" data-name="パス 6139" d="M254.915,43.124c.269,0,.44.126.44.368s-.18.367-.44.367h-1.232a.185.185,0,0,0-.185.185v5.232c0,.34-.143.574-.475.574s-.484-.224-.484-.583V44.045a.185.185,0,0,0-.185-.185h-1.232c-.26,0-.439-.116-.439-.367s.17-.368.439-.368Z" transform="translate(-111.136 -19.118)" fill="#fff"/>
      <path id="パス_6140" data-name="パス 6140" d="M262.842,46.5a.318.318,0,0,0,0-.32l-1.4-2.414c-.161-.287-.107-.735.358-.735.278,0,.386.152.52.412l1.133,2.2a.023.023,0,0,0,.02.012.023.023,0,0,0,.02-.012l1.133-2.2c.134-.261.241-.412.519-.412.466,0,.52.448.358.735l-1.4,2.414a.318.318,0,0,0,0,.32l1.5,2.576c.171.287.108.735-.359.735-.278,0-.385-.153-.519-.413l-1.231-2.31a.023.023,0,0,0-.02-.012.023.023,0,0,0-.02.012l-1.231,2.31c-.134.26-.242.413-.52.413-.466,0-.529-.449-.359-.735Z" transform="translate(-115.822 -19.076)" fill="#fff"/>
      <path id="パス_6141" data-name="パス 6141" d="M279.19,48.183a.481.481,0,0,1,.413.216,1.636,1.636,0,0,0,1.3.69,1.219,1.219,0,0,0,1.345-1.139.975.975,0,0,0-.395-.762,7.57,7.57,0,0,0-1.183-.628,4.529,4.529,0,0,1-1.337-.771,1.639,1.639,0,0,1-.547-1.255c0-.718.493-1.651,2.126-1.651,1.291,0,1.748.574,1.856.763a.439.439,0,0,1-.35.7.486.486,0,0,1-.431-.233,1.214,1.214,0,0,0-1.049-.493c-.8,0-1.183.4-1.183.906a.913.913,0,0,0,.43.745,5.951,5.951,0,0,0,1.229.636,5.52,5.52,0,0,1,1.292.745,1.68,1.68,0,0,1,.529,1.237c0,.826-.618,1.937-2.35,1.937a2.335,2.335,0,0,1-2-.825c-.269-.349-.117-.816.305-.816" transform="translate(-123.58 -19.012)" fill="#fff"/>
      <path id="パス_6142" data-name="パス 6142" d="M289.587,43.7c0-.358.144-.574.547-.574h1.524c1.9,0,2.619.745,2.619,1.991,0,1.47-.924,2.071-2.726,2.071h-.819a.185.185,0,0,0-.185.185v1.9c0,.34-.153.574-.485.574s-.475-.224-.475-.583Zm1.919,2.753c1.246,0,1.785-.4,1.785-1.318,0-.816-.511-1.274-1.677-1.274h-.882a.185.185,0,0,0-.185.185v2.222a.185.185,0,0,0,.185.185Z" transform="translate(-128.384 -19.119)" fill="#fff"/>
      <path id="パス_6143" data-name="パス 6143" d="M300.185,46.344c0-2.43,1.247-3.461,2.906-3.461S306,43.915,306,46.354s-1.246,3.47-2.905,3.47-2.906-1.04-2.906-3.47Zm2.9-2.726c-.977,0-1.91.735-1.91,2.735s.933,2.735,1.919,2.735,1.919-.735,1.919-2.735-.932-2.735-1.919-2.735Z" transform="translate(-133.082 -19.012)" fill="#fff"/>
      <path id="パス_6144" data-name="パス 6144" d="M315.554,47.259a.349.349,0,0,0-.289-.154h-.634a.185.185,0,0,0-.185.185v1.986c0,.34-.153.574-.485.574s-.475-.224-.475-.583V43.7c0-.358.144-.574.547-.574h1.436c1.426,0,2.627.44,2.627,1.947a1.761,1.761,0,0,1-1.521,1.861.113.113,0,0,0-.064.179l1.459,1.977c.2.269.144.763-.332.763a.7.7,0,0,1-.592-.386Zm.076-.889c.933,0,1.48-.458,1.48-1.273,0-.789-.43-1.238-1.668-1.238h-.81a.185.185,0,0,0-.185.185v2.141a.185.185,0,0,0,.185.185Z" transform="translate(-138.979 -19.118)" fill="#fff"/>
      <path id="パス_6145" data-name="パス 6145" d="M327.928,43.124c.269,0,.44.126.44.368s-.18.367-.44.367H326.7a.185.185,0,0,0-.185.185v5.232c0,.34-.143.574-.475.574s-.484-.224-.484-.583V44.045a.185.185,0,0,0-.185-.185h-1.232c-.259,0-.439-.116-.439-.367s.17-.368.439-.368Z" transform="translate(-143.505 -19.118)" fill="#fff"/>
      <path id="パス_6146" data-name="パス 6146" d="M334.522,48.183a.481.481,0,0,1,.413.216,1.636,1.636,0,0,0,1.3.69,1.219,1.219,0,0,0,1.345-1.139.975.975,0,0,0-.395-.762A7.571,7.571,0,0,0,336,46.56a4.52,4.52,0,0,1-1.337-.771,1.639,1.639,0,0,1-.547-1.255c0-.718.493-1.651,2.126-1.651,1.291,0,1.748.574,1.856.763a.439.439,0,0,1-.35.7.486.486,0,0,1-.431-.233,1.214,1.214,0,0,0-1.049-.493c-.8,0-1.183.4-1.183.906a.913.913,0,0,0,.43.745,5.936,5.936,0,0,0,1.229.636,5.519,5.519,0,0,1,1.292.745,1.68,1.68,0,0,1,.529,1.237c0,.826-.618,1.937-2.35,1.937a2.335,2.335,0,0,1-2-.825c-.269-.349-.117-.816.305-.816" transform="translate(-148.111 -19.012)" fill="#fff"/>
      <path id="パス_6147" data-name="パス 6147" d="M353.693,49.547a.043.043,0,0,0-.031-.013c-.022,0-.036.021-.05.037a2.423,2.423,0,0,1-1.672.617c-.817,0-2.045-.215-2.045-1.686a2.154,2.154,0,0,1,1.195-1.869.2.2,0,0,0,.05-.278,2.691,2.691,0,0,1-.473-1.386c0-.663.412-1.264,1.489-1.264.852,0,1.5.386,1.5,1.193,0,.782-.567,1.24-1.229,1.657a.136.136,0,0,0-.049.194c.387.507.815,1.039,1.211,1.484.068.077.186.03.23-.063a4.462,4.462,0,0,0,.312-1.083c.045-.233.161-.412.386-.412a.351.351,0,0,1,.358.458,4.915,4.915,0,0,1-.577,1.623.226.226,0,0,0,.034.276l.328.334c.125.126.25.233.25.412a.314.314,0,0,1-.358.332.759.759,0,0,1-.547-.26Zm-2.9-1.035a1.111,1.111,0,0,0,1.148,1.112,1.552,1.552,0,0,0,1.128-.436.172.172,0,0,0,.035-.242,17.525,17.525,0,0,1-1.395-1.755c-.06-.082-.177-.042-.254.024a1.63,1.63,0,0,0-.662,1.288Zm.718-3.543a2.035,2.035,0,0,0,.35,1.022c.052.09.176.073.262.014.415-.283.752-.578.752-1.072a.647.647,0,0,0-.691-.664.619.619,0,0,0-.672.691Z" transform="translate(-155.121 -19.376)" fill="#fff"/>
      <path id="パス_6148" data-name="パス 6148" d="M368.287,43.673a.789.789,0,0,1,.825-.645.8.8,0,0,1,.834.672l1.623,5.372c.135.43-.026.735-.413.735a.532.532,0,0,1-.547-.449l-.364-1.354a.242.242,0,0,0-.233-.179H368.2a.24.24,0,0,0-.232.179l-.357,1.354a.532.532,0,0,1-.547.449c-.386,0-.548-.305-.414-.735Zm.845.225a.011.011,0,0,0-.011-.008.011.011,0,0,0-.011.008l-.827,3.014a.141.141,0,0,0,.136.179h1.388a.142.142,0,0,0,.137-.179Z" transform="translate(-162.53 -19.076)" fill="#fff"/>
      <path id="パス_6149" data-name="パス 6149" d="M380.291,47.259a.349.349,0,0,0-.289-.154h-.634a.185.185,0,0,0-.185.185v1.986c0,.34-.153.574-.484.574s-.475-.224-.475-.583V43.7c0-.358.143-.574.547-.574h1.435c1.426,0,2.628.44,2.628,1.947a1.76,1.76,0,0,1-1.521,1.861.113.113,0,0,0-.065.179l1.46,1.977c.2.269.144.763-.331.763a.7.7,0,0,1-.592-.386Zm.076-.889c.933,0,1.48-.458,1.48-1.273,0-.789-.43-1.238-1.667-1.238h-.811a.185.185,0,0,0-.185.185v2.141a.185.185,0,0,0,.185.185Z" transform="translate(-167.68 -19.118)" fill="#fff"/>
      <path id="パス_6150" data-name="パス 6150" d="M392.664,43.124c.269,0,.44.126.44.368s-.18.367-.44.367h-1.231a.185.185,0,0,0-.185.185v5.232c0,.34-.144.574-.475.574s-.484-.224-.484-.583V44.045a.185.185,0,0,0-.185-.185h-1.231c-.261,0-.44-.116-.44-.367s.17-.368.44-.368Z" transform="translate(-172.205 -19.118)" fill="#fff"/>
      <path id="パス_6151" data-name="パス 6151" d="M399.317,43.611c0-.359.153-.583.475-.583s.485.233.485.574v5.632c0,.34-.152.574-.485.574s-.475-.224-.475-.583Z" transform="translate(-177.031 -19.076)" fill="#fff"/>
      <path id="パス_6152" data-name="パス 6152" d="M408.8,47.708a.451.451,0,0,1,.368.718,2.552,2.552,0,0,1-2.3,1.4,2.681,2.681,0,0,1-1.982-.789,3.757,3.757,0,0,1-.87-2.708,3.768,3.768,0,0,1,.852-2.61,2.684,2.684,0,0,1,2.017-.834,2.263,2.263,0,0,1,2.179,1.256c.18.421-.053.717-.368.717-.251,0-.4-.125-.537-.421a1.322,1.322,0,0,0-1.274-.817c-.834,0-1.883.637-1.883,2.735,0,2.125,1,2.735,1.856,2.735a1.6,1.6,0,0,0,1.4-.96c.152-.287.286-.422.537-.422" transform="translate(-179.116 -19.012)" fill="#fff"/>
      <path id="パス_6153" data-name="パス 6153" d="M421.071,47.4c0,1.785-.664,2.484-2.359,2.484-1.651,0-2.341-.673-2.341-2.493V43.611c0-.359.153-.583.475-.583s.485.233.485.574v3.74c0,1.166.269,1.812,1.381,1.812,1.13,0,1.4-.628,1.4-1.812v-3.73c0-.359.153-.583.475-.583s.485.233.485.574Z" transform="translate(-184.592 -19.076)" fill="#fff"/>
      <path id="パス_6154" data-name="パス 6154" d="M428.6,43.028c.332,0,.484.233.484.574v5.232a.185.185,0,0,0,.185.185h2.344c.269,0,.44.126.44.369s-.18.367-.44.367h-2.941c-.4,0-.547-.215-.547-.574V43.611c0-.359.152-.583.475-.583" transform="translate(-189.804 -19.076)" fill="#fff"/>
      <path id="パス_6155" data-name="パス 6155" d="M438.466,43.673a.789.789,0,0,1,.825-.645.8.8,0,0,1,.834.672l1.623,5.372c.135.43-.026.735-.413.735a.531.531,0,0,1-.546-.449l-.364-1.354a.242.242,0,0,0-.233-.179h-1.809a.239.239,0,0,0-.232.179l-.357,1.354a.531.531,0,0,1-.547.449c-.386,0-.547-.305-.413-.735Zm.846.225a.012.012,0,0,0-.011-.008.012.012,0,0,0-.012.008l-.827,3.014a.141.141,0,0,0,.135.179h1.388a.142.142,0,0,0,.137-.179Z" transform="translate(-193.643 -19.076)" fill="#fff"/>
      <path id="パス_6156" data-name="パス 6156" d="M450.469,47.259a.349.349,0,0,0-.289-.154h-.634a.185.185,0,0,0-.185.185v1.986c0,.34-.153.574-.485.574s-.475-.224-.475-.583V43.7c0-.358.144-.574.547-.574h1.436c1.426,0,2.627.44,2.627,1.947a1.761,1.761,0,0,1-1.521,1.861.113.113,0,0,0-.064.179l1.459,1.977c.2.269.144.763-.332.763a.7.7,0,0,1-.592-.386Zm.076-.889c.933,0,1.48-.458,1.48-1.273,0-.789-.43-1.238-1.668-1.238h-.81a.185.185,0,0,0-.185.185v2.141a.185.185,0,0,0,.185.185Z" transform="translate(-198.792 -19.118)" fill="#fff"/>
      <path id="パス_6157" data-name="パス 6157" d="M470.784,47.708a.451.451,0,0,1,.367.718,2.552,2.552,0,0,1-2.3,1.4,2.678,2.678,0,0,1-1.981-.789,3.757,3.757,0,0,1-.87-2.708,3.773,3.773,0,0,1,.851-2.61,2.687,2.687,0,0,1,2.018-.834,2.264,2.264,0,0,1,2.179,1.256c.179.421-.054.717-.367.717-.251,0-.4-.125-.538-.421a1.321,1.321,0,0,0-1.273-.817c-.834,0-1.883.637-1.883,2.735,0,2.125.995,2.735,1.856,2.735a1.6,1.6,0,0,0,1.4-.96c.152-.287.287-.422.538-.422" transform="translate(-206.596 -19.012)" fill="#fff"/>
      <path id="パス_6158" data-name="パス 6158" d="M478.91,43.028c.332,0,.484.233.484.574v5.232a.185.185,0,0,0,.185.185h2.344c.269,0,.44.126.44.369s-.18.367-.44.367h-2.941c-.4,0-.547-.215-.547-.574V43.611c0-.359.152-.583.475-.583" transform="translate(-212.107 -19.076)" fill="#fff"/>
      <path id="パス_6159" data-name="パス 6159" d="M487.983,43.611c0-.359.153-.583.475-.583s.485.233.485.574v5.632c0,.34-.153.574-.485.574s-.475-.224-.475-.583Z" transform="translate(-216.34 -19.076)" fill="#fff"/>
      <path id="パス_6160" data-name="パス 6160" d="M497.219,48.661a.01.01,0,0,0,.009-.009v-5.1c0-.314.142-.52.448-.52s.449.207.449.529V48.9c0,.619-.322.906-.772.906-.421,0-.627-.216-.824-.628l-2.391-5.05a.013.013,0,0,0-.013-.008.009.009,0,0,0-.009.009v5.156c0,.314-.143.52-.449.52s-.448-.207-.448-.53V43.934c0-.618.322-.905.771-.905a.835.835,0,0,1,.834.592l2.381,5.032a.014.014,0,0,0,.013.008" transform="translate(-218.661 -19.076)" fill="#fff"/>
      <path id="パス_6161" data-name="パス 6161" d="M505.522,43.611c0-.359.152-.583.475-.583s.484.233.484.574v5.632c0,.34-.152.574-.484.574s-.475-.224-.475-.583Z" transform="translate(-224.116 -19.076)" fill="#fff"/>
      <path id="パス_6162" data-name="パス 6162" d="M515,47.708a.451.451,0,0,1,.368.718,2.552,2.552,0,0,1-2.3,1.4,2.681,2.681,0,0,1-1.982-.789,3.757,3.757,0,0,1-.87-2.708,3.768,3.768,0,0,1,.852-2.61,2.684,2.684,0,0,1,2.017-.834,2.263,2.263,0,0,1,2.179,1.256c.18.421-.053.717-.368.717-.251,0-.4-.125-.537-.421a1.322,1.322,0,0,0-1.274-.817c-.834,0-1.883.637-1.883,2.735,0,2.125,1,2.735,1.856,2.735a1.6,1.6,0,0,0,1.4-.96c.152-.287.286-.422.537-.422" transform="translate(-226.2 -19.012)" fill="#fff"/>
    </g>
  </g>
</svg>
