<svg xmlns="http://www.w3.org/2000/svg" width="290.769" height="31.818" viewBox="0 0 290.769 31.818">
  <g id="グループ_4791" data-name="グループ 4791" transform="translate(0)">
    <path id="パス_4640" data-name="パス 4640" d="M32.281,31.491a3.692,3.692,0,0,0,3.036-1.6l8.671-12.647a2.541,2.541,0,0,0-.16-3.077L33.043,1.478A4.2,4.2,0,0,0,29.847,0H26.022a.9.9,0,0,0-.683,1.477L35.56,13.5a1.271,1.271,0,0,1,.079,1.539L25.451,29.892a1.022,1.022,0,0,0,.842,1.6Z" transform="translate(-25.123)" fill="#44998f"/>
    <path id="パス_4641" data-name="パス 4641" d="M48.989,10.738a2.114,2.114,0,0,1,1.6.743l1.893,2.226a1.27,1.27,0,0,1,.08,1.538L42.4,30.058a1.021,1.021,0,0,0,.842,1.6h5.988a3.686,3.686,0,0,0,3.035-1.6l8.622-12.575a2.541,2.541,0,0,0-.16-3.077L55.341,8.068a4.2,4.2,0,0,0-3.2-1.478H43.166a.9.9,0,0,0-.683,1.478l1,1.176a4.226,4.226,0,0,0,3.2,1.485Z" transform="translate(-25.556 -0.167)" fill="#44998f"/>
    <path id="パス_4642" data-name="パス 4642" d="M148.571,7.725A.626.626,0,0,0,148.2,6.59H141.6a6.018,6.018,0,0,0-3.512,1.135l-31.627,22.8a.626.626,0,0,0,.366,1.135h6.663A5.991,5.991,0,0,0,117,30.519l8.16-5.914a.976.976,0,0,1,1.359.212l3.873,5.276a3.839,3.839,0,0,0,3.087,1.563h6.761a.986.986,0,0,0,.8-1.566L133.51,19.779a.964.964,0,0,1,.215-1.35Z" transform="translate(-27.172 -0.167)" fill="#44998f"/>
    <path id="パス_4643" data-name="パス 4643" d="M60,6.59a.9.9,0,0,0-.683,1.478l1,1.176a4.224,4.224,0,0,0,3.2,1.485l2.419.011a2.11,2.11,0,0,1,1.6.743l1.891,2.224a1.268,1.268,0,0,1,.08,1.538L59.339,30.058a1.021,1.021,0,0,0,.842,1.6h5.988a3.688,3.688,0,0,0,3.035-1.6l8.624-12.578a2.541,2.541,0,0,0-.16-3.077L72.282,8.068a4.2,4.2,0,0,0-3.2-1.478Z" transform="translate(-25.981 -0.167)" fill="#44998f"/>
    <path id="パス_4644" data-name="パス 4644" d="M95.006,10.759a.512.512,0,0,1,.421.8L82.74,30.058a1.022,1.022,0,0,0,.842,1.6H88.5a3.692,3.692,0,0,0,3.037-1.6l12.675-18.474a1.839,1.839,0,0,1,1.519-.8l4.5.011a.984.984,0,0,0,.8-1.562l-.787-1.078a3.82,3.82,0,0,0-3.081-1.567h-29.9a.89.89,0,0,0-.674,1.47l1.027,1.192a4.254,4.254,0,0,0,3.2,1.474Z" transform="translate(-26.418 -0.167)" fill="#44998f"/>
    <path id="パス_4645" data-name="パス 4645" d="M126.395,13.02a1.922,1.922,0,0,0,.432-2.7l-1.583-2.166a3.828,3.828,0,0,0-3.083-1.566l-6.746,0a.986.986,0,0,0-.8,1.566l5.231,7.173a1.954,1.954,0,0,0,2.719.437Z" transform="translate(-27.38 -0.167)" fill="#44998f"/>
    <g id="グループ_4789" data-name="グループ 4789" transform="translate(130.945 6.017)">
      <path id="パス_4646" data-name="パス 4646" d="M34.809,67.945a.8.8,0,0,1,.841.914v5.406c0,.318-.145.525-.453.525s-.453-.208-.453-.535V68.8h-.018l-2.163,5.525a.638.638,0,0,1-.625.461.624.624,0,0,1-.616-.443L29.158,68.8h-.017v5.461c0,.318-.146.525-.454.525s-.453-.208-.453-.535v-5.4a.8.8,0,0,1,.843-.914.856.856,0,0,1,.887.624c1,2.537,1.622,4.121,1.966,5.071h.026c.372-1.022.851-2.254,1.964-5.071a.858.858,0,0,1,.889-.624" transform="translate(-28.234 -67.863)" fill="#fff"/>
      <path id="パス_4647" data-name="パス 4647" d="M38.793,67.984c.27,0,.443.127.443.371s-.181.372-.443.372H37.362V74.2c0,.344-.146.58-.481.58s-.489-.227-.489-.588V68.726H34.962c-.262,0-.443-.118-.443-.372s.171-.371.443-.371Z" transform="translate(-25.764 -67.847)" fill="#fff"/>
      <path id="パス_4648" data-name="パス 4648" d="M40.483,71.287l-1.511-2.6c-.163-.29-.109-.741.362-.741.28,0,.389.153.525.415L41.008,70.6h.026l1.152-2.237c.135-.262.242-.415.525-.415.469,0,.525.451.361.741l-1.513,2.6,1.613,2.761c.173.29.109.744-.362.744-.28,0-.389-.155-.525-.417l-1.251-2.346h-.026l-1.25,2.346c-.135.262-.244.417-.524.417-.471,0-.535-.454-.362-.744Z" transform="translate(-24.087 -67.862)" fill="#fff"/>
      <path id="パス_4649" data-name="パス 4649" d="M46.291,73.238a.483.483,0,0,1,.417.217,1.651,1.651,0,0,0,1.312.7A1.231,1.231,0,0,0,49.38,73a.988.988,0,0,0-.4-.77,7.71,7.71,0,0,0-1.2-.634,4.581,4.581,0,0,1-1.348-.779,1.654,1.654,0,0,1-.553-1.268c0-.724.5-1.666,2.147-1.666,1.3,0,1.766.58,1.875.769a.445.445,0,0,1-.354.708.491.491,0,0,1-.435-.235,1.225,1.225,0,0,0-1.059-.5c-.808,0-1.2.407-1.2.915a.92.92,0,0,0,.436.751,5.976,5.976,0,0,0,1.24.644,5.55,5.55,0,0,1,1.3.751,1.7,1.7,0,0,1,.535,1.25c0,.833-.625,1.956-2.372,1.956a2.359,2.359,0,0,1-2.02-.833c-.272-.352-.118-.823.308-.823" transform="translate(-21.311 -67.886)" fill="#fff"/>
      <path id="パス_4650" data-name="パス 4650" d="M50.221,68.564c0-.362.146-.58.553-.58h1.539c1.92,0,2.644.751,2.644,2.01,0,1.485-.932,2.091-2.753,2.091H51.191V74.2c0,.344-.155.58-.489.58s-.481-.227-.481-.588Zm1.939,2.779c1.258,0,1.8-.407,1.8-1.33,0-.825-.515-1.286-1.694-1.286H51.191v2.616Z" transform="translate(-19.592 -67.847)" fill="#fff"/>
      <path id="パス_4651" data-name="パス 4651" d="M54.5,71.381c0-2.453,1.261-3.5,2.935-3.5s2.934,1.042,2.934,3.5-1.258,3.5-2.934,3.5-2.935-1.052-2.935-3.5Zm2.925-2.753c-.986,0-1.928.743-1.928,2.762s.942,2.761,1.938,2.761,1.938-.743,1.938-2.761-.942-2.762-1.938-2.762Z" transform="translate(-17.911 -67.886)" fill="#fff"/>
      <path id="パス_4652" data-name="パス 4652" d="M61.849,72H60.835V74.2c0,.344-.155.58-.489.58s-.481-.227-.481-.588V68.564c0-.362.146-.58.553-.58h1.449c1.44,0,2.652.443,2.652,1.964a1.807,1.807,0,0,1-1.711,1.911L64.392,74c.2.273.146.77-.334.77a.705.705,0,0,1-.6-.39Zm.181-.743c.942,0,1.493-.462,1.493-1.286,0-.8-.433-1.25-1.684-1.25h-1v2.535Z" transform="translate(-15.801 -67.847)" fill="#fff"/>
      <path id="パス_4653" data-name="パス 4653" d="M68.261,67.984c.27,0,.443.127.443.371s-.181.372-.443.372H66.83V74.2c0,.344-.146.58-.481.58s-.489-.227-.489-.588V68.726H64.43c-.262,0-.443-.118-.443-.372s.171-.371.443-.371Z" transform="translate(-14.181 -67.847)" fill="#fff"/>
      <path id="パス_4654" data-name="パス 4654" d="M74.17,74.105h-.036a2.4,2.4,0,0,1-1.72.66c-.823,0-2.065-.217-2.065-1.7,0-.887.481-1.431,1.368-1.992a2.968,2.968,0,0,1-.589-1.576c0-.67.417-1.277,1.5-1.277.861,0,1.513.39,1.513,1.2,0,.841-.652,1.314-1.378,1.757.454.6.97,1.241,1.432,1.747a3.646,3.646,0,0,0,.425-1.294c.046-.235.164-.417.39-.417a.353.353,0,0,1,.362.461,4.634,4.634,0,0,1-.68,1.785l.461.471c.128.127.255.235.255.417a.317.317,0,0,1-.362.336.763.763,0,0,1-.552-.263Zm-2.916-1.034A1.122,1.122,0,0,0,72.414,74.2a1.605,1.605,0,0,0,1.277-.579A17.263,17.263,0,0,1,72.1,71.623a1.762,1.762,0,0,0-.843,1.44Zm.724-3.576a2.3,2.3,0,0,0,.435,1.167c.5-.326.942-.634.942-1.2a.655.655,0,0,0-.7-.67.624.624,0,0,0-.678.7Z" transform="translate(-11.68 -67.756)" fill="#fff"/>
      <path id="パス_4655" data-name="パス 4655" d="M79.181,68.6a.793.793,0,0,1,.832-.652.807.807,0,0,1,.843.678l1.64,5.425c.135.435-.028.743-.417.743a.537.537,0,0,1-.553-.453l-.418-1.548h-2.2L78.5,74.338a.536.536,0,0,1-.553.453c-.389,0-.553-.308-.417-.743Zm.85.217h-.018l-.886,3.232H80.9Z" transform="translate(-8.876 -67.863)" fill="#fff"/>
      <path id="パス_4656" data-name="パス 4656" d="M84.156,72H83.142V74.2c0,.344-.155.58-.489.58s-.481-.227-.481-.588V68.564c0-.362.146-.58.553-.58h1.449c1.44,0,2.652.443,2.652,1.964a1.807,1.807,0,0,1-1.711,1.911L86.7,74c.2.273.146.77-.334.77a.705.705,0,0,1-.6-.39Zm.181-.743c.942,0,1.493-.462,1.493-1.286,0-.8-.433-1.25-1.684-1.25h-1v2.535Z" transform="translate(-7.033 -67.847)" fill="#fff"/>
      <path id="パス_4657" data-name="パス 4657" d="M90.568,67.984c.27,0,.443.127.443.371s-.181.372-.443.372H89.137V74.2c0,.344-.146.58-.481.58s-.489-.227-.489-.588V68.726H86.737c-.262,0-.443-.118-.443-.372s.171-.371.443-.371Z" transform="translate(-5.413 -67.847)" fill="#fff"/>
      <path id="パス_4658" data-name="パス 4658" d="M90.686,68.534c0-.362.153-.588.481-.588s.488.235.488.58v5.686c0,.344-.153.58-.488.58s-.481-.227-.481-.589Z" transform="translate(-3.686 -67.862)" fill="#fff"/>
      <path id="パス_4659" data-name="パス 4659" d="M97.41,72.759a.455.455,0,0,1,.372.724A2.579,2.579,0,0,1,95.464,74.9a2.712,2.712,0,0,1-2-.8,4.578,4.578,0,0,1-.018-5.37,2.711,2.711,0,0,1,2.037-.841,2.285,2.285,0,0,1,2.2,1.268c.181.425-.054.724-.371.724-.254,0-.407-.127-.543-.426a1.334,1.334,0,0,0-1.287-.823c-.841,0-1.9.644-1.9,2.762,0,2.145,1.006,2.761,1.875,2.761a1.616,1.616,0,0,0,1.411-.968c.155-.29.29-.426.543-.426" transform="translate(-2.941 -67.886)" fill="#fff"/>
      <path id="パス_4660" data-name="パス 4660" d="M102.315,72.364c0,1.8-.67,2.509-2.382,2.509-1.666,0-2.363-.68-2.363-2.517V68.533c0-.362.153-.588.479-.588s.489.235.489.58V72.3c0,1.177.272,1.829,1.394,1.829,1.141,0,1.414-.635,1.414-1.829V68.533c0-.362.153-.588.478-.588s.49.235.49.58Z" transform="translate(-0.981 -67.863)" fill="#fff"/>
      <path id="パス_4661" data-name="パス 4661" d="M102.795,67.945c.334,0,.489.235.489.58v5.469h2.553c.272,0,.444.127.444.371s-.182.372-.444.372h-2.97c-.407,0-.553-.217-.553-.58V68.533c0-.362.155-.588.481-.588" transform="translate(0.884 -67.863)" fill="#fff"/>
      <path id="パス_4662" data-name="パス 4662" d="M107.5,68.6a.793.793,0,0,1,.832-.652.807.807,0,0,1,.843.678l1.64,5.425c.135.435-.028.743-.417.743a.537.537,0,0,1-.553-.453l-.418-1.548h-2.2l-.407,1.548a.536.536,0,0,1-.553.453c-.389,0-.553-.308-.417-.743Zm.85.217h-.018l-.886,3.232h1.773Z" transform="translate(2.257 -67.863)" fill="#fff"/>
      <path id="パス_4663" data-name="パス 4663" d="M112.48,72h-1.014V74.2c0,.344-.155.58-.489.58s-.481-.227-.481-.588V68.564c0-.362.146-.58.553-.58H112.5c1.44,0,2.652.443,2.652,1.964a1.807,1.807,0,0,1-1.711,1.911L115.023,74c.2.273.146.77-.334.77a.705.705,0,0,1-.6-.39Zm.181-.743c.942,0,1.493-.462,1.493-1.286,0-.8-.433-1.25-1.684-1.25h-1v2.535Z" transform="translate(4.1 -67.847)" fill="#fff"/>
      <path id="パス_4664" data-name="パス 4664" d="M122.427,72.759a.455.455,0,0,1,.372.724A2.579,2.579,0,0,1,120.48,74.9a2.712,2.712,0,0,1-2-.8,4.584,4.584,0,0,1-.018-5.37,2.712,2.712,0,0,1,2.038-.841,2.284,2.284,0,0,1,2.2,1.268c.181.425-.054.724-.371.724-.254,0-.407-.127-.543-.426a1.333,1.333,0,0,0-1.286-.823c-.843,0-1.9.644-1.9,2.762,0,2.145,1.006,2.761,1.875,2.761a1.616,1.616,0,0,0,1.411-.968c.155-.29.29-.426.543-.426" transform="translate(6.892 -67.886)" fill="#fff"/>
      <path id="パス_4665" data-name="パス 4665" d="M123.1,67.945c.334,0,.489.235.489.58v5.469h2.553c.272,0,.444.127.444.371s-.182.372-.444.372h-2.97c-.407,0-.553-.217-.553-.58V68.533c0-.362.155-.588.481-.588" transform="translate(8.864 -67.863)" fill="#fff"/>
      <path id="パス_4666" data-name="パス 4666" d="M126.472,68.534c0-.362.153-.588.481-.588s.488.235.488.58v5.686c0,.344-.153.58-.488.58s-.481-.227-.481-.589Z" transform="translate(10.379 -67.862)" fill="#fff"/>
      <path id="パス_4667" data-name="パス 4667" d="M132.632,73.631V68.47c0-.318.145-.525.453-.525s.453.208.453.534v5.4c0,.625-.326.915-.777.915-.426,0-.634-.217-.834-.634l-2.417-5.107h-.018v5.216c0,.318-.145.525-.453.525s-.453-.208-.453-.535v-5.4c0-.624.326-.914.779-.914a.845.845,0,0,1,.843.6l2.407,5.089Z" transform="translate(11.21 -67.863)" fill="#fff"/>
      <path id="パス_4668" data-name="パス 4668" d="M133.55,68.534c0-.362.153-.588.481-.588s.488.235.488.58v5.686c0,.344-.153.58-.488.58s-.481-.227-.481-.589Z" transform="translate(13.162 -67.862)" fill="#fff"/>
      <path id="パス_4669" data-name="パス 4669" d="M140.275,72.759a.455.455,0,0,1,.372.724,2.579,2.579,0,0,1-2.318,1.413,2.712,2.712,0,0,1-2-.8,4.584,4.584,0,0,1-.018-5.37,2.712,2.712,0,0,1,2.038-.841,2.284,2.284,0,0,1,2.2,1.268c.181.425-.054.724-.371.724-.254,0-.407-.127-.543-.426a1.333,1.333,0,0,0-1.286-.823c-.843,0-1.9.644-1.9,2.762,0,2.145,1.006,2.761,1.875,2.761a1.616,1.616,0,0,0,1.411-.968c.155-.29.29-.426.543-.426" transform="translate(13.908 -67.886)" fill="#fff"/>
    </g>
    <path id="パス_4670" data-name="パス 4670" d="M1.392,47.375A.61.61,0,0,1,.713,46.7a.6.6,0,0,1,.664-.673H8.424c.687,0,.941.366.945.775.01.92-1.093,2.951-2.248,4.567a.2.2,0,0,0,.046.279c1.623,1.281,3.131,2.648,3.9,3.385.457.453.606.643.61.921a.779.779,0,0,1-.709.759c-.292,0-.455-.145-.781-.482a51.286,51.286,0,0,0-3.9-3.533.171.171,0,0,0-.235.009C3.885,55.119,1.4,56.834.711,56.834A.752.752,0,0,1,0,56.086c0-.305.214-.467.577-.656A17.3,17.3,0,0,0,6.9,49.348a5.733,5.733,0,0,0,.828-1.827c0-.1-.075-.146-.221-.146Z" transform="translate(128.543 -26.126)" fill="#fff"/>
    <path id="パス_4671" data-name="パス 4671" d="M18.387,50.576a12.034,12.034,0,0,1-2.1,4.167c-.5.658-.707.906-1.116.906a.788.788,0,0,1-.783-.76c0-.234.127-.366.5-.8A11.7,11.7,0,0,0,16.923,50.4a.647.647,0,0,1,.681-.526.769.769,0,0,1,.783.7m3.236-3.423a.21.21,0,0,0,.211.208h4.4a.6.6,0,0,1,.68.673.588.588,0,0,1-.665.673h-4.4a.2.2,0,0,0-.2.208l.079,7c.01.848-.349,1.446-1.271,1.446-.394,0-2.618-.174-2.629-1.1a.684.684,0,0,1,.621-.745,2.674,2.674,0,0,1,.762.234,4.644,4.644,0,0,0,.909.175c.189,0,.248-.088.245-.351l-.076-6.663a.21.21,0,0,0-.211-.208H15.456a.6.6,0,0,1-.665-.673.584.584,0,0,1,.65-.673h4.617a.206.206,0,0,0,.206-.208l-.02-1.781a.6.6,0,0,1,.664-.687.625.625,0,0,1,.695.687Zm3.3,3.483c.4.54,2.321,3.493,2.329,4.21a.748.748,0,0,1-.737.746c-.423,0-.616-.19-.8-.6a22.045,22.045,0,0,0-1.926-3.407c-.283-.409-.519-.673-.522-.993a.729.729,0,0,1,.738-.687c.336,0,.5.161.914.731m2.618-5.117a1.691,1.691,0,0,1-1.734,1.755,1.729,1.729,0,0,1-1.775-1.755,1.709,1.709,0,0,1,1.735-1.755,1.738,1.738,0,0,1,1.774,1.755m-2.646,0a.889.889,0,0,0,.9.892.864.864,0,0,0,.881-.892.9.9,0,0,0-.9-.892.874.874,0,0,0-.882.892" transform="translate(128.18 -26.069)" fill="#fff"/>
    <path id="パス_4672" data-name="パス 4672" d="M30.981,51.887a.651.651,0,0,1-.725-.7.639.639,0,0,1,.709-.716h11.36a.655.655,0,0,1,.723.716.634.634,0,0,1-.708.7Z" transform="translate(127.779 -26.238)" fill="#fff"/>
    <path id="パス_4673" data-name="パス 4673" d="M47.63,47.038a14.722,14.722,0,0,1,1.135,3.376A.7.7,0,0,1,48,51.13c-.482,0-.574-.351-.727-.98a17.412,17.412,0,0,0-.755-2.178c-.105-.234-.225-.453-.3-.643a1.09,1.09,0,0,1-.122-.453.7.7,0,0,1,.752-.614c.292,0,.5.146.785.775m7.553,6.023c-1.523,2.252-4.165,4.005-4.955,4.005a.7.7,0,0,1-.695-.7c0-.307.141-.482.549-.672a10.59,10.59,0,0,0,5.185-5.6A16.261,16.261,0,0,0,56.2,46.35c.053-.439.24-.731.649-.731a.709.709,0,0,1,.813.76,15.273,15.273,0,0,1-2.484,6.681m-3.324-6.9a15.385,15.385,0,0,1,.669,3.493.7.7,0,0,1-.737.775c-.614,0-.663-.439-.776-1.36-.081-.716-.189-1.183-.3-1.739a11.344,11.344,0,0,1-.337-1.316.645.645,0,0,1,.71-.614c.337,0,.572.117.769.76" transform="translate(127.379 -26.11)" fill="#fff"/>
    <path id="パス_4674" data-name="パス 4674" d="M65.213,51.192a1.607,1.607,0,0,1-1.6,1.623,1.65,1.65,0,0,1-1.641-1.623,1.606,1.606,0,0,1,1.6-1.623,1.652,1.652,0,0,1,1.641,1.623" transform="translate(126.978 -26.215)" fill="#fff"/>
    <path id="パス_4675" data-name="パス 4675" d="M70.54,49.314a.206.206,0,0,0-.206.208l.087,7.716a.507.507,0,0,1-.578.57.516.516,0,0,1-.577-.57l-.131-11.506c-.008-.716.31-1.038,1.027-1.038h3.669c.7,0,.969.263.977.965l.031,2.7c.007.687-.253.95-.955.95ZM70.3,46.343a.21.21,0,0,0,.211.208h2.976a.206.206,0,0,0,.206-.208l0-.333a.23.23,0,0,0-.251-.234H70.54a.224.224,0,0,0-.246.234Zm.22,1.158a.2.2,0,0,0-.2.209l0,.387a.212.212,0,0,0,.211.209h2.935a.223.223,0,0,0,.246-.234l0-.362a.21.21,0,0,0-.211-.209Zm5.638,4.59a.2.2,0,0,0-.216.182c-.01.2-.017.361-.022.486s.056.282.19.282h3.008a.477.477,0,0,1,.533.526.469.469,0,0,1-.52.541H76.442c-.086,0-.152.088-.1.156A5.344,5.344,0,0,0,78.7,55.878a.493.493,0,0,1,.371.512.608.608,0,0,1-.608.6A5.435,5.435,0,0,1,75.5,54.958a.123.123,0,0,0-.2.023,5.319,5.319,0,0,1-3.293,2.066.59.59,0,0,1-.577-.614.481.481,0,0,1,.389-.468,4.247,4.247,0,0,0,2.585-1.7c.045-.076-.035-.154-.123-.154h-2.5a.487.487,0,0,1-.532-.541.471.471,0,0,1,.52-.526h2.76a.216.216,0,0,0,.225-.189c.011-.16.018-.354.024-.557a.2.2,0,0,0-.2-.2H72.146a.468.468,0,0,1-.517-.512.461.461,0,0,1,.5-.526h1.254a.112.112,0,0,0,.094-.174c-.256-.372-.448-.5-.451-.746a.561.561,0,0,1,.578-.542c.234,0,.352.1.516.322.3.381.444.586.447.849a.381.381,0,0,1-.032.157.1.1,0,0,0,.1.135H76.02a.484.484,0,0,0,.384-.243c.17-.253.323-.535.484-.81.143-.263.273-.366.508-.366a.581.581,0,0,1,.605.482,1.51,1.51,0,0,1-.331.793c-.046.068.029.142.111.142h.932a.477.477,0,0,1,.532.526.461.461,0,0,1-.521.512Zm4.309-2.584a.209.209,0,0,0-.21-.208H76.91c-.7,0-.968-.263-.976-.966l-.03-2.66c-.007-.687.251-.95.953-.95h3.67c.716,0,1.042.307,1.051,1.023l.12,10.6c.014,1.33-.98,1.33-1.55,1.33-.469,0-.951,0-.958-.658,0-.322.169-.585.477-.585h.5c.292,0,.379-.117.375-.453Zm-3.413-3.149a.209.209,0,0,0,.21.208h2.962a.206.206,0,0,0,.206-.208l0-.319a.23.23,0,0,0-.237-.249H77.279a.223.223,0,0,0-.23.249Zm.221,1.158a.206.206,0,0,0-.206.208l0,.348a.222.222,0,0,0,.236.249h2.936a.206.206,0,0,0,.206-.209l0-.388a.21.21,0,0,0-.211-.208Z" transform="translate(126.796 -26.092)" fill="#fff"/>
    <path id="パス_4676" data-name="パス 4676" d="M87.052,46.6a.506.506,0,0,0-.379.215c-.829,1.029-1.305,1.363-1.579,1.363a.619.619,0,0,1-.621-.584c0-.19.1-.336.4-.614a10.705,10.705,0,0,0,1.73-2.12c.231-.366.39-.541.652-.541a.626.626,0,0,1,.62.541,1.038,1.038,0,0,1-.191.532.105.105,0,0,0,.1.155h2.891a.489.489,0,0,1,.548.526.471.471,0,0,1-.535.526H89.084c-.117,0-.149.143-.1.249a2.026,2.026,0,0,1,.267.79.524.524,0,0,1-.579.525c-.351,0-.427-.248-.576-.628-.113-.252-.235-.537-.326-.751a.313.313,0,0,0-.289-.185Zm-.367,9.206c0,.1.067.195.163.174.711-.154,1.521-.37,2.2-.569a.206.206,0,0,0,.146-.294c-.279-.438-.313-.514-.315-.667a.555.555,0,0,1,.595-.526c.218,0,.351.088.56.395.282.439.683,1.038.922,1.477a2.163,2.163,0,0,1,.42.949.577.577,0,0,1-.579.585c-.288,0-.37-.128-.8-.855a.234.234,0,0,0-.276-.095,28.9,28.9,0,0,1-4.392,1.1c-.336,0-.56-.263-.563-.658,0-.332.141-.452.6-.546a.255.255,0,0,0,.213-.247L85.5,49.363c-.008-.746.294-1.053,1.04-1.053h3.334c.746,0,1.057.307,1.065,1.053l.037,3.29c.008.76-.3,1.067-1.042,1.067H86.869a.206.206,0,0,0-.206.208ZM86.622,50.3a.211.211,0,0,0,.211.208h2.831a.2.2,0,0,0,.2-.208l-.006-.553c0-.278-.093-.366-.369-.366H86.978c-.278,0-.365.088-.362.366Zm.222,1.2a.206.206,0,0,0-.206.208l.009.769a.209.209,0,0,0,.21.208H89.53c.277,0,.365-.088.362-.366l-.007-.611a.21.21,0,0,0-.211-.208Zm6.144-4.882a.456.456,0,0,0-.355.195c-.707.93-1.054,1.136-1.315,1.136a.614.614,0,0,1-.606-.541c0-.263.172-.366.433-.643a10.3,10.3,0,0,0,1.483-2.018.714.714,0,0,1,.624-.439.548.548,0,0,1,.561.526,1.059,1.059,0,0,1-.174.516c-.048.084-.014.2.082.2h3.623a.488.488,0,0,1,.533.541.471.471,0,0,1-.521.526H95.224c-.114,0-.131.147-.074.247a1.922,1.922,0,0,1,.317.806.547.547,0,0,1-.608.5c-.249,0-.4-.189-.561-.5-.135-.275-.278-.565-.41-.817a.4.4,0,0,0-.335-.236Zm-1.01,2.806c-.009-.775.309-1.1,1.084-1.1h2.983c.775,0,1.1.322,1.109,1.1l.063,5.644c.012,1.008-.113,1.578-1.619,1.578-.482,0-1.1,0-1.1-.614a.522.522,0,0,1,.592-.584c.161,0,.381.029.63.029s.35-.117.344-.614L96,49.816c0-.292-.107-.395-.4-.395H93.542c-.291,0-.393.1-.39.395l.085,7.5a.517.517,0,0,1-.578.585.53.53,0,0,1-.591-.585Z" transform="translate(126.409 -26.082)" fill="#fff"/>
    <path id="パス_4677" data-name="パス 4677" d="M105.033,47.88a.43.43,0,0,0-.347.237,12.649,12.649,0,0,1-2.63,3.126,1.291,1.291,0,0,1-.771.379.7.7,0,0,1-.695-.716c0-.248.142-.408.534-.7a11.144,11.144,0,0,0,3.407-5.072c.156-.409.388-.5.636-.5a.681.681,0,0,1,.739.643,3.231,3.231,0,0,1-.371,1.158.127.127,0,0,0,.128.173h4.119a1.044,1.044,0,0,1,1.181,1.038A11.65,11.65,0,0,1,107.128,55a10.807,10.807,0,0,1-4.649,2.573.711.711,0,0,1-.666-.731c0-.336.2-.5.678-.673a12.665,12.665,0,0,0,3.992-2.441,10.643,10.643,0,0,0,3.035-5.688c0-.1-.03-.161-.22-.161Z" transform="translate(126.002 -26.091)" fill="#fff"/>
    <path id="パス_4678" data-name="パス 4678" d="M115.634,45.516a.609.609,0,0,1,.679-.687.624.624,0,0,1,.694.687l.07,6.243a.608.608,0,0,1-.678.686.624.624,0,0,1-.695-.686Zm6.652.029a.6.6,0,0,1,.666-.673.62.62,0,0,1,.695.673l.044,3.933c.031,2.7-.053,4.371-1.8,5.964a7.875,7.875,0,0,1-4.1,1.9.694.694,0,0,1-.695-.716c0-.366.154-.542.606-.643A8.083,8.083,0,0,0,120.23,55c2.09-1.3,2.127-3.129,2.1-5.468Z" transform="translate(125.621 -26.096)" fill="#fff"/>
    <path id="パス_4679" data-name="パス 4679" d="M128.516,55.876a.625.625,0,0,1-.7-.687.61.61,0,0,1,.68-.686h11.067a.624.624,0,0,1,.695.686.608.608,0,0,1-.678.687Zm1.149-8.172a.616.616,0,0,1-.679-.673.6.6,0,0,1,.664-.673h8.568a.617.617,0,0,1,.681.673.6.6,0,0,1-.666.673Z" transform="translate(125.313 -26.134)" fill="#fff"/>
    <path id="パス_4680" data-name="パス 4680" d="M144.577,49.283a12.657,12.657,0,0,1,.984,2.88.657.657,0,0,1-.695.658c-.278,0-.514-.1-.636-.643a12.068,12.068,0,0,0-.59-1.769,4.015,4.015,0,0,1-.392-1.038.654.654,0,0,1,.709-.6c.249,0,.426.1.621.512m7.977-.38a11.971,11.971,0,0,1-2.128,5.6c-1.268,1.724-3.14,2.967-3.827,2.967a.668.668,0,0,1-.651-.686c0-.308.184-.454.49-.6a8.84,8.84,0,0,0,4.785-7.339c.053-.541.388-.614.593-.614a.647.647,0,0,1,.738.673m-4.577-.161a17.156,17.156,0,0,1,.515,2.866.639.639,0,0,1-.665.658c-.439,0-.617-.263-.681-.76a15.118,15.118,0,0,0-.313-1.842,4.863,4.863,0,0,1-.231-.994.638.638,0,0,1,.695-.6c.468,0,.574.321.68.672" transform="translate(124.923 -26.177)" fill="#fff"/>
    <path id="パス_4681" data-name="パス 4681" d="M160.233,47.88a.43.43,0,0,0-.347.237,12.649,12.649,0,0,1-2.63,3.126,1.291,1.291,0,0,1-.771.379.7.7,0,0,1-.695-.716c0-.248.142-.408.533-.7a11.14,11.14,0,0,0,3.408-5.072c.156-.409.388-.5.636-.5a.681.681,0,0,1,.739.643,3.231,3.231,0,0,1-.371,1.158.127.127,0,0,0,.128.173h4.119a1.044,1.044,0,0,1,1.181,1.038A11.65,11.65,0,0,1,162.328,55a10.807,10.807,0,0,1-4.649,2.573.711.711,0,0,1-.666-.731c0-.336.2-.5.678-.673a12.665,12.665,0,0,0,3.992-2.441,10.648,10.648,0,0,0,3.036-5.688c0-.1-.031-.161-.221-.161Z" transform="translate(124.606 -26.091)" fill="#fff"/>
  </g>
</svg>
