<svg id="グループ_5776" data-name="グループ 5776" xmlns="http://www.w3.org/2000/svg" xmlns:xlink="http://www.w3.org/1999/xlink" width="275" height="67.46" viewBox="0 0 275 67.46">
  <defs>
    <clipPath id="clip-path">
      <rect id="長方形_2913" data-name="長方形 2913" width="275" height="67.46" fill="#fff"/>
    </clipPath>
  </defs>
  <g id="グループ_5775" data-name="グループ 5775" transform="translate(0 0)" clip-path="url(#clip-path)">
    <path id="パス_5191" data-name="パス 5191" d="M9.241,94.924c0,1.57.1,3.138.1,4.708,0,1.025-.352,1.057-1.665,1.057-1.345,0-1.665-.064-1.665-1.057,0-1.57.064-3.138.064-4.708V77.533c0-1.025-.032-2.018-.032-3.011,0-1.249.48-1.633,1.7-1.633.833,0,1.634.064,2.466.064h3.523c.8,0,1.6-.064,2.434-.064,1.185,0,1.729.352,1.729,1.6,0,.961-.064,1.89-.064,2.85v.577c0,.929.064,1.858.064,2.818,0,1.25-.512,1.6-1.729,1.6-.8,0-1.633-.064-2.434-.064H10.138c-.641,0-.9.289-.9.9Zm.609-19.6a.589.589,0,0,0-.609.608v.128a.63.63,0,0,0,.609.608h4.259a.631.631,0,0,0,.609-.608v-.128a.589.589,0,0,0-.609-.608Zm0,3.2a.572.572,0,0,0-.609.608v.16a.589.589,0,0,0,.609.608h4.259a.589.589,0,0,0,.609-.608v-.16a.572.572,0,0,0-.609-.608ZM19.137,86.5a1.315,1.315,0,0,0,1.346-.7,20.692,20.692,0,0,0,1.665-2.787c.1-.192.128-.448.352-.448a4.106,4.106,0,0,1,1.313.416c.608.256,1.794.673,1.794,1.057,0,.32-.257.32-.481.32a.608.608,0,0,0-.48.256c-.288.417-.608.769-.9,1.217a.448.448,0,0,0-.1.288c0,.256.224.353.448.353.512,0,1.089-.033,1.569-.033.737,0,.673.448.673,1.25,0,.769.032,1.217-.641,1.217-.929,0-1.825-.064-2.722-.064H21.251c-.544,0-.769.224-.769.769v.16c0,.608.256.9.864.9h2.242c.993,0,2.018-.064,3.011-.064.7,0,.64.448.64,1.25,0,.769.031,1.249-.64,1.249-.993,0-1.986-.065-3.011-.065H22.02c-.256.033-.481.1-.481.384a.578.578,0,0,0,.129.289,12.889,12.889,0,0,0,4.387,3.106,1.3,1.3,0,0,1,.64.449c.1.16.161.32.353.352.224,0,.576.033.8.033,1.473,0,1.345-.9,1.345-1.634V83.17c0-.608-.256-.9-.9-.9H24.806c-.8,0-1.6.064-2.4.064-1.217,0-1.761-.32-1.761-1.6,0-.96.064-1.889.064-2.818V77.34c0-.96-.064-1.889-.064-2.818,0-1.281.512-1.633,1.729-1.633.8,0,1.633.064,2.434.064h3.427c.833,0,1.633-.064,2.434-.064,1.217,0,1.73.352,1.73,1.633,0,.993-.032,1.986-.032,3.011V94.316c0,.929.064,1.825.064,2.754,0,2.37-.8,3.587-4.548,3.587-1.057,0-1.473-.064-1.794-.993-.1-.224-.224-.416-.512-.416a.724.724,0,0,0-.353.1,1.444,1.444,0,0,1-.352.1c-.865,0-4-2.274-5.349-4.068a.589.589,0,0,0-.993-.031,13.716,13.716,0,0,1-5.541,3.875,2.94,2.94,0,0,1-1.025.32c-1.025,0-1.793-1.505-1.793-2.018,0-.416.576-.512.929-.608a10.011,10.011,0,0,0,5.093-3.171.572.572,0,0,0,.128-.288c0-.321-.288-.384-.544-.417H14.526c-.993,0-1.986.065-3.011.065-.673,0-.64-.449-.64-1.249,0-.865,0-1.25.673-1.25.993,0,1.986.064,2.979.064h2.146c.576,0,.8-.224.8-.769v-.288c0-.544-.224-.769-.769-.769H15.134c-.9,0-1.826.064-2.723.064-.673,0-.64-.448-.64-1.25,0-.833-.032-1.217.673-1.217.576,0,1.153.064,1.729.033.256,0,.513-.129.513-.417a1.025,1.025,0,0,0-.1-.288,20.357,20.357,0,0,1-1.281-2.05c0-.544,1.762-1.153,2.21-1.153.416,0,.608.352,1.057,1.153.416.737.865,1.473,1.217,2.242.192.384.32.544.737.544ZM29.194,75.932a.589.589,0,0,0-.608-.608H24.422a.589.589,0,0,0-.608.608v.128a.63.63,0,0,0,.608.608h4.164a.63.63,0,0,0,.608-.608Zm-4.772,2.594a.571.571,0,0,0-.608.608v.16a.589.589,0,0,0,.608.608h4.164a.589.589,0,0,0,.608-.608v-.16a.571.571,0,0,0-.608-.608Z" transform="translate(-2.746 -33.325)" fill="#fff"/>
    <path id="パス_5192" data-name="パス 5192" d="M66.043,99.377c-.1.192-.192.416-.448.416-.288,0-.384-.288-.608-.865-.1-.192-.192-.448-.288-.7a6.573,6.573,0,0,1-.512-1.442c0-.288.352-.352,1.025-.448l.673-.1a.923.923,0,0,0,.833-1.025v-11.5c0-.737-.064-1.474-.064-2.242,0-1.153.48-1.505,1.6-1.505.64,0,1.313.064,1.986.064H74.5c.641,0,1.313-.064,1.954-.064,1.089,0,1.6.321,1.6,1.474,0,.737-.032,1.473-.032,2.242V88.2c0,.512.064,2.178.064,2.4,0,.864-.512.8-1.665.8-1.025,0-1.313-.031-1.441-.352-.128-.384-.224-.416-.769-.416H70.656c-.64,0-.9.256-.9.9v3.042c0,.384.16.7.608.7h.224c.8-.192,1.569-.353,2.37-.544.225-.1.449-.224.449-.512a.506.506,0,0,0-.161-.384c-.1-.129-.224-.256-.32-.384-.384-.449-.673-.769-.673-.993,0-.576,1.858-1.377,2.37-1.377a.751.751,0,0,1,.576.352,31.566,31.566,0,0,1,2.146,2.851,20.3,20.3,0,0,1,1.986,3.267c0,.64-1.666,1.506-2.242,1.506-.448,0-.576-.384-1.345-1.6a.89.89,0,0,0-.833-.513,1.6,1.6,0,0,0-.384.064q-3.988,1.153-8.071,2.018a.758.758,0,0,0-.416.353m5.092-26.3c0,.32.256.416.544.448h3.075c.929,0,1.889-.064,2.754-.064.8,0,.737.384.737,1.409s.032,1.441-.737,1.441c-.833,0-1.633-.064-2.466-.064-.32,0-.608.128-.608.512,0,.1.031.16.031.257a7.062,7.062,0,0,1,.513,1.441c0,.673-1.922,1.121-2.466,1.121-.384,0-.448-.256-.673-.961-.128-.384-.288-.929-.544-1.6a1.018,1.018,0,0,0-1.057-.769,1.216,1.216,0,0,0-1.185.705c-.448.736-.929,1.505-1.442,2.21a.913.913,0,0,1-.7.416c-.544,0-2.466-.7-2.466-1.313,0-.16.224-.384.384-.608a25.791,25.791,0,0,0,3.491-6.214c.129-.256.161-.448.481-.448.192,0,1.441.256,1.729.321,1.313.256,1.7.256,1.7.672,0,.224-.256.321-.416.353a.829.829,0,0,0-.608.512.594.594,0,0,0-.064.224M74.307,84.2a.723.723,0,0,0,.769-.769v-.1a.74.74,0,0,0-.769-.769H70.527a.723.723,0,0,0-.769.769v.1a.707.707,0,0,0,.769.769Zm-4.548,3.171a.7.7,0,0,0,.769.737h3.779a.715.715,0,0,0,.769-.737v-.129a.74.74,0,0,0-.769-.769H70.527a.723.723,0,0,0-.769.769ZM83.082,76.285a1.165,1.165,0,0,0-1.281.7c-.9,1.474-1.505,2.659-2.082,2.659-.545,0-2.37-.769-2.37-1.409a2.533,2.533,0,0,1,.48-.769,25.287,25.287,0,0,0,3.107-5.894c.1-.256.128-.448.448-.448.256,0,1.665.288,2.018.353,1.089.224,1.41.256,1.41.64,0,.224-.257.32-.417.352a.815.815,0,0,0-.576.448.475.475,0,0,0-.032.224c0,.416.449.416.512.416h4.484c1.089,0,2.146-.064,3.235-.064.769,0,.737.352.737,1.441,0,1.057.032,1.41-.737,1.41-1.057,0-2.146-.064-3.235-.064h-.416c-.352.031-.608.128-.608.512a.932.932,0,0,0,.064.288,6.635,6.635,0,0,1,.544,1.442c0,.608-1.921,1.089-2.4,1.089-.384,0-.48-.256-.576-.608a14.423,14.423,0,0,0-.737-1.954,1.1,1.1,0,0,0-1.217-.769Zm5.541,7.59c0-.641-.256-.9-.9-.9H84.908c-.608,0-.9.256-.9.9V95.6c0,1.153.1,2.338.1,3.491,0,.769-.32.8-1.569.8-1.313,0-1.6-.033-1.6-.833,0-1.153.1-2.306.1-3.459V83.748c0-.833-.064-1.633-.064-2.434,0-1.089.7-1.281,1.665-1.281.64,0,1.313.064,1.986.064h3.363c.64,0,1.313-.064,1.954-.064.929,0,1.7.16,1.7,1.25,0,.7-.064,1.505-.064,2.338v7.367c0,.608.064,1.184.064,1.793,0,2.979-1.986,3.2-4.676,3.2-1.025,0-1.505-.1-1.505-2.242,0-.544.032-.9.576-.9.256,0,.929.065,1.441.065,1.153,0,1.153-.353,1.153-1.537Z" transform="translate(-29.346 -32.462)" fill="#fff"/>
    <path id="パス_5193" data-name="パス 5193" d="M130.9,100.2c-.48.064-.576.256-.8.737-.128.416-.544.416-1.538.416-1.409,0-1.825.033-1.825-.769,0-1.121.1-2.21.1-3.3V78.26c0-.865-.064-1.729-.064-2.562,0-1.345.641-1.569,1.986-1.569.577,0,1.314.064,2.21.064h18c.993,0,2.018-.064,3.011-.064.769,0,.769.32.769,1.537,0,1.185,0,1.505-.769,1.505-.993,0-2.018-.064-3.011-.064h-18c-.608,0-.865.288-.865.9V96.42c0,.608.256.865.865.865H148.7c1.249,0,2.5-.064,3.747-.064.8,0,.737.384.737,1.569,0,1.153.032,1.505-.737,1.505-1.249,0-2.5-.1-3.747-.1Zm12.587-14.765c0,.48.32.672.769.672H148.7c1.121,0,2.242-.064,3.363-.064.7,0,.7.32.7,1.377s0,1.377-.7,1.377c-1.121,0-2.242-.064-3.363-.064h-3.042c-.256.032-.448.1-.448.384a.478.478,0,0,0,.128.288,18.829,18.829,0,0,0,6.438,4.26c.544.224,1.057.384,1.057.737,0,.48-.929,2.306-1.73,2.306-1.28,0-6.694-3.619-8.519-6.181a.512.512,0,0,0-.448-.257.686.686,0,0,0-.48.288c-2.306,3.619-7.591,6.15-8.584,6.15-.576,0-1.665-1.922-1.665-2.37,0-.352.352-.448.641-.544a13.859,13.859,0,0,0,6.63-4.356.474.474,0,0,0,.128-.288c0-.321-.288-.385-.512-.417h-2.21c-1.121,0-2.242.064-3.363.064-.7,0-.7-.32-.7-1.377s0-1.377.7-1.377c1.121,0,2.242.064,3.363.064h3.267c.576,0,.9-.16,1.025-.8.064-.641.1-1.282.16-1.921-.032-.608-.256-.865-.865-.865h-1.506a1.269,1.269,0,0,0-1.313.737c-.1.129-.192.289-.288.448-.512.833-1.089,1.89-1.665,1.89-.48,0-2.4-.865-2.4-1.314,0-.16.288-.512.384-.672a21.814,21.814,0,0,0,2.947-5.6c.1-.257.16-.609.512-.609.32,0,2.178.576,2.658.673.192.064.705.224.705.48,0,.192-.257.289-.416.353-.257.064-.32.064-.449.288a.82.82,0,0,0-.064.224c0,.321.288.417.545.448h7.27c1.121,0,2.21-.1,3.331-.1.737,0,.737.32.737,1.441,0,1.089,0,1.409-.737,1.409-1.121,0-2.21-.1-3.331-.1h-1.954c-.641,0-.9.257-.961.9-.032.64-.1,1.217-.16,1.857a.29.29,0,0,0-.032.161" transform="translate(-57.943 -33.892)" fill="#fff"/>
    <path id="パス_5194" data-name="パス 5194" d="M203.927,93.02c-.608,0-.865.257-.865.9v1.089c0,.673.032,1.346.032,2.05a2.361,2.361,0,0,1-.737,1.954,6.207,6.207,0,0,1-3.555.9,2.718,2.718,0,0,1-1.345-.224,3.276,3.276,0,0,1-.48-1.73c0-.48.032-1.057.64-1.057.256,0,.673.064,1.089.064,1.345,0,1.313-.352,1.313-1.7V93.917c0-.64-.288-.9-.9-.9h-.8c-.641,0-1.313.064-1.954.064-.929,0-1.378-.288-1.378-1.248,0-.513.032-.993.032-1.538V88.345c-.032-.257-.1-.448-.384-.448a.447.447,0,0,0-.288.1c-.32.289-1.217,1.025-1.633,1.025a3.062,3.062,0,0,1-1.826-1.794c0-.224.353-.48.961-.9.288-.224.608-.448,1.025-.769a.693.693,0,0,0,.32-.544.629.629,0,0,0-.288-.544,7.454,7.454,0,0,0-.641-.512c-.48-.384-.737-.608-.737-.833,0-.417,1.217-1.57,1.633-1.57.288,0,1.281.993,1.537,1.25a.987.987,0,0,0,.641.288.838.838,0,0,0,.576-.288c.288-.288.512-.608.769-.9a.477.477,0,0,0,.128-.289c0-.256-.224-.352-.48-.384-1.25,0-2.531.1-3.812.1-.769,0-.769-.288-.769-1.313s0-1.281.8-1.281c1.281,0,2.563.064,3.844.064h1.569a1.128,1.128,0,0,0,1.249-.737,6.4,6.4,0,0,0,.32-.673.7.7,0,0,0,.032-.256c0-.416-.288-.513-.608-.544h-7.206c-.641.064-.9.256-.9.9v6.181c0,4.419-.256,8.263-1.954,12.427a17.411,17.411,0,0,1-1.665,3.267.718.718,0,0,1-.608.384c-.576,0-2.338-1.057-2.338-1.73a2.077,2.077,0,0,1,.352-.7,21.465,21.465,0,0,0,2.818-7.4c.032-.225-.064-.416-.32-.416a.385.385,0,0,0-.256.064c-.288.192-.576.416-.865.641-.224.16-.224.256-.32.64-.032.225-.128.449-.384.449-.32,0-.48-.417-.8-1.218-.129-.32-.321-.736-.513-1.184a2.425,2.425,0,0,1-.256-.769c0-.257.865-.641,1.185-.8.769-.384,1.505-.769,2.242-1.217a1.248,1.248,0,0,0,.673-1.281V78.288c0-.993-.064-1.986-.064-3.01,0-1.25.576-1.538,1.729-1.538,1.025,0,2.05.064,3.075.064h4.1c.608,0,.865-.224.9-.833l-.1-1.121a.8.8,0,0,1-.032-.256c0-.352.288-.416.576-.416.352,0,2.37.192,2.819.225.256.031.8.031.8.384,0,.192-.192.256-.416.416-.289.224-.289.416-.32.769,0,.608.288.833.864.833h5.894c1.249,0,2.466-.064,3.715-.064.737,0,.737.352.737,1.474,0,1.057,0,1.473-.737,1.473-1.153,0-2.434-.1-3.715-.1h-5.733c-.064.031-.128.031-.128.128s.288.128.352.16c.513.128,1.089.32,1.089.576s-.32.353-.512.384a.766.766,0,0,0-.416.289.515.515,0,0,0-.1.288c0,.288.256.352.512.384h4.964c1.282,0,2.563-.064,3.844-.064.833,0,.8.32.8,1.281,0,1.025,0,1.313-.8,1.313-1.282,0-2.563-.1-3.844-.1h-1.249c-.224.032-.416.1-.416.353,0,.1.064.16.1.256l.833.929a.768.768,0,0,0,.544.289c.225,0,.353-.129.545-.225a15.121,15.121,0,0,0,1.281-1.217.547.547,0,0,1,.416-.224A6.924,6.924,0,0,1,212,83.348a.321.321,0,0,1-.32.32.626.626,0,0,1-.256-.032c-.064,0-.192-.032-.256-.032a.364.364,0,0,0-.257.1c-.32.256-.64.512-.929.769a.652.652,0,0,0-.288.512.715.715,0,0,0,.288.545,20.5,20.5,0,0,0,2.37,1.6c.224.128.448.288.448.576a2.932,2.932,0,0,1-1.762,1.826c-.448,0-1.954-1.249-2.37-1.569a.477.477,0,0,0-.288-.128c-.256,0-.352.224-.352.448V90.3c0,.512.032,1.025.032,1.538,0,.928-.448,1.248-1.378,1.248-.64,0-1.313-.064-1.986-.064Zm-18.16-9.736c-.48,0-.576-.577-.737-1.217a24.734,24.734,0,0,0-1.089-3.395,1.723,1.723,0,0,1-.16-.576c0-.512,1.41-.929,1.73-.929.448,0,.7.545,1.217,2.146a24,24,0,0,1,.833,2.914c0,.8-1.665,1.057-1.793,1.057m11.818,11.69c-.384.031-.448.031-.737.416-.544.737-3.459,4.132-4.2,4.132-.448,0-2.082-.9-2.082-1.506,0-.288.352-.512.673-.8a20.464,20.464,0,0,0,3.363-3.491c.129-.161.256-.384.48-.384a8.862,8.862,0,0,1,1.762.608c.9.352,1.153.512,1.153.737s-.224.288-.416.288m7.046-7.622a.589.589,0,0,0,.608-.608v-.16a.63.63,0,0,0-.608-.609h-6.213a.556.556,0,0,0-.608.609v.16a.556.556,0,0,0,.608.608ZM198.418,89.3a.572.572,0,0,0-.608.609v.256a.571.571,0,0,0,.608.608h6.213a.63.63,0,0,0,.608-.608v-.256a.631.631,0,0,0-.608-.609Zm3.491-8.071h-.48a1.429,1.429,0,0,0-1.345.641c-.257.417-.577.8-.865,1.185a.445.445,0,0,0-.1.288c0,.288.192.352.448.384h4.068c.256-.032.48-.1.48-.384a.54.54,0,0,0-.1-.32c-.256-.352-.544-.737-.769-1.121a1.366,1.366,0,0,0-1.345-.673m7.719,18.416a.692.692,0,0,1-.544-.321,36.527,36.527,0,0,0-3.363-4,.893.893,0,0,1-.384-.576c0-.577,1.7-1.313,2.05-1.313a.835.835,0,0,1,.576.288c.544.512,1.441,1.473,1.954,2.05.384.448,1.826,2.018,1.826,2.5,0,.641-1.666,1.378-2.114,1.378" transform="translate(-84.011 -32.542)" fill="#fff"/>
    <path id="パス_5195" data-name="パス 5195" d="M261.832,73.367c0,.192-.224.32-.384.384-.512.192-.641.352-1.057,1.089a2.16,2.16,0,0,0-.32.737.311.311,0,0,0,.352.32,23.232,23.232,0,0,0,3.715-.9,2.423,2.423,0,0,1,.8-.193c.544,0,.7.513.8.961A10.228,10.228,0,0,1,266,77.5c0,.545-1.025.673-1.7.8-2.018.416-4.036.769-6.053.993a1.13,1.13,0,0,0-.961.512,10.371,10.371,0,0,0-1.089,1.857.247.247,0,0,0,.256.224,1.234,1.234,0,0,0,.576-.192,8.851,8.851,0,0,1,3.491-.833,3.265,3.265,0,0,1,3.651,2.882c.064.288.16.544.48.544a28.55,28.55,0,0,0,3.748-1.825,2.636,2.636,0,0,1,.833-.32c.608,0,1.377,2.466,1.377,3.01,0,.384-.352.512-.961.705-.128.063-.288.1-.448.16-1.281.48-2.53,1.024-3.779,1.569-.576.224-.832.417-.832,1.057v.416c0,.993.032,1.954.032,2.947,0,1.153-.16,1.28-1.377,1.28-1.377,0-1.954-.064-1.954-.9,0-.705.064-1.41.064-2.082,0-.288-.1-.544-.416-.544-.16,0-3.459,1.41-3.459,3.4,0,2.146,3.106,2.338,4.644,2.338a23.419,23.419,0,0,0,5.957-.8,3.944,3.944,0,0,1,.641-.064c.416,0,.64.352.64,2.178,0,.961-.031,1.217-.736,1.377a42.405,42.405,0,0,1-6.149.416,11.868,11.868,0,0,1-5.061-.833,4.865,4.865,0,0,1-3.2-4.58c0-2.882,2.338-4.452,4.548-5.765.641-.384,1.313-.736,1.986-1.057.32-.16.576-.352.576-.736a4.4,4.4,0,0,0-.16-.9,1.332,1.332,0,0,0-1.409-1.089,10.757,10.757,0,0,0-5.989,2.819,21.021,21.021,0,0,0-2.691,3.747.531.531,0,0,1-.448.32c-.577,0-2.723-1.281-2.723-1.857,0-.257.256-.512.416-.705.737-.8,5.381-7.238,5.381-7.847,0-.288-.256-.384-.7-.384-.512,0-1.249.1-2.242.1-.7,0-.833-.16-.833-1.793,0-1.281.128-1.474.929-1.474.544,0,1.377.065,2.306.065h.929c.833,0,1.7-.032,1.986-.416a17.585,17.585,0,0,0,1.729-4.132c.065-.353.129-.673.449-.673.288,0,3.587,1.474,3.587,1.954" transform="translate(-113.341 -32.65)" fill="#fff"/>
    <path id="パス_5196" data-name="パス 5196" d="M320.925,99.715a.752.752,0,0,0-.865-.865H309.138c-.576,0-.865.256-.865.833V100c0,.96-.416.929-1.825.929-1.346,0-1.825.031-1.825-.929,0-1.25.1-2.531.1-3.812V78.128c0-1.025-.064-2.082-.064-3.107,0-1.217.545-1.6,1.7-1.6.929,0,1.857.064,2.819.064h10.857c.929,0,1.857-.064,2.787-.064,1.217,0,1.729.384,1.729,1.633,0,1.025-.064,2.05-.064,3.075V96.255c0,1.25.064,2.531.064,3.779,0,.993-.416.929-1.826.929h-.576c-.769,0-1.217-.064-1.217-.8Zm-.833-18.993a.9.9,0,0,0,.9-.9V77.52a.916.916,0,0,0-.9-.9H309.075a.849.849,0,0,0-.865.9v2.306c0,.576.32.833.865.9ZM308.21,87.1a.849.849,0,0,0,.865.9h11.018a.917.917,0,0,0,.9-.9V84.63a.917.917,0,0,0-.9-.9H309.075a.849.849,0,0,0-.865.9Zm0,7.655a.848.848,0,0,0,.865.9h11.018a.916.916,0,0,0,.9-.9V91.868a.849.849,0,0,0-.9-.865H309.075a.792.792,0,0,0-.865.865Z" transform="translate(-139.275 -33.568)" fill="#fff"/>
    <path id="パス_5197" data-name="パス 5197" d="M361.588,80.845v3.33c.031.353.128.641.544.641.1,0,.16-.032.256-.032a20.7,20.7,0,0,1,2.338-.929c.64,0,.673,1.281.673,1.729,0,1.089-.16,1.121-3.042,2.274a1.058,1.058,0,0,0-.769,1.185v5.349c0,.673.031,1.345.031,2.018,0,2.883-2.146,3.3-4.516,3.3-.577,0-1.378,0-1.7-.544a4.851,4.851,0,0,1-.416-2.018c0-.448.1-.8.641-.8a2.268,2.268,0,0,1,.448.032c.32.032.641.032.993.032,1.346,0,1.313-.32,1.313-1.986V90.2c0-.352-.128-.641-.544-.641a.7.7,0,0,0-.256.032c-.7.224-1.153.384-1.442.48-.448.16-.512.224-.641.641-.064.224-.192.448-.448.448-.352,0-.448-.352-.512-.64-.128-.417-.737-2.627-.737-2.883,0-.416.256-.48,1.313-.7q.817-.145,2.5-.577a.991.991,0,0,0,.769-1.121V80.845c0-.641-.256-.9-.865-.9-.833-.032-1.761.065-2.4.065-.8,0-.769-.417-.769-1.538,0-1.153-.032-1.538.769-1.538.769,0,1.569.1,2.4.065.608,0,.865-.256.865-.9V74.087q0-1.057-.1-2.114c0-.064-.031-.193-.031-.289,0-.416.32-.448.64-.448.513,0,2.082.128,2.659.16.257,0,.8.033.8.417,0,.288-.225.384-.417.512-.32.193-.352.641-.352,1.538V76.1c0,.641.256.9.864.9.64.031,1.506-.065,2.082-.065.8,0,.737.449.737,1.538,0,1.057.064,1.538-.737,1.538-.416,0-1.537-.065-2.082-.065-.608.032-.864.256-.864.9m8.775-6.086a.708.708,0,0,0,.256-.032A38.671,38.671,0,0,0,378.37,72.1c.128-.064.32-.224.48-.224.256,0,.513.417,1.025,1.217a6.445,6.445,0,0,1,.9,1.827.329.329,0,0,1-.352.32,1.05,1.05,0,0,1-.417-.129,1.263,1.263,0,0,0-.448-.16,1.132,1.132,0,0,0-.352.1,46.732,46.732,0,0,1-8.616,2.274.877.877,0,0,0-.833,1.025v.64c0,1.217.384,1.281,1.474,1.281h6.021c1.089,0,1.857.064,2.274-2.21.1-.512.129-.9.737-.9.384,0,2.274.224,2.274,1.121a9.476,9.476,0,0,1-.929,3.074c-.928,1.762-1.793,1.794-3.619,1.794H370.62c-2.018,0-4,0-4-2.595,0-.673.064-1.345.064-2.018V74.92a24.638,24.638,0,0,0-.128-2.659v-.32c0-.384.224-.448.544-.448.576,0,1.954.128,2.594.16.289.032.865.032.865.417,0,.224-.16.32-.384.48-.384.289-.384,1.025-.417,1.506.033.384.193.7.609.7M376.929,98.2h-5.957c-.48,0-.737.193-.737.705V99.2c0,.769-.545.705-1.665.705-1.153,0-1.57.032-1.57-.737s.064-1.634.064-2.4V88.947c0-.736-.032-1.505-.032-2.241,0-1.057.481-1.25,1.569-1.25.48,0,1.121.064,1.89.064h6.886c.769,0,1.409-.064,1.922-.064,1.089,0,1.57.192,1.57,1.281,0,.737-.064,1.474-.064,2.21v7.911c0,.8.064,1.6.064,2.37s-.384.769-1.6.769c-1.249,0-1.633,0-1.633-.737a.982.982,0,0,1,.032-.32c-.032-.513-.224-.737-.737-.737m-.128-7.687a.9.9,0,0,0,.9-.9v-.384a.9.9,0,0,0-.9-.9h-5.734a.916.916,0,0,0-.9.9v.384a.916.916,0,0,0,.9.9Zm-6.63,4a.916.916,0,0,0,.9.9H376.8a.9.9,0,0,0,.9-.9v-.576a.9.9,0,0,0-.9-.9h-5.734a.916.916,0,0,0-.9.9Z" transform="translate(-161.761 -32.569)" fill="#fff"/>
    <path id="パス_5198" data-name="パス 5198" d="M425.838,76.432c.224.032.641.16.641.448,0,.224-.193.32-.384.48-1.121.833-1.41,10.986-1.41,12.811,0,2.5-.064,6.374,3.4,6.374a8.113,8.113,0,0,0,6.021-3.107,10.178,10.178,0,0,0,1.954-4.74c.1-.512.16-1.057.641-1.057.7,0,2.658,1.634,2.658,2.6a11.9,11.9,0,0,1-1.314,3.747A11.212,11.212,0,0,1,428.3,100.1a7.079,7.079,0,0,1-5.637-2.466c-1.441-1.922-1.6-5.028-1.6-7.367q0-3.795.288-7.59c.1-1.473.384-4.548.384-5.861v-.352c0-.48.033-.8.481-.8a27.169,27.169,0,0,1,3.619.769" transform="translate(-192.514 -34.594)" fill="#fff"/>
    <path id="パス_5199" data-name="パス 5199" d="M463.473,79.888c4.676-.288,9.352-.769,14.029-1.313,2.4-.288,4.868-.608,7.27-.993a1.538,1.538,0,0,1,.384-.033c.481,0,.545.417.641.8a19.324,19.324,0,0,1,.256,2.338c0,.7-.673.641-1.409.673a15.661,15.661,0,0,0-5.317.673,9.693,9.693,0,0,0-5.477,4.772,11.986,11.986,0,0,0-1.538,5.637c0,3.715,2.4,4.612,5.637,4.612.576,0,1.28-.032,1.6-.032.48,0,.737.032.737.544a7.681,7.681,0,0,1-.576,2.85c-.224.321-.576.321-.929.321-5.445,0-10.121-1.729-10.121-7.975a14.226,14.226,0,0,1,3.523-9.193c.16-.16.576-.576.576-.769,0-.256-.288-.384-.48-.384-.256,0-1.7.224-2.05.288a64.314,64.314,0,0,0-7.078,1.313,2.436,2.436,0,0,1-.481.064c-.769,0-1.057-3.042-1.057-3.363,0-.833.448-.737,1.858-.833" transform="translate(-211.053 -35.456)" fill="#fff"/>
    <path id="パス_5200" data-name="パス 5200" d="M4.8,13.711a2.306,2.306,0,0,1-2.531,2.4c-1.089,0-2.274-.7-2.274-2.659A14.171,14.171,0,0,1,1.505,7.914a1.184,1.184,0,0,1,1.346-.833h.32c.481,0,.705.064.705.256a1.381,1.381,0,0,1-.224.544,9.555,9.555,0,0,0-1.217,3.075c0,.384.256.576.672.7a2.054,2.054,0,0,1,1.7,2.05m7.174,0a2.3,2.3,0,0,1-2.5,2.4c-1.088,0-2.274-.7-2.274-2.659A14.385,14.385,0,0,1,8.679,7.946c.353-.737.576-.865,1.346-.865h.32c.48,0,.7.064.7.288a1.251,1.251,0,0,1-.224.544,9.7,9.7,0,0,0-1.185,3.043c0,.384.256.576.673.7a2.026,2.026,0,0,1,1.665,2.05" transform="translate(0 -3.237)" fill="#fff"/>
    <path id="パス_5201" data-name="パス 5201" d="M38.7,18a78.762,78.762,0,0,1-4.8,8.3,2.406,2.406,0,0,0-.416.865,1.37,1.37,0,0,0,.064.353,1.2,1.2,0,0,1,.032.352.368.368,0,0,1-.352.417c-.352,0-1.442-.961-1.794-1.25-.256-.192-1.089-.833-1.089-1.153A1.09,1.09,0,0,1,30.7,25.3a54.543,54.543,0,0,0,5.348-8.936c.416-.928.512-1.025.737-1.025.673,0,2.242,1.25,2.242,1.825A2.966,2.966,0,0,1,38.7,18m-3.139-4.772a10.248,10.248,0,0,1-2.082-1.505c-.7-.544-1.761-1.282-2.531-1.761a.541.541,0,0,1-.32-.481c0-.512,1.185-2.114,1.729-2.114A11.845,11.845,0,0,1,35.115,9.1c.448.32,2.242,1.57,2.242,2.05,0,.577-1.217,2.082-1.793,2.082m2.146-6.95a2.488,2.488,0,0,1-.993-.609,1.819,1.819,0,0,0-.288-.224c-.993-.769-2.018-1.537-3.075-2.242-.224-.16-.576-.352-.576-.673,0-.384,1.153-2.05,1.7-2.05a9.255,9.255,0,0,1,2.21,1.313c.161.128.321.224.416.288a25.826,25.826,0,0,1,2.05,1.665.687.687,0,0,1,.32.512c0,.512-1.121,2.018-1.762,2.018M46.677,0c.256,0,2.531.641,2.947.769.256.064.7.224.7.545,0,.224-.256.288-.448.352a.728.728,0,0,0-.64.481c-.8,2.114-1.762,4.163-2.755,6.213a.935.935,0,0,0-.064.288.437.437,0,0,0,.544.448c1.825-.1,3.651-.288,5.509-.448.256-.064.48-.16.48-.48a.788.788,0,0,0-.128-.352c-.256-.32-.512-.673-.737-.961A4.868,4.868,0,0,1,51.1,5.349C51.1,4.836,53.083,4,53.5,4a.909.909,0,0,1,.64.384A31.945,31.945,0,0,1,56.7,8.007c.416.64,2.274,3.491,2.274,4.036,0,.64-1.89,1.377-2.434,1.377-.352,0-.544-.32-.961-1.089-.1-.16-.192-.353-.32-.577a1.13,1.13,0,0,0-.993-.64.552.552,0,0,0-.224.031c-4.26.544-8.488.961-12.748,1.377-.288.1-.352.257-.512.481a.461.461,0,0,1-.384.288c-.32,0-.448-.416-.608-.9-.1-.417-.673-2.178-.673-2.5,0-.353.288-.353,1.089-.384.16,0,.352-.033.544-.033.352,0,.7-.032,1.025-.032a1.214,1.214,0,0,0,1.185-.8A69.185,69.185,0,0,0,46.2.448c.1-.352.192-.448.48-.448m5.861,26.936H45.3c-.512,0-.737.224-.737.737,0,.16.032.352.032.512,0,.608-.32.64-1.73.64-1.249,0-1.665,0-1.665-.609,0-.64.064-1.6.064-2.306V18.545c0-.608-.032-1.25-.032-1.858,0-1.089,1.089-1.217,1.954-1.217.8,0,1.6.064,2.434.064h6.63c.8,0,1.633-.064,2.434-.064.833,0,1.954.1,1.954,1.217,0,.608-.032,1.217-.032,1.858v7.4c0,.737.064,1.921.064,2.274,0,.64-.448.64-1.7.64-1.314,0-1.729,0-1.729-.64,0-.192.031-.384.031-.576a.65.65,0,0,0-.737-.7m-.1-2.914c.544-.064.865-.32.865-.9V19.313a.849.849,0,0,0-.865-.9H45.4a.868.868,0,0,0-.865.9v3.812a.832.832,0,0,0,.865.9Z" transform="translate(-13.873 0)" fill="#fff"/>
    <path id="パス_5203" data-name="パス 5203" d="M149.958,15.758c-.48,0-.7-.064-.7-.288a1.373,1.373,0,0,1,.192-.545,9.039,9.039,0,0,0,1.217-3.074c0-.353-.256-.544-.673-.673a2.026,2.026,0,0,1-1.666-2.05,2.3,2.3,0,0,1,2.5-2.4c1.089,0,2.274.705,2.274,2.627a14.384,14.384,0,0,1-1.473,5.541c-.352.737-.576.865-1.345.865Zm7.174,0c-.48,0-.7-.064-.7-.256a1.384,1.384,0,0,1,.224-.544,10.181,10.181,0,0,0,1.217-3.106c0-.353-.256-.544-.673-.673a2.054,2.054,0,0,1-1.7-2.05,2.305,2.305,0,0,1,2.53-2.4c1.089,0,2.274.705,2.274,2.627a14.163,14.163,0,0,1-1.506,5.573,1.184,1.184,0,0,1-1.345.833Z" transform="translate(-67.814 -3.075)" fill="#fff"/>
    <path id="パス_5204" data-name="パス 5204" d="M194.857,8.98a8.622,8.622,0,0,0,1.378-.064c.192,0,.512-.064.7-.064.673,0,2.05,1.761,2.05,2.177a6.2,6.2,0,0,1-.7,1.25c-.192.288-.384.608-.512.833a46.49,46.49,0,0,1-4.164,6.085.876.876,0,0,0-.256.608.856.856,0,0,0,.48.769,51.441,51.441,0,0,1,5.413,4.132c.769.673,1.569,1.409,2.306,2.178a.615.615,0,0,1,.224.449c0,.673-1.762,2.562-2.434,2.562a1.071,1.071,0,0,1-.8-.48,34.05,34.05,0,0,0-7.078-6.341,1.128,1.128,0,0,0-.737-.288,1.533,1.533,0,0,0-.961.544,35.655,35.655,0,0,1-8.007,5.6,5.364,5.364,0,0,1-1.409.608c-.673,0-2.146-2.146-2.146-2.723,0-.384.384-.544.673-.64C184.543,24,189.924,19.1,193.159,14.04a3.159,3.159,0,0,0,.544-1.089c0-.48-.448-.545-.929-.545h-6.63c-1.377,0-2.755.065-4.132.065-.865,0-.8-.48-.8-1.954,0-1.121-.032-1.6.769-1.6,1.377,0,2.754.064,4.164.064Z" transform="translate(-81.475 -4.047)" fill="#fff"/>
    <path id="パス_5205" data-name="パス 5205" d="M240.8,16.464c0,.16-.224.256-.352.32-.544.16-.544.192-.993.737-.737.9-4.612,5.413-5.541,5.413-.544,0-2.274-1.537-2.274-2.146,0-.32.48-.608.737-.8a17.669,17.669,0,0,0,4.42-4.836c.128-.224.32-.641.608-.641a12.924,12.924,0,0,1,2.178.993c.288.161,1.217.608,1.217.961m1.762-7.943c.673,0,.9-.48.9-1.056V7.016a29.324,29.324,0,0,0-.128-3.748c0-.128-.032-.256-.032-.384,0-.384.256-.448.576-.448.544,0,1.6.193,2.21.257.737.1,1.473.128,1.473.48a.528.528,0,0,1-.256.416c-.416.417-.448.641-.448,2.146v1.73c0,.769.416,1.056.9,1.056h5.028c1.377,0,2.786-.064,4.2-.064.833,0,.8.448.8,1.857,0,1.153-.032,1.569-.865,1.569-1.377,0-2.754-.064-4.131-.064h-4.964a.964.964,0,0,0-.961.961v7.494c0,.641.032,1.25.032,1.89,0,1.729,0,3.235-1.794,4.132a9.9,9.9,0,0,1-3.459.929c-.512,0-.737-.32-1.153-1.121a5.873,5.873,0,0,1-.609-1.73c0-.512.737-.48,1.121-.512,2.595-.193,2.466-1.185,2.466-3.491v-7.59a.944.944,0,0,0-.961-.961h-4.932c-1.345,0-2.691.064-4.036.064-.833,0-.833-.544-.833-1.6,0-1.314-.032-1.825.8-1.825s2.754.064,4.068.064Zm13.1,8.648c.512.512,2.819,2.755,2.819,3.363,0,.672-1.7,2.21-2.21,2.21-.32,0-.576-.352-.769-.608a31.425,31.425,0,0,0-4.772-4.9c-.224-.16-.544-.416-.544-.7,0-.48,1.313-2.082,1.986-2.082.736,0,2.882,2.146,3.491,2.723m4.227-13.644a3.187,3.187,0,1,1-6.374,0A3.158,3.158,0,0,1,256.684.354a3.205,3.205,0,0,1,3.2,3.171m-4.9,0a1.7,1.7,0,0,0,1.7,1.729,1.714,1.714,0,1,0,0-3.427,1.688,1.688,0,0,0-1.7,1.7" transform="translate(-105.906 -0.162)" fill="#fff"/>
    <path id="パス_5206" data-name="パス 5206" d="M310.506,22.637c1.473,0,3.555-.1,3.971-.1.865,0,.9.257.9,2.018,0,1.025-.033,1.634-.865,1.634-1.345,0-2.69-.064-4-.064H295.773c-1.313,0-2.658.064-4,.064-.833,0-.864-.608-.864-1.6,0-1.793.064-2.05.9-2.05.417,0,2.627.1,3.972.1Z" transform="translate(-133.003 -10.305)" fill="#fff"/>
    <path id="パス_5207" data-name="パス 5207" d="M348.684,9.976c.448.544,1.346,1.986,1.762,2.626a17.864,17.864,0,0,1,1.761,3.2c0,.673-2.114,1.634-2.562,1.634-.384,0-.544-.384-.7-.7a39.944,39.944,0,0,0-2.915-4.932,1.523,1.523,0,0,1-.352-.673c0-.544,1.954-1.506,2.434-1.506a.785.785,0,0,1,.576.353M368.8,9.046c.384.128,1.217.384,1.217.737,0,.224-.224.353-.352.448a1.339,1.339,0,0,0-.609.833c-1.569,5.636-3.747,10.5-8.263,14.38a24.667,24.667,0,0,1-9.256,4.836,2.509,2.509,0,0,1-.7.16c-.641,0-2.114-2.146-2.114-2.659,0-.544.961-.64,1.345-.736,7.078-1.762,11.658-5.894,14.285-12.716a24.843,24.843,0,0,0,1.473-5.7c.033-.224.065-.512.32-.512a22.082,22.082,0,0,1,2.659.929M356.852,7.8c.608.8,1.153,1.633,1.665,2.466a17.481,17.481,0,0,1,1.794,3.267c0,.64-2.146,1.6-2.595,1.6-.352,0-.48-.353-.737-.8A41.415,41.415,0,0,0,354.1,9.463a1.513,1.513,0,0,1-.353-.673c0-.512,1.954-1.473,2.434-1.473.32,0,.512.256.673.48" transform="translate(-158.044 -3.345)" fill="#fff"/>
    <path id="パス_5208" data-name="パス 5208" d="M414.5,23.6a3.688,3.688,0,0,1-3.843,3.876,3.316,3.316,0,0,1-3.491-3.363,3.7,3.7,0,0,1,3.908-3.875A3.28,3.28,0,0,1,414.5,23.6" transform="translate(-186.158 -9.254)" fill="#fff"/>
    <path id="パス_6170" data-name="パス 6170" d="M17.582-5.691c0,.552-.276,1.173-.931,1.173-1.035,0-2.691-.586-2.691-1.828a1.429,1.429,0,0,1,1.483-1.38A2.108,2.108,0,0,1,17.582-5.691Zm3.208-22.355a4.707,4.707,0,0,0-1.311.379,31.973,31.973,0,0,1-8.728,1.276H9.923c-1.035,0-1.069.069-1.069.862,0,.586.1,3.174.862,3.174.552,0,5.416-1,6.244-1.207a8.277,8.277,0,0,1,.828-.138c.276,0,.586.1.586.414,0,.345-.621.966-.9,1.242A138.242,138.242,0,0,1,5.749-11.21c-.31.241-.828.621-.828,1.035,0,.552,1.759,2.484,2.484,2.484a.468.468,0,0,0,.379-.241c1.242-1.414,2.484-2.829,3.829-4.14a10.473,10.473,0,0,1,7.728-3.381c3,0,5.83,1.38,5.83,4.726A5.607,5.607,0,0,1,21-5.415c-.276,0-.379-.207-.414-.448a3.431,3.431,0,0,0-.621-2.208,5.627,5.627,0,0,0-4.588-2.449,4.332,4.332,0,0,0-4.416,4.174c0,3.519,4.071,4.692,6.934,4.692,5.554,0,10.971-3.174,10.971-9.28a7.13,7.13,0,0,0-4.105-6.693,10.118,10.118,0,0,0-4.243-1.035,6.555,6.555,0,0,0-1.414.138,2.019,2.019,0,0,1-.448.069c-.31,0-.586-.172-.586-.448a1.031,1.031,0,0,1,.345-.586,33.409,33.409,0,0,1,5-4.623c.379-.276.759-.483.759-.724C24.171-25.424,22.171-28.046,20.791-28.046Z" transform="translate(44.674 29.513)" fill="#fff"/>
  </g>
</svg>
