<svg id="グループ_5776" data-name="グループ 5776" xmlns="http://www.w3.org/2000/svg" xmlns:xlink="http://www.w3.org/1999/xlink" width="506.637" height="124.283" viewBox="0 0 506.637 124.283">
  <defs>
    <clipPath id="clip-path">
      <rect id="長方形_2913" data-name="長方形 2913" width="506.637" height="124.283" transform="translate(0 0)" fill="#fff"/>
    </clipPath>
  </defs>
  <g id="グループ_5775" data-name="グループ 5775" clip-path="url(#clip-path)">
    <path id="パス_5191" data-name="パス 5191" d="M11.965,113.485c0,2.892.177,5.782.177,8.674,0,1.888-.648,1.947-3.068,1.947-2.478,0-3.068-.118-3.068-1.947,0-2.892.118-5.782.118-8.674V81.445c0-1.889-.059-3.718-.059-5.547,0-2.3.885-3.009,3.127-3.009,1.534,0,3.01.118,4.544.118h6.49c1.476,0,2.951-.118,4.485-.118,2.183,0,3.186.649,3.186,2.95,0,1.771-.118,3.482-.118,5.251v1.063c0,1.711.118,3.423.118,5.192,0,2.3-.944,2.95-3.186,2.95-1.475,0-3.009-.118-4.485-.118H13.618c-1.181,0-1.653.532-1.653,1.653Zm1.122-36.111A1.085,1.085,0,0,0,11.965,78.5v.236a1.161,1.161,0,0,0,1.122,1.121h7.847a1.162,1.162,0,0,0,1.122-1.121V78.5a1.085,1.085,0,0,0-1.122-1.121Zm0,5.9a1.053,1.053,0,0,0-1.122,1.121v.3a1.085,1.085,0,0,0,1.122,1.121h7.847a1.085,1.085,0,0,0,1.122-1.121v-.3a1.054,1.054,0,0,0-1.122-1.121ZM30.2,97.966a2.422,2.422,0,0,0,2.479-1.3,38.121,38.121,0,0,0,3.068-5.134c.177-.354.236-.826.649-.826a7.564,7.564,0,0,1,2.419.767c1.121.472,3.305,1.239,3.305,1.947,0,.59-.473.59-.886.59a1.12,1.12,0,0,0-.885.472c-.531.768-1.121,1.416-1.652,2.242a.826.826,0,0,0-.177.531c0,.472.413.65.826.65.944,0,2.007-.06,2.891-.06,1.358,0,1.24.826,1.24,2.3,0,1.416.059,2.242-1.181,2.242-1.711,0-3.363-.118-5.015-.118H34.093c-1,0-1.416.413-1.416,1.416v.295c0,1.121.471,1.652,1.592,1.652H38.4c1.829,0,3.718-.118,5.547-.118,1.3,0,1.18.826,1.18,2.3,0,1.416.058,2.3-1.18,2.3-1.829,0-3.659-.119-5.547-.119H35.509c-.472.06-.886.177-.886.708a1.065,1.065,0,0,0,.237.532,23.746,23.746,0,0,0,8.083,5.723,2.392,2.392,0,0,1,1.18.827c.178.294.3.589.65.648.412,0,1.062.06,1.475.06,2.714,0,2.478-1.653,2.478-3.01V91.83c0-1.121-.472-1.653-1.652-1.653H40.642c-1.475,0-2.95.118-4.425.118-2.242,0-3.245-.589-3.245-2.95,0-1.769.118-3.481.118-5.192V81.09c0-1.769-.118-3.48-.118-5.192,0-2.36.943-3.009,3.186-3.009,1.475,0,3.009.118,4.484.118h6.314c1.534,0,3.009-.118,4.484-.118,2.243,0,3.187.649,3.187,3.009,0,1.829-.059,3.658-.059,5.547v30.919c0,1.711.117,3.363.117,5.074,0,4.367-1.475,6.609-8.378,6.609-1.947,0-2.714-.118-3.305-1.829-.176-.413-.413-.767-.943-.767a1.335,1.335,0,0,0-.65.177,2.66,2.66,0,0,1-.649.177c-1.593,0-7.375-4.189-9.854-7.494a1.085,1.085,0,0,0-1.829-.058,25.269,25.269,0,0,1-10.208,7.139,5.416,5.416,0,0,1-1.888.59c-1.888,0-3.3-2.773-3.3-3.718,0-.766,1.062-.944,1.711-1.121,3.481-1.061,7.139-2.89,9.382-5.842a1.054,1.054,0,0,0,.236-.53c0-.591-.531-.708-1-.768H21.7c-1.83,0-3.659.119-5.547.119-1.239,0-1.18-.827-1.18-2.3,0-1.594,0-2.3,1.239-2.3,1.829,0,3.658.118,5.488.118h3.953c1.062,0,1.475-.413,1.475-1.416v-.531c0-1-.413-1.416-1.416-1.416H22.823c-1.653,0-3.364.118-5.016.118-1.239,0-1.18-.826-1.18-2.3,0-1.534-.059-2.242,1.239-2.242,1.062,0,2.124.118,3.186.06.472,0,.945-.237.945-.768a1.889,1.889,0,0,0-.178-.531,37.5,37.5,0,0,1-2.36-3.776c0-1,3.246-2.124,4.072-2.124.767,0,1.121.649,1.947,2.124.767,1.357,1.593,2.714,2.242,4.13.354.708.59,1,1.357,1ZM48.726,78.5A1.084,1.084,0,0,0,47.6,77.374H39.934A1.084,1.084,0,0,0,38.813,78.5v.236a1.161,1.161,0,0,0,1.121,1.121H47.6a1.161,1.161,0,0,0,1.121-1.121Zm-8.792,4.779a1.053,1.053,0,0,0-1.121,1.121v.3a1.084,1.084,0,0,0,1.121,1.121H47.6a1.084,1.084,0,0,0,1.121-1.121v-.3A1.053,1.053,0,0,0,47.6,83.274Z" fill="#fff"/>
    <path id="パス_5192" data-name="パス 5192" d="M67.608,123.28c-.177.354-.354.767-.826.767-.531,0-.708-.531-1.121-1.594-.177-.353-.354-.826-.531-1.3a12.11,12.11,0,0,1-.944-2.656c0-.531.649-.649,1.888-.826l1.239-.177a1.7,1.7,0,0,0,1.534-1.888V94.426c0-1.357-.118-2.715-.118-4.131,0-2.124.885-2.773,2.951-2.773,1.18,0,2.419.118,3.658.118h7.848c1.18,0,2.419-.118,3.6-.118,2.006,0,2.95.591,2.95,2.715,0,1.357-.059,2.713-.059,4.13v8.32c0,.944.118,4.013.118,4.426,0,1.592-.944,1.474-3.068,1.474-1.888,0-2.419-.058-2.655-.649-.236-.708-.413-.767-1.416-.767h-6.55c-1.18,0-1.652.472-1.652,1.653v5.605c0,.708.295,1.3,1.121,1.3h.413c1.475-.354,2.891-.65,4.366-1,.414-.177.827-.413.827-.944a.932.932,0,0,0-.3-.708c-.177-.237-.413-.472-.59-.708-.708-.827-1.239-1.416-1.239-1.83,0-1.062,3.423-2.537,4.367-2.537a1.383,1.383,0,0,1,1.062.649,58.153,58.153,0,0,1,3.953,5.252c.59.885,3.659,5.252,3.659,6.018,0,1.18-3.069,2.774-4.131,2.774-.826,0-1.062-.708-2.478-2.95a1.639,1.639,0,0,0-1.534-.945,2.953,2.953,0,0,0-.708.118q-7.347,2.124-14.87,3.717a1.4,1.4,0,0,0-.767.65M76.99,74.836c0,.59.472.767,1,.826h5.665c1.711,0,3.481-.118,5.074-.118,1.475,0,1.357.708,1.357,2.6s.059,2.655-1.357,2.655c-1.534,0-3.009-.118-4.543-.118-.59,0-1.121.236-1.121.944,0,.178.058.295.058.473a13.01,13.01,0,0,1,.945,2.655c0,1.239-3.541,2.065-4.544,2.065-.708,0-.826-.472-1.239-1.77-.236-.708-.531-1.712-1-2.95a1.875,1.875,0,0,0-1.947-1.417,2.24,2.24,0,0,0-2.183,1.3c-.826,1.356-1.712,2.773-2.656,4.071a1.682,1.682,0,0,1-1.3.767c-1,0-4.543-1.3-4.543-2.419,0-.295.413-.708.708-1.121A47.515,47.515,0,0,0,71.8,71.826c.237-.472.3-.826.886-.826.354,0,2.655.472,3.186.591,2.419.471,3.127.471,3.127,1.238,0,.413-.472.591-.767.65a1.528,1.528,0,0,0-1.121.944,1.094,1.094,0,0,0-.118.413m5.842,20.475a1.332,1.332,0,0,0,1.416-1.416v-.177A1.363,1.363,0,0,0,82.832,92.3H75.869a1.332,1.332,0,0,0-1.416,1.416v.177a1.3,1.3,0,0,0,1.416,1.416Zm-8.379,5.842a1.287,1.287,0,0,0,1.416,1.357h6.963a1.317,1.317,0,0,0,1.416-1.357v-.237A1.363,1.363,0,0,0,82.832,99.5H75.869a1.332,1.332,0,0,0-1.416,1.416ZM99,80.737a2.146,2.146,0,0,0-2.36,1.3c-1.652,2.715-2.773,4.9-3.835,4.9-1,0-4.367-1.416-4.367-2.6a4.667,4.667,0,0,1,.885-1.416,46.587,46.587,0,0,0,5.724-10.858c.177-.471.236-.826.826-.826.472,0,3.068.531,3.717.65,2.007.413,2.6.472,2.6,1.18,0,.413-.473.59-.768.649a1.5,1.5,0,0,0-1.062.826.875.875,0,0,0-.059.413c0,.767.827.767.944.767H109.5c2.006,0,3.954-.118,5.96-.118,1.416,0,1.357.649,1.357,2.655,0,1.947.059,2.6-1.357,2.6-1.947,0-3.954-.118-5.96-.118h-.767c-.649.058-1.121.236-1.121.944a1.717,1.717,0,0,0,.118.53,12.224,12.224,0,0,1,1,2.656c0,1.121-3.54,2.006-4.425,2.006-.708,0-.885-.472-1.062-1.121a26.57,26.57,0,0,0-1.357-3.6,2.018,2.018,0,0,0-2.243-1.416Zm10.208,13.984c0-1.181-.472-1.652-1.652-1.652h-5.193c-1.121,0-1.652.471-1.652,1.652v21.6c0,2.124.177,4.307.177,6.431,0,1.416-.59,1.476-2.891,1.476-2.419,0-2.95-.06-2.95-1.534,0-2.124.177-4.249.177-6.373V94.485c0-1.535-.118-3.009-.118-4.485,0-2.006,1.3-2.36,3.068-2.36,1.18,0,2.419.118,3.659.118h6.195c1.18,0,2.419-.118,3.6-.118,1.711,0,3.128.295,3.128,2.3,0,1.3-.118,2.773-.118,4.307v13.572c0,1.121.118,2.182.118,3.3,0,5.488-3.659,5.9-8.615,5.9-1.889,0-2.773-.177-2.773-4.13,0-1,.059-1.653,1.062-1.653.472,0,1.711.119,2.655.119,2.124,0,2.124-.65,2.124-2.832Z" fill="#fff"/>
    <path id="パス_5193" data-name="パス 5193" d="M134.4,122.159c-.885.118-1.062.472-1.475,1.358-.236.766-1,.766-2.833.766-2.6,0-3.363.06-3.363-1.416,0-2.065.177-4.071.177-6.077V81.74c0-1.593-.118-3.186-.118-4.72,0-2.478,1.18-2.891,3.658-2.891,1.063,0,2.42.118,4.072.118h33.161c1.829,0,3.718-.118,5.547-.118,1.416,0,1.416.59,1.416,2.832,0,2.184,0,2.773-1.416,2.773-1.829,0-3.718-.118-5.547-.118H134.521c-1.121,0-1.593.531-1.593,1.653V115.2c0,1.121.472,1.594,1.593,1.594H167.21c2.3,0,4.6-.118,6.9-.118,1.475,0,1.357.708,1.357,2.891,0,2.124.059,2.773-1.357,2.773-2.3,0-4.6-.177-6.9-.177Zm23.189-27.2c0,.885.59,1.238,1.417,1.238h8.2c2.066,0,4.131-.117,6.2-.117,1.3,0,1.3.59,1.3,2.537s0,2.537-1.3,2.537c-2.065,0-4.13-.118-6.2-.118H161.6c-.472.059-.826.177-.826.708a.881.881,0,0,0,.235.531,34.688,34.688,0,0,0,11.861,7.848c1,.413,1.947.708,1.947,1.357,0,.885-1.711,4.249-3.187,4.249-2.359,0-12.332-6.668-15.695-11.388a.943.943,0,0,0-.826-.473,1.264,1.264,0,0,0-.885.531c-4.248,6.668-13.985,11.33-15.814,11.33-1.062,0-3.068-3.541-3.068-4.367,0-.649.649-.826,1.18-1a25.532,25.532,0,0,0,12.214-8.025.873.873,0,0,0,.236-.53c0-.591-.531-.709-.944-.768h-4.071c-2.065,0-4.13.118-6.2.118-1.3,0-1.3-.59-1.3-2.537s0-2.537,1.3-2.537c2.066,0,4.131.117,6.2.117h6.019c1.062,0,1.652-.295,1.888-1.474.118-1.181.177-2.361.295-3.54-.059-1.121-.472-1.594-1.593-1.594H147.8a2.339,2.339,0,0,0-2.419,1.357c-.177.237-.354.532-.531.826-.944,1.535-2.006,3.482-3.068,3.482-.885,0-4.426-1.594-4.426-2.42,0-.295.531-.943.708-1.238a40.189,40.189,0,0,0,5.429-10.326c.177-.473.295-1.122.944-1.122.59,0,4.012,1.062,4.9,1.24.354.117,1.3.413,1.3.884,0,.354-.473.532-.767.65-.473.117-.59.117-.827.53a1.511,1.511,0,0,0-.118.413c0,.591.531.768,1,.826h13.394c2.065,0,4.071-.176,6.136-.176,1.358,0,1.358.59,1.358,2.655,0,2.006,0,2.6-1.358,2.6-2.065,0-4.071-.177-6.136-.177h-3.6c-1.181,0-1.653.473-1.771,1.652-.059,1.18-.177,2.242-.295,3.422a.535.535,0,0,0-.059.3" fill="#fff"/>
    <path id="パス_5194" data-name="パス 5194" d="M220.923,111.419c-1.121,0-1.593.473-1.593,1.652v2.006c0,1.24.059,2.479.059,3.777a4.35,4.35,0,0,1-1.358,3.6c-1.592,1.3-4.542,1.653-6.549,1.653a5.008,5.008,0,0,1-2.478-.413,6.034,6.034,0,0,1-.885-3.187c0-.885.059-1.947,1.18-1.947.472,0,1.239.118,2.006.118,2.478,0,2.419-.648,2.419-3.127v-2.479c0-1.179-.531-1.652-1.652-1.652H210.6c-1.18,0-2.419.118-3.6.118-1.712,0-2.538-.531-2.538-2.3,0-.945.059-1.83.059-2.833v-3.6c-.059-.473-.176-.826-.708-.826a.823.823,0,0,0-.531.176c-.59.532-2.242,1.889-3.009,1.889-1,0-3.364-2.36-3.364-3.305,0-.413.65-.884,1.771-1.652.531-.413,1.121-.826,1.888-1.416a1.276,1.276,0,0,0,.59-1,1.159,1.159,0,0,0-.531-1,13.73,13.73,0,0,0-1.18-.944c-.885-.708-1.357-1.121-1.357-1.534,0-.768,2.242-2.892,3.009-2.892.531,0,2.36,1.829,2.832,2.3a1.818,1.818,0,0,0,1.181.531,1.543,1.543,0,0,0,1.062-.531c.53-.531.943-1.121,1.416-1.652a.879.879,0,0,0,.236-.532c0-.471-.413-.649-.885-.708-2.3,0-4.662.177-7.022.177-1.416,0-1.416-.53-1.416-2.419s0-2.36,1.475-2.36c2.36,0,4.721.118,7.081.118h2.891a2.079,2.079,0,0,0,2.3-1.358,11.791,11.791,0,0,0,.59-1.239,1.3,1.3,0,0,0,.059-.471c0-.767-.531-.945-1.121-1H198.5c-1.18.118-1.652.471-1.652,1.652V94.19c0,8.142-.472,15.223-3.6,22.894a32.077,32.077,0,0,1-3.068,6.019,1.322,1.322,0,0,1-1.121.708c-1.062,0-4.307-1.948-4.307-3.187a3.826,3.826,0,0,1,.649-1.3,39.546,39.546,0,0,0,5.192-13.63c.059-.414-.118-.767-.59-.767a.709.709,0,0,0-.472.118c-.531.354-1.062.767-1.593,1.18-.413.3-.413.472-.59,1.18-.059.414-.236.827-.708.827-.59,0-.885-.768-1.475-2.244-.237-.589-.591-1.356-.945-2.182a4.467,4.467,0,0,1-.472-1.416c0-.473,1.594-1.181,2.184-1.476,1.416-.708,2.773-1.416,4.13-2.242a2.3,2.3,0,0,0,1.239-2.36V84.277c0-1.83-.118-3.659-.118-5.546,0-2.3,1.062-2.833,3.186-2.833,1.889,0,3.777.118,5.665.118h7.553c1.121,0,1.593-.413,1.652-1.534l-.177-2.066a1.466,1.466,0,0,1-.059-.472c0-.649.531-.767,1.062-.767.649,0,4.366.354,5.193.414.472.058,1.475.058,1.475.708,0,.354-.354.472-.767.767-.532.413-.532.767-.59,1.416,0,1.121.53,1.534,1.592,1.534h10.858c2.3,0,4.543-.118,6.844-.118,1.358,0,1.358.649,1.358,2.715,0,1.947,0,2.713-1.358,2.713-2.124,0-4.484-.176-6.844-.176H217.265c-.118.058-.236.058-.236.236s.531.235.648.295c.945.235,2.007.59,2.007,1.061s-.59.65-.944.708a1.41,1.41,0,0,0-.767.532.949.949,0,0,0-.177.531c0,.531.472.649.944.708h9.145c2.361,0,4.721-.118,7.082-.118,1.534,0,1.475.59,1.475,2.36,0,1.889,0,2.419-1.475,2.419-2.361,0-4.721-.177-7.082-.177h-2.3c-.412.059-.766.177-.766.65,0,.176.117.295.176.471l1.535,1.711a1.415,1.415,0,0,0,1,.532c.414,0,.65-.237,1-.414a27.853,27.853,0,0,0,2.36-2.242,1.009,1.009,0,0,1,.767-.413c.531,0,4.13,3.01,4.13,3.6a.592.592,0,0,1-.59.59,1.153,1.153,0,0,1-.472-.059c-.117,0-.354-.059-.471-.059a.671.671,0,0,0-.473.177c-.59.472-1.18.944-1.711,1.416a1.2,1.2,0,0,0-.531.944,1.318,1.318,0,0,0,.531,1,37.758,37.758,0,0,0,4.367,2.95c.413.235.826.53.826,1.061,0,1.063-2.3,3.364-3.246,3.364-.826,0-3.6-2.3-4.366-2.891a.879.879,0,0,0-.531-.236c-.472,0-.649.413-.649.826V106.4c0,.944.059,1.888.059,2.833,0,1.71-.826,2.3-2.538,2.3-1.179,0-2.419-.118-3.658-.118ZM187.467,93.482c-.885,0-1.062-1.063-1.357-2.243a45.566,45.566,0,0,0-2.007-6.254,3.174,3.174,0,0,1-.295-1.062c0-.944,2.6-1.712,3.187-1.712.826,0,1.3,1,2.242,3.954a44.216,44.216,0,0,1,1.534,5.369c0,1.476-3.068,1.948-3.3,1.948m21.773,21.537c-.708.058-.826.058-1.357.767-1,1.357-6.373,7.612-7.73,7.612-.826,0-3.835-1.653-3.835-2.774,0-.531.649-.944,1.239-1.474a37.7,37.7,0,0,0,6.195-6.432c.237-.3.472-.708.885-.708a16.327,16.327,0,0,1,3.246,1.121c1.652.649,2.124.943,2.124,1.357s-.413.531-.767.531m12.981-14.043a1.085,1.085,0,0,0,1.121-1.121v-.3a1.161,1.161,0,0,0-1.121-1.122H210.774a1.025,1.025,0,0,0-1.121,1.122v.3a1.024,1.024,0,0,0,1.121,1.121Zm-11.447,3.6a1.054,1.054,0,0,0-1.121,1.122v.472a1.053,1.053,0,0,0,1.121,1.121h11.447a1.16,1.16,0,0,0,1.121-1.121V105.7a1.162,1.162,0,0,0-1.121-1.122Zm6.432-14.869h-.885a2.632,2.632,0,0,0-2.478,1.18c-.473.768-1.063,1.476-1.594,2.184a.82.82,0,0,0-.177.531c0,.531.354.649.826.708h7.494c.472-.059.885-.177.885-.708a1,1,0,0,0-.177-.59c-.472-.649-1-1.357-1.416-2.065a2.517,2.517,0,0,0-2.478-1.24m14.22,33.929a1.274,1.274,0,0,1-1-.591,67.3,67.3,0,0,0-6.2-7.375,1.645,1.645,0,0,1-.708-1.062c0-1.063,3.128-2.419,3.777-2.419a1.539,1.539,0,0,1,1.062.531c1,.943,2.655,2.714,3.6,3.776.708.826,3.364,3.717,3.364,4.6,0,1.181-3.069,2.538-3.9,2.538" fill="#fff"/>
    <path id="パス_5195" data-name="パス 5195" d="M273.567,75.013c0,.354-.413.59-.708.708-.944.354-1.18.649-1.947,2.006a3.978,3.978,0,0,0-.59,1.357.574.574,0,0,0,.649.59,42.8,42.8,0,0,0,6.845-1.651,4.464,4.464,0,0,1,1.475-.355c1,0,1.3.945,1.475,1.771a18.841,18.841,0,0,1,.472,3.185c0,1-1.888,1.24-3.127,1.476-3.718.767-7.435,1.416-11.152,1.829a2.082,2.082,0,0,0-1.771.944,19.109,19.109,0,0,0-2.006,3.422.456.456,0,0,0,.472.413,2.273,2.273,0,0,0,1.062-.353,16.307,16.307,0,0,1,6.432-1.534c3.776,0,5.96,1.592,6.727,5.31.118.53.3,1,.884,1,.708,0,5.96-2.832,6.9-3.363a4.857,4.857,0,0,1,1.534-.59c1.121,0,2.537,4.543,2.537,5.546,0,.708-.649.944-1.771,1.3-.236.117-.531.176-.826.295-2.36.884-4.661,1.887-6.963,2.89-1.061.413-1.533.768-1.533,1.948v.767c0,1.829.059,3.6.059,5.429,0,2.124-.295,2.359-2.537,2.359-2.537,0-3.6-.117-3.6-1.651,0-1.3.118-2.6.118-3.836,0-.531-.177-1-.767-1-.3,0-6.372,2.6-6.372,6.255,0,3.953,5.723,4.307,8.555,4.307a43.146,43.146,0,0,0,10.975-1.475,7.265,7.265,0,0,1,1.181-.118c.766,0,1.179.649,1.179,4.012,0,1.77-.058,2.243-1.356,2.537-2.242.532-8.792.767-11.329.767a21.865,21.865,0,0,1-9.324-1.534c-3.6-1.593-5.9-4.425-5.9-8.438,0-5.31,4.308-8.2,8.379-10.621,1.18-.708,2.419-1.356,3.658-1.947.59-.295,1.062-.648,1.062-1.356a8.111,8.111,0,0,0-.295-1.653,2.454,2.454,0,0,0-2.6-2.007c-3.3,0-8.733,2.833-11.034,5.194a38.729,38.729,0,0,0-4.957,6.9.978.978,0,0,1-.825.59c-1.063,0-5.016-2.36-5.016-3.422,0-.473.472-.944.767-1.3,1.357-1.474,9.913-13.335,9.913-14.456,0-.531-.472-.708-1.3-.708-.944,0-2.3.177-4.131.177-1.3,0-1.534-.295-1.534-3.3,0-2.36.236-2.715,1.712-2.715,1,0,2.537.119,4.248.119h1.711c1.534,0,3.127-.059,3.658-.767a32.4,32.4,0,0,0,3.186-7.612c.119-.65.237-1.24.827-1.24.531,0,6.608,2.715,6.608,3.6" fill="#fff"/>
    <path id="パス_5196" data-name="パス 5196" d="M334.657,121.864a1.385,1.385,0,0,0-1.594-1.593H312.942c-1.062,0-1.593.471-1.593,1.534v.59c0,1.769-.766,1.711-3.363,1.711-2.479,0-3.363.058-3.363-1.711,0-2.3.176-4.662.176-7.022V82.094c0-1.889-.118-3.836-.118-5.724,0-2.242,1-2.95,3.128-2.95,1.711,0,3.422.117,5.193.117h20c1.711,0,3.422-.117,5.134-.117,2.242,0,3.186.708,3.186,3.009,0,1.889-.117,3.776-.117,5.665v33.4c0,2.3.117,4.663.117,6.963,0,1.829-.767,1.711-3.364,1.711H336.9c-1.416,0-2.242-.117-2.242-1.474Zm-1.534-34.991a1.649,1.649,0,0,0,1.652-1.652V80.973a1.688,1.688,0,0,0-1.652-1.652h-20.3a1.564,1.564,0,0,0-1.594,1.652v4.248c0,1.062.59,1.534,1.594,1.652ZM311.231,98.615a1.565,1.565,0,0,0,1.594,1.653h20.3a1.689,1.689,0,0,0,1.652-1.653V94.072a1.689,1.689,0,0,0-1.652-1.653h-20.3a1.565,1.565,0,0,0-1.594,1.653Zm0,14.1a1.563,1.563,0,0,0,1.594,1.651h20.3a1.687,1.687,0,0,0,1.652-1.651v-5.311a1.564,1.564,0,0,0-1.652-1.593h-20.3a1.459,1.459,0,0,0-1.594,1.593Z" fill="#fff"/>
    <path id="パス_5197" data-name="パス 5197" d="M368.144,88.939v6.135c.058.65.235,1.181,1,1.181.177,0,.3-.059.472-.059a38.143,38.143,0,0,1,4.308-1.711c1.179,0,1.239,2.36,1.239,3.186,0,2.006-.3,2.066-5.605,4.19a1.949,1.949,0,0,0-1.416,2.183V113.9c0,1.239.058,2.478.058,3.717,0,5.311-3.953,6.078-8.319,6.078-1.063,0-2.538,0-3.128-1a8.938,8.938,0,0,1-.767-3.718c0-.826.177-1.475,1.18-1.475a4.18,4.18,0,0,1,.826.059c.59.059,1.18.059,1.829.059,2.479,0,2.419-.59,2.419-3.659v-7.788c0-.649-.235-1.18-1-1.18a1.291,1.291,0,0,0-.471.059c-1.3.413-2.124.708-2.656.885-.826.295-.944.413-1.18,1.181-.118.412-.354.825-.826.825-.649,0-.826-.649-.944-1.18-.236-.768-1.357-4.839-1.357-5.311,0-.766.471-.884,2.419-1.3q1.506-.267,4.6-1.063a1.825,1.825,0,0,0,1.416-2.065V88.939c0-1.181-.472-1.653-1.593-1.653-1.534-.059-3.245.119-4.425.119-1.475,0-1.416-.768-1.416-2.833,0-2.125-.059-2.833,1.416-2.833,1.417,0,2.891.177,4.425.119,1.121,0,1.593-.472,1.593-1.653V76.488q0-1.947-.177-3.894c0-.118-.058-.355-.058-.532,0-.767.59-.826,1.179-.826.945,0,3.836.236,4.9.295.473,0,1.476.06,1.476.768,0,.53-.414.708-.768.943-.59.355-.648,1.181-.648,2.833v4.13c0,1.181.471,1.653,1.592,1.653,1.18.058,2.774-.119,3.835-.119,1.476,0,1.358.827,1.358,2.833,0,1.947.118,2.833-1.358,2.833-.766,0-2.832-.119-3.835-.119-1.121.059-1.592.472-1.592,1.653m16.167-11.212a1.3,1.3,0,0,0,.472-.059c3.54-.766,11.27-3.127,14.279-4.839.236-.117.59-.413.885-.413.472,0,.945.768,1.888,2.242.413.65,1.652,2.656,1.652,3.365a.606.606,0,0,1-.648.59,1.934,1.934,0,0,1-.768-.237,2.326,2.326,0,0,0-.826-.295,2.085,2.085,0,0,0-.648.177,86.1,86.1,0,0,1-15.873,4.189,1.616,1.616,0,0,0-1.535,1.889v1.18c0,2.242.708,2.36,2.715,2.36H397c2.006,0,3.422.118,4.189-4.071.177-.944.237-1.652,1.358-1.652.708,0,4.189.413,4.189,2.065a17.457,17.457,0,0,1-1.712,5.664c-1.71,3.246-3.3,3.3-6.667,3.3H384.783c-3.718,0-7.376,0-7.376-4.78,0-1.239.118-2.478.118-3.717V78.023a45.388,45.388,0,0,0-.236-4.9v-.59c0-.708.413-.826,1-.826,1.062,0,3.6.236,4.779.295.532.059,1.594.059,1.594.768,0,.413-.3.59-.708.884-.708.532-.708,1.889-.768,2.774.06.708.355,1.3,1.122,1.3m12.1,43.192H385.432c-.885,0-1.357.355-1.357,1.3v.53c0,1.416-1,1.3-3.068,1.3-2.125,0-2.892.059-2.892-1.357s.118-3.01.118-4.426v-14.4c0-1.356-.059-2.773-.059-4.129,0-1.948.886-2.3,2.891-2.3.885,0,2.066.118,3.482.118h12.686c1.416,0,2.6-.118,3.54-.118,2.006,0,2.892.354,2.892,2.36,0,1.358-.118,2.715-.118,4.071v14.575c0,1.475.118,2.951.118,4.367s-.708,1.416-2.951,1.416c-2.3,0-3.009,0-3.009-1.358a1.809,1.809,0,0,1,.059-.589c-.059-.945-.413-1.358-1.357-1.358m-.236-14.161a1.649,1.649,0,0,0,1.652-1.652V104.4a1.649,1.649,0,0,0-1.652-1.653H385.608a1.688,1.688,0,0,0-1.651,1.653v.708a1.687,1.687,0,0,0,1.651,1.652Zm-12.214,7.376a1.687,1.687,0,0,0,1.651,1.652h10.563a1.65,1.65,0,0,0,1.652-1.652v-1.062a1.649,1.649,0,0,0-1.652-1.653H385.608a1.688,1.688,0,0,0-1.651,1.653Z" fill="#fff"/>
    <path id="パス_5198" data-name="パス 5198" d="M429.857,77.079c.413.059,1.181.295,1.181.826,0,.413-.355.59-.708.885-2.066,1.534-2.6,20.239-2.6,23.6,0,4.6-.118,11.743,6.255,11.743a14.947,14.947,0,0,0,11.093-5.724,18.751,18.751,0,0,0,3.6-8.733c.177-.944.3-1.948,1.181-1.948,1.3,0,4.9,3.01,4.9,4.781,0,1.651-1.593,5.369-2.42,6.9-3.54,6.608-10.266,11.27-17.937,11.27-3.895,0-7.966-1.417-10.385-4.543-2.655-3.541-2.95-9.264-2.95-13.572q0-6.992.53-13.984c.178-2.714.708-8.379.708-10.8v-.649c0-.885.06-1.475.886-1.475a50.051,50.051,0,0,1,6.667,1.416" fill="#fff"/>
    <path id="パス_5199" data-name="パス 5199" d="M465.038,81.858c8.614-.531,17.229-1.416,25.845-2.419,4.425-.531,8.968-1.121,13.393-1.829a2.834,2.834,0,0,1,.708-.06c.886,0,1,.768,1.181,1.476a35.6,35.6,0,0,1,.472,4.307c0,1.3-1.24,1.18-2.6,1.239-3.482.059-6.491.059-9.795,1.239a17.858,17.858,0,0,0-10.09,8.792,22.083,22.083,0,0,0-2.833,10.385c0,6.845,4.426,8.5,10.386,8.5,1.061,0,2.359-.059,2.95-.059.885,0,1.357.059,1.357,1a14.151,14.151,0,0,1-1.062,5.251c-.413.591-1.062.591-1.711.591-10.031,0-18.646-3.186-18.646-14.692a26.208,26.208,0,0,1,6.491-16.936c.295-.295,1.061-1.061,1.061-1.416,0-.472-.531-.708-.884-.708-.472,0-3.127.413-3.777.531a118.489,118.489,0,0,0-13.04,2.419,4.489,4.489,0,0,1-.886.118c-1.416,0-1.947-5.6-1.947-6.195,0-1.534.826-1.357,3.423-1.534" fill="#fff"/>
    <path id="パス_5200" data-name="パス 5200" d="M8.851,19.3c0,2.479-1.594,4.426-4.662,4.426-2.006,0-4.189-1.3-4.189-4.9A26.107,26.107,0,0,1,2.773,8.615,2.182,2.182,0,0,1,5.252,7.081h.589c.886,0,1.3.118,1.3.472a2.545,2.545,0,0,1-.413,1c-1.18,2.065-2.242,4.72-2.242,5.665,0,.708.471,1.062,1.238,1.3A3.784,3.784,0,0,1,8.851,19.3m13.217,0a4.229,4.229,0,0,1-4.6,4.426c-2.005,0-4.189-1.3-4.189-4.9A26.5,26.5,0,0,1,15.99,8.674c.65-1.357,1.062-1.593,2.479-1.593h.59c.885,0,1.3.118,1.3.531a2.306,2.306,0,0,1-.413,1c-1.121,2.006-2.183,4.661-2.183,5.606,0,.708.472,1.062,1.239,1.3A3.732,3.732,0,0,1,22.068,19.3" fill="#fff"/>
    <path id="パス_5201" data-name="パス 5201" d="M45.744,33.161a145.106,145.106,0,0,1-8.851,15.283,4.432,4.432,0,0,0-.767,1.593,2.524,2.524,0,0,0,.118.65,2.205,2.205,0,0,1,.059.648.678.678,0,0,1-.649.768c-.649,0-2.656-1.771-3.305-2.3-.472-.354-2.006-1.534-2.006-2.124a2.009,2.009,0,0,1,.65-1.062c3.067-3.776,7.788-11.978,9.853-16.463.767-1.71.944-1.888,1.357-1.888,1.24,0,4.131,2.3,4.131,3.363a5.465,5.465,0,0,1-.59,1.534M39.961,24.37c-.59,0-3.186-2.242-3.835-2.773-1.3-1-3.245-2.361-4.662-3.245a1,1,0,0,1-.59-.886c0-.944,2.183-3.895,3.186-3.895.827,0,4.249,2.538,5.075,3.187.826.59,4.13,2.892,4.13,3.776,0,1.063-2.242,3.836-3.3,3.836m3.953-12.8a4.585,4.585,0,0,1-1.829-1.122,3.35,3.35,0,0,0-.53-.413C39.725,8.615,37.837,7.2,35.89,5.9c-.413-.3-1.062-.649-1.062-1.239,0-.708,2.124-3.776,3.127-3.776.649,0,2.773,1.534,4.071,2.419.3.236.591.413.767.531A47.581,47.581,0,0,1,46.57,6.9a1.265,1.265,0,0,1,.59.944c0,.944-2.065,3.718-3.246,3.718M60.436,0c.472,0,4.662,1.181,5.429,1.416.472.118,1.3.413,1.3,1,0,.413-.472.53-.826.648a1.341,1.341,0,0,0-1.18.886c-1.475,3.894-3.246,7.67-5.075,11.447a1.723,1.723,0,0,0-.118.531.806.806,0,0,0,1,.826c3.363-.177,6.727-.531,10.149-.826.472-.118.885-.3.885-.885a1.452,1.452,0,0,0-.236-.649c-.472-.59-.944-1.24-1.357-1.77-1-1.3-1.829-2.3-1.829-2.773,0-.945,3.658-2.479,4.425-2.479a1.675,1.675,0,0,1,1.18.708A58.851,58.851,0,0,1,78.9,14.752c.767,1.18,4.19,6.432,4.19,7.435,0,1.179-3.482,2.537-4.485,2.537-.649,0-1-.59-1.77-2.006-.177-.3-.354-.65-.59-1.063a2.081,2.081,0,0,0-1.829-1.179,1.018,1.018,0,0,0-.413.058c-7.848,1-15.637,1.771-23.485,2.537-.531.178-.649.473-.944.886a.85.85,0,0,1-.708.53c-.59,0-.826-.766-1.121-1.651-.177-.768-1.239-4.013-1.239-4.6,0-.65.531-.65,2.006-.708.3,0,.649-.06,1-.06.649,0,1.3-.059,1.888-.059a2.237,2.237,0,0,0,2.184-1.475A127.461,127.461,0,0,0,59.551.826C59.728.178,59.9,0,60.436,0m10.8,49.624H57.9c-.944,0-1.357.413-1.357,1.358,0,.294.059.648.059.944,0,1.121-.59,1.18-3.187,1.18-2.3,0-3.068,0-3.068-1.122,0-1.179.118-2.95.118-4.248V34.165c0-1.121-.059-2.3-.059-3.423,0-2.006,2.006-2.242,3.6-2.242,1.475,0,2.95.118,4.484.118H70.7c1.475,0,3.009-.118,4.485-.118,1.534,0,3.6.177,3.6,2.242,0,1.121-.059,2.242-.059,3.423v13.63c0,1.357.118,3.54.118,4.189,0,1.18-.826,1.18-3.127,1.18-2.42,0-3.186,0-3.186-1.18,0-.354.058-.708.058-1.062a1.2,1.2,0,0,0-1.357-1.3m-.177-5.369c1-.118,1.593-.59,1.593-1.652V35.581a1.564,1.564,0,0,0-1.593-1.652H58.076a1.6,1.6,0,0,0-1.593,1.652V42.6a1.534,1.534,0,0,0,1.593,1.652Z" fill="#fff"/>
    <path id="パス_5203" data-name="パス 5203" d="M151.334,23.366c-.885,0-1.3-.117-1.3-.53a2.529,2.529,0,0,1,.354-1c1.18-2.006,2.242-4.661,2.242-5.664,0-.65-.472-1-1.239-1.24a3.733,3.733,0,0,1-3.069-3.776,4.23,4.23,0,0,1,4.6-4.426c2.006,0,4.189,1.3,4.189,4.839A26.5,26.5,0,0,1,154.4,21.773c-.649,1.358-1.062,1.593-2.478,1.593Zm13.217,0c-.885,0-1.3-.117-1.3-.472a2.55,2.55,0,0,1,.413-1c1.121-2.065,2.242-4.72,2.242-5.723,0-.65-.472-1-1.239-1.24a3.784,3.784,0,0,1-3.127-3.776c0-2.478,1.593-4.426,4.661-4.426,2.007,0,4.19,1.3,4.19,4.839a26.092,26.092,0,0,1-2.774,10.267,2.181,2.181,0,0,1-2.478,1.534Z" fill="#fff"/>
    <path id="パス_5204" data-name="パス 5204" d="M208.885,9.087a15.884,15.884,0,0,0,2.538-.118c.354,0,.943-.117,1.3-.117,1.24,0,3.777,3.245,3.777,4.011a11.416,11.416,0,0,1-1.3,2.3c-.354.531-.708,1.121-.944,1.534a85.647,85.647,0,0,1-7.671,11.211,1.614,1.614,0,0,0-.472,1.121A1.577,1.577,0,0,0,207,30.447a94.766,94.766,0,0,1,9.972,7.612c1.416,1.239,2.891,2.6,4.249,4.012a1.132,1.132,0,0,1,.413.827c0,1.239-3.246,4.72-4.485,4.72a1.973,1.973,0,0,1-1.475-.885c-4.248-5.075-7.789-7.907-13.04-11.683a2.077,2.077,0,0,0-1.357-.531,2.825,2.825,0,0,0-1.771,1,65.688,65.688,0,0,1-14.751,10.326,9.883,9.883,0,0,1-2.6,1.121c-1.24,0-3.954-3.953-3.954-5.016,0-.708.708-1,1.239-1.179,10.444-4.013,20.357-13.041,26.317-22.364a5.819,5.819,0,0,0,1-2.006c0-.885-.826-1-1.711-1H192.836c-2.537,0-5.075.119-7.612.119-1.593,0-1.475-.885-1.475-3.6,0-2.065-.059-2.951,1.416-2.951,2.537,0,5.074.118,7.671.118Z" fill="#fff"/>
    <path id="パス_5205" data-name="パス 5205" d="M248.513,30.034c0,.3-.413.472-.649.59-1,.3-1,.354-1.829,1.357-1.357,1.652-8.5,9.972-10.208,9.972-1,0-4.189-2.832-4.189-3.953,0-.59.885-1.121,1.357-1.476a32.552,32.552,0,0,0,8.143-8.909c.236-.413.59-1.181,1.121-1.181a23.81,23.81,0,0,1,4.012,1.829c.531.3,2.242,1.121,2.242,1.771M251.759,15.4c1.239,0,1.652-.885,1.652-1.946v-.826a54.025,54.025,0,0,0-.236-6.905c0-.235-.059-.471-.059-.708,0-.708.472-.826,1.062-.826,1,0,2.95.355,4.072.473,1.357.177,2.714.235,2.714.885a.973.973,0,0,1-.472.766c-.767.768-.826,1.181-.826,3.954v3.187c0,1.416.767,1.946,1.652,1.946h9.264c2.537,0,5.133-.117,7.729-.117,1.534,0,1.475.825,1.475,3.422,0,2.124-.059,2.891-1.593,2.891-2.537,0-5.074-.118-7.611-.118h-9.146a1.775,1.775,0,0,0-1.77,1.771V37.055c0,1.181.059,2.3.059,3.482,0,3.186,0,5.96-3.3,7.612a18.243,18.243,0,0,1-6.372,1.711c-.944,0-1.357-.59-2.124-2.065a10.819,10.819,0,0,1-1.122-3.187c0-.943,1.357-.885,2.065-.943,4.78-.355,4.544-2.184,4.544-6.432V23.249a1.739,1.739,0,0,0-1.77-1.771h-9.087c-2.478,0-4.957.118-7.435.118-1.534,0-1.534-1-1.534-2.95,0-2.42-.059-3.363,1.475-3.363s5.074.117,7.494.117Zm24.133,15.932c.944.944,5.193,5.075,5.193,6.2,0,1.238-3.128,4.071-4.072,4.071-.59,0-1.062-.649-1.416-1.121A57.9,57.9,0,0,0,266.8,31.45c-.413-.3-1-.767-1-1.3,0-.885,2.419-3.836,3.659-3.836,1.356,0,5.31,3.954,6.431,5.016M283.68,6.2a5.871,5.871,0,1,1-11.742,0A5.818,5.818,0,0,1,277.78.354a5.905,5.905,0,0,1,5.9,5.842m-9.027,0a3.123,3.123,0,0,0,3.127,3.186,3.157,3.157,0,1,0,0-6.314A3.109,3.109,0,0,0,274.653,6.2" fill="#fff"/>
    <path id="パス_5206" data-name="パス 5206" d="M327.016,22.718c2.714,0,6.55-.178,7.316-.178,1.593,0,1.653.473,1.653,3.718,0,1.889-.06,3.01-1.594,3.01-2.478,0-4.956-.118-7.375-.118H299.873c-2.419,0-4.9.118-7.376.118-1.534,0-1.592-1.121-1.592-2.951,0-3.3.117-3.777,1.651-3.777.768,0,4.839.178,7.317.178Z" fill="#fff"/>
    <path id="パス_5207" data-name="パス 5207" d="M351.22,12.215c.826,1,2.479,3.658,3.246,4.838.59.944,3.245,5.075,3.245,5.9,0,1.239-3.894,3.01-4.72,3.01-.708,0-1-.708-1.3-1.3a73.588,73.588,0,0,0-5.37-9.087,2.805,2.805,0,0,1-.649-1.239c0-1,3.6-2.774,4.485-2.774a1.446,1.446,0,0,1,1.061.65M388.276,10.5c.708.236,2.242.708,2.242,1.357,0,.413-.412.65-.648.826a2.466,2.466,0,0,0-1.122,1.535c-2.891,10.384-6.9,19.353-15.223,26.493-5.074,4.367-10.68,6.963-17.053,8.91a4.623,4.623,0,0,1-1.3.295c-1.18,0-3.894-3.953-3.894-4.9,0-1,1.77-1.179,2.478-1.356,13.04-3.246,21.478-10.858,26.317-23.426a45.772,45.772,0,0,0,2.713-10.5c.06-.413.119-.944.59-.944a40.683,40.683,0,0,1,4.9,1.711M366.267,8.2c1.121,1.475,2.124,3.009,3.068,4.543.59.944,3.305,5.134,3.305,6.019,0,1.18-3.954,2.951-4.78,2.951-.649,0-.885-.65-1.357-1.476a76.306,76.306,0,0,0-5.31-8.969,2.787,2.787,0,0,1-.65-1.239c0-.944,3.6-2.714,4.485-2.714.59,0,.944.472,1.239.885" fill="#fff"/>
    <path id="パス_5208" data-name="パス 5208" d="M420.677,26.435a6.8,6.8,0,0,1-7.08,7.14,6.109,6.109,0,0,1-6.432-6.2,6.821,6.821,0,0,1,7.2-7.139,6.043,6.043,0,0,1,6.313,6.195" fill="#fff"/>
    <path id="パス_6170" data-name="パス 6170" d="M28.488,13.565c0,1.027-.514,2.183-1.734,2.183-1.926,0-5.009-1.092-5.009-3.4a2.66,2.66,0,0,1,2.761-2.569A3.924,3.924,0,0,1,28.488,13.565ZM34.46-28.046a8.761,8.761,0,0,0-2.44.706c-3.724,1.477-12.137,2.376-16.246,2.376H14.232c-1.926,0-1.991.128-1.991,1.605,0,1.092.193,5.908,1.605,5.908,1.027,0,10.082-1.862,11.623-2.248a15.406,15.406,0,0,1,1.541-.257c.514,0,1.092.193,1.092.771,0,.642-1.156,1.8-1.67,2.312C20.525-10.387,13.076-2.424,6.462,3.291c-.578.45-1.541,1.156-1.541,1.926C4.921,6.244,8.2,9.84,9.544,9.84a.871.871,0,0,0,.706-.45c2.312-2.633,4.623-5.266,7.128-7.706,4.11-4.046,8.541-6.293,14.384-6.293,5.587,0,10.852,2.569,10.852,8.8,0,6.486-6.1,9.889-7.77,9.889-.514,0-.706-.385-.771-.835a6.386,6.386,0,0,0-1.156-4.11,10.474,10.474,0,0,0-8.541-4.559c-4.3,0-8.219,3.339-8.219,7.77,0,6.55,7.577,8.733,12.907,8.733,10.339,0,20.42-5.908,20.42-17.274A13.271,13.271,0,0,0,41.844-8.653a18.833,18.833,0,0,0-7.9-1.926,12.2,12.2,0,0,0-2.633.257,3.758,3.758,0,0,1-.835.128c-.578,0-1.092-.321-1.092-.835a1.92,1.92,0,0,1,.642-1.092c3.018-3.147,5.715-6.1,9.311-8.6.706-.514,1.413-.9,1.413-1.349C40.753-23.166,37.028-28.046,34.46-28.046Z" transform="translate(86.504 30.479)" fill="#fff"/>
  </g>
</svg>
