<svg xmlns="http://www.w3.org/2000/svg" xmlns:xlink="http://www.w3.org/1999/xlink" width="87" height="87" viewBox="0 0 87 87">
  <defs>
    <clipPath id="clip-path">
      <rect id="長方形_181" data-name="長方形 181" width="46.213" height="64.788" fill="#fff"/>
    </clipPath>
  </defs>
  <g id="グループ_6585" data-name="グループ 6585" transform="translate(-222 -8291)">
    <circle id="楕円形_850" data-name="楕円形 850" cx="43.5" cy="43.5" r="43.5" transform="translate(222 8291)" fill="#009b8e"/>
    <g id="グループ_414" data-name="グループ 414" transform="translate(242.395 8302.105)" clip-path="url(#clip-path)">
      <path id="パス_4077" data-name="パス 4077" d="M220.414,94.828a6.414,6.414,0,1,1,6.414-6.414,6.421,6.421,0,0,1-6.414,6.414m0-11.566a5.152,5.152,0,1,0,5.152,5.152,5.158,5.158,0,0,0-5.152-5.152" transform="translate(-191.498 -73.378)" fill="#fff"/>
      <path id="パス_4078" data-name="パス 4078" d="M76.046,12.092a6.046,6.046,0,1,1,6.046-6.046,6.053,6.053,0,0,1-6.046,6.046m0-10.83A4.784,4.784,0,1,0,80.83,6.046a4.79,4.79,0,0,0-4.784-4.784" transform="translate(-62.64)" fill="#fff"/>
      <path id="パス_4079" data-name="パス 4079" d="M41,253.193a12.456,12.456,0,0,1-4.5-1.386,8.275,8.275,0,0,1-5.024,1.37,8.7,8.7,0,0,1-3.886-1.191,9.614,9.614,0,0,1-4.283-2.438c-1.145-1.017-2.315-2.569-2.315-6.36a7.79,7.79,0,0,1,2.672-5.911c.934-6.258,2.289-15.482,2.372-16.443-.059-.016-.135-.032-.2-.045a4.761,4.761,0,0,1-.525-.136,2.31,2.31,0,0,1-1.543-1.2c-.236-.452-2.711-4.2-4.241-6.5a1.492,1.492,0,0,1,.027-1.825c.737-.9,1.568-.589,2.62-.191.55.208,1.726.714,2.863,1.2,1.075.463,2.412,1.038,2.629,1.1a2.984,2.984,0,0,1,1.645,1.338c.329.549,3.788,6.1,3.98,6.389a1.316,1.316,0,0,1,.2.555,2.173,2.173,0,0,1,1.239-.415,1.939,1.939,0,0,1,1.4.912.631.631,0,0,1-1.05.7,1.133,1.133,0,0,0-.364-.35c-.213.006-.529.15-.577.282a4.757,4.757,0,0,0,1.079.806,2.822,2.822,0,0,1,.517.358,11.894,11.894,0,0,1,.8,1.026.631.631,0,0,1-.283.954l-2.418.946a.632.632,0,0,1-.5-.018l-4.627-2.208a.631.631,0,0,1-.354-.651l.286-2.208a.631.631,0,0,1,.8-.524,13.559,13.559,0,0,1,1.817.672,1.271,1.271,0,0,0,.932.152.462.462,0,0,0,.043-.3c-.258-.392-3.654-5.844-4.006-6.431a1.762,1.762,0,0,0-.874-.764c-.247-.062-1.048-.4-2.818-1.164-1.124-.484-2.286-.984-2.81-1.182a4.64,4.64,0,0,0-1.024-.314c-.046,0-.069,0-.172.124a.237.237,0,0,0,.012.279l.025.034c4.253,6.379,4.352,6.677,4.385,6.775a1.45,1.45,0,0,0,.758.442,3.644,3.644,0,0,0,.39.1c.419.09,1.2.256,1.2,1.236,0,.645-2.02,14.205-2.425,16.917a.631.631,0,0,1-.255.419,6.459,6.459,0,0,0-2.366,5.061c0,3.736,1.277,4.871,1.891,5.417a8.277,8.277,0,0,0,3.8,2.165.63.63,0,0,1,.234.1,7.463,7.463,0,0,0,3.362,1.051,7.051,7.051,0,0,0,4.539-1.352.631.631,0,0,1,.664-.048c.8.417,3.115,1.48,4.361,1.413.343-.069,3.127-.71,3.127-3.378a3.532,3.532,0,0,0-2.711-3.52,2.962,2.962,0,0,1-.3-.122.631.631,0,0,1,.562-1.129c.026.012.108.042.174.065a4.769,4.769,0,0,1,3.542,4.706c0,3.081-2.749,4.374-4.2,4.627a.613.613,0,0,1-.065.008c-.072,0-.145.007-.22.007m.177-.637h0ZM29.668,223.573l3.967,1.893,1.392-.545c-.07-.089-.13-.161-.169-.2s-.185-.119-.295-.186c-.621-.379-1.441-.88-1.643-1.543l-.012.008a2.287,2.287,0,0,1-2.209-.066,8.147,8.147,0,0,0-.9-.362Zm2.569-1.919h0Zm-8.478-2.241.006.018-.006-.018" transform="translate(-17.207 -188.405)" fill="#fff"/>
      <path id="パス_4080" data-name="パス 4080" d="M99.725,362.064a.628.628,0,0,1-.41-.152,9.509,9.509,0,0,0-1.161-.857,14.587,14.587,0,0,0-2.16-.693.633.633,0,0,1-.174-.074,7.955,7.955,0,0,0-2.6-.964,10.655,10.655,0,0,0-3.418.4.631.631,0,0,1-.8-.693c.129-.938,1.267-9.182,1.373-9.711a1.051,1.051,0,0,1,.518-.741,1.194,1.194,0,0,1,.965-.036.609.609,0,0,1,.064.03c.809.433,3.051,1.612,3.709,1.858a1.606,1.606,0,0,0,1.259-.163c.136-.055.277-.111.423-.16.638-.213,1.465-.524,1.963-.723.4-.162,1.71-.852,2.179-1.1a.631.631,0,1,1,.6,1.111c-.179.1-1.765.948-2.308,1.165-.515.206-1.37.528-2.033.749-.111.037-.228.084-.352.134a2.807,2.807,0,0,1-2.172.174c-.733-.275-2.882-1.406-3.616-1.8-.168,1.093-.747,5.241-1.194,8.474a9.627,9.627,0,0,1,3.018-.217,9.077,9.077,0,0,1,2.994,1.088,14.315,14.315,0,0,1,2.379.794,10.875,10.875,0,0,1,1.362,1,.631.631,0,0,1-.411,1.11" transform="translate(-79.641 -311.593)" fill="#fff"/>
      <path id="パス_4081" data-name="パス 4081" d="M1.314,110.82a.629.629,0,0,1-.378-.126A3.722,3.722,0,0,1,0,107.928a2.728,2.728,0,0,1,2.245-2.394c.4-.114,1.2-.8,2.16-2.353.812-1.32,2.992-6.012,3.014-6.059a.631.631,0,0,1,1.145.531c-.091.2-2.233,4.806-3.084,6.189-.58.942-1.726,2.573-2.888,2.9-.552.158-1.33.628-1.33,1.181a2.929,2.929,0,0,0,.431,1.756.631.631,0,0,1-.379,1.136" transform="translate(0 -86.583)" fill="#fff"/>
      <path id="パス_4082" data-name="パス 4082" d="M179.6,116.268a.631.631,0,0,1-.608-.462,44,44,0,0,1-.941-5.772c-.09-.729-.183-1.483-.286-2.253-.411-3.084-2.229-10.425-2.248-10.5a.631.631,0,0,1,1.225-.3c.075.3,1.853,7.483,2.274,10.636.1.775.2,1.532.287,2.264a43.348,43.348,0,0,0,.9,5.589.632.632,0,0,1-.608.8" transform="translate(-157.045 -86.353)" fill="#fff"/>
      <path id="パス_4083" data-name="パス 4083" d="M62.611,162.928a.634.634,0,0,1-.639-.605.667.667,0,0,1,0-.069c-.014-.147-.052-.547-.159-1.619a36.848,36.848,0,0,0-.879-4.453c-.415.649-.9,1.417-1.207,1.927a12.4,12.4,0,0,1-2.182,2.416.631.631,0,0,1-.818-.96,11.345,11.345,0,0,0,1.919-2.105c.629-1.049,1.954-3.087,2.01-3.174a.631.631,0,0,1,1.137.176,48.262,48.262,0,0,1,1.277,6.048c.075.749.117,1.181.14,1.425.012.124.019.2.023.247a.644.644,0,0,1-.558.743c-.019,0-.039,0-.06,0" transform="translate(-50.56 -137.806)" fill="#fff"/>
      <path id="パス_4084" data-name="パス 4084" d="M176.941,192.744a2.711,2.711,0,0,1-2.786-2.732v-4.1a34.58,34.58,0,0,1,.538-6.222,5.293,5.293,0,0,1,3.815-4.059,41.247,41.247,0,0,1,6.853-.636l-.378-5.329a23.6,23.6,0,0,1-7.2,5.261,3.83,3.83,0,0,1-4.5-.871,2.119,2.119,0,0,1-.675-1.894,2.907,2.907,0,0,1,1.47-1.955,42.567,42.567,0,0,0,4.807-3.1c1.93-1.393,3.534-4.342,4.021-5.3l-.571-.89a.631.631,0,0,1,1.062-.681l.764,1.191a.631.631,0,0,1,.041.608c-.08.172-2,4.235-4.578,6.1a43.807,43.807,0,0,1-4.981,3.207,1.665,1.665,0,0,0-.788,1.028.87.87,0,0,0,.321.8,2.637,2.637,0,0,0,3.177.577,24.256,24.256,0,0,0,4.773-3.095c.941-.75,2.9-2.858,2.917-2.88a.631.631,0,0,1,1.092.384l.526,7.413a.631.631,0,0,1-.617.675,48.242,48.242,0,0,0-7.2.608,3.986,3.986,0,0,0-2.915,3.091,33.251,33.251,0,0,0-.513,5.975v4.1a1.485,1.485,0,0,0,1.525,1.47,1.856,1.856,0,0,0,2.055-1.8v-7.293c0-1.336.594-2.218,1.589-2.36.232-.033.726-.054,1.654-.091a45.4,45.4,0,0,0,6.753-.594c2.236-.535,4.438-1.374,5.394-3.86.805-2.093.478-4.63.161-7.083-.07-.542-.142-1.1-.2-1.644a40.17,40.17,0,0,0-4.166-11.8.631.631,0,1,1,1.078-.656,41.118,41.118,0,0,1,4.343,12.324c.056.527.124,1.055.2,1.615.337,2.609.685,5.306-.235,7.7-1.169,3.039-3.829,4.048-6.278,4.634a45.92,45.92,0,0,1-7,.627c-.723.029-1.347.054-1.525.079-.456.065-.505.8-.505,1.111v7.293a3.092,3.092,0,0,1-3.317,3.062" transform="translate(-154.439 -137.806)" fill="#fff"/>
      <path id="パス_4085" data-name="パス 4085" d="M296.335,231.757a.631.631,0,0,1-.22-.04l-5.888-2.189a.631.631,0,0,1-.411-.573l-.315-11.041a.631.631,0,0,1,.613-.649h.019a.631.631,0,0,1,.63.613l.3,10.615,4.639,1.724v-9.8a.631.631,0,0,1,.3-.537l6.562-4.038,1.4-17.965-4.022-.965-.251,2.846a.631.631,0,0,1-1.257-.111l.315-3.575a.631.631,0,0,1,.776-.558l5.258,1.262a.631.631,0,0,1,.482.663L303.8,216.264a.631.631,0,0,1-.3.488l-6.534,4.021v10.354a.631.631,0,0,1-.631.631" transform="translate(-259.06 -174.943)" fill="#fff"/>
      <path id="パス_4086" data-name="パス 4086" d="M109.108,492.594a2.377,2.377,0,0,1-1.58-.588,3.207,3.207,0,0,1-.643-4.238,2.983,2.983,0,0,1,2.686-1.232,2.669,2.669,0,0,0,.661-.587,4.552,4.552,0,0,0,.184-.455,2.282,2.282,0,0,1,.46-.865c.095-.094.316-.316,2.665-1.1a.631.631,0,1,1,.4,1.2c-.861.287-1.9.665-2.183.816a3.653,3.653,0,0,0-.156.384,5.585,5.585,0,0,1-.241.587,3.912,3.912,0,0,1-1.281,1.2.631.631,0,0,1-.4.092c-.011,0-1.291-.11-1.7.6a1.989,1.989,0,0,0,.374,2.651,1.149,1.149,0,0,0,.957.268A2.516,2.516,0,0,0,110.9,490.3c.391-.587-.109-1.409-.115-1.418a.636.636,0,0,1,.03-.714l.946-1.262a.631.631,0,0,1,.924-.093l1.618,1.439,1.633-.554a.631.631,0,0,1,.405,1.195l-1.981.672a.63.63,0,0,1-.622-.126l-1.38-1.227-.3.4a2.5,2.5,0,0,1-.108,2.386,3.779,3.779,0,0,1-2.472,1.571,2.74,2.74,0,0,1-.371.026m2.6-7.026Z" transform="translate(-95.181 -432.658)" fill="#fff"/>
    </g>
  </g>
</svg>
