<svg xmlns="http://www.w3.org/2000/svg" width="45" height="45" viewBox="0 0 45 45">
  <g id="グループ_7309" data-name="グループ 7309" transform="translate(-455 -11493)">
    <rect id="長方形_465" data-name="長方形 465" width="45" height="45" rx="5" transform="translate(455 11493)" fill="#eaf2f0"/>
    <path id="パス_4535" data-name="パス 4535" d="M23.25,20.613l-.079.119a5.835,5.835,0,0,1-3.508,2.705,5.886,5.886,0,0,1-1.289.135c-1.955,0-6.089-.855-11.808-6.575C-.551,9.881-.164,5.172.124,3.9A5.829,5.829,0,0,1,2.829.391L2.947.312a1.746,1.746,0,0,1,1-.312A1.774,1.774,0,0,1,5.433.786c1.061,1.6,1.987,3.042,2.664,4.1l.135.21A2.017,2.017,0,0,1,8.36,7.049c-.208.2-.651.565-.98.822A2.373,2.373,0,0,0,6.743,11.4a18.067,18.067,0,0,0,2.243,2.868l.279.283a18.151,18.151,0,0,0,2.9,2.268,3.113,3.113,0,0,0,1.584.508,2.45,2.45,0,0,0,1.942-1.142c.258-.33.624-.772.822-.981a1.088,1.088,0,0,1,.734-.194,2.419,2.419,0,0,1,1.222.323l.26.167c1.046.67,2.478,1.587,4.048,2.632a1.786,1.786,0,0,1,.475,2.485" transform="translate(466.974 11503.715)" fill="#00a384"/>
  </g>
</svg>
