<svg xmlns="http://www.w3.org/2000/svg" width="75" height="75" viewBox="0 0 75 75">
  <g id="グループ_6890" data-name="グループ 6890" transform="translate(-128 -740)">
    <circle id="楕円形_850" data-name="楕円形 850" cx="37.5" cy="37.5" r="37.5" transform="translate(128 740)" fill="#00a384"/>
    <g id="グループ_6915" data-name="グループ 6915" transform="translate(1)">
      <g id="多角形_37" data-name="多角形 37" transform="translate(145 759)" fill="none">
        <path d="M16.917,4.371a3,3,0,0,1,5.166,0l14.243,24.1A3,3,0,0,1,33.743,33H5.257a3,3,0,0,1-2.583-4.526Z" stroke="none"/>
        <path d="M 19.5 4.89704704284668 C 19.32843017578125 4.89704704284668 18.90107917785645 4.944915771484375 18.63907051086426 5.388317108154297 L 4.396419525146484 29.49125671386719 C 4.129768371582031 29.94250679016113 4.302261352539062 30.34396743774414 4.388801574707031 30.4956169128418 C 4.475341796875 30.64726638793945 4.733200073242188 30.99999618530273 5.257339477539062 30.99999618530273 L 33.74266052246094 30.99999618530273 C 34.26678848266602 30.99999618530273 34.524658203125 30.64726638793945 34.61119079589844 30.4956169128418 C 34.69773101806641 30.34395599365234 34.87022018432617 29.9425163269043 34.60358047485352 29.49126625061035 L 20.36092948913574 5.388326644897461 C 20.09892082214355 4.944915771484375 19.67156982421875 4.89704704284668 19.5 4.89704704284668 M 19.49999618530273 2.897045135498047 C 20.50108909606934 2.897045135498047 21.5021858215332 3.388317108154297 22.0827808380127 4.370857238769531 L 36.32543182373047 28.47380638122559 C 37.50716018676758 30.47365570068359 36.0655517578125 32.99999618530273 33.74266052246094 32.99999618530273 L 5.257339477539062 32.99999618530273 C 2.934440612792969 32.99999618530273 1.492839813232422 30.47365570068359 2.674560546875 28.47380638122559 L 16.9172191619873 4.370857238769531 C 17.49781036376953 3.388317108154297 18.49890327453613 2.897045135498047 19.49999618530273 2.897045135498047 Z" stroke="none" fill="#fff"/>
      </g>
      <text id="_" data-name="!" transform="translate(162 787)" fill="#fff" font-size="21" font-family="DIN2014-Bold, 'DIN \32 014'" font-weight="700"><tspan x="0" y="0">!</tspan></text>
    </g>
  </g>
</svg>
