<svg xmlns="http://www.w3.org/2000/svg" width="25.268" height="23.463" viewBox="0 0 25.268 23.463">
  <path id="パス_4549" data-name="パス 4549" d="M540.818,1666.689a.27.27,0,0,1-.127-.063h0l0,0a.23.23,0,0,1-.065-.116l-.006-.046v-5.239a.242.242,0,0,1,.207-.231l.045,0h.908a.248.248,0,0,1,.248.192l0,.042v4.162h2.466a.248.248,0,0,1,.248.192l0,.042v.843a.241.241,0,0,1-.207.231l-.045,0h-3.627Zm4.585-.188,0-.042v-5.24a.248.248,0,0,1,.223-.231l.049,0h.978a.264.264,0,0,1,.267.192l0,.042v5.24a.247.247,0,0,1-.222.23l-.049,0h-.978a.265.265,0,0,1-.268-.192m6.232-5.282a.238.238,0,0,1,.2-.231l.044,0h.882a.243.243,0,0,1,.242.192l0,.042v5.24a.238.238,0,0,1-.2.23l-.045,0h-.882a.239.239,0,0,1-.063-.008h0l-.016,0-.007,0-.012,0-.006,0-.005,0-.007,0-.008,0-.008-.005-.036-.027-.029-.032-2.516-3.247v3.112a.238.238,0,0,1-.2.23l-.044,0h-.883a.244.244,0,0,1-.241-.192l0-.042v-5.24a.239.239,0,0,1,.2-.231l.044,0h.927l.014,0,.008,0,.014,0,.008,0,.014.005.008,0,.007,0,.007,0,.007,0a.077.077,0,0,1,.013.009l.006,0a.123.123,0,0,1,.014.01l0,0,.015.015.011.013.01.012,2.513,3.244Zm2.1,5.407,0,0a.229.229,0,0,1-.066-.116l0-.046v-5.239a.223.223,0,0,1,.07-.161l0,0,0,0a.256.256,0,0,1,.125-.061l.049,0h3.627a.247.247,0,0,1,.248.192l0,.042v.844a.239.239,0,0,1-.206.23l-.046,0h-2.466v.886h2.466a.246.246,0,0,1,.248.192l0,.042v.844a.239.239,0,0,1-.206.23l-.046,0h-2.466v.886h2.466a.246.246,0,0,1,.248.192l0,.042v.843a.24.24,0,0,1-.206.231l-.046,0h-3.627a.265.265,0,0,1-.176-.068m-17.251-3.258c0,4.94,4.495,9.076,10.566,9.858.412.086.972.264,1.113.607a2.463,2.463,0,0,1,.041,1.113s-.148.869-.18,1.054c-.056.311-.254,1.217,1.094.663s7.276-4.175,9.926-7.149a8.779,8.779,0,0,0,2.708-6.148c0-5.51-5.668-9.992-12.634-9.992s-12.634,4.482-12.634,9.992" transform="translate(-536.485 -1653.376)" fill="#3db156"/>
</svg>
