<svg xmlns="http://www.w3.org/2000/svg" width="55" height="55" viewBox="0 0 55 55">
  <g id="グループ_848" data-name="グループ 848" transform="translate(0.117 -0.107)">
    <rect id="長方形_465" data-name="長方形 465" width="55" height="55" rx="5" transform="translate(-0.117 0.108)" fill="#fff"/>
    <path id="パス_4535" data-name="パス 4535" d="M28.528,25.292l-.1.146a7.16,7.16,0,0,1-4.3,3.319,7.222,7.222,0,0,1-1.582.166c-2.4,0-7.471-1.049-14.489-8.067C-.677,12.125-.2,6.346.153,4.783A7.152,7.152,0,0,1,3.471.479l.144-.1A2.143,2.143,0,0,1,4.844,0,2.177,2.177,0,0,1,6.667.964C7.968,2.922,9.1,4.7,9.935,5.993l.165.258a2.475,2.475,0,0,1,.157,2.4c-.256.245-.8.693-1.2,1.009-.684.535-2.286,1.788-.782,4.326A22.169,22.169,0,0,0,11.026,17.5l.343.347a22.271,22.271,0,0,0,3.554,2.783,3.82,3.82,0,0,0,1.944.623,3.006,3.006,0,0,0,2.383-1.4c.317-.4.765-.948,1.009-1.2a1.335,1.335,0,0,1,.9-.238,2.968,2.968,0,0,1,1.5.4l.319.2c1.283.822,3.04,1.948,4.967,3.229a2.192,2.192,0,0,1,.583,3.049" transform="translate(14.692 13.147)" fill="#00a384"/>
  </g>
</svg>
