<svg xmlns="http://www.w3.org/2000/svg" xmlns:xlink="http://www.w3.org/1999/xlink" width="87" height="87" viewBox="0 0 87 87">
  <defs>
    <clipPath id="clip-path">
      <rect id="長方形_2857" data-name="長方形 2857" width="66.216" height="51.57" fill="#fff"/>
    </clipPath>
  </defs>
  <g id="グループ_6585" data-name="グループ 6585" transform="translate(-129 -9716.307)">
    <circle id="楕円形_850" data-name="楕円形 850" cx="43.5" cy="43.5" r="43.5" transform="translate(129 9716.307)" fill="#009b8e"/>
    <g id="グループ_5716" data-name="グループ 5716" transform="translate(137 9733.021)" clip-path="url(#clip-path)">
      <path id="パス_5173" data-name="パス 5173" d="M381.072,11.514a5.757,5.757,0,1,1,5.757-5.757,5.763,5.763,0,0,1-5.757,5.757m0-10.15a4.393,4.393,0,1,0,4.393,4.393,4.4,4.4,0,0,0-4.393-4.393" transform="translate(-332.651)" fill="#fff"/>
      <path id="パス_5174" data-name="パス 5174" d="M486.97,287.16a5.757,5.757,0,1,1,5.757-5.757,5.763,5.763,0,0,1-5.757,5.757m0-10.15a4.393,4.393,0,1,0,4.393,4.393,4.4,4.4,0,0,0-4.393-4.393" transform="translate(-426.511 -244.312)" fill="#fff"/>
      <path id="パス_5175" data-name="パス 5175" d="M277.542,125.24H266.185a.682.682,0,0,1-.682-.662l-.2-6.59c-.928.7-2.241,1.7-2.944,2.263a2.993,2.993,0,0,1-3.21.713c-1.037-.3-7.527-2.586-7.593-2.609a3.206,3.206,0,0,1-1.978-1.609,2.852,2.852,0,0,1,0-2.231c.457-1.18,1.832-1.686,3.344-1.233.961.288,4.427,1.224,5.6,1.541,1.318-1.407,6.747-7.188,8.019-8.353a6.053,6.053,0,0,1,3.772-1.256,5.884,5.884,0,0,1,3.978,1.123,7.72,7.72,0,0,1,2.594,5.513c.234,1.988,1.316,12.532,1.327,12.638a.682.682,0,0,1-.679.752m-10.7-1.364h9.94c-.253-2.46-1.051-10.2-1.247-11.866a6.429,6.429,0,0,0-2.127-4.637c-1.4-1.2-4.784-.957-5.94.1-1.381,1.266-8.156,8.506-8.224,8.578a.682.682,0,0,1-.675.193c-.2-.053-4.862-1.3-6.038-1.658-.8-.24-1.492-.068-1.68.419a1.556,1.556,0,0,0-.033,1.169,1.927,1.927,0,0,0,1.193.892c2.615.923,6.773,2.372,7.514,2.584.687.2,1.031.294,1.983-.467,1.175-.94,3.913-2.995,4.03-3.081a.682.682,0,0,1,1.091.525Z" transform="translate(-221.009 -93.25)" fill="#fff"/>
      <path id="パス_5176" data-name="パス 5176" d="M29.241,193.74a2.581,2.581,0,0,1-2.056-.824,2.946,2.946,0,0,1-.611-2.188,2.848,2.848,0,0,1,1.206-1.987c.849-.617,4-2.455,6.2-3.723h-.712a44.471,44.471,0,0,1-5.535-.629c-1.427-.212-3.045-.452-4.825-.674l-2.461-.307c-5.61-.7-15-1.869-17.029-2.174C.861,180.851,0,180.085,0,178.2a2.888,2.888,0,0,1,2.99-3.04c1.414-.109,14.78-.119,17.523-.12l2.515-6.538L13,165.637c-2.152-.615-2.275-1.917-2.142-2.983a2.67,2.67,0,0,1,2.919-2.25c1.428,0,13.81,1.021,14.336,1.065a.682.682,0,1,1-.112,1.359c-4.44-.367-13.126-1.06-14.224-1.06-.951,0-1.478.355-1.566,1.055-.079.631-.141,1.129,1.163,1.5l10.74,3.069a.682.682,0,0,1,.449.9l-2.95,7.671a.682.682,0,0,1-.637.437c-.164,0-16.4,0-17.887.116-1.551.119-1.731,1.016-1.731,1.68,0,.9,0,1.348,2.252,1.686,2.012.3,11.391,1.471,16.995,2.169l2.462.307c1.8.225,3.421.466,4.856.679a44.054,44.054,0,0,0,5.334.615h3.274a.682.682,0,0,1,.337,1.275c-.07.04-7.039,4-8.292,4.915a1.506,1.506,0,0,0-.654,1.052,1.583,1.583,0,0,0,.305,1.146c.357.428,1.524.511,2.985-.18,2.116-1,19.2-9.325,20.189-9.982a3.7,3.7,0,0,0,1.419-3.83c-.259-1.382-3.023-1.884-4.818-1.884H30.963a.682.682,0,0,1-.674-.783l.994-6.609a.682.682,0,1,1,1.349.2l-.876,5.826H48.008c.935,0,5.624.144,6.158,3a5.057,5.057,0,0,1-2,5.216c-1.153.768-18.969,9.421-20.363,10.081a6.111,6.111,0,0,1-2.559.644" transform="translate(0 -142.17)" fill="#fff"/>
    </g>
  </g>
</svg>
