<svg xmlns="http://www.w3.org/2000/svg" width="40" height="40" viewBox="0 0 40 40">
  <g id="グループ_6890" data-name="グループ 6890" transform="translate(-128 -740)">
    <circle id="楕円形_850" data-name="楕円形 850" cx="20" cy="20" r="20" transform="translate(128 740)" fill="#00a384"/>
    <path id="Icon_ionic-md-heart-empty" data-name="Icon ionic-md-heart-empty" d="M15.2,4.5a4.824,4.824,0,0,0-3.67,1.721A4.824,4.824,0,0,0,7.86,4.5,4.434,4.434,0,0,0,3.375,9.012c0,3.117,2.772,5.618,6.971,9.476l1.184,1.066,1.184-1.066c4.2-3.858,6.971-6.359,6.971-9.476A4.434,4.434,0,0,0,15.2,4.5ZM12.031,17.41l-.165.153-.337.306-.337-.306-.165-.153a49.831,49.831,0,0,1-4.81-4.783A5.752,5.752,0,0,1,4.633,9.012a3.261,3.261,0,0,1,.929-2.325,3.191,3.191,0,0,1,2.3-.933,3.6,3.6,0,0,1,2.709,1.274l.961,1.141.961-1.141A3.582,3.582,0,0,1,15.2,5.755a3.206,3.206,0,0,1,2.3.933,3.268,3.268,0,0,1,.929,2.325,5.782,5.782,0,0,1-1.584,3.615A49.932,49.932,0,0,1,12.031,17.41Z" transform="translate(136.471 747.973)" fill="#fff"/>
  </g>
</svg>
