<svg xmlns="http://www.w3.org/2000/svg" width="333.994" height="36.548" viewBox="0 0 333.994 36.548">
  <g id="グループ_4789" data-name="グループ 4789" transform="translate(9398.877 -1626.082)">
    <path id="パス_4640" data-name="パス 4640" d="M33.345,36.173a4.241,4.241,0,0,0,3.488-1.837l9.96-14.527a2.918,2.918,0,0,0-.184-3.535L34.22,1.7A4.828,4.828,0,0,0,30.55,0H26.155a1.029,1.029,0,0,0-.785,1.7L37.112,15.51a1.46,1.46,0,0,1,.091,1.768L25.5,34.335a1.173,1.173,0,0,0,.967,1.837Z" transform="translate(-9424 1626.082)" fill="#37993c"/>
    <path id="パス_4641" data-name="パス 4641" d="M50,11.355a2.428,2.428,0,0,1,1.835.853l2.174,2.557a1.458,1.458,0,0,1,.092,1.767L42.425,33.547a1.173,1.173,0,0,0,.967,1.836H50.27a4.234,4.234,0,0,0,3.487-1.837l9.9-14.444a2.918,2.918,0,0,0-.184-3.535l-6.186-7.28a4.828,4.828,0,0,0-3.67-1.7H43.307a1.03,1.03,0,0,0-.785,1.7l1.148,1.35a4.854,4.854,0,0,0,3.67,1.706Z" transform="translate(-9421.955 1626.871)" fill="#37993c"/>
    <path id="パス_4642" data-name="パス 4642" d="M154.87,7.893a.72.72,0,0,0-.421-1.3h-7.588a6.912,6.912,0,0,0-4.034,1.3L106.5,34.081a.719.719,0,0,0,.42,1.3h7.654a6.881,6.881,0,0,0,4.032-1.308l9.373-6.793a1.121,1.121,0,0,1,1.561.244l4.448,6.061a4.41,4.41,0,0,0,3.546,1.8H145.3a1.132,1.132,0,0,0,.915-1.8L137.57,21.74a1.107,1.107,0,0,1,.247-1.551Z" transform="translate(-9414.301 1626.871)" fill="#37993c"/>
    <path id="パス_4643" data-name="パス 4643" d="M60.134,6.59a1.03,1.03,0,0,0-.785,1.7L60.5,9.638a4.852,4.852,0,0,0,3.67,1.706l2.779.012a2.424,2.424,0,0,1,1.835.853l2.172,2.555a1.457,1.457,0,0,1,.092,1.767L59.374,33.547a1.173,1.173,0,0,0,.967,1.836h6.878a4.236,4.236,0,0,0,3.487-1.836L80.612,19.1a2.918,2.918,0,0,0-.184-3.535L74.242,8.287a4.826,4.826,0,0,0-3.67-1.7Z" transform="translate(-9419.935 1626.871)" fill="#37993c"/>
    <path id="パス_4644" data-name="パス 4644" d="M97.776,11.379a.588.588,0,0,1,.484.921L83.687,33.547a1.174,1.174,0,0,0,.967,1.837h5.654A4.241,4.241,0,0,0,93.8,33.547l14.56-21.22a2.112,2.112,0,0,1,1.744-.916l5.168.012a1.13,1.13,0,0,0,.916-1.795l-.9-1.238a4.388,4.388,0,0,0-3.539-1.8H77.393a1.022,1.022,0,0,0-.774,1.688L77.8,9.648a4.886,4.886,0,0,0,3.681,1.693Z" transform="translate(-9417.869 1626.871)" fill="#37993c"/>
    <path id="パス_4645" data-name="パス 4645" d="M128.174,13.976a2.208,2.208,0,0,0,.5-3.1l-1.818-2.488a4.4,4.4,0,0,0-3.541-1.8l-7.749,0a1.132,1.132,0,0,0-.915,1.8l6.009,8.239a2.245,2.245,0,0,0,3.123.5Z" transform="translate(-9413.316 1626.871)" fill="#37993c"/>
    <g id="グループ_4789-2" data-name="グループ 4789" transform="translate(-9248.466 1632.994)">
      <path id="パス_4646" data-name="パス 4646" d="M35.787,67.945a.921.921,0,0,1,.966,1.05V75.2c0,.365-.166.6-.52.6s-.52-.238-.52-.614V68.932h-.021l-2.485,6.346a.732.732,0,0,1-.718.53.717.717,0,0,1-.707-.509l-2.487-6.367h-.019V75.2c0,.365-.168.6-.522.6s-.52-.238-.52-.614v-6.2a.922.922,0,0,1,.968-1.05.983.983,0,0,1,1.019.717c1.144,2.914,1.863,4.733,2.258,5.825h.03c.427-1.174.978-2.589,2.256-5.825a.985.985,0,0,1,1.021-.717" transform="translate(-28.234 -67.851)" fill="#1a1311"/>
      <path id="パス_4647" data-name="パス 4647" d="M39.428,67.984c.31,0,.509.146.509.426s-.208.427-.509.427H37.785v6.282c0,.4-.168.666-.552.666s-.562-.261-.562-.675V68.837H35.028c-.3,0-.509-.136-.509-.427s.2-.426.509-.426Z" transform="translate(-24.462 -67.827)" fill="#1a1311"/>
      <path id="パス_4648" data-name="パス 4648" d="M40.735,71.783,39,68.8c-.187-.333-.125-.851.416-.851.322,0,.446.176.6.477l1.32,2.57h.03l1.323-2.57c.155-.3.278-.477.6-.477.539,0,.6.518.414.851l-1.738,2.986,1.853,3.171c.2.333.125.854-.416.854-.322,0-.446-.178-.6-.478l-1.437-2.695h-.03L39.9,75.331c-.155.3-.28.478-.6.478-.541,0-.614-.522-.416-.854Z" transform="translate(-21.902 -67.85)" fill="#1a1311"/>
      <path id="パス_4649" data-name="パス 4649" d="M46.357,74.034a.555.555,0,0,1,.478.25,1.9,1.9,0,0,0,1.507.8,1.414,1.414,0,0,0,1.562-1.32,1.135,1.135,0,0,0-.458-.885,8.856,8.856,0,0,0-1.375-.728,5.262,5.262,0,0,1-1.549-.895,1.9,1.9,0,0,1-.635-1.456c0-.832.571-1.914,2.466-1.914,1.5,0,2.029.666,2.154.883a.511.511,0,0,1-.406.813.564.564,0,0,1-.5-.27,1.407,1.407,0,0,0-1.216-.573c-.928,0-1.375.467-1.375,1.051a1.057,1.057,0,0,0,.5.862,6.864,6.864,0,0,0,1.424.739,6.376,6.376,0,0,1,1.5.862,1.948,1.948,0,0,1,.614,1.435c0,.957-.718,2.247-2.725,2.247A2.71,2.71,0,0,1,46,74.979c-.312-.4-.136-.946.354-.946" transform="translate(-17.663 -67.886)" fill="#1a1311"/>
      <path id="パス_4650" data-name="パス 4650" d="M50.221,68.65c0-.416.168-.666.635-.666h1.768c2.205,0,3.037.862,3.037,2.309,0,1.706-1.07,2.4-3.162,2.4H51.335v2.424c0,.4-.178.666-.562.666s-.552-.261-.552-.675Zm2.227,3.192c1.445,0,2.069-.467,2.069-1.528,0-.947-.592-1.477-1.946-1.477H51.335v3.005Z" transform="translate(-15.038 -67.827)" fill="#1a1311"/>
      <path id="パス_4651" data-name="パス 4651" d="M54.5,71.9c0-2.818,1.448-4.015,3.372-4.015s3.37,1.2,3.37,4.026-1.445,4.026-3.37,4.026S54.5,74.73,54.5,71.912Zm3.36-3.162c-1.133,0-2.215.853-2.215,3.173s1.082,3.171,2.226,3.171,2.226-.853,2.226-3.171-1.082-3.173-2.226-3.173Z" transform="translate(-12.473 -67.886)" fill="#1a1311"/>
      <path id="パス_4652" data-name="パス 4652" d="M62.144,72.6H60.979v2.517c0,.4-.178.666-.562.666s-.552-.261-.552-.675V68.65c0-.416.168-.666.635-.666h1.664c1.655,0,3.047.509,3.047,2.256a2.076,2.076,0,0,1-1.965,2.2L65.065,74.9c.23.314.168.885-.384.885a.81.81,0,0,1-.686-.448Zm.208-.853c1.082,0,1.715-.531,1.715-1.477,0-.915-.5-1.435-1.935-1.435H60.979v2.912Z" transform="translate(-9.251 -67.827)" fill="#1a1311"/>
      <path id="パス_4653" data-name="パス 4653" d="M68.9,67.984c.31,0,.509.146.509.426s-.208.427-.509.427H67.253v6.282c0,.4-.168.666-.552.666s-.562-.261-.562-.675V68.837H64.5c-.3,0-.509-.136-.509-.427s.2-.426.509-.426Z" transform="translate(-6.777 -67.827)" fill="#1a1311"/>
      <path id="パス_4654" data-name="パス 4654" d="M74.738,74.98H74.7a2.751,2.751,0,0,1-1.976.758c-.946,0-2.371-.25-2.371-1.955,0-1.019.552-1.643,1.571-2.288a3.409,3.409,0,0,1-.677-1.81c0-.77.478-1.467,1.727-1.467.989,0,1.738.448,1.738,1.384,0,.966-.749,1.509-1.583,2.018.522.686,1.114,1.426,1.645,2.007a4.187,4.187,0,0,0,.488-1.487c.053-.27.189-.478.448-.478a.405.405,0,0,1,.416.53,5.323,5.323,0,0,1-.781,2.05l.53.541c.147.146.293.27.293.478a.365.365,0,0,1-.416.386.876.876,0,0,1-.634-.3Zm-3.349-1.187a1.289,1.289,0,0,0,1.331,1.291,1.844,1.844,0,0,0,1.467-.666,19.829,19.829,0,0,1-1.831-2.29,2.023,2.023,0,0,0-.968,1.655Zm.832-4.108a2.639,2.639,0,0,0,.5,1.341c.573-.374,1.082-.728,1.082-1.383a.752.752,0,0,0-.8-.77.717.717,0,0,0-.779.8Z" transform="translate(-2.959 -67.687)" fill="#1a1311"/>
      <path id="パス_4655" data-name="パス 4655" d="M79.433,68.694a.911.911,0,0,1,.955-.749.927.927,0,0,1,.968.779l1.883,6.231c.155.5-.032.853-.478.853a.616.616,0,0,1-.635-.52l-.48-1.778H79.119l-.467,1.778a.615.615,0,0,1-.635.52c-.446,0-.635-.354-.478-.853Zm.976.25h-.021l-1.018,3.712h2.037Z" transform="translate(1.323 -67.851)" fill="#1a1311"/>
      <path id="パス_4656" data-name="パス 4656" d="M84.451,72.6H83.286v2.517c0,.4-.178.666-.562.666s-.552-.261-.552-.675V68.65c0-.416.168-.666.635-.666h1.664c1.655,0,3.047.509,3.047,2.256a2.076,2.076,0,0,1-1.965,2.2L87.372,74.9c.23.314.168.885-.384.885a.81.81,0,0,1-.686-.448Zm.208-.853c1.082,0,1.715-.531,1.715-1.477,0-.915-.5-1.435-1.935-1.435H83.286v2.912Z" transform="translate(4.137 -67.827)" fill="#1a1311"/>
      <path id="パス_4657" data-name="パス 4657" d="M91.2,67.984c.31,0,.509.146.509.426s-.208.427-.509.427H89.56v6.282c0,.4-.168.666-.552.666s-.562-.261-.562-.675V68.837H86.8c-.3,0-.509-.136-.509-.427s.2-.426.509-.426Z" transform="translate(6.61 -67.827)" fill="#1a1311"/>
      <path id="パス_4658" data-name="パス 4658" d="M90.686,68.621c0-.416.176-.675.552-.675s.56.27.56.666v6.532c0,.4-.176.666-.56.666s-.552-.261-.552-.677Z" transform="translate(9.247 -67.85)" fill="#1a1311"/>
      <path id="パス_4659" data-name="パス 4659" d="M98.128,73.483a.523.523,0,0,1,.427.832,2.963,2.963,0,0,1-2.663,1.623,3.116,3.116,0,0,1-2.3-.915,5.259,5.259,0,0,1-.021-6.169,3.114,3.114,0,0,1,2.339-.966,2.625,2.625,0,0,1,2.528,1.456c.208.488-.062.832-.426.832-.291,0-.467-.146-.624-.49a1.532,1.532,0,0,0-1.479-.946c-.966,0-2.183.739-2.183,3.173,0,2.464,1.155,3.171,2.154,3.171A1.856,1.856,0,0,0,97.5,73.972c.178-.333.333-.49.624-.49" transform="translate(10.384 -67.885)" fill="#1a1311"/>
      <path id="パス_4660" data-name="パス 4660" d="M103.02,73.021c0,2.069-.77,2.882-2.736,2.882-1.914,0-2.714-.781-2.714-2.891V68.62c0-.416.176-.675.55-.675s.562.27.562.666v4.338c0,1.352.312,2.1,1.6,2.1,1.311,0,1.624-.73,1.624-2.1V68.62c0-.416.176-.675.549-.675s.563.27.563.666Z" transform="translate(13.378 -67.851)" fill="#1a1311"/>
      <path id="パス_4661" data-name="パス 4661" d="M102.866,67.945c.384,0,.562.27.562.666v6.282h2.933c.312,0,.51.146.51.426s-.21.427-.51.427h-3.412c-.467,0-.635-.25-.635-.666V68.62c0-.416.178-.675.552-.675" transform="translate(16.225 -67.851)" fill="#1a1311"/>
      <path id="パス_4662" data-name="パス 4662" d="M107.757,68.694a.911.911,0,0,1,.955-.749.927.927,0,0,1,.968.779l1.883,6.231c.155.5-.032.853-.478.853a.616.616,0,0,1-.635-.52l-.48-1.778h-2.527l-.467,1.778a.615.615,0,0,1-.635.52c-.446,0-.635-.354-.478-.853Zm.976.25h-.021l-1.018,3.712h2.037Z" transform="translate(18.321 -67.851)" fill="#1a1311"/>
      <path id="パス_4663" data-name="パス 4663" d="M112.775,72.6H111.61v2.517c0,.4-.178.666-.562.666s-.552-.261-.552-.675V68.65c0-.416.168-.666.635-.666H112.8c1.655,0,3.047.509,3.047,2.256a2.076,2.076,0,0,1-1.965,2.2L115.7,74.9c.23.314.168.885-.384.885a.81.81,0,0,1-.686-.448Zm.208-.853c1.082,0,1.715-.531,1.715-1.477,0-.915-.5-1.435-1.935-1.435H111.61v2.912Z" transform="translate(21.135 -67.827)" fill="#1a1311"/>
      <path id="パス_4664" data-name="パス 4664" d="M123.144,73.483a.523.523,0,0,1,.427.832,2.963,2.963,0,0,1-2.663,1.623,3.116,3.116,0,0,1-2.3-.915,5.266,5.266,0,0,1-.021-6.169,3.115,3.115,0,0,1,2.341-.966,2.624,2.624,0,0,1,2.527,1.456c.208.488-.062.832-.426.832-.291,0-.467-.146-.624-.49a1.531,1.531,0,0,0-1.477-.946c-.968,0-2.184.739-2.184,3.173,0,2.464,1.155,3.171,2.154,3.171a1.856,1.856,0,0,0,1.621-1.112c.178-.333.333-.49.624-.49" transform="translate(25.399 -67.885)" fill="#1a1311"/>
      <path id="パス_4665" data-name="パス 4665" d="M123.17,67.945c.384,0,.562.27.562.666v6.282h2.933c.312,0,.51.146.51.426s-.21.427-.51.427h-3.412c-.467,0-.635-.25-.635-.666V68.62c0-.416.178-.675.552-.675" transform="translate(28.41 -67.851)" fill="#1a1311"/>
      <path id="パス_4666" data-name="パス 4666" d="M126.472,68.621c0-.416.176-.675.552-.675s.56.27.56.666v6.532c0,.4-.176.666-.56.666s-.552-.261-.552-.677Z" transform="translate(30.723 -67.85)" fill="#1a1311"/>
      <path id="パス_4667" data-name="パス 4667" d="M133.233,74.477V68.548c0-.365.166-.6.52-.6s.52.238.52.613v6.2c0,.718-.374,1.051-.893,1.051-.49,0-.728-.25-.958-.728l-2.776-5.866h-.021V75.2c0,.365-.166.6-.52.6s-.52-.238-.52-.614v-6.2c0-.717.374-1.05.894-1.05a.97.97,0,0,1,.968.686l2.765,5.845Z" transform="translate(31.992 -67.851)" fill="#1a1311"/>
      <path id="パス_4668" data-name="パス 4668" d="M133.55,68.621c0-.416.176-.675.552-.675s.56.27.56.666v6.532c0,.4-.176.666-.56.666s-.552-.261-.552-.677Z" transform="translate(34.971 -67.85)" fill="#1a1311"/>
      <path id="パス_4669" data-name="パス 4669" d="M140.992,73.483a.523.523,0,0,1,.427.832,2.963,2.963,0,0,1-2.663,1.623,3.116,3.116,0,0,1-2.3-.915,5.266,5.266,0,0,1-.021-6.169,3.115,3.115,0,0,1,2.341-.966,2.624,2.624,0,0,1,2.527,1.456c.208.488-.062.832-.426.832-.291,0-.467-.146-.624-.49a1.531,1.531,0,0,0-1.477-.946c-.968,0-2.184.739-2.184,3.173,0,2.464,1.155,3.171,2.154,3.171a1.856,1.856,0,0,0,1.621-1.112c.178-.333.333-.49.624-.49" transform="translate(36.11 -67.885)" fill="#1a1311"/>
    </g>
    <path id="パス_4670" data-name="パス 4670" d="M1.6,47.575a.7.7,0,0,1-.78-.773.683.683,0,0,1,.762-.773H9.676c.789,0,1.08.42,1.086.89.011,1.057-1.255,3.39-2.582,5.245a.235.235,0,0,0,.053.32c1.864,1.471,3.6,3.042,4.484,3.888.525.521.7.739.7,1.058a.9.9,0,0,1-.814.872c-.336,0-.523-.167-.9-.554a58.91,58.91,0,0,0-4.48-4.059.2.2,0,0,0-.27.01C4.463,56.47,1.609,58.44.816,58.44A.864.864,0,0,1,0,57.581c0-.35.246-.536.663-.754a19.871,19.871,0,0,0,7.26-6.986,6.585,6.585,0,0,0,.951-2.1c0-.118-.086-.168-.254-.168Z" transform="translate(-9251.225 1602.915)" fill="#1a1311"/>
    <path id="パス_4671" data-name="パス 4671" d="M18.982,51.589c.009.722-1.272,3.292-2.414,4.786-.58.756-.812,1.041-1.282,1.041a.9.9,0,0,1-.9-.873c0-.269.146-.42.577-.924A13.445,13.445,0,0,0,17.3,51.388a.743.743,0,0,1,.783-.6.883.883,0,0,1,.9.806M22.7,47.657a.242.242,0,0,0,.242.238h5.051a.693.693,0,0,1,.781.773.676.676,0,0,1-.764.773H22.958a.234.234,0,0,0-.235.238l.091,8.04c.011.974-.4,1.662-1.46,1.662-.452,0-3.007-.2-3.02-1.26a.786.786,0,0,1,.713-.855,3.072,3.072,0,0,1,.876.269,5.335,5.335,0,0,0,1.045.2c.217,0,.284-.1.281-.4l-.087-7.654a.242.242,0,0,0-.242-.238h-5.3a.688.688,0,0,1-.764-.773A.671.671,0,0,1,15.6,47.9h5.3a.237.237,0,0,0,.236-.238l-.024-2.046a.7.7,0,0,1,.762-.789.717.717,0,0,1,.8.789Zm3.79,4c.46.62,2.666,4.013,2.675,4.836a.859.859,0,0,1-.846.857c-.486,0-.708-.218-.914-.689a25.323,25.323,0,0,0-2.212-3.913c-.325-.47-.6-.773-.6-1.141a.837.837,0,0,1,.848-.789c.386,0,.573.185,1.05.84M29.5,45.779A1.942,1.942,0,0,1,27.5,47.795a1.986,1.986,0,0,1-2.039-2.015,1.964,1.964,0,0,1,1.993-2.015A2,2,0,0,1,29.5,45.779m-3.04,0A1.021,1.021,0,0,0,27.493,46.8a.993.993,0,0,0,1.012-1.024,1.032,1.032,0,0,0-1.036-1.024,1,1,0,0,0-1.013,1.024" transform="translate(-9249.504 1602.644)" fill="#1a1311"/>
    <path id="パス_4672" data-name="パス 4672" d="M31.089,52.1a.748.748,0,0,1-.833-.806.734.734,0,0,1,.814-.823H44.119a.752.752,0,0,1,.831.823.728.728,0,0,1-.813.806Z" transform="translate(-9247.604 1603.446)" fill="#1a1311"/>
    <path id="パス_4673" data-name="パス 4673" d="M47.859,47.281a16.91,16.91,0,0,1,1.3,3.878.8.8,0,0,1-.881.823c-.554,0-.659-.4-.835-1.125a20,20,0,0,0-.868-2.5c-.121-.269-.259-.521-.345-.739a1.252,1.252,0,0,1-.14-.521.8.8,0,0,1,.864-.705c.336,0,.573.168.9.89M56.535,54.2c-1.75,2.586-4.784,4.6-5.691,4.6a.8.8,0,0,1-.8-.806c0-.353.162-.553.63-.771a12.164,12.164,0,0,0,5.955-6.432,18.679,18.679,0,0,0,1.077-4.3c.06-.5.275-.84.746-.84a.815.815,0,0,1,.934.873A17.543,17.543,0,0,1,56.535,54.2m-3.818-7.926a17.672,17.672,0,0,1,.768,4.013.8.8,0,0,1-.846.89c-.705,0-.761-.5-.891-1.562-.093-.823-.217-1.359-.341-2a13.033,13.033,0,0,1-.387-1.511.741.741,0,0,1,.815-.705c.387,0,.657.134.883.873" transform="translate(-9245.711 1602.84)" fill="#1a1311"/>
    <path id="パス_4674" data-name="パス 4674" d="M65.7,51.433A1.845,1.845,0,0,1,63.852,53.3a1.9,1.9,0,0,1-1.885-1.864,1.845,1.845,0,0,1,1.843-1.864A1.9,1.9,0,0,1,65.7,51.433" transform="translate(-9243.812 1603.339)" fill="#1a1311"/>
    <path id="パス_4675" data-name="パス 4675" d="M70.748,50a.236.236,0,0,0-.236.238l.1,8.863a.583.583,0,0,1-.664.655.593.593,0,0,1-.663-.655l-.15-13.216c-.009-.823.356-1.192,1.18-1.192h4.214c.806,0,1.113.3,1.122,1.108l.036,3.107C75.695,49.7,75.4,50,74.59,50Zm-.278-3.413a.241.241,0,0,0,.242.238h3.418a.237.237,0,0,0,.236-.238l0-.383a.264.264,0,0,0-.289-.269H70.748a.257.257,0,0,0-.282.269Zm.253,1.33a.235.235,0,0,0-.235.24l0,.444a.243.243,0,0,0,.242.24h3.371a.257.257,0,0,0,.282-.269l0-.415a.242.242,0,0,0-.242-.24ZM77.2,53.191a.235.235,0,0,0-.249.209c-.011.23-.019.414-.026.559s.064.324.218.324H80.6a.548.548,0,0,1,.612.6.539.539,0,0,1-.6.621H77.528c-.1,0-.175.1-.116.179a6.139,6.139,0,0,0,2.705,1.853.566.566,0,0,1,.427.588.7.7,0,0,1-.7.689,6.243,6.243,0,0,1-3.395-2.333.142.142,0,0,0-.227.027,6.11,6.11,0,0,1-3.782,2.374.677.677,0,0,1-.663-.705.552.552,0,0,1,.447-.537,4.878,4.878,0,0,0,2.969-1.956c.052-.087-.04-.177-.141-.177H72.184a.559.559,0,0,1-.611-.621.541.541,0,0,1,.6-.6H75.34a.248.248,0,0,0,.259-.217c.012-.184.02-.406.028-.639a.231.231,0,0,0-.233-.235h-2.8A.538.538,0,0,1,72,52.6a.529.529,0,0,1,.58-.6h1.441a.128.128,0,0,0,.107-.2c-.294-.428-.515-.578-.518-.857a.644.644,0,0,1,.664-.623c.269,0,.4.118.592.369.341.438.511.673.514.975a.437.437,0,0,1-.037.18.114.114,0,0,0,.113.155h1.588a.556.556,0,0,0,.441-.279c.195-.291.371-.615.556-.93.165-.3.313-.42.583-.42a.668.668,0,0,1,.7.554,1.734,1.734,0,0,1-.381.911c-.053.078.034.163.128.163h1.07a.548.548,0,0,1,.611.6.529.529,0,0,1-.6.588Zm4.95-2.968a.241.241,0,0,0-.241-.238H78.066c-.806,0-1.112-.3-1.121-1.11l-.035-3.055c-.008-.789.289-1.092,1.095-1.092h4.215c.823,0,1.2.353,1.207,1.176l.138,12.175c.016,1.528-1.125,1.528-1.78,1.528-.539,0-1.093,0-1.1-.756,0-.369.194-.672.548-.672h.57c.336,0,.436-.134.431-.521Zm-3.92-3.618a.241.241,0,0,0,.241.238h3.4a.236.236,0,0,0,.236-.238l0-.366a.265.265,0,0,0-.272-.286H78.489a.256.256,0,0,0-.264.286Zm.254,1.33a.237.237,0,0,0-.236.238l0,.4a.255.255,0,0,0,.271.286H81.9a.236.236,0,0,0,.236-.24l0-.446a.242.242,0,0,0-.242-.238Z" transform="translate(-9242.955 1602.755)" fill="#1a1311"/>
    <path id="パス_4676" data-name="パス 4676" d="M87.436,46.942a.581.581,0,0,0-.436.247c-.953,1.182-1.5,1.565-1.814,1.565a.711.711,0,0,1-.713-.671c0-.218.112-.386.461-.705a12.3,12.3,0,0,0,1.987-2.435c.265-.42.448-.621.749-.621a.719.719,0,0,1,.712.621,1.192,1.192,0,0,1-.219.611.121.121,0,0,0,.115.178H91.6a.561.561,0,0,1,.629.6.541.541,0,0,1-.615.6H89.77c-.134,0-.171.165-.113.286a2.327,2.327,0,0,1,.307.907.6.6,0,0,1-.665.6c-.4,0-.49-.284-.662-.721-.13-.29-.27-.617-.374-.862a.359.359,0,0,0-.331-.213Zm-.421,10.575c0,.112.077.224.187.2.816-.177,1.747-.425,2.524-.654a.237.237,0,0,0,.168-.338c-.32-.5-.359-.59-.362-.766a.638.638,0,0,1,.683-.6c.251,0,.4.1.644.453.324.5.785,1.192,1.059,1.7a2.484,2.484,0,0,1,.483,1.091.663.663,0,0,1-.665.672c-.33,0-.425-.147-.916-.982a.269.269,0,0,0-.317-.109,33.191,33.191,0,0,1-5.045,1.258c-.386,0-.643-.3-.647-.756,0-.382.162-.52.686-.627a.293.293,0,0,0,.244-.283l-.086-7.654c-.009-.857.338-1.209,1.195-1.209h3.829c.857,0,1.214.353,1.224,1.209l.043,3.779c.009.873-.339,1.226-1.2,1.226H87.225a.237.237,0,0,0-.236.238Zm-.073-6.33a.242.242,0,0,0,.242.238h3.251a.234.234,0,0,0,.235-.238l-.007-.635c0-.319-.106-.42-.424-.42H87.35c-.319,0-.419.1-.415.42Zm.255,1.38a.236.236,0,0,0-.236.238l.01.883a.241.241,0,0,0,.241.238h3.07c.318,0,.419-.1.415-.42l-.008-.7a.241.241,0,0,0-.242-.238Zm7.057-5.608a.524.524,0,0,0-.408.224c-.812,1.068-1.21,1.3-1.51,1.3a.705.705,0,0,1-.7-.621c0-.3.2-.42.5-.739a11.832,11.832,0,0,0,1.7-2.318.82.82,0,0,1,.717-.5.629.629,0,0,1,.645.6,1.217,1.217,0,0,1-.2.592c-.055.1-.016.231.094.231h4.162a.561.561,0,0,1,.612.621.542.542,0,0,1-.6.6h-2.45c-.131,0-.15.169-.085.283a2.208,2.208,0,0,1,.364.926.628.628,0,0,1-.7.57c-.285,0-.456-.217-.645-.57-.155-.316-.319-.649-.471-.938a.457.457,0,0,0-.385-.271Zm-1.16,3.223c-.01-.89.355-1.26,1.245-1.26h3.426c.89,0,1.264.369,1.274,1.26l.073,6.483c.013,1.158-.13,1.813-1.86,1.813-.554,0-1.26,0-1.267-.705a.6.6,0,0,1,.68-.671c.185,0,.438.034.723.034.3,0,.4-.134.4-.705l-.065-5.794c0-.336-.123-.453-.459-.453H94.89c-.335,0-.451.118-.448.453l.1,8.614a.594.594,0,0,1-.664.672.609.609,0,0,1-.678-.672Z" transform="translate(-9241.119 1602.709)" fill="#1a1311"/>
    <path id="パス_4677" data-name="パス 4677" d="M105.693,48.362a.494.494,0,0,0-.4.272,14.529,14.529,0,0,1-3.021,3.591,1.483,1.483,0,0,1-.886.436.806.806,0,0,1-.8-.823c0-.284.163-.469.614-.806a12.8,12.8,0,0,0,3.913-5.827c.179-.47.446-.571.731-.571a.783.783,0,0,1,.849.739,3.711,3.711,0,0,1-.427,1.33.146.146,0,0,0,.147.2h4.732a1.2,1.2,0,0,1,1.357,1.192,13.382,13.382,0,0,1-4.4,8.446c-1.747,1.629-4.519,2.956-5.341,2.956a.816.816,0,0,1-.765-.84c0-.386.228-.571.779-.773a14.548,14.548,0,0,0,4.586-2.8,12.225,12.225,0,0,0,3.486-6.533c0-.118-.035-.185-.253-.185Z" transform="translate(-9239.191 1602.748)" fill="#1a1311"/>
    <path id="パス_4678" data-name="パス 4678" d="M115.634,45.618a.7.7,0,0,1,.78-.789.717.717,0,0,1,.8.789l.081,7.171a.7.7,0,0,1-.779.788.717.717,0,0,1-.8-.788Zm7.64.034a.69.69,0,0,1,.765-.773.713.713,0,0,1,.8.773l.05,4.518c.036,3.107-.06,5.02-2.071,6.851A9.046,9.046,0,0,1,118.1,59.2a.8.8,0,0,1-.8-.823c0-.42.177-.623.7-.739a9.285,9.285,0,0,0,2.911-1.125c2.4-1.495,2.443-3.594,2.414-6.281Z" transform="translate(-9237.392 1602.772)" fill="#1a1311"/>
    <path id="パス_4679" data-name="パス 4679" d="M128.619,57.291a.718.718,0,0,1-.8-.789.7.7,0,0,1,.782-.788h12.712a.717.717,0,0,1,.8.788.7.7,0,0,1-.779.789Zm1.32-9.387a.708.708,0,0,1-.78-.773.69.69,0,0,1,.762-.773h9.841a.708.708,0,0,1,.783.773.69.69,0,0,1-.765.773Z" transform="translate(-9235.934 1602.955)" fill="#1a1311"/>
    <path id="パス_4680" data-name="パス 4680" d="M144.775,49.463a14.539,14.539,0,0,1,1.13,3.308.755.755,0,0,1-.8.756c-.319,0-.59-.118-.731-.739a13.863,13.863,0,0,0-.677-2.032,4.612,4.612,0,0,1-.45-1.192.751.751,0,0,1,.814-.689c.285,0,.489.118.713.588m9.163-.437a13.75,13.75,0,0,1-2.444,6.432c-1.457,1.981-3.606,3.408-4.4,3.408a.767.767,0,0,1-.748-.788c0-.354.212-.522.563-.69,3.289-1.578,5.084-4.752,5.5-8.43.06-.621.446-.705.681-.705a.744.744,0,0,1,.848.773m-5.258-.185a19.708,19.708,0,0,1,.591,3.292.734.734,0,0,1-.764.756c-.5,0-.709-.3-.783-.873a17.369,17.369,0,0,0-.359-2.116,5.585,5.585,0,0,1-.265-1.142.733.733,0,0,1,.8-.687c.537,0,.659.368.781.771" transform="translate(-9234.089 1603.159)" fill="#1a1311"/>
    <path id="パス_4681" data-name="パス 4681" d="M160.893,48.362a.494.494,0,0,0-.4.272,14.529,14.529,0,0,1-3.021,3.591,1.483,1.483,0,0,1-.886.436.806.806,0,0,1-.8-.823c0-.284.163-.469.612-.806a12.8,12.8,0,0,0,3.914-5.827c.179-.47.446-.571.731-.571a.783.783,0,0,1,.849.739,3.711,3.711,0,0,1-.427,1.33.146.146,0,0,0,.147.2h4.732a1.2,1.2,0,0,1,1.357,1.192,13.382,13.382,0,0,1-4.4,8.446c-1.747,1.629-4.519,2.956-5.341,2.956a.816.816,0,0,1-.765-.84c0-.386.228-.571.779-.773a14.548,14.548,0,0,0,4.586-2.8,12.231,12.231,0,0,0,3.488-6.533c0-.118-.036-.185-.254-.185Z" transform="translate(-9232.588 1602.748)" fill="#1a1311"/>
  </g>
</svg>
