<svg xmlns="http://www.w3.org/2000/svg" xmlns:xlink="http://www.w3.org/1999/xlink" width="12" height="204" viewBox="0 0 12 204">
  <defs>
    <clipPath id="clip-path">
      <rect width="12" height="204" fill="none"/>
    </clipPath>
  </defs>
  <g id="eight_dots" clip-path="url(#clip-path)">
    <g transform="translate(-221 -4349)">
      <circle id="楕円形_890" data-name="楕円形 890" cx="6" cy="6" r="6" transform="translate(221 4349)" fill="#00a384"/>
    </g>
    <g transform="translate(-221 -4323)">
      <circle id="楕円形_890-2" data-name="楕円形 890" cx="6" cy="6" r="6" transform="translate(221 4349)" fill="#00a384"/>
    </g>
    <g transform="translate(-221 -4297)">
      <circle id="楕円形_890-3" data-name="楕円形 890" cx="6" cy="6" r="6" transform="translate(221 4349)" fill="#00a384"/>
    </g>
    <g transform="translate(-221 -4271)">
      <circle id="楕円形_890-4" data-name="楕円形 890" cx="6" cy="6" r="6" transform="translate(221 4349)" fill="#00a384"/>
    </g>
    <g transform="translate(-221 -4245)">
      <circle id="楕円形_890-5" data-name="楕円形 890" cx="6" cy="6" r="6" transform="translate(221 4349)" fill="#00a384"/>
    </g>
    <g transform="translate(-221 -4219)">
      <circle id="楕円形_890-6" data-name="楕円形 890" cx="6" cy="6" r="6" transform="translate(221 4349)" fill="#00a384"/>
    </g>
    <g transform="translate(-221 -4193)">
      <circle id="楕円形_890-7" data-name="楕円形 890" cx="6" cy="6" r="6" transform="translate(221 4349)" fill="#00a384"/>
    </g>
    <g transform="translate(-221 -4167)">
      <circle id="楕円形_890-8" data-name="楕円形 890" cx="6" cy="6" r="6" transform="translate(221 4349)" fill="#00a384"/>
    </g>
  </g>
</svg>
