<svg xmlns="http://www.w3.org/2000/svg" xmlns:xlink="http://www.w3.org/1999/xlink" width="142.37" height="134.833" viewBox="0 0 142.37 134.833">
  <defs>
    <clipPath id="clip-path">
      <rect id="長方形_2982" data-name="長方形 2982" width="142.37" height="134.833" transform="translate(1178 1410)" fill="#262928" stroke="#707070" stroke-width="1"/>
    </clipPath>
    <clipPath id="clip-path-2">
      <rect id="長方形_2981" data-name="長方形 2981" width="142.37" height="108.722" fill="none"/>
    </clipPath>
    <clipPath id="clip-path-4">
      <rect id="長方形_2979" data-name="長方形 2979" width="22.419" height="28.758" fill="#e5923e"/>
    </clipPath>
  </defs>
  <g id="マスクグループ_355" data-name="マスクグループ 355" transform="translate(-1178 -1410)" clip-path="url(#clip-path)">
    <g id="グループ_5875" data-name="グループ 5875" transform="translate(1178 1413.782)">
      <g id="グループ_5874" data-name="グループ 5874" transform="translate(0 21)" clip-path="url(#clip-path-2)">
        <g id="グループ_5873" data-name="グループ 5873">
          <g id="グループ_5872" data-name="グループ 5872" clip-path="url(#clip-path-2)">
            <g id="グループ_5871" data-name="グループ 5871" transform="translate(87.823 22.572)">
              <g id="グループ_5870" data-name="グループ 5870">
                <g id="グループ_5869" data-name="グループ 5869" clip-path="url(#clip-path-4)">
                  <path id="パス_5389" data-name="パス 5389" d="M134.618,33.949a19.229,19.229,0,0,0,16.7,28.758,19.356,19.356,0,0,0,2.745-.195s1.613-9.914-1.265-17.428-8.869-8.76-10.99-9.578a48.678,48.678,0,0,0-7.186-1.558" transform="translate(-132.09 -33.949)" fill="#e5923e"/>
                </g>
              </g>
            </g>
            <path id="パス_5390" data-name="パス 5390" d="M170.112,26.394,178.123,15.3a.115.115,0,0,0,0-.143c-1.257-1.533-3.862-4.71-4.6-5.612a.3.3,0,0,1,.022-.411C174.864,7.826,182.3.454,182.7.056c.153-.162.412.063.287.237l-6,8.92a.262.262,0,0,0,.009.305l3.721,4.887.553.727a.206.206,0,0,1-.016.267l-.56.577L170.374,26.613a.171.171,0,0,1-.262-.219" transform="translate(-56.999 0)" fill="#e5923e"/>
            <path id="パス_5391" data-name="パス 5391" d="M176.572,36.806l12.7-5.1a.115.115,0,0,0,.075-.122c-.245-1.967-.75-6.045-.895-7.2a.3.3,0,0,1,.239-.336c1.82-.4,12.042-2.661,12.6-2.782a.188.188,0,0,1,.116.354l-9.836,4.336a.263.263,0,0,0-.156.263l.535,6.119.08.91a.206.206,0,0,1-.156.217l-.782.188-14.41,3.479a.171.171,0,0,1-.1-.325" transform="translate(-59.138 -7.125)" fill="#e5923e"/>
            <path id="パス_5392" data-name="パス 5392" d="M14.984,99.295a.765.765,0,0,1-.105-1.522c.151-.021,15.157-2.12,22.891-3.4C45.724,93.05,62.143,91,62.308,90.981A.765.765,0,0,1,62.5,92.5c-.165.021-16.553,2.064-24.477,3.38-7.754,1.287-22.779,3.388-22.929,3.408a.738.738,0,0,1-.107.008" transform="translate(-4.766 -30.489)"/>
            <path id="パス_5393" data-name="パス 5393" d="M45.047,22.288a2.877,2.877,0,0,1-.315-.015C43.025,22.083,11.915,8.97,5.7,6.344a.765.765,0,0,1,.6-1.41c14.718,6.217,37.15,15.56,38.625,15.821,1.023.1,6.675-.971,10.417-1.687,2.02-.386,3.764-.721,4.821-.888a48.578,48.578,0,0,1,7.822-.049,56.463,56.463,0,0,0,6.5.043,12.474,12.474,0,0,0,4.7-1.191.765.765,0,0,1,.794,1.308A13.528,13.528,0,0,1,74.623,19.7a56.408,56.408,0,0,1-6.709-.038,48.016,48.016,0,0,0-7.522.032c-1.032.163-2.765.5-4.772.88a91.788,91.788,0,0,1-10.573,1.717" transform="translate(-1.752 -1.634)"/>
            <path id="パス_5394" data-name="パス 5394" d="M113.3,66.619a.766.766,0,0,1-.7-.463,64.458,64.458,0,0,0-6.32-9.522,64.178,64.178,0,0,1-4.607-7.4c-1.154-2.022-2.243-3.931-2.953-4.926-1.514-2.12-3.368-5.319-1.986-8.613.971-2.316,4.257-2.553,7.736-2.8a39.232,39.232,0,0,0,3.993-.422c3.723-.671,4.34-2.657,4.364-2.741a.773.773,0,0,1,.937-.531.759.759,0,0,1,.542.921c-.031.122-.817,3-5.572,3.856a40.065,40.065,0,0,1-4.155.442c-2.865.206-5.828.419-6.435,1.869-.826,1.971-.248,4.238,1.82,7.133.755,1.058,1.864,3,3.037,5.057a65.09,65.09,0,0,0,4.456,7.185A65.162,65.162,0,0,1,114,65.553a.766.766,0,0,1-.7,1.066" transform="translate(-32.255 -9.776)"/>
            <path id="パス_5395" data-name="パス 5395" d="M107.2,80.137a.764.764,0,0,1-.664-.385c-.636-1.113-3.167-4.754-4.04-5.815-.237-.287-.738-.817-1.32-1.431-1.535-1.622-3.638-3.842-4.265-5.145A56.436,56.436,0,0,0,93.418,62a.765.765,0,0,1,1.238-.9A56.4,56.4,0,0,1,98.289,66.7a30.566,30.566,0,0,0,4,4.757c.626.661,1.119,1.182,1.389,1.509.927,1.126,3.511,4.844,4.187,6.028a.765.765,0,0,1-.663,1.145" transform="translate(-31.258 -20.372)"/>
            <path id="パス_5396" data-name="パス 5396" d="M105.289,88.7l-.059,0c-.113-.009-2.761-.229-4.075-1.757-.638-.743-2.28-2.187-3.73-3.462-1.025-.9-1.91-1.679-2.4-2.17-1.2-1.2-7.044-8.667-7.292-8.984a.765.765,0,1,1,1.2-.943c2.082,2.661,6.258,7.935,7.17,8.845.457.457,1.367,1.257,2.329,2.1a51.779,51.779,0,0,1,3.88,3.613,5.162,5.162,0,0,0,3.033,1.229.765.765,0,0,1-.059,1.527" transform="translate(-29.347 -23.824)"/>
            <path id="パス_5397" data-name="パス 5397" d="M97.316,90.888H97.3a13.756,13.756,0,0,1-2.694-.363c-1.178-.294-3.047-1.731-4.861-3.177l-.414-.33c-1.2-.944-8.485-8.788-9.312-9.68a.765.765,0,0,1,1.121-1.04c2.225,2.4,8.205,8.783,9.139,9.52l.421.334c1.078.86,3.324,2.651,4.277,2.89a12.506,12.506,0,0,0,2.358.317.765.765,0,0,1-.017,1.529" transform="translate(-26.748 -25.487)"/>
            <path id="パス_5398" data-name="パス 5398" d="M62.069,75.71a12.248,12.248,0,0,1-4.77-1C54.434,73.3,48.506,67.7,44.965,64.36c-.728-.687-1.33-1.256-1.743-1.633a21.746,21.746,0,0,1-3.556-5.239,18.628,18.628,0,0,0-2.634-4.026C35.659,52.231,13.9,44.314.512,39.613a.764.764,0,1,1,.506-1.443C4.6,39.429,36.1,50.518,38.069,52.338A19.155,19.155,0,0,1,41,56.745,20.892,20.892,0,0,0,44.252,61.6c.418.382,1.026.956,1.762,1.651,3.251,3.07,9.3,8.783,11.962,10.1a9.835,9.835,0,0,0,5.431.683.765.765,0,0,1,.426,1.469,6.45,6.45,0,0,1-1.765.215" transform="translate(0 -12.778)"/>
            <path id="パス_5399" data-name="パス 5399" d="M73.66,26.837h-.024l-19.561-.6a.765.765,0,0,1,.048-1.529l19.56.6a.765.765,0,0,1-.023,1.529" transform="translate(-17.874 -8.279)"/>
            <path id="パス_5400" data-name="パス 5400" d="M144.956,118.584a.7.7,0,0,1-.074,0,.765.765,0,0,1-.688-.834c.059-.614,5.9-61.513,5.9-66.7,0-5.905-1.757-10.427-5.225-13.437-5.233-4.544-22.385-6.635-22.557-6.657a.764.764,0,0,1-.669-.849.753.753,0,0,1,.85-.669c.724.086,17.795,2.171,23.378,7.02,3.816,3.314,5.752,8.223,5.752,14.591,0,5.26-5.671,64.336-5.912,66.848a.765.765,0,0,1-.761.691" transform="translate(-40.766 -9.861)"/>
            <path id="パス_5401" data-name="パス 5401" d="M116.761,138.52a.766.766,0,0,1-.758-.666c-.132-1.015-3.218-24.941-2.245-33.435a58.743,58.743,0,0,1,3.739-15.04.765.765,0,0,1,1.407.6,58.314,58.314,0,0,0-3.626,14.613c-.953,8.309,2.21,32.817,2.243,33.063a.765.765,0,0,1-.66.857.837.837,0,0,1-.1.007" transform="translate(-38.06 -29.798)"/>
            <path id="パス_5402" data-name="パス 5402" d="M119.778,28.654a.765.765,0,0,1-.713-1.041l.045-.115a5.5,5.5,0,0,0,.46-1.665,1.877,1.877,0,0,0-1.876-1.875,2.684,2.684,0,0,0-1.408.439.765.765,0,0,1-.945-1.2,4.156,4.156,0,0,1,2.353-.766,3.409,3.409,0,0,1,3.405,3.4,6.486,6.486,0,0,1-.564,2.221l-.044.112a.765.765,0,0,1-.713.488" transform="translate(-38.556 -7.516)"/>
            <path id="パス_5403" data-name="パス 5403" d="M116.33,89.07a3.95,3.95,0,0,1-3.181-1.851.765.765,0,1,1,1.372-.676,2.5,2.5,0,0,0,1.809,1,2.193,2.193,0,0,0,2.191-2.191,2.154,2.154,0,0,0-.257-1.03.765.765,0,0,1,1.349-.721,3.721,3.721,0,0,1-3.283,5.471" transform="translate(-37.893 -27.881)"/>
            <path id="パス_5404" data-name="パス 5404" d="M114.444,94.925a4.2,4.2,0,0,1-.836-.081.764.764,0,0,1,.314-1.5,2.109,2.109,0,0,0,1.376-.142,1.315,1.315,0,0,0-.269-2.239.765.765,0,0,1,.622-1.4,2.844,2.844,0,0,1,.585,4.844,2.954,2.954,0,0,1-1.792.512" transform="translate(-37.87 -29.995)"/>
            <path id="パス_5405" data-name="パス 5405" d="M105.453,96.262a.765.765,0,0,1,0-1.53.94.94,0,0,0,.779-1.463.765.765,0,1,1,1.267-.856,2.468,2.468,0,0,1-2.046,3.849" transform="translate(-35.084 -30.858)"/>
          </g>
        </g>
      </g>
    </g>
  </g>
</svg>
