<svg xmlns="http://www.w3.org/2000/svg" xmlns:xlink="http://www.w3.org/1999/xlink" width="151.606" height="143.58" viewBox="0 0 151.606 143.58">
  <defs>
    <clipPath id="clip-path">
      <rect id="長方形_2266" data-name="長方形 2266" width="151.606" height="143.58" transform="translate(0 0)" fill="#262928" stroke="#707070" stroke-width="1"/>
    </clipPath>
    <clipPath id="clip-path-2">
      <rect id="長方形_2250" data-name="長方形 2250" width="134.852" height="115.708" fill="#262928"/>
    </clipPath>
  </defs>
  <g id="グループ_5865" data-name="グループ 5865" transform="translate(-205.718 -1447.568)">
    <circle id="楕円形_848" data-name="楕円形 848" cx="23.5" cy="23.5" r="23.5" transform="translate(264 1462)" fill="#fff"/>
    <g id="マスクグループ_244" data-name="マスクグループ 244" transform="translate(205.718 1447.568)" clip-path="url(#clip-path)">
      <g id="グループ_4894" data-name="グループ 4894" transform="translate(8.431 13.902)">
        <g id="グループ_4887" data-name="グループ 4887">
          <g id="グループ_4886" data-name="グループ 4886" clip-path="url(#clip-path-2)">
            <path id="パス_4722" data-name="パス 4722" d="M57.214,84.375A20.639,20.639,0,1,1,25.3,109.437s11.394-2.58,12.821-3.2,2.016-1.093,2.772-.635,4.5,3.475,5.7,2.63,2.595-2.065,1.8-2.56,3.982,2.2,4.535,1.459.276-3.338.553-3.394,3.207,1.271,4.037.5.938-2.348-.719-3.326,1.171-1.593,1.285-2.279-2.044-3.2-2.74-3.812,1.868-10.444,1.868-10.444" transform="translate(-7.159 -23.876)" fill="#e5923e"/>
            <path id="パス_4723" data-name="パス 4723" d="M134.475,98.113c0-2.383-.652-8.2-6.695-10.754a26.881,26.881,0,0,0-7.48-1.749A53.89,53.89,0,0,1,109.357,83.2C93.823,78.068,85.94,72.14,85.172,70.107c-.063-.166-.163-.406-.291-.711A43.2,43.2,0,0,1,82.592,62.6a.809.809,0,0,0,.2-.1c1.31-.994,3.049-3.453,5.027-7.111,1.261-2.333,3.072-6.713,4.19-9.508.129.008.271.014.431.014a5.8,5.8,0,0,0,2.188-.394c.714-.3,3.166-1.7,4.723-7.194a5.61,5.61,0,0,0-.332-4.621A4.352,4.352,0,0,0,96.3,31.81a.783.783,0,0,0-.2,0c2.362-16.3-.148-26.632-16.714-30.9C60.3-4.005,51.261,12.205,48.176,19.7a4.5,4.5,0,0,0-2.931.476,5.963,5.963,0,0,0-2.673,4.134c-1.373,5.95.2,8.513.71,9.157a6.829,6.829,0,0,0,2.8,1.932.731.731,0,0,0,.14.024c0,4.244.136,11.521.981,15.019,1.124,4.646,2.04,7.7,3.3,9.42-1.037,2.806-2.289,5.953-3,7.725a.808.808,0,0,0-.285.4L46.9,69.081c-.031.108-.058.194-.084.266a38.838,38.838,0,0,0-4.125-2.56,5.051,5.051,0,0,0-4.024-.374,2.885,2.885,0,0,0-1.509,1.2,5.049,5.049,0,0,1-.467.557l-.228.02a6.107,6.107,0,0,0-3.873,1.481A4.332,4.332,0,0,0,31.518,72.1c-.01.056-.019.11-.027.158-.142.039-.327.082-.478.118a5.983,5.983,0,0,0-2.426.967,3.192,3.192,0,0,0-1.141,2.373l0,.025-.037.016a4.667,4.667,0,0,0-2.89,3.2,11.786,11.786,0,0,0,.035,4.544,54.6,54.6,0,0,1-10,2.111,26.876,26.876,0,0,0-7.479,1.749C1.03,89.911.377,95.729.377,98.113c0,3.5-.373,16.616-.377,16.748a.824.824,0,0,0,.8.848H.824a.824.824,0,0,0,.824-.8c0-.132.378-13.272.378-16.795,0-2.551.739-7.144,5.687-9.234a25.263,25.263,0,0,1,7.056-1.635,56.04,56.04,0,0,0,11.244-2.475c2.287-.756,4.367-1.537,6.513-2.441.141.064.285.131.43.205a34.517,34.517,0,0,1,3.967,2.339.814.814,0,0,0,.283.123c.008,0,.013.013.022.017a2.765,2.765,0,0,0,3.988-1.907,2.7,2.7,0,0,0,.037-.408c.6.444.987.739,1,.749s.014.006.02.011a2.762,2.762,0,0,0,4.593-2.077v-.018A2.755,2.755,0,0,0,51.346,79.2a2.778,2.778,0,0,0-.888-2.034l-.576-.41a2.966,2.966,0,0,0,.409-4.981c-.044-.034-.095-.06-.141-.091-.009-.006-.013-.016-.022-.023-.085-.061-.88-.63-1.934-1.362a3.746,3.746,0,0,0,.269-.7c.266-.649,4.243-10.361,5.175-13.892.071-.267.161-.57.258-.9a19.056,19.056,0,0,0,.988-5.365.824.824,0,1,0-1.648,0,17.739,17.739,0,0,1-.921,4.9c-.1.349-.2.668-.272.949-.174.658-.464,1.557-.82,2.58a41.585,41.585,0,0,1-2.415-7.811c-1.159-4.793-.911-17.718-.908-17.848a.825.825,0,1,0-1.649-.033c0,.1-.012.65-.019,1.5a4.784,4.784,0,0,1-1.661-1.234c-.174-.217-1.656-2.279-.392-7.757a4.444,4.444,0,0,1,1.851-3.055,2.775,2.775,0,0,1,1.527-.338c-.442,1.205-.652,1.957-.665,2a.825.825,0,0,0,1.593.43,41.076,41.076,0,0,1,6.648-12.955C61.385,2.821,69.411.043,78.981,2.51,95.6,6.792,97.044,17.293,93.9,35.173a.825.825,0,0,0,.67.955.814.814,0,0,0,.143.013.826.826,0,0,0,.812-.682c.124-.706.239-1.4.348-2.084a.779.779,0,0,0,.138.057,2.706,2.706,0,0,1,1.622,1.143,4.1,4.1,0,0,1,.133,3.28c-1.42,5.013-3.534,6.022-3.771,6.121a3.906,3.906,0,0,1-1.334.262c.2-.518.331-.85.356-.915a.825.825,0,1,0-1.539-.592c-.032.084-3.252,8.442-5.107,11.871a27.216,27.216,0,0,1-4.147,6.2,21.274,21.274,0,0,1-.087-7.644.824.824,0,1,0-1.619-.313c-1.372,7.12,1.8,14.695,2.847,17.184.118.283.212.5.269.656,1.22,3.228,10.983,9.377,25.209,14.08a56.045,56.045,0,0,0,11.244,2.475,25.259,25.259,0,0,1,7.056,1.635c4.948,2.089,5.687,6.683,5.687,9.234,0,3.523.374,16.663.378,16.795a.825.825,0,0,0,.824.8h.024a.822.822,0,0,0,.8-.848c0-.132-.376-13.249-.376-16.748m-85.9-17.794a1.113,1.113,0,0,1-.518-.132,99.29,99.29,0,0,0-8.2-5.758c-3.286-1.831-3.921-1.446-4.191-1.283a.94.94,0,0,0-.456.837c.019.778.765.983,1.423,1.163a7.445,7.445,0,0,1,2.131.865,40.217,40.217,0,0,1,3.744,2.74c.511.412,2.112,1.631,2.375,1.83a1.122,1.122,0,0,1-1.56,1.614c-.011-.01-.024-.013-.036-.022s-.017-.025-.03-.034a67.936,67.936,0,0,0-7.39-4.973l-.039-.021-.034-.017c-.12-.062-.237-.119-.349-.173-.3-.141-2.915-.99-3.688-.524l-.4.262-.016.445c-.031.9.9.957,1.461.995a5.955,5.955,0,0,1,2.272.477,32.647,32.647,0,0,1,4.167,3.157.758.758,0,0,0,.072.046.974.974,0,0,1,.077.067,1.115,1.115,0,0,1-1.1,1.775,1.163,1.163,0,0,1-.3-.1.751.751,0,0,0-.134-.039A35.609,35.609,0,0,0,33.7,81.062c-.292-.148-.577-.275-.856-.39l-.01,0a10.1,10.1,0,0,0-4.121-.822.824.824,0,0,0,.1,1.646,6.528,6.528,0,0,1,1.175.086c-1.257.494-2.528.957-3.855,1.407a9.9,9.9,0,0,1-.023-3.616,3,3,0,0,1,1.966-2.11,2.007,2.007,0,0,0,.64-.379,1.526,1.526,0,0,0,.369-1.027,1.567,1.567,0,0,1,.568-1.258,5.252,5.252,0,0,1,1.737-.617,3.064,3.064,0,0,0,1.279-.475,1.724,1.724,0,0,0,.467-1.113,2.912,2.912,0,0,1,.6-1.539A4.531,4.531,0,0,1,36.6,69.833a1.674,1.674,0,0,0,1.035-.3,5.773,5.773,0,0,0,.831-.928c.282-.372.418-.54.674-.617a3.437,3.437,0,0,1,2.864.3,78.792,78.792,0,0,1,7.041,4.625.832.832,0,0,0,.067.056,1.385,1.385,0,0,1,.172.112,1.332,1.332,0,0,1-1.347,2.276,44.777,44.777,0,0,0-6.232-4.421,5.82,5.82,0,0,0-2.933-.731.824.824,0,1,0,.156,1.641,4.333,4.333,0,0,1,2.113.6,38.616,38.616,0,0,1,5.219,3.679c.006.007.007.016.014.023a2.96,2.96,0,0,0,.686.538l.14.114,2.267,1.6a1.122,1.122,0,0,1-.8,1.913" transform="translate(0 0)" fill="#262928"/>
            <path id="パス_4724" data-name="パス 4724" d="M30.1,62.022a.273.273,0,0,1-.009.318l-3.873,5.087-.576.757a.213.213,0,0,0,.016.277l.584.6L36.992,80.135a.178.178,0,0,0,.272-.228L28.925,68.361a.12.12,0,0,1,0-.148c1.309-1.6,4.02-4.9,4.792-5.842a.315.315,0,0,0-.024-.428c-1.378-1.365-9.117-9.037-9.539-9.452-.159-.169-.429.066-.3.247Z" transform="translate(-6.741 -14.837)" fill="#e5923e"/>
            <path id="パス_4725" data-name="パス 4725" d="M10.447,77.841a.273.273,0,0,1,.162.273l-.557,6.369-.083.947a.214.214,0,0,0,.163.226l.814.2,15,3.621a.178.178,0,0,0,.108-.338L12.837,83.829a.119.119,0,0,1-.078-.127c.255-2.047.781-6.292.931-7.5a.316.316,0,0,0-.248-.35C11.548,75.437.907,73.084.329,72.958a.2.2,0,0,0-.12.369Z" transform="translate(-0.027 -20.643)" fill="#e5923e"/>
            <path id="パス_4726" data-name="パス 4726" d="M113.336,42.706a.824.824,0,1,0-1.449-.786,74.719,74.719,0,0,1-5.1,7.935c-3.62,4.849-6.762,7.337-8.852,7.01a15.013,15.013,0,0,1-5.747-2.054A10.678,10.678,0,0,0,88.6,53.36a15.36,15.36,0,0,0-3.721-.009c-2.728.2-5.819.429-8.252-1.827-3.038-2.816-5.011-14.4-5.515-18.63a.825.825,0,0,0-1.638.2c.077.645,1.929,15.84,6.032,19.644C78.464,55.478,82.088,55.209,85,55a14.345,14.345,0,0,1,3.3-.014,9.223,9.223,0,0,1,3.072,1.263,16.44,16.44,0,0,0,6.3,2.249,4.042,4.042,0,0,0,.618.047c6.273,0,14.137-14.169,15.04-15.836" transform="translate(-19.657 -9.102)" fill="#262928"/>
          </g>
        </g>
      </g>
    </g>
  </g>
</svg>
