<svg xmlns="http://www.w3.org/2000/svg" width="583.934" height="33.411" viewBox="0 0 583.934 33.411">
  <g id="グループ_6778" data-name="グループ 6778" transform="translate(-831.998 -355.441)">
    <path id="パス_5209" data-name="パス 5209" d="M13.912-21.2c-.481-.148-.777-.37-.777-.814A11.209,11.209,0,0,1,14.5-25.53a1.446,1.446,0,0,0,.259-.629c0-.259-.259-.333-.814-.333h-.37c-.888,0-1.147.148-1.554,1a16.613,16.613,0,0,0-1.7,6.364c0,2.257,1.369,3.071,2.627,3.071a2.652,2.652,0,0,0,2.886-2.775A2.34,2.34,0,0,0,13.912-21.2Zm-8.325,0c-.481-.148-.777-.37-.777-.814a11.042,11.042,0,0,1,1.406-3.552,1.6,1.6,0,0,0,.259-.629c0-.222-.259-.3-.814-.3h-.37a1.368,1.368,0,0,0-1.554.962A16.366,16.366,0,0,0,2-19.129c0,2.257,1.369,3.071,2.627,3.071a2.663,2.663,0,0,0,2.923-2.775A2.373,2.373,0,0,0,5.587-21.2Zm23.051-4.81a.794.794,0,0,0-.37-.592A29.828,29.828,0,0,0,25.9-28.527c-.111-.074-.3-.185-.481-.333a10.693,10.693,0,0,0-2.553-1.517c-.629,0-1.961,1.924-1.961,2.368,0,.37.407.592.666.777,1.221.814,2.405,1.7,3.552,2.59a2.033,2.033,0,0,1,.333.259,2.879,2.879,0,0,0,1.147.7C27.343-23.68,28.638-25.419,28.638-26.011ZM28.12-11.1c0-.666-1.813-2.109-2.59-2.109-.259,0-.37.111-.851,1.184A62.988,62.988,0,0,1,18.5-1.7a1.262,1.262,0,0,0-.407.666c0,.37.962,1.11,1.258,1.332.407.333,1.665,1.443,2.072,1.443a.425.425,0,0,0,.407-.481,1.387,1.387,0,0,0-.037-.407,1.574,1.574,0,0,1-.074-.407,2.77,2.77,0,0,1,.481-1,90.929,90.929,0,0,0,5.55-9.583A3.435,3.435,0,0,0,28.12-11.1ZM26.2-18.056c0-.555-2.072-2-2.59-2.368-.518-.407-2.664-2-3.182-2-.629,0-2,1.85-2,2.442a.625.625,0,0,0,.37.555c.888.555,2.109,1.406,2.923,2.035a11.839,11.839,0,0,0,2.405,1.739C24.79-15.651,26.2-17.39,26.2-18.056ZM35.483-3.182a.962.962,0,0,1-1-1.036v-4.4a1,1,0,0,1,1-1.036h8.14a.981.981,0,0,1,1,1.036v4.4c0,.666-.37.962-1,1.036ZM44.585,1c0,.222-.037.444-.037.666,0,.74.481.74,2,.74,1.443,0,1.961,0,1.961-.74,0-.407-.074-1.776-.074-2.627V-9.509c0-.74.037-1.443.037-2.146,0-1.3-1.295-1.406-2.257-1.406-.925,0-1.887.074-2.812.074H35.742c-.962,0-1.887-.074-2.812-.074-1,0-2.257.148-2.257,1.406,0,.7.037,1.443.037,2.146V-1c0,.814-.074,1.924-.074,2.664,0,.7.481.7,1.924.7,1.628,0,2-.037,2-.74,0-.185-.037-.407-.037-.592,0-.592.259-.851.851-.851h8.362A.751.751,0,0,1,44.585,1ZM36.408-30.414a79.914,79.914,0,0,1-3.737,9.472,1.4,1.4,0,0,1-1.369.925c-.37,0-.777.037-1.184.037-.222,0-.444.037-.629.037-.925.037-1.258.037-1.258.444,0,.37.666,2.405.777,2.886.185.555.333,1.036.7,1.036a.534.534,0,0,0,.444-.333c.185-.259.259-.444.592-.555,4.921-.481,9.805-.962,14.726-1.591a.63.63,0,0,1,.259-.037,1.306,1.306,0,0,1,1.147.74c.148.259.259.481.37.666.481.888.7,1.258,1.11,1.258.629,0,2.812-.851,2.812-1.591,0-.629-2.146-3.922-2.627-4.662a37.03,37.03,0,0,0-2.96-4.181,1.049,1.049,0,0,0-.74-.444c-.481,0-2.775.962-2.775,1.554a5.609,5.609,0,0,0,1.147,1.739c.259.333.555.74.851,1.11a.91.91,0,0,1,.148.407c0,.37-.259.481-.555.555-2.146.185-4.255.407-6.364.518a.506.506,0,0,1-.629-.518,1.08,1.08,0,0,1,.074-.333c1.147-2.368,2.257-4.736,3.182-7.178a.84.84,0,0,1,.74-.555c.222-.074.518-.148.518-.407,0-.37-.518-.555-.814-.629-.481-.148-3.108-.888-3.4-.888C36.63-30.932,36.519-30.821,36.408-30.414ZM90.613-16.28c.888,0,1.147-.148,1.554-1a16.616,16.616,0,0,0,1.7-6.4c0-2.22-1.369-3.034-2.627-3.034a2.652,2.652,0,0,0-2.886,2.775,2.34,2.34,0,0,0,1.924,2.368c.481.148.777.37.777.777a10.444,10.444,0,0,1-1.406,3.552,1.587,1.587,0,0,0-.222.629c0,.259.259.333.814.333Zm8.288,0a1.368,1.368,0,0,0,1.554-.962,16.37,16.37,0,0,0,1.739-6.438c0-2.22-1.369-3.034-2.627-3.034a2.663,2.663,0,0,0-2.923,2.775A2.373,2.373,0,0,0,98.6-21.571c.481.148.777.37.777.777A11.763,11.763,0,0,1,97.976-17.2a1.6,1.6,0,0,0-.259.629c0,.222.259.3.814.3Zm17.427-8.954c-1.628,0-3.219-.074-4.81-.074-.925,0-.888.555-.888,1.85,0,1.7-.074,2.257.925,2.257,1.591,0,3.182-.074,4.773-.074h7.659c.555,0,1.073.074,1.073.629a3.654,3.654,0,0,1-.629,1.258c-3.737,5.846-9.953,11.507-16.5,14.023-.333.111-.777.3-.777.74,0,.666,1.7,3.145,2.479,3.145a6.2,6.2,0,0,0,1.628-.7,41.188,41.188,0,0,0,9.25-6.475,1.773,1.773,0,0,1,1.11-.629,1.3,1.3,0,0,1,.851.333,39.351,39.351,0,0,1,8.177,7.326,1.237,1.237,0,0,0,.925.555c.777,0,2.812-2.183,2.812-2.96a.707.707,0,0,0-.259-.518c-.851-.888-1.776-1.739-2.664-2.516a59.416,59.416,0,0,0-6.253-4.773.989.989,0,0,1-.555-.888,1.011,1.011,0,0,1,.3-.7,53.638,53.638,0,0,0,4.81-7.03c.148-.259.37-.629.592-.962a7.162,7.162,0,0,0,.814-1.443c0-.481-1.591-2.516-2.368-2.516-.222,0-.592.074-.814.074a9.948,9.948,0,0,1-1.591.074Zm52.947-3.774a1.982,1.982,0,0,1,2,1.961,1.99,1.99,0,0,1-2,2,1.959,1.959,0,0,1-1.961-2A1.95,1.95,0,0,1,169.275-29.008Zm0-1.7a3.648,3.648,0,0,0-3.663,3.663,3.679,3.679,0,0,0,3.663,3.7,3.711,3.711,0,0,0,3.7-3.7A3.7,3.7,0,0,0,169.275-30.71Zm-5.217,16.28c-.777,0-2.294,1.85-2.294,2.4,0,.333.37.629.629.814a36.272,36.272,0,0,1,5.513,5.661c.222.3.518.7.888.7.592,0,2.553-1.776,2.553-2.553,0-.7-2.664-3.293-3.256-3.885C167.388-11.951,164.909-14.43,164.058-14.43Zm-14.541,1.221A14.882,14.882,0,0,0,147-14.356c-.333,0-.555.481-.7.74a20.421,20.421,0,0,1-5.106,5.587c-.3.222-.851.555-.851.925,0,.7,2,2.479,2.627,2.479,1.073,0,5.55-5.217,6.4-6.253.518-.629.518-.666,1.147-.851.148-.074.407-.185.407-.37C150.923-12.506,149.85-13.024,149.517-13.209Zm-2.331-8.066c-1.517,0-3.737-.074-4.7-.074s-.925.592-.925,2.109c0,1.221,0,1.85.962,1.85,1.554,0,3.108-.074,4.662-.074h5.7a1.09,1.09,0,0,1,1.11,1.11v8.769c0,2.664.148,3.811-2.849,4.033-.444.037-1.295,0-1.295.592a6.786,6.786,0,0,0,.7,2c.481.925.74,1.295,1.332,1.295a11.441,11.441,0,0,0,4-1.073c2.072-1.036,2.072-2.775,2.072-4.773,0-.74-.037-1.443-.037-2.183v-8.658a1.113,1.113,0,0,1,1.11-1.11h5.735c1.591,0,3.182.074,4.773.074.962,0,1-.481,1-1.813,0-1.628.037-2.146-.925-2.146-1.628,0-3.256.074-4.847.074h-5.809c-.555,0-1.036-.333-1.036-1.221v-2c0-1.739.037-2,.518-2.479a.611.611,0,0,0,.3-.481c0-.407-.851-.444-1.7-.555-.7-.074-1.924-.3-2.553-.3-.37,0-.666.074-.666.518,0,.148.037.3.037.444a33.86,33.86,0,0,1,.148,4.329v.518c0,.666-.259,1.221-1.036,1.221ZM183-16.687c-1.554,0-4.107-.111-4.588-.111-.962,0-1.036.3-1.036,2.368,0,1.147.037,1.85,1,1.85,1.554,0,3.108-.074,4.625-.074h17.02c1.517,0,3.071.074,4.625.074.962,0,1-.7,1-1.887,0-2.035-.037-2.331-1.036-2.331-.481,0-2.886.111-4.588.111Zm53.5-8.732c-.3,0-.333.333-.37.592a28.74,28.74,0,0,1-1.7,6.586c-3.034,7.881-8.325,12.654-16.5,14.689-.444.111-1.554.222-1.554.851,0,.592,1.7,3.071,2.442,3.071a2.9,2.9,0,0,0,.814-.185A28.507,28.507,0,0,0,230.325-5.4c5.217-4.477,7.733-10.1,9.546-16.613a1.547,1.547,0,0,1,.7-.962c.148-.111.407-.259.407-.518,0-.407-.962-.7-1.406-.851A25.542,25.542,0,0,0,236.5-25.419ZM225-26.344c-.555,0-2.812,1.11-2.812,1.7a1.756,1.756,0,0,0,.407.777,47.794,47.794,0,0,1,3.33,5.624c.3.518.444.925.851.925.518,0,3-1.11,3-1.85,0-.555-1.7-3.182-2.072-3.774-.592-.962-1.221-1.924-1.924-2.849C225.589-26.048,225.367-26.344,225-26.344Zm-9.324,2.664c-.555,0-2.812,1.11-2.812,1.739a1.756,1.756,0,0,0,.407.777,46.106,46.106,0,0,1,3.367,5.7c.185.37.37.814.814.814.518,0,2.96-1.11,2.96-1.887,0-.518-1.665-3.108-2.035-3.7-.481-.74-1.517-2.4-2.035-3.034A.907.907,0,0,0,215.673-23.68Zm42.735,5.439a4.278,4.278,0,0,0-4.514,4.477,3.831,3.831,0,0,0,4.033,3.885,4.261,4.261,0,0,0,4.44-4.477A3.79,3.79,0,0,0,258.408-18.241Zm27.121-5a.66.66,0,0,1,.7.7v.185a.68.68,0,0,1-.7.7h-4.921a.68.68,0,0,1-.7-.7v-.185a.66.66,0,0,1,.7-.7Zm0-3.7a.68.68,0,0,1,.7.7v.148a.728.728,0,0,1-.7.7h-4.921a.728.728,0,0,1-.7-.7v-.148a.68.68,0,0,1,.7-.7ZM279.9-17.871c0-.7.3-1.036,1.036-1.036h4.144c.925,0,1.887.074,2.812.074,1.406,0,2-.407,2-1.85,0-1.11-.074-2.183-.074-3.256v-.666c0-1.11.074-2.183.074-3.293,0-1.443-.629-1.85-2-1.85-.962,0-1.887.074-2.812.074h-4.07c-.962,0-1.887-.074-2.849-.074-1.406,0-1.961.444-1.961,1.887,0,1.147.037,2.294.037,3.478V-4.292c0,1.813-.074,3.626-.074,5.439,0,1.147.37,1.221,1.924,1.221,1.517,0,1.924-.037,1.924-1.221,0-1.813-.111-3.626-.111-5.439Zm22.348-5.365a.66.66,0,0,1,.7.7v.185a.68.68,0,0,1-.7.7h-4.81a.68.68,0,0,1-.7-.7v-.185a.66.66,0,0,1,.7-.7Zm.7-2.849a.728.728,0,0,1-.7.7h-4.81a.728.728,0,0,1-.7-.7v-.148a.68.68,0,0,1,.7-.7h4.81a.68.68,0,0,1,.7.7ZM290.635-14.023c-.481,0-.629-.185-.851-.629-.407-.888-.925-1.739-1.406-2.59-.518-.925-.74-1.332-1.221-1.332-.518,0-2.553.7-2.553,1.332a23.592,23.592,0,0,0,1.48,2.368,1.176,1.176,0,0,1,.111.333c0,.333-.3.481-.592.481-.666.037-1.332-.037-2-.037-.814,0-.777.444-.777,1.406,0,.925-.037,1.443.74,1.443,1.036,0,2.109-.074,3.145-.074h1.813c.629,0,.888.259.888.888v.333c0,.629-.259.888-.925.888H286.01c-1.147,0-2.294-.074-3.441-.074-.777,0-.777.444-.777,1.443,0,.925-.037,1.443.74,1.443,1.184,0,2.331-.074,3.478-.074h1.443c.3.037.629.111.629.481a.665.665,0,0,1-.148.333A11.573,11.573,0,0,1,282.051-2c-.407.111-1.073.222-1.073.7,0,.592.888,2.331,2.072,2.331a3.4,3.4,0,0,0,1.184-.37,15.849,15.849,0,0,0,6.4-4.477.7.7,0,0,1,.555-.3.7.7,0,0,1,.592.333c1.554,2.072,5.18,4.7,6.179,4.7a1.668,1.668,0,0,0,.407-.111A.843.843,0,0,1,298.775.7c.333,0,.481.222.592.481.37,1.073.851,1.147,2.072,1.147,4.329,0,5.254-1.406,5.254-4.144,0-1.073-.074-2.109-.074-3.182V-24.383c0-1.184.037-2.331.037-3.478,0-1.48-.592-1.887-2-1.887-.925,0-1.85.074-2.812.074h-3.959c-.925,0-1.887-.074-2.812-.074-1.406,0-2,.407-2,1.887,0,1.073.074,2.146.074,3.256v.666c0,1.073-.074,2.146-.074,3.256,0,1.48.629,1.85,2.035,1.85.925,0,1.85-.074,2.775-.074h4.033c.74,0,1.036.333,1.036,1.036V-3.034c0,.851.148,1.887-1.554,1.887-.259,0-.666-.037-.925-.037-.222-.037-.3-.222-.407-.407a1.505,1.505,0,0,0-.74-.518A14.892,14.892,0,0,1,294.261-5.7a.665.665,0,0,1-.148-.333c0-.333.259-.407.555-.444h1.813c1.184,0,2.331.074,3.478.074.777,0,.74-.555.74-1.443,0-.925.074-1.443-.74-1.443-1.147,0-2.331.074-3.478.074h-2.59c-.7,0-1-.333-1-1.036v-.185c0-.629.259-.888.888-.888h2c1.036,0,2.072.074,3.145.074.777,0,.74-.518.74-1.406,0-.925.074-1.443-.777-1.443-.555,0-1.221.037-1.813.037-.259,0-.518-.111-.518-.407a.516.516,0,0,1,.111-.333c.333-.518.7-.925,1.036-1.406a.7.7,0,0,1,.555-.3c.259,0,.555,0,.555-.37,0-.444-1.369-.925-2.072-1.221a4.743,4.743,0,0,0-1.517-.481c-.259,0-.3.3-.407.518a23.861,23.861,0,0,1-1.924,3.219,1.518,1.518,0,0,1-1.554.814Zm41.662-10.8a1.265,1.265,0,0,1,1.406.888,16.611,16.611,0,0,1,.851,2.257c.111.407.222.7.666.7.555,0,2.775-.555,2.775-1.258a7.649,7.649,0,0,0-.629-1.665,1.081,1.081,0,0,1-.074-.333c0-.444.3-.555.7-.592h.481c1.258,0,2.516.074,3.737.074.888,0,.851-.407.851-1.628,0-1.258.037-1.665-.851-1.665-1.258,0-2.479.074-3.737.074H333.3c-.074,0-.592,0-.592-.481a.549.549,0,0,1,.037-.259.941.941,0,0,1,.666-.518c.185-.037.481-.148.481-.407,0-.444-.37-.481-1.628-.74-.407-.074-2.035-.407-2.331-.407-.37,0-.407.222-.518.518a29.2,29.2,0,0,1-3.589,6.808,2.927,2.927,0,0,0-.555.888c0,.74,2.109,1.628,2.738,1.628.666,0,1.369-1.369,2.4-3.071a1.346,1.346,0,0,1,1.48-.814ZM338.291-7.4c0,1.369,0,1.776-1.332,1.776-.592,0-1.369-.074-1.665-.074-.629,0-.666.407-.666,1.036,0,2.479.555,2.59,1.739,2.59,3.108,0,5.4-.259,5.4-3.7,0-.7-.074-1.369-.074-2.072v-8.51c0-.962.074-1.887.074-2.7,0-1.258-.888-1.443-1.961-1.443-.74,0-1.517.074-2.257.074h-3.885c-.777,0-1.554-.074-2.294-.074-1.11,0-1.924.222-1.924,1.48,0,.925.074,1.85.074,2.812v13.69c0,1.332-.111,2.664-.111,4,0,.925.333.962,1.85.962,1.443,0,1.813-.037,1.813-.925,0-1.332-.111-2.7-.111-4.033V-16.058c0-.74.333-1.036,1.036-1.036h3.256c.74,0,1.036.3,1.036,1.036Zm-20.9-8.288a.817.817,0,0,1-.888-.888v-.111a.835.835,0,0,1,.888-.888h4.366a.855.855,0,0,1,.888.888v.111a.835.835,0,0,1-.888.888Zm-.888,3.515a.835.835,0,0,1,.888-.888h4.366a.855.855,0,0,1,.888.888v.148a.826.826,0,0,1-.888.851h-4.366a.807.807,0,0,1-.888-.851ZM312.687,1.443q4.717-1,9.324-2.331a1.857,1.857,0,0,1,.444-.074,1.028,1.028,0,0,1,.962.592c.888,1.406,1.036,1.85,1.554,1.85.666,0,2.59-1,2.59-1.739,0-.481-1.924-3.219-2.294-3.774a36.462,36.462,0,0,0-2.479-3.293.867.867,0,0,0-.666-.407c-.592,0-2.738.925-2.738,1.591,0,.259.333.629.777,1.147.111.148.259.3.37.444a.586.586,0,0,1,.185.444c0,.333-.259.481-.518.592-.925.222-1.813.407-2.738.629H317.2c-.518,0-.7-.37-.7-.814V-7.215c0-.74.3-1.036,1.036-1.036h4.107c.629,0,.74.037.888.481.148.37.481.407,1.665.407,1.332,0,1.924.074,1.924-.925,0-.259-.074-2.183-.074-2.775V-16.28c0-.888.037-1.739.037-2.59,0-1.332-.592-1.7-1.85-1.7-.74,0-1.517.074-2.257.074h-4.921c-.777,0-1.554-.074-2.294-.074-1.295,0-1.85.407-1.85,1.739,0,.888.074,1.739.074,2.59V-2.96a1.066,1.066,0,0,1-.962,1.184l-.777.111c-.777.111-1.184.185-1.184.518a7.579,7.579,0,0,0,.592,1.665c.111.3.222.592.333.814.259.666.37,1,.7,1,.3,0,.407-.259.518-.481A.875.875,0,0,1,312.687,1.443Zm5.476-30.229a.958.958,0,0,1,.7-.592c.185-.037.481-.148.481-.407,0-.481-.444-.481-1.961-.777-.333-.074-1.776-.37-2-.37-.37,0-.407.222-.555.518a29.8,29.8,0,0,1-4.033,7.178c-.185.259-.444.518-.444.7,0,.7,2.22,1.517,2.849,1.517a1.055,1.055,0,0,0,.814-.481c.592-.814,1.147-1.7,1.665-2.553a1.4,1.4,0,0,1,1.369-.814,1.175,1.175,0,0,1,1.221.888c.3.777.481,1.406.629,1.85.259.814.333,1.11.777,1.11.629,0,2.849-.518,2.849-1.295a8.205,8.205,0,0,0-.592-1.665c0-.111-.037-.185-.037-.3,0-.444.333-.592.7-.592.962,0,1.887.074,2.849.074.888,0,.851-.481.851-1.665s.074-1.628-.851-1.628c-1,0-2.109.074-3.182.074h-3.552c-.333-.037-.629-.148-.629-.518A.686.686,0,0,1,318.163-28.786Zm48.174,12.691c.074-.74.148-1.406.185-2.146.074-.74.37-1.036,1.11-1.036h2.257c1.3,0,2.553.111,3.848.111.851,0,.851-.37.851-1.628,0-1.3,0-1.665-.851-1.665-1.295,0-2.553.111-3.848.111h-8.4c-.3-.037-.629-.148-.629-.518a.942.942,0,0,1,.074-.259c.148-.259.222-.259.518-.333.185-.074.481-.185.481-.407,0-.3-.592-.481-.814-.555-.555-.111-2.7-.777-3.071-.777-.407,0-.481.407-.592.7a25.2,25.2,0,0,1-3.4,6.475c-.111.185-.444.592-.444.777,0,.518,2.22,1.517,2.775,1.517.666,0,1.332-1.221,1.924-2.183.111-.185.222-.37.333-.518a1.467,1.467,0,0,1,1.517-.851H361.9c.7,0,.962.3,1,1-.074.74-.111,1.48-.185,2.22-.148.74-.518.925-1.184.925h-3.774c-1.295,0-2.59-.074-3.885-.074-.814,0-.814.37-.814,1.591s0,1.591.814,1.591c1.295,0,2.59-.074,3.885-.074h2.553c.259.037.592.111.592.481a.551.551,0,0,1-.148.333,16.013,16.013,0,0,1-7.659,5.032c-.333.111-.74.222-.74.629,0,.518,1.258,2.738,1.924,2.738,1.147,0,7.252-2.923,9.916-7.1a.793.793,0,0,1,.555-.333.591.591,0,0,1,.518.3c2.109,2.96,8.362,7.141,9.842,7.141.925,0,2-2.109,2-2.664,0-.407-.592-.592-1.221-.851a21.756,21.756,0,0,1-7.437-4.921.551.551,0,0,1-.148-.333c0-.333.222-.407.518-.444h3.515c1.3,0,2.59.074,3.885.074.814,0,.814-.37.814-1.591s0-1.591-.814-1.591c-1.295,0-2.59.074-3.885.074h-5.143c-.518,0-.888-.222-.888-.777A.334.334,0,0,1,366.337-16.095Zm5.994,17.242c1.443,0,2.886.111,4.329.111.888,0,.851-.407.851-1.739,0-1.369.074-1.813-.851-1.813-1.443,0-2.886.074-4.329.074h-20.5c-.7,0-1-.3-1-1V-24.494c0-.7.3-1.036,1-1.036h20.794c1.147,0,2.331.074,3.478.074.888,0,.888-.37.888-1.739,0-1.406,0-1.776-.888-1.776-1.147,0-2.331.074-3.478.074H351.833c-1.036,0-1.887-.074-2.553-.074-1.554,0-2.294.259-2.294,1.813,0,.962.074,1.961.074,2.96V-2.22c0,1.258-.111,2.516-.111,3.811,0,.925.481.888,2.109.888,1.147,0,1.628,0,1.776-.481.259-.555.37-.777.925-.851Zm24.087-4.81c0-.259-.3-.444-1.332-.851a10.26,10.26,0,0,0-2.035-.7c-.259,0-.407.259-.555.444A23.614,23.614,0,0,1,388.611-.74c-.37.333-.777.592-.777.925,0,.7,1.887,1.739,2.405,1.739.851,0,4.218-3.922,4.847-4.773.333-.444.407-.444.851-.481C396.159-3.33,396.418-3.4,396.418-3.663ZM412.291.481c0-.555-1.665-2.368-2.109-2.886-.592-.666-1.628-1.776-2.257-2.368a.968.968,0,0,0-.666-.333c-.407,0-2.368.851-2.368,1.517a1.031,1.031,0,0,0,.444.666A42.136,42.136,0,0,1,409.22,1.7a.8.8,0,0,0,.629.37C410.367,2.072,412.291,1.221,412.291.481ZM384.356-18.056a27.728,27.728,0,0,0-.962-3.367c-.592-1.85-.888-2.479-1.406-2.479-.37,0-2,.481-2,1.073a1.977,1.977,0,0,0,.185.666,28.488,28.488,0,0,1,1.258,3.922c.185.74.3,1.406.851,1.406C382.432-16.835,384.356-17.131,384.356-18.056Zm19.721,8.177a.728.728,0,0,1,.7.7v.3a.728.728,0,0,1-.7.7H396.9a.66.66,0,0,1-.7-.7v-.3a.66.66,0,0,1,.7-.7ZM396.9-12.136a.642.642,0,0,1-.7-.7v-.185a.642.642,0,0,1,.7-.7h7.178a.728.728,0,0,1,.7.7v.185a.68.68,0,0,1-.7.7Zm5.587-6.29c.259.444.592.888.888,1.3a.625.625,0,0,1,.111.37c0,.333-.259.407-.555.444h-4.7c-.3-.037-.518-.111-.518-.444a.516.516,0,0,1,.111-.333c.333-.444.7-.888,1-1.369a1.65,1.65,0,0,1,1.554-.74h.555A1.578,1.578,0,0,1,402.486-18.426Zm1.665,12.839c.777,0,1.554.074,2.294.074,1.073,0,1.591-.37,1.591-1.443,0-.592-.037-1.184-.037-1.776v-2.331c0-.259.111-.518.407-.518a.551.551,0,0,1,.333.148c.481.37,2.22,1.813,2.738,1.813a3.388,3.388,0,0,0,2.035-2.109c0-.333-.259-.518-.518-.666a23.645,23.645,0,0,1-2.738-1.85.824.824,0,0,1-.333-.629.753.753,0,0,1,.333-.592c.333-.3.7-.592,1.073-.888a.42.42,0,0,1,.3-.111c.074,0,.222.037.3.037a.721.721,0,0,0,.3.037.371.371,0,0,0,.37-.37A8,8,0,0,0,410-19.018a.632.632,0,0,0-.481.259,17.569,17.569,0,0,1-1.48,1.406c-.222.111-.37.259-.629.259a.889.889,0,0,1-.629-.333l-.962-1.073c-.037-.111-.111-.185-.111-.3,0-.3.222-.37.481-.407h1.443c1.48,0,2.96.111,4.44.111.925,0,.925-.333.925-1.517,0-1.11.037-1.48-.925-1.48-1.48,0-2.96.074-4.44.074h-5.735c-.3-.037-.592-.111-.592-.444a.6.6,0,0,1,.111-.333.88.88,0,0,1,.481-.333c.222-.037.592-.148.592-.444s-.666-.518-1.258-.666c-.074-.037-.407-.074-.407-.185s.074-.111.148-.148h6.623c1.48,0,2.96.111,4.292.111.851,0,.851-.481.851-1.7,0-1.295,0-1.7-.851-1.7-1.443,0-2.849.074-4.292.074h-6.808c-.666,0-1-.259-1-.962.037-.407.037-.629.37-.888.259-.185.481-.259.481-.481,0-.407-.629-.407-.925-.444-.518-.037-2.849-.259-3.256-.259-.333,0-.666.074-.666.481a.92.92,0,0,0,.037.3l.111,1.295c-.037.7-.333.962-1.036.962h-4.736c-1.184,0-2.368-.074-3.552-.074-1.332,0-2,.333-2,1.776,0,1.184.074,2.331.074,3.478v7.548a1.442,1.442,0,0,1-.777,1.48c-.851.518-1.7.962-2.59,1.406-.37.185-1.369.629-1.369.925a2.791,2.791,0,0,0,.3.888c.222.518.444,1,.592,1.369.37.925.555,1.406.925,1.406.3,0,.407-.259.444-.518.111-.444.111-.555.37-.74.333-.259.666-.518,1-.74a.445.445,0,0,1,.3-.074c.3,0,.407.222.37.481a24.793,24.793,0,0,1-3.256,8.547,2.4,2.4,0,0,0-.407.814c0,.777,2.035,2,2.7,2a.829.829,0,0,0,.7-.444,20.131,20.131,0,0,0,1.924-3.774c1.961-4.81,2.257-9.25,2.257-14.356v-7.141c0-.74.3-.962,1.036-1.036h8.325c.37.037.7.148.7.629a.815.815,0,0,1-.037.3,7.4,7.4,0,0,1-.37.777,1.3,1.3,0,0,1-1.443.851h-1.813c-1.48,0-2.96-.074-4.44-.074-.925,0-.925.3-.925,1.48s0,1.517.888,1.517c1.48,0,2.96-.111,4.4-.111.3.037.555.148.555.444a.551.551,0,0,1-.148.333c-.3.333-.555.7-.888,1.036a.968.968,0,0,1-.666.333,1.14,1.14,0,0,1-.74-.333c-.3-.3-1.443-1.443-1.776-1.443-.481,0-1.887,1.332-1.887,1.813,0,.259.3.518.851.962a8.613,8.613,0,0,1,.74.592.727.727,0,0,1,.333.629.8.8,0,0,1-.37.629c-.481.37-.851.629-1.184.888-.7.481-1.11.777-1.11,1.036a3.537,3.537,0,0,0,2.109,2.072c.481,0,1.517-.851,1.887-1.184a.516.516,0,0,1,.333-.111c.333,0,.407.222.444.518v2.257c0,.629-.037,1.184-.037,1.776,0,1.11.518,1.443,1.591,1.443.74,0,1.517-.074,2.257-.074h.925c.7,0,1.036.3,1.036,1.036V-3c0,1.554.037,1.961-1.517,1.961-.481,0-.962-.074-1.258-.074-.7,0-.74.666-.74,1.221a3.784,3.784,0,0,0,.555,2,3.141,3.141,0,0,0,1.554.259,7.173,7.173,0,0,0,4.107-1.036A2.729,2.729,0,0,0,402.3-.925c0-.814-.037-1.591-.037-2.368V-4.551c0-.74.3-1.036,1-1.036Zm26.307-25.086c-.37,0-.444.37-.518.777a20.3,20.3,0,0,1-2,4.773c-.333.444-1.332.481-2.294.481h-1.073c-1.073,0-2.035-.074-2.664-.074-.925,0-1.073.222-1.073,1.7,0,1.887.148,2.072.962,2.072,1.147,0,2-.111,2.59-.111.518,0,.814.111.814.444,0,.7-5.365,8.14-6.216,9.065-.185.222-.481.518-.481.814,0,.666,2.479,2.146,3.145,2.146a.615.615,0,0,0,.518-.37,24.254,24.254,0,0,1,3.108-4.329c1.443-1.48,4.847-3.256,6.919-3.256a1.539,1.539,0,0,1,1.628,1.258,5.081,5.081,0,0,1,.185,1.036c0,.444-.3.666-.666.851-.777.37-1.554.777-2.294,1.221-2.553,1.517-5.254,3.33-5.254,6.66a5.62,5.62,0,0,0,3.7,5.291,13.708,13.708,0,0,0,5.846.962,49.072,49.072,0,0,0,7.1-.481c.814-.185.851-.481.851-1.591,0-2.109-.259-2.516-.74-2.516a4.555,4.555,0,0,0-.74.074,27.053,27.053,0,0,1-6.882.925c-1.776,0-5.365-.222-5.365-2.7,0-2.294,3.811-3.922,4-3.922.37,0,.481.3.481.629,0,.777-.074,1.591-.074,2.4,0,.962.666,1.036,2.257,1.036,1.406,0,1.591-.148,1.591-1.48,0-1.147-.037-2.257-.037-3.4v-.481c0-.74.3-.962.962-1.221,1.443-.629,2.886-1.258,4.366-1.813.185-.074.37-.111.518-.185.7-.222,1.11-.37,1.11-.814,0-.629-.888-3.478-1.591-3.478a3.052,3.052,0,0,0-.962.37,32.935,32.935,0,0,1-4.329,2.109c-.37,0-.481-.3-.555-.629-.481-2.331-1.85-3.33-4.218-3.33a10.237,10.237,0,0,0-4.033.962,1.426,1.426,0,0,1-.666.222.286.286,0,0,1-.3-.259,11.947,11.947,0,0,1,1.258-2.146,1.3,1.3,0,0,1,1.11-.592c2.331-.259,4.662-.666,6.993-1.147.777-.148,1.961-.3,1.961-.925a11.824,11.824,0,0,0-.3-2c-.111-.518-.3-1.11-.925-1.11a2.814,2.814,0,0,0-.925.222,26.771,26.771,0,0,1-4.292,1.036.36.36,0,0,1-.407-.37,2.485,2.485,0,0,1,.37-.851c.481-.851.629-1.036,1.221-1.258.185-.074.444-.222.444-.444C434.6-28.971,430.791-30.673,430.458-30.673ZM459.8-8.1a.915.915,0,0,1,1-1h12.728a.981.981,0,0,1,1.036,1v3.33a1.059,1.059,0,0,1-1.036,1.036H460.8a.981.981,0,0,1-1-1.036Zm0-8.362a.981.981,0,0,1,1-1.036h12.728a1.059,1.059,0,0,1,1.036,1.036v2.849a1.059,1.059,0,0,1-1.036,1.036H460.8a.981.981,0,0,1-1-1.036Zm1-4.514c-.629-.074-1-.37-1-1.036v-2.664a.981.981,0,0,1,1-1.036h12.728a1.059,1.059,0,0,1,1.036,1.036v2.664a1.034,1.034,0,0,1-1.036,1.036ZM474.488,1.48c0,.851.518.925,1.406.925h.666c1.628,0,2.109.074,2.109-1.073,0-1.443-.074-2.923-.074-4.366V-23.976c0-1.184.074-2.368.074-3.552,0-1.443-.592-1.887-2-1.887-1.073,0-2.146.074-3.219.074H460.909c-1.11,0-2.183-.074-3.256-.074-1.332,0-1.961.444-1.961,1.85,0,1.184.074,2.405.074,3.589V-3.108c0,1.48-.111,2.96-.111,4.4,0,1.11.555,1.073,2.109,1.073,1.628,0,2.109.037,2.109-1.073V.925c0-.666.333-.962,1-.962h12.617a.869.869,0,0,1,1,1Zm29.97-6.031a1.059,1.059,0,0,1,1.036-1.036h6.623a1.034,1.034,0,0,1,1.036,1.036v.666a1.034,1.034,0,0,1-1.036,1.036h-6.623a1.059,1.059,0,0,1-1.036-1.036Zm1.036-3.959a1.059,1.059,0,0,1-1.036-1.036V-9.99a1.059,1.059,0,0,1,1.036-1.036h6.623a1.034,1.034,0,0,1,1.036,1.036v.444a1.034,1.034,0,0,1-1.036,1.036Zm7.622,9.731a1.141,1.141,0,0,0-.037.37c0,.851.444.851,1.887.851,1.406,0,1.85,0,1.85-.888s-.074-1.813-.074-2.738v-9.139c0-.851.074-1.7.074-2.553,0-1.258-.555-1.48-1.813-1.48-.592,0-1.332.074-2.22.074h-7.955c-.888,0-1.628-.074-2.183-.074-1.258,0-1.813.222-1.813,1.443,0,.851.037,1.739.037,2.59v9.028c0,.888-.074,1.887-.074,2.775s.481.851,1.813.851c1.3,0,1.924.074,1.924-.814V1.184c0-.592.3-.814.851-.814h6.882C512.857.37,513.079.629,513.116,1.221Zm-9.139-28.749c.037-.555.037-1.406.481-1.739.259-.185.444-.3.444-.555,0-.444-.666-.444-1-.481-.74-.037-2.331-.185-3-.185-.37,0-.629.074-.629.518v.37a28.443,28.443,0,0,1,.148,3.071v4.181c0,.777-.074,1.554-.074,2.331,0,3,2.294,3,4.625,3h8.51c2.109,0,3.108-.037,4.181-2.072a10.961,10.961,0,0,0,1.073-3.552c0-1.036-2.183-1.3-2.627-1.3-.7,0-.74.444-.851,1.036-.481,2.627-1.369,2.553-2.627,2.553h-6.956c-1.258,0-1.7-.074-1.7-1.48v-.74a1.012,1.012,0,0,1,.962-1.184,54.017,54.017,0,0,0,9.953-2.627,1.311,1.311,0,0,1,.407-.111,1.459,1.459,0,0,1,.518.185,1.206,1.206,0,0,0,.481.148.381.381,0,0,0,.407-.37,7.44,7.44,0,0,0-1.036-2.109c-.592-.925-.888-1.406-1.184-1.406-.185,0-.407.185-.555.259a44.75,44.75,0,0,1-8.954,3.034.815.815,0,0,1-.3.037C504.2-26.714,504.014-27.084,503.977-27.528Zm-8.436,6.808c.629,0,1.924.074,2.4.074.925,0,.851-.555.851-1.776,0-1.258.074-1.776-.851-1.776-.666,0-1.665.111-2.4.074-.7,0-1-.3-1-1.036v-2.59c0-1.036.037-1.554.407-1.776.222-.148.481-.259.481-.592,0-.444-.629-.481-.925-.481-.666-.037-2.479-.185-3.071-.185-.37,0-.74.037-.74.518,0,.111.037.259.037.333q.111,1.221.111,2.442v2.331c0,.74-.3,1.036-1,1.036-.962.037-1.887-.074-2.775-.074-.925,0-.888.444-.888,1.776,0,1.3-.037,1.776.888,1.776.74,0,1.813-.111,2.775-.074.7,0,1,.3,1,1.036v5.069a1.145,1.145,0,0,1-.888,1.3q-1.943.5-2.886.666c-1.221.259-1.517.333-1.517.814,0,.3.7,2.849.851,3.33.074.333.185.74.592.74.3,0,.444-.259.518-.518.148-.481.222-.555.74-.74.333-.111.851-.3,1.665-.555a.815.815,0,0,1,.3-.037c.481,0,.629.333.629.74V-4c0,1.924.037,2.294-1.517,2.294-.407,0-.777,0-1.147-.037a2.621,2.621,0,0,0-.518-.037c-.629,0-.74.407-.74.925A5.6,5.6,0,0,0,487.4,1.48c.37.629,1.3.629,1.961.629,2.738,0,5.217-.481,5.217-3.811,0-.777-.037-1.554-.037-2.331v-6.179a1.223,1.223,0,0,1,.888-1.369c3.33-1.332,3.515-1.369,3.515-2.627,0-.518-.037-2-.777-2a23.961,23.961,0,0,0-2.7,1.073c-.111,0-.185.037-.3.037-.481,0-.592-.333-.629-.74v-3.848C494.542-20.424,494.838-20.683,495.541-20.72Zm34.521-7.289c-.518,0-.555.37-.555.925v.407c0,1.517-.333,5.069-.444,6.771q-.333,4.385-.333,8.769c0,2.7.185,6.29,1.85,8.51A8.176,8.176,0,0,0,537.092.222,12.953,12.953,0,0,0,548.34-6.845a13.756,13.756,0,0,0,1.517-4.329c0-1.11-2.257-3-3.071-3-.555,0-.629.629-.74,1.221a11.764,11.764,0,0,1-2.257,5.476,9.372,9.372,0,0,1-6.956,3.589c-4,0-3.922-4.477-3.922-7.363,0-2.109.333-13.838,1.628-14.8.222-.185.444-.3.444-.555,0-.333-.481-.481-.74-.518A31.387,31.387,0,0,0,530.062-28.009ZM557.7-23.162c0,.37.333,3.885,1.221,3.885a2.856,2.856,0,0,0,.555-.074,74.122,74.122,0,0,1,8.177-1.517c.407-.074,2.072-.333,2.368-.333.222,0,.555.148.555.444,0,.222-.481.7-.666.888a16.433,16.433,0,0,0-4.07,10.619c0,7.215,5.4,9.213,11.692,9.213.407,0,.814,0,1.073-.37a8.864,8.864,0,0,0,.666-3.293c0-.592-.3-.629-.851-.629-.37,0-1.184.037-1.85.037-3.737,0-6.512-1.036-6.512-5.328a13.853,13.853,0,0,1,1.776-6.512,11.2,11.2,0,0,1,6.327-5.513,18.093,18.093,0,0,1,6.142-.777c.851-.037,1.628.037,1.628-.777a22.32,22.32,0,0,0-.3-2.7c-.111-.444-.185-.925-.74-.925a1.8,1.8,0,0,0-.444.037c-2.775.444-5.624.814-8.4,1.147-5.4.629-10.8,1.184-16.206,1.517C558.219-24.013,557.7-24.124,557.7-23.162Z" transform="translate(830 386.373)" fill="#fff"/>
    <path id="パス_6170" data-name="パス 6170" d="M18.5-4.07c0,.592-.3,1.258-1,1.258-1.11,0-2.886-.629-2.886-1.961a1.532,1.532,0,0,1,1.591-1.48A2.261,2.261,0,0,1,18.5-4.07Zm3.441-23.976a5.048,5.048,0,0,0-1.406.407c-2.146.851-6.993,1.369-9.361,1.369h-.888c-1.11,0-1.147.074-1.147.925,0,.629.111,3.4.925,3.4.592,0,5.809-1.073,6.7-1.3a8.877,8.877,0,0,1,.888-.148c.3,0,.629.111.629.444,0,.37-.666,1.036-.962,1.332A148.263,148.263,0,0,1,5.809-9.99c-.333.259-.888.666-.888,1.11,0,.592,1.887,2.664,2.664,2.664a.5.5,0,0,0,.407-.259c1.332-1.517,2.664-3.034,4.107-4.44a11.232,11.232,0,0,1,8.288-3.626c3.219,0,6.253,1.48,6.253,5.069a6.014,6.014,0,0,1-4.477,5.7c-.3,0-.407-.222-.444-.481a3.679,3.679,0,0,0-.666-2.368A6.035,6.035,0,0,0,16.132-9.25,4.646,4.646,0,0,0,11.4-4.773C11.4-1,15.762.259,18.833.259,24.79.259,30.6-3.145,30.6-9.694a7.647,7.647,0,0,0-4.4-7.178,10.851,10.851,0,0,0-4.551-1.11,7.03,7.03,0,0,0-1.517.148,2.166,2.166,0,0,1-.481.074c-.333,0-.629-.185-.629-.481a1.106,1.106,0,0,1,.37-.629,35.831,35.831,0,0,1,5.365-4.958c.407-.3.814-.518.814-.777C25.567-25.234,23.421-28.046,21.941-28.046Z" transform="translate(883 386.592)" fill="#fff"/>
  </g>
</svg>
